ply
format ascii 1.0
comment VCGLIB generated
element vertex 99
property float x
property float y
property float z
property uchar red
property uchar green
property uchar blue
property uchar alpha
element face 160
property list uchar int vertex_indices
end_header
-7.87848 -14.81462 6.183948 255 255 255 255 
-7.87848 -13.53351 5.852901 255 255 255 255 
-6.89367 -13.48342 5.781065 255 255 255 255 
-5.90886 -14.81462 6.183948 255 255 255 255 
-4.92405 -13.40471 5.668178 255 255 255 255 
-3.93924 -14.81462 6.183948 255 255 255 255 
-2.95443 -13.35462 5.59634 255 255 255 255 
-1.96962 -14.81462 6.183948 255 255 255 255 
-0.98481 -13.33316 5.565553 255 255 255 255 
0 -14.81462 6.183948 255 255 255 255 
0.98481 -13.34031 5.575815 255 255 255 255 
1.96962 -14.81462 6.183948 255 255 255 255 
2.95443 -13.37609 5.627128 255 255 255 255 
3.93924 -14.81462 6.183948 255 255 255 255 
4.92405 -13.44049 5.71949 255 255 255 255 
5.90886 -14.81462 6.183948 255 255 255 255 
6.89367 -13.53351 5.852901 255 255 255 255 
6.89367 -14.81462 6.183948 255 255 255 255 
-7.87848 -12.25239 5.521855 255 255 255 255 
-5.90886 -12.06635 5.255032 255 255 255 255 
-3.93924 -11.93756 5.070308 255 255 255 255 
-1.96962 -11.866 4.967683 255 255 255 255 
0 -11.85169 4.947158 255 255 255 255 
1.96962 -11.89463 5.008733 255 255 255 255 
3.93924 -11.9948 5.152407 255 255 255 255 
5.90886 -12.15222 5.378181 255 255 255 255 
6.89367 -12.25239 5.521855 255 255 255 255 
-7.87848 -10.97128 5.190809 255 255 255 255 
-6.89367 -10.82102 4.975298 255 255 255 255 
-4.92405 -10.58489 4.636637 255 255 255 255 
-2.95443 -10.43463 4.421125 255 255 255 255 
-0.98481 -10.37023 4.328763 255 255 255 255 
0.98481 -10.3917 4.359551 255 255 255 255 
2.95443 -10.49903 4.513487 255 255 255 255 
4.92405 -10.69222 4.790574 255 255 255 255 
6.89367 -10.97128 5.190809 255 255 255 255 
-7.87848 -9.69017 4.859763 255 255 255 255 
-5.90886 -9.318092 4.326116 255 255 255 255 
-3.93924 -9.060499 3.956667 255 255 255 255 
-1.96962 -8.917392 3.751418 255 255 255 255 
0 -8.88877 3.710369 255 255 255 255 
1.96962 -8.974634 3.833518 255 255 255 255 
3.93924 -9.174985 4.120867 255 255 255 255 
5.90886 -9.48982 4.572414 255 255 255 255 
6.89367 -9.69017 4.859763 255 255 255 255 
-7.87848 -8.40906 4.528717 255 255 255 255 
-6.89367 -8.158622 4.169531 255 255 255 255 
-4.92405 -7.765077 3.605096 255 255 255 255 
-2.95443 -7.514639 3.245911 255 255 255 255 
-0.98481 -7.407309 3.091974 255 255 255 255 
0.98481 -7.443085 3.143286 255 255 255 255 
2.95443 -7.621969 3.399848 255 255 255 255 
4.92405 -7.943961 3.861658 255 255 255 255 
6.89367 -8.40906 4.528717 255 255 255 255 
-7.87848 -7.127947 4.197671 255 255 255 255 
-5.90886 -6.569829 3.3972 255 255 255 255 
-3.93924 -6.18344 2.843027 255 255 255 255 
-1.96962 -5.968779 2.535154 255 255 255 255 
0 -5.925847 2.473579 255 255 255 255 
1.96962 -6.054643 2.658303 255 255 255 255 
3.93924 -6.355168 3.089326 255 255 255 255 
5.90886 -6.827422 3.766648 255 255 255 255 
6.89367 -7.127947 4.197671 255 255 255 255 
-7.87848 -5.846836 3.866625 255 255 255 255 
-6.89367 -5.496223 3.363765 255 255 255 255 
-4.92405 -4.945261 2.573556 255 255 255 255 
-2.95443 -4.594648 2.070696 255 255 255 255 
-0.98481 -4.444385 1.855184 255 255 255 255 
0.98481 -4.494473 1.927022 255 255 255 255 
2.95443 -4.74491 2.286207 255 255 255 255 
4.92405 -5.195698 2.932742 255 255 255 255 
6.89367 -5.846836 3.866625 255 255 255 255 
-7.87848 -4.565724 3.535579 255 255 255 255 
-5.90886 -3.821567 2.468284 255 255 255 255 
-3.93924 -3.306381 1.729387 255 255 255 255 
-1.96962 -3.020166 1.318889 255 255 255 255 
0 -2.962924 1.23679 255 255 255 255 
1.96962 -3.134652 1.483088 255 255 255 255 
3.93924 -3.535352 2.057786 255 255 255 255 
5.90886 -4.165024 2.960881 255 255 255 255 
6.89367 -4.565724 3.535579 255 255 255 255 
-7.87848 -3.284613 3.204533 255 255 255 255 
-6.89367 -2.833825 2.557998 255 255 255 255 
-4.92405 -2.125444 1.542015 255 255 255 255 
-2.95443 -1.674657 0.8954809 255 255 255 255 
-0.98481 -1.481462 0.6183948 255 255 255 255 
0.98481 -1.54586 0.7107568 255 255 255 255 
2.95443 -1.867851 1.172567 255 255 255 255 
4.92405 -2.447435 2.003826 255 255 255 255 
6.89367 -3.284613 3.204533 255 255 255 255 
-7.87848 -2.003501 2.873486 255 0 0 255 
-5.90886 -1.073304 1.539368 255 0 0 255 
-3.93924 -0.4293216 0.6157471 255 0 0 255 
-1.96962 -0.07155361 0.1026245 255 0 0 255 
0 0 0 255 0 0 255 
1.96962 -0.2146608 0.3078735 255 0 0 255 
3.93924 -0.7155361 1.026245 255 0 0 255 
5.90886 -1.502626 2.155115 255 0 0 255 
6.89367 -2.003501 2.873486 255 0 0 255 
3 1 0 2 
3 3 2 0 
3 2 3 4 
3 5 4 3 
3 4 5 6 
3 7 6 5 
3 6 7 8 
3 9 8 7 
3 8 9 10 
3 11 10 9 
3 10 11 12 
3 13 12 11 
3 12 13 14 
3 15 14 13 
3 14 15 16 
3 17 16 15 
3 2 18 1 
3 18 2 19 
3 4 19 2 
3 19 4 20 
3 6 20 4 
3 20 6 21 
3 8 21 6 
3 21 8 22 
3 10 22 8 
3 22 10 23 
3 12 23 10 
3 23 12 24 
3 14 24 12 
3 24 14 25 
3 16 25 14 
3 25 16 26 
3 27 18 28 
3 19 28 18 
3 28 19 29 
3 20 29 19 
3 29 20 30 
3 21 30 20 
3 30 21 31 
3 22 31 21 
3 31 22 32 
3 23 32 22 
3 32 23 33 
3 24 33 23 
3 33 24 34 
3 25 34 24 
3 34 25 35 
3 26 35 25 
3 28 36 27 
3 36 28 37 
3 29 37 28 
3 37 29 38 
3 30 38 29 
3 38 30 39 
3 31 39 30 
3 39 31 40 
3 32 40 31 
3 40 32 41 
3 33 41 32 
3 41 33 42 
3 34 42 33 
3 42 34 43 
3 35 43 34 
3 43 35 44 
3 45 36 46 
3 37 46 36 
3 46 37 47 
3 38 47 37 
3 47 38 48 
3 39 48 38 
3 48 39 49 
3 40 49 39 
3 49 40 50 
3 41 50 40 
3 50 41 51 
3 42 51 41 
3 51 42 52 
3 43 52 42 
3 52 43 53 
3 44 53 43 
3 46 54 45 
3 54 46 55 
3 47 55 46 
3 55 47 56 
3 48 56 47 
3 56 48 57 
3 49 57 48 
3 57 49 58 
3 50 58 49 
3 58 50 59 
3 51 59 50 
3 59 51 60 
3 52 60 51 
3 60 52 61 
3 53 61 52 
3 61 53 62 
3 63 54 64 
3 55 64 54 
3 64 55 65 
3 56 65 55 
3 65 56 66 
3 57 66 56 
3 66 57 67 
3 58 67 57 
3 67 58 68 
3 59 68 58 
3 68 59 69 
3 60 69 59 
3 69 60 70 
3 61 70 60 
3 70 61 71 
3 62 71 61 
3 64 72 63 
3 72 64 73 
3 65 73 64 
3 73 65 74 
3 66 74 65 
3 74 66 75 
3 67 75 66 
3 75 67 76 
3 68 76 67 
3 76 68 77 
3 69 77 68 
3 77 69 78 
3 70 78 69 
3 78 70 79 
3 71 79 70 
3 79 71 80 
3 81 72 82 
3 73 82 72 
3 82 73 83 
3 74 83 73 
3 83 74 84 
3 75 84 74 
3 84 75 85 
3 76 85 75 
3 85 76 86 
3 77 86 76 
3 86 77 87 
3 78 87 77 
3 87 78 88 
3 79 88 78 
3 88 79 89 
3 80 89 79 
3 82 90 81 
3 90 82 91 
3 83 91 82 
3 91 83 92 
3 84 92 83 
3 92 84 93 
3 85 93 84 
3 93 85 94 
3 86 94 85 
3 94 86 95 
3 87 95 86 
3 95 87 96 
3 88 96 87 
3 96 88 97 
3 89 97 88 
3 97 89 98 
