ply
format ascii 1.0
comment VCGLIB generated
element vertex 284
property float x
property float y
property float z
property uchar red
property uchar green
property uchar blue
property uchar alpha
element face 520
property list uchar int vertex_indices
end_header
-0.09619522 6.789658 0 255 0 0 255 
-0.04340363 3.599823 0 255 0 0 255 
-0.04222488 9.666164 0 255 0 0 255 
0 0 0 255 0 0 255 
0.2346458 12.326 0 255 0 0 255 
0.8505669 14.86581 0 255 0 0 255 
1.544823 8.27356 2.885624 255 255 255 255 
1.550587 5.247257 2.94614 255 255 255 255 
1.598534 1.859604 2.958807 255 255 255 255 
1.67514 11.03537 2.740126 255 255 255 255 
1.860981 17.36491 0 255 0 0 255 
2.035446 13.62955 2.472516 255 255 255 255 
2.713463 16.15084 2.050957 255 255 255 255 
3.078579 19.83311 0 255 0 0 255 
3.162132 6.809856 5.18434 255 255 255 255 
3.189415 3.609543 5.222399 255 255 255 255 
3.208752 9.698349 5.038819 255 255 255 255 
3.215832 0 5.221909 255 255 255 255 
3.404022 12.37244 4.716919 255 255 255 255 
3.654762 18.64521 1.565434 255 255 255 255 
3.822712 14.92955 4.149723 255 255 255 255 
4.255348 22.26287 0 255 0 0 255 
4.499828 17.45127 3.341236 255 255 255 255 
4.662769 21.10985 1.227745 255 255 255 255 
4.783195 5.262417 6.866447 255 255 255 255 
4.787323 8.301102 6.791982 255 255 255 255 
4.81089 1.864429 6.863165 255 255 255 255 
4.881618 11.07871 6.543914 255 255 255 255 
5.124428 13.69348 6.026388 255 255 255 255 
5.143284 24.64666 0 255 0 0 255 
5.311424 19.95597 2.587139 255 255 255 255 
5.494377 26.97691 0 255 0 0 255 
5.534714 23.53983 1.254985 255 255 255 255 
5.570168 16.24188 5.155182 255 255 255 255 
6.067844 25.93022 1.864251 255 255 255 255 
6.093807 22.44619 2.256034 255 255 255 255 
6.182911 18.7802 4.113599 255 255 255 255 
6.380184 6.831444 7.970388 255 255 255 255 
6.394394 3.619438 7.964281 255 255 255 255 
6.414677 0 7.953037 255 255 255 255 
6.416336 9.735237 7.852912 255 255 255 255 
6.547161 12.43003 7.493405 255 255 255 255 
6.683277 24.92447 2.716523 255 255 255 255 
6.816956 15.01505 6.773417 255 255 255 255 
6.836403 21.32455 3.352468 255 255 255 255 
6.916145 27.39338 4.337208 255 255 255 255 
7.245697 17.57795 5.678678 255 255 255 255 
7.400444 23.88924 3.334248 255 255 255 255 
7.74485 26.48864 4.521401 255 255 255 255 
7.756077 20.1602 4.611625 255 255 255 255 
7.970127 5.277966 8.606673 255 255 255 255 
7.974155 8.330452 8.617771 255 255 255 255 
7.99192 1.86927 8.560453 255 255 255 255 
8.03627 11.12701 8.45655 255 255 255 255 
8.188732 13.76794 7.985811 255 255 255 255 
8.24646 22.79174 4.078875 255 255 255 255 
8.461525 16.35244 7.08182 255 255 255 255 
8.615223 25.50247 4.587043 255 255 255 255 
8.760727 27.89152 6.293766 255 255 255 255 
8.832085 18.95504 5.930482 255 255 255 255 
9.225292 21.62555 5.027345 255 255 255 255 
9.534897 6.853489 8.873775 255 255 255 255 
9.550312 3.629387 8.783569 255 255 255 255 
9.555172 9.773659 8.895363 255 255 255 255 
9.563751 24.41269 4.881418 255 255 255 255 
9.579544 0 8.777349 255 255 255 255 
9.633015 12.49126 8.695728 255 255 255 255 
9.770069 27.07165 6.001711 255 255 255 255 
9.790302 15.10766 8.122268 255 255 255 255 
10.03578 17.71902 7.127409 255 255 255 255 
10.3257 20.40078 6.083706 255 255 255 255 
10.6032 23.22317 5.468744 255 255 255 255 
10.81141 26.25645 5.76011 255 255 255 255 
11.80375 29.14898 7.264601 255 255 255 255 
11.08135 8.359776 8.850132 255 255 255 255 
11.08912 5.29351 8.705878 255 255 255 255 
11.11149 11.17524 8.890994 255 255 255 255 
11.12204 1.874107 8.6234 255 255 255 255 
11.1923 13.84225 8.663297 255 255 255 255 
11.33547 16.46296 8.014069 255 255 255 255 
11.52768 19.1355 7.070869 255 255 255 255 
11.73056 21.95396 6.241789 255 255 255 255 
11.90471 25.01223 5.947115 255 255 255 255 
12.01067 28.40422 6.607135 255 255 255 255 
12.59989 9.810459 8.619253 255 255 255 255 
12.60322 6.87505 8.410134 255 255 255 255 
12.63054 12.54865 8.69016 255 255 255 255 
12.63593 3.639278 8.238192 255 255 255 255 
12.69344 0 8.278816 255 255 255 255 
12.69975 15.19275 8.447463 255 255 255 255 
12.80727 17.84858 7.802514 255 255 255 255 
12.93348 20.63266 7.013628 255 255 255 255 
13.05391 23.66416 6.425863 255 255 255 255 
13.14411 27.06225 6.384274 255 255 255 255 
13.85943 30.3856 7.083441 255 255 255 255 
14.07967 11.21838 8.260208 255 255 255 255 
14.08494 8.387241 7.976205 255 255 255 255 
14.09907 13.90573 8.371359 255 255 255 255 
14.11792 5.308655 7.703122 255 255 255 255 
14.13994 16.55386 8.135127 255 255 255 255 
14.18164 1.878933 7.62473 255 255 255 255 
14.19509 19.28736 7.589546 255 255 255 255 
14.25335 22.25088 6.985211 255 255 255 255 
14.30337 25.58995 6.581959 255 255 255 255 
14.89727 29.04038 6.549067 255 255 255 255 
15.93199 31.56276 6.474864 255 255 255 255 
15.48563 27.7957 6.608083 255 255 255 255 
15.48848 24.03835 6.950452 255 255 255 255 
15.49258 20.81082 7.411641 255 255 255 255 
15.49736 17.94072 7.819077 255 255 255 255 
15.50231 15.25566 8.000189 255 255 255 255 
15.50869 12.59467 7.84297 255 255 255 255 
15.52514 9.842468 7.477668 255 255 255 255 
15.5621 6.895195 7.095097 255 255 255 255 
15.63003 3.648991 6.886071 255 255 255 255 
15.7394 0 7.041403 255 255 255 255 
16.94098 29.84699 6.334625 255 255 255 255 
16.63981 26.04792 6.836569 255 255 255 255 
16.69477 22.45742 7.247023 255 255 255 255 
16.75973 19.37638 7.541299 255 255 255 255 
16.82286 16.60556 7.628194 255 255 255 255 
16.87299 13.94771 7.422509 255 255 255 255 
16.91322 11.25139 6.977151 255 255 255 255 
16.96096 8.411022 6.48313 255 255 255 255 
17.03426 5.322998 6.137465 255 255 255 255 
17.15115 1.883728 6.137171 255 255 255 255 
17.90033 32.50701 5.905345 255 255 255 255 
17.93148 28.03557 6.495531 255 255 255 255 
17.79679 24.26939 7.042735 255 255 255 255 
17.91617 20.89021 7.287991 255 255 255 255 
18.04326 17.96951 7.292182 255 255 255 255 
18.15497 15.28175 7.031634 255 255 255 255 
18.23642 12.62184 6.520429 255 255 255 255 
18.30553 9.866524 5.923689 255 255 255 255 
18.38848 6.912983 5.444295 255 255 255 255 
18.51138 3.658409 5.285131 255 255 255 255 
18.82002 30.37983 6.148038 255 255 255 255 
18.7004 0 5.649076 255 255 255 255 
18.7941 26.28822 6.761566 255 255 255 255 
18.95596 22.51468 7.016636 255 255 255 255 
19.14699 19.36836 6.980914 255 255 255 255 
19.33218 16.59851 6.676469 255 255 255 255 
19.47801 13.9575 6.129262 255 255 255 255 
19.58453 11.26926 5.454782 255 255 255 255 
19.64882 33.04947 5.822416 255 255 255 255 
19.68544 8.429283 4.858047 255 255 255 255 
19.71354 28.23346 6.37288 255 255 255 255 
19.81588 5.336155 4.547966 255 255 255 255 
19.87403 24.28382 6.705685 255 255 255 255 
20.01097 1.888481 4.733449 255 255 255 255 
20.12194 20.8278 6.657645 255 255 255 255 
20.38585 17.91033 6.339716 255 255 255 255 
20.4584 30.53093 6.174633 255 255 255 255 
20.61776 15.25712 5.792048 255 255 255 255 
20.6912 26.23982 6.404945 255 255 255 255 
20.78523 12.62305 5.084024 255 255 255 255 
20.91792 9.879623 4.401975 255 255 255 255 
20.97736 22.38313 6.318271 255 255 255 255 
21.061 6.927525 3.961468 255 255 255 255 
21.25967 3.667423 3.978071 255 255 255 255 
21.31508 19.2421 5.996117 255 255 255 255 
21.18803 33.12534 6.237923 255 255 255 255 
21.29098 28.11866 6.175103 255 255 255 255 
21.55911 0 4.667348 255 255 255 255 
21.64249 16.52114 5.471407 255 255 255 255 
21.73699 24.07423 6.005633 255 255 255 255 
21.90016 13.92884 4.781033 255 255 255 255 
22.08499 11.26904 4.053048 255 255 255 255 
22.13136 20.62667 5.644122 255 255 255 255 
21.95393 30.32016 6.255002 255 255 255 255 
22.25019 8.440948 3.506671 255 255 255 255 
22.43576 25.93926 5.80421 255 255 255 255 
22.45142 5.347885 3.365086 255 255 255 255 
22.55116 17.76834 5.144023 255 255 255 255 
22.74433 1.893177 3.851475 255 255 255 255 
22.85669 22.10064 5.315388 255 255 255 255 
22.92008 15.18522 4.510164 255 255 255 255 
22.65468 32.77394 6.728029 255 255 255 255 
22.79709 27.74376 5.817962 255 255 255 255 
23.18546 12.60005 3.785241 255 255 255 255 
23.35347 19.02854 4.806394 255 255 255 255 
23.38938 9.882511 3.163433 255 255 255 255 
23.52414 23.69927 5.072267 255 255 255 255 
23.59758 6.939037 2.876795 255 255 255 255 
23.83507 16.39399 4.2375 255 255 255 255 
23.44785 29.79937 6.143552 255 255 255 255 
23.87579 3.67606 3.157379 255 255 255 255 
24.06966 20.33601 4.47949 255 255 255 255 
24.17731 25.44997 4.994242 255 255 255 255 
24.21395 13.873 3.574854 255 255 255 255 
24.28978 0 4.237236 255 255 255 255 
24.4819 11.25604 2.919827 255 255 255 255 
24.65039 17.57847 3.951906 255 255 255 255 
24.191 32.03913 6.849954 255 255 255 255 
24.71011 8.447956 2.509011 255 255 255 255 
24.73098 21.72445 4.206253 255 255 255 255 
24.37046 27.1648 5.212589 255 255 255 255 
24.97319 5.358608 2.584875 255 255 255 255 
25.16072 15.08683 3.393198 255 255 255 255 
25.34577 1.897839 3.389891 255 255 255 255 
25.37919 23.22046 4.038024 255 255 255 255 
25.3844 18.77165 3.664173 255 255 255 255 
25.52625 12.56349 2.76556 255 255 255 255 
25.08143 29.02042 5.594692 255 255 255 255 
25.79729 9.879681 2.265215 255 255 255 255 
26.01788 16.24557 3.207494 255 255 255 255 
26.05532 6.94886 2.146896 255 255 255 255 
26.06538 24.83537 4.009921 255 255 255 255 
26.06662 20.00697 3.40054 255 255 255 255 
26.38181 3.684479 2.665335 255 255 255 255 
26.51596 13.80571 2.684661 255 255 255 255 
25.9392 30.96473 6.160917 255 255 255 255 
26.73724 21.3118 3.189136 255 255 255 255 
26.7984 17.37693 3.012969 255 255 255 255 
26.84782 26.55574 4.10515 255 255 255 255 
26.85825 0 4.075263 255 255 255 255 
26.86155 11.23764 2.149987 255 255 255 255 
27.13586 8.452999 1.863651 255 255 255 255 
27.4244 5.368904 2.094787 255 255 255 255 
27.44148 14.98348 2.64743 255 255 255 255 
27.44589 22.69931 3.035345 255 255 255 255 
27.53015 18.51541 2.821879 255 255 255 255 
27.43967 28.03514 4.36283 255 255 255 255 
27.81265 1.902485 3.112525 255 255 255 255 
27.89929 12.52439 2.161682 255 255 255 255 
28.2212 9.875774 1.75605 255 255 255 255 
28.24953 24.15891 2.886126 255 255 255 255 
28.25198 19.69077 2.644061 255 255 255 255 
28.29885 16.10443 2.614139 255 255 255 255 
28.49306 6.958363 1.716499 255 255 255 255 
28.80072 3.692863 2.328992 255 255 255 255 
28.9028 13.74265 2.28439 255 255 255 255 
28.04149 29.59462 4.218138 255 255 255 255 
29.01251 20.91993 2.462304 255 255 255 255 
29.11008 17.19995 2.576818 255 255 255 255 
29.20947 25.64505 2.583265 255 255 255 255 
29.23002 0 3.879496 255 255 255 255 
29.31023 11.22123 1.838391 255 255 255 255 
29.59814 8.458767 1.569176 255 255 255 255 
29.84826 5.37936 1.782272 255 255 255 255 
29.86417 14.8967 2.479139 255 255 255 255 
29.86797 22.19738 2.196669 255 255 255 255 
29.91297 18.30379 2.531941 255 255 255 255 
30.14231 1.907135 2.783205 255 255 255 255 
30.38761 27.06459 1.80557 255 255 255 255 
30.39628 12.49377 2.110306 255 255 255 255 
30.74067 9.87545 1.684666 255 255 255 255 
30.75551 19.43857 2.44684 255 255 255 255 
30.78593 15.99911 2.690181 255 255 255 255 
30.87928 23.484 1.657739 255 255 255 255 
30.96964 6.968925 1.530329 255 255 255 255 
31.15551 3.701378 1.975405 255 255 255 255 
31.37057 0 3.348003 255 255 255 255 
31.47105 13.69952 2.547976 255 255 255 255 
31.69382 20.60606 2.224025 255 255 255 255 
31.70031 17.08374 2.893058 255 255 255 255 
31.84176 28.2626 0 255 0 0 255 
31.91423 11.21421 2.079905 255 255 255 255 
32.10822 24.69446 0 255 0 0 255 
32.16762 8.467953 1.62417 255 255 255 255 
32.28799 5.390556 1.534782 255 255 255 255 
32.33213 1.911816 2.165756 255 255 255 255 
32.53059 14.84803 3.094604 255 255 255 255 
32.65513 18.18078 3.046784 255 255 255 255 
32.78916 21.77616 1.654437 255 255 255 255 
33.10892 12.48267 2.748131 255 255 255 255 
33.24538 0 1.956432 255 255 255 255 
33.43525 9.883358 2.099792 255 255 255 255 
33.46917 3.710201 1.431625 255 255 255 255 
33.5439 6.981926 1.533114 255 255 255 255 
33.58708 15.95815 3.668369 255 255 255 255 
33.70696 19.30156 3.045668 255 255 255 255 
34.31732 13.69202 3.649355 255 255 255 255 
34.37945 1.916542 1.024005 255 255 255 255 
34.68397 17.06454 4.211294 255 255 255 255 
34.75983 11.22394 2.969395 255 255 255 255 
34.7868 5.403069 1.239769 255 255 255 255 
34.81995 0 0 255 0 0 255 
34.91496 8.48325 2.027216 255 255 255 255 
35.54255 14.859 4.700105 255 255 255 255 
35.76471 3.719498 0 255 0 0 255 
36.12889 12.5021 4.211855 255 255 255 255 
36.27466 6.998745 1.35056 255 255 255 255 
36.38449 9.904148 3.050155 255 255 255 255 
3 29 34 31 
3 31 34 45 
3 42 48 45 
3 34 42 45 
3 45 48 58 
3 57 67 58 
3 48 57 58 
3 58 67 73 
3 72 83 73 
3 67 72 73 
3 73 83 94 
3 93 104 94 
3 83 93 94 
3 94 104 105 
3 105 106 116 
3 104 106 105 
3 105 116 126 
3 126 127 136 
3 116 127 126 
3 126 136 144 
3 144 146 152 
3 136 146 144 
3 144 152 161 
3 161 162 169 
3 152 162 161 
3 161 169 177 
3 177 178 185 
3 169 178 177 
3 177 185 193 
3 193 196 203 
3 185 196 193 
3 193 203 211 
3 211 214 222 
3 203 214 211 
3 211 222 232 
3 232 235 244 
3 222 235 232 
3 232 244 256 
3 244 258 256 
3 21 32 29 
3 29 42 34 
3 29 32 42 
3 35 47 42 
3 32 35 42 
3 42 57 48 
3 42 47 57 
3 55 64 57 
3 47 55 57 
3 57 72 67 
3 57 64 72 
3 71 82 72 
3 64 71 72 
3 72 93 83 
3 72 82 93 
3 92 103 93 
3 82 92 93 
3 93 106 104 
3 93 103 106 
3 106 107 117 
3 103 107 106 
3 106 127 116 
3 106 117 127 
3 127 128 138 
3 117 128 127 
3 127 146 136 
3 127 138 146 
3 146 148 154 
3 138 148 146 
3 146 162 152 
3 146 154 162 
3 162 165 171 
3 154 165 162 
3 162 178 169 
3 162 171 178 
3 178 182 188 
3 171 182 178 
3 178 196 185 
3 178 188 196 
3 196 200 207 
3 188 200 196 
3 196 214 203 
3 196 207 214 
3 214 220 226 
3 207 220 214 
3 214 235 222 
3 214 226 235 
3 235 241 249 
3 226 241 235 
3 235 258 244 
3 235 249 258 
3 249 264 258 
3 13 23 21 
3 21 35 32 
3 21 23 35 
3 30 44 35 
3 23 30 35 
3 35 55 47 
3 35 44 55 
3 49 60 55 
3 44 49 55 
3 55 71 64 
3 55 60 71 
3 70 81 71 
3 60 70 71 
3 71 92 82 
3 71 81 92 
3 91 102 92 
3 81 91 92 
3 92 107 103 
3 92 102 107 
3 107 108 118 
3 102 108 107 
3 107 128 117 
3 107 118 128 
3 128 129 139 
3 118 129 128 
3 128 148 138 
3 128 139 148 
3 148 150 157 
3 139 150 148 
3 148 165 154 
3 148 157 165 
3 165 168 175 
3 157 168 165 
3 165 182 171 
3 165 175 182 
3 182 187 195 
3 175 187 182 
3 182 200 188 
3 182 195 200 
3 200 208 212 
3 195 208 200 
3 200 220 207 
3 200 212 220 
3 220 227 233 
3 212 227 220 
3 220 241 226 
3 220 233 241 
3 241 247 254 
3 233 247 241 
3 241 264 249 
3 241 254 264 
3 254 271 264 
3 10 19 13 
3 13 30 23 
3 13 19 30 
3 22 36 30 
3 19 22 30 
3 30 49 44 
3 30 36 49 
3 46 59 49 
3 36 46 49 
3 49 70 60 
3 49 59 70 
3 69 80 70 
3 59 69 70 
3 70 91 81 
3 70 80 91 
3 90 101 91 
3 80 90 91 
3 91 108 102 
3 91 101 108 
3 108 109 119 
3 101 109 108 
3 108 129 118 
3 108 119 129 
3 129 130 140 
3 119 130 129 
3 129 150 139 
3 129 140 150 
3 150 151 160 
3 140 151 150 
3 150 168 157 
3 150 160 168 
3 168 173 180 
3 160 173 168 
3 168 187 175 
3 168 180 187 
3 187 192 201 
3 180 192 187 
3 187 208 195 
3 187 201 208 
3 208 213 221 
3 201 213 208 
3 208 227 212 
3 208 221 227 
3 227 234 242 
3 221 234 227 
3 227 247 233 
3 227 242 247 
3 247 255 263 
3 242 255 247 
3 247 271 254 
3 247 263 271 
3 263 274 271 
3 5 12 10 
3 10 22 19 
3 10 12 22 
3 20 33 22 
3 12 20 22 
3 22 46 36 
3 22 33 46 
3 43 56 46 
3 33 43 46 
3 46 69 59 
3 46 56 69 
3 68 79 69 
3 56 68 69 
3 69 90 80 
3 69 79 90 
3 89 99 90 
3 79 89 90 
3 90 109 101 
3 90 99 109 
3 109 110 120 
3 99 110 109 
3 109 130 119 
3 109 120 130 
3 130 131 141 
3 120 131 130 
3 130 151 140 
3 130 141 151 
3 151 153 164 
3 141 153 151 
3 151 173 160 
3 151 164 173 
3 173 176 184 
3 164 176 173 
3 173 192 180 
3 173 184 192 
3 192 198 205 
3 184 198 192 
3 192 213 201 
3 192 205 213 
3 213 219 228 
3 205 219 213 
3 213 234 221 
3 213 228 234 
3 234 240 248 
3 228 240 234 
3 234 255 242 
3 234 248 255 
3 255 262 270 
3 248 262 255 
3 255 274 263 
3 255 270 274 
3 270 279 274 
3 4 11 5 
3 5 20 12 
3 5 11 20 
3 18 28 20 
3 11 18 20 
3 20 43 33 
3 20 28 43 
3 41 54 43 
3 28 41 43 
3 43 68 56 
3 43 54 68 
3 66 78 68 
3 54 66 68 
3 68 89 79 
3 68 78 89 
3 86 97 89 
3 78 86 89 
3 89 110 99 
3 89 97 110 
3 110 111 121 
3 97 111 110 
3 110 131 120 
3 110 121 131 
3 131 132 142 
3 121 132 131 
3 131 153 141 
3 131 142 153 
3 153 155 166 
3 142 155 153 
3 153 176 164 
3 153 166 176 
3 176 179 189 
3 166 179 176 
3 176 198 184 
3 176 189 198 
3 198 202 210 
3 189 202 198 
3 198 219 205 
3 198 210 219 
3 219 224 231 
3 210 224 219 
3 219 240 228 
3 219 231 240 
3 240 245 253 
3 231 245 240 
3 240 262 248 
3 240 253 262 
3 262 265 272 
3 253 265 262 
3 262 279 270 
3 262 272 279 
3 272 281 279 
3 2 9 4 
3 4 18 11 
3 4 9 18 
3 16 27 18 
3 9 16 18 
3 18 41 28 
3 18 27 41 
3 40 53 41 
3 27 40 41 
3 41 66 54 
3 41 53 66 
3 63 76 66 
3 53 63 66 
3 66 86 78 
3 66 76 86 
3 84 95 86 
3 76 84 86 
3 86 111 97 
3 86 95 111 
3 111 112 122 
3 95 112 111 
3 111 132 121 
3 111 122 132 
3 132 133 143 
3 122 133 132 
3 132 155 142 
3 132 143 155 
3 155 156 167 
3 143 156 155 
3 155 179 166 
3 155 167 179 
3 179 181 191 
3 167 181 179 
3 179 202 189 
3 179 191 202 
3 202 204 216 
3 191 204 202 
3 202 224 210 
3 202 216 224 
3 224 225 237 
3 216 225 224 
3 224 245 231 
3 224 237 245 
3 245 246 257 
3 237 246 245 
3 245 265 253 
3 245 257 265 
3 265 267 275 
3 257 267 265 
3 265 281 272 
3 265 275 281 
3 275 283 281 
3 0 6 2 
3 2 16 9 
3 2 6 16 
3 14 25 16 
3 6 14 16 
3 16 40 27 
3 16 25 40 
3 37 51 40 
3 25 37 40 
3 40 63 53 
3 40 51 63 
3 61 74 63 
3 51 61 63 
3 63 84 76 
3 63 74 84 
3 84 85 96 
3 74 85 84 
3 84 112 95 
3 84 96 112 
3 112 113 123 
3 96 113 112 
3 112 133 122 
3 112 123 133 
3 133 134 145 
3 123 134 133 
3 133 156 143 
3 133 145 156 
3 156 158 170 
3 145 158 156 
3 156 181 167 
3 156 170 181 
3 181 183 194 
3 170 183 181 
3 181 204 191 
3 181 194 204 
3 204 206 217 
3 194 206 204 
3 204 225 216 
3 204 217 225 
3 225 229 238 
3 217 229 225 
3 225 246 237 
3 225 238 246 
3 246 250 259 
3 238 250 246 
3 246 267 257 
3 246 259 267 
3 267 269 278 
3 259 269 267 
3 267 283 275 
3 267 278 283 
3 278 282 283 
3 0 1 7 
3 0 14 6 
3 0 7 14 
3 14 15 24 
3 7 15 14 
3 14 37 25 
3 14 24 37 
3 37 38 50 
3 24 38 37 
3 37 61 51 
3 37 50 61 
3 61 62 75 
3 50 62 61 
3 61 85 74 
3 61 75 85 
3 85 87 98 
3 75 87 85 
3 85 113 96 
3 85 98 113 
3 113 114 124 
3 98 114 113 
3 113 134 123 
3 113 124 134 
3 134 135 147 
3 124 135 134 
3 134 158 145 
3 134 147 158 
3 158 159 172 
3 147 159 158 
3 158 183 170 
3 158 172 183 
3 183 186 197 
3 172 186 183 
3 183 206 194 
3 183 197 206 
3 206 209 218 
3 197 209 206 
3 206 229 217 
3 206 218 229 
3 229 230 239 
3 218 230 229 
3 229 250 238 
3 229 239 250 
3 250 251 260 
3 239 251 250 
3 250 269 259 
3 250 260 269 
3 268 276 269 
3 260 268 269 
3 269 282 278 
3 269 276 282 
3 276 280 282 
3 1 3 8 
3 1 15 7 
3 1 8 15 
3 15 17 26 
3 8 17 15 
3 15 38 24 
3 15 26 38 
3 38 39 52 
3 26 39 38 
3 38 62 50 
3 38 52 62 
3 62 65 77 
3 52 65 62 
3 62 87 75 
3 62 77 87 
3 87 88 100 
3 77 88 87 
3 87 114 98 
3 87 100 114 
3 114 115 125 
3 100 115 114 
3 114 135 124 
3 114 125 135 
3 135 137 149 
3 125 137 135 
3 135 159 147 
3 135 149 159 
3 159 163 174 
3 149 163 159 
3 159 186 172 
3 159 174 186 
3 186 190 199 
3 174 190 186 
3 186 209 197 
3 186 199 209 
3 209 215 223 
3 199 215 209 
3 209 230 218 
3 209 223 230 
3 230 236 243 
3 223 236 230 
3 230 251 239 
3 230 243 251 
3 251 252 261 
3 243 252 251 
3 251 268 260 
3 251 261 268 
3 261 266 268 
3 266 273 268 
3 268 280 276 
3 268 273 280 
3 273 277 280 
3 3 17 8 
3 17 39 26 
3 39 65 52 
3 65 88 77 
3 88 115 100 
3 115 137 125 
3 137 163 149 
3 163 190 174 
3 190 215 199 
3 215 236 223 
3 236 252 243 
3 252 266 261 
3 266 277 273 
