ply
format ascii 1.0
comment VCGLIB generated
element vertex 308
property float x
property float y
property float z
property uchar red
property uchar green
property uchar blue
property uchar alpha
element face 571
property list uchar int vertex_indices
end_header
16.17055 26.05476 6.675422 255 255 255 255 
18.28022 25.2625 6.763561 255 255 255 255 
19.66404 26.67578 6.510893 255 255 255 255 
19.47123 27.90944 6.429022 255 255 255 255 
18.28982 28.39137 6.44184 255 255 255 255 
16.18508 27.38858 6.581119 255 255 255 255 
31.90569 -2.376505 2.778144 255 255 255 255 
32.17069 -1.026708 2.570112 255 255 255 255 
30.14196 -0.6706958 2.873948 255 255 255 255 
29.28741 -1.20664 3.26682 255 255 255 255 
29.11326 -2.376505 3.897906 255 255 255 255 
2.671128 2.825789 4.552652 255 255 255 255 
1.314503 1.405234 2.497182 255 255 255 255 
1.510787 0.2996022 2.79761 255 255 255 255 
2.809143 0.3854985 4.707136 255 255 255 255 
15.28172 11.46331 8.037559 255 255 255 255 
14.71761 9.640137 8.104659 255 255 255 255 
15.81274 8.524926 7.49657 255 255 255 255 
17.39941 8.708018 6.692587 255 255 255 255 
18.02127 9.792931 6.5582 255 255 255 255 
17.32338 11.78807 7.260691 255 255 255 255 
33.16968 18.33815 2.226003 255 255 255 255 
30.8492 18.21362 2.254181 255 255 255 255 
30.24273 16.73383 2.471474 255 255 255 255 
32.02208 15.08655 2.948613 255 255 255 255 
33.73326 16.91237 3.053058 255 255 255 255 
2.196655 15.65001 0 255 0 0 255 
3.901993 15.40102 2.428736 255 255 255 255 
4.822496 17.56716 2.059434 255 255 255 255 
3.414349 18.08215 0 255 0 0 255 
13.17262 -2.376505 8.12723 255 255 255 255 
13.36289 -0.1771735 7.969275 255 255 255 255 
12.71889 0.9196762 8.210091 255 255 255 255 
11.17252 0.8811863 8.629363 255 255 255 255 
10.48919 -0.2348946 8.71819 255 255 255 255 
10.88687 -2.376505 8.699406 255 255 255 255 
23.98823 7.26069 2.885035 255 255 255 255 
25.02189 5.713329 2.403284 255 255 255 255 
27.36423 7.030464 1.857002 255 255 255 255 
26.31393 8.560955 2.25079 255 255 255 255 
24.34667 8.406546 2.902852 255 255 255 255 
6.154776 10.63065 7.062621 255 255 255 255 
5.886895 8.4426 7.36472 255 255 255 255 
7.482515 8.255954 8.28865 255 255 255 255 
8.134204 9.703599 8.344576 255 255 255 255 
28.23723 28.43836 4.854235 255 255 255 255 
26.63942 27.93467 5.405828 255 255 255 255 
26.896 25.15556 4.296515 255 255 255 255 
28.01771 25.30397 3.784193 255 255 255 255 
29.25356 27.64401 3.712203 255 255 255 255 
36.24963 9.475256 3.955921 255 255 255 255 
34.34299 8.052181 2.516359 255 255 255 255 
35.05787 6.223593 2.091142 255 255 255 255 
36.41109 6.592457 2.589798 255 255 255 255 
6.531077 23.1 2.577644 255 255 255 255 
7.533019 22.22193 3.485754 255 255 255 255 
8.756005 22.2039 4.381338 255 255 255 255 
8.323752 24.42123 4.886812 255 255 255 255 
19.83536 18.17083 6.769065 255 255 255 255 
21.20064 16.39415 6.020841 255 255 255 255 
22.77138 17.25118 5.206225 255 255 255 255 
22.88836 19.51037 5.281578 255 255 255 255 
21.32164 19.50501 6.143178 255 255 255 255 
12.98085 18.57788 6.968418 255 255 255 255 
12.69783 16.775 7.396016 255 255 255 255 
14.64228 15.61866 7.868675 255 255 255 255 
15.38356 17.04755 7.630909 255 255 255 255 
14.42625 18.96084 7.219056 255 255 255 255 
20.91774 1.707444 4.082961 255 255 255 255 
19.91522 1.445543 4.558157 255 255 255 255 
19.0472 0.08734099 5.107533 255 255 255 255 
20.04224 -0.6448603 4.755595 255 255 255 255 
21.20478 -1.500309 4.524635 255 255 255 255 
6.835202 2.62269 8.187759 255 255 255 255 
5.586147 3.221067 7.471195 255 255 255 255 
4.469808 2.234897 6.56826 255 255 255 255 
4.695884 0.594291 6.757137 255 255 255 255 
6.269689 0.114049 7.872224 255 255 255 255 
7.211773 0.4232332 8.317218 255 255 255 255 
7.497482 1.386008 8.433612 255 255 255 255 
25.33686 20.70882 4.018961 255 255 255 255 
26.72474 19.52948 3.242198 255 255 255 255 
28.3673 21.57396 2.801311 255 255 255 255 
26.9031 22.55426 3.609814 255 255 255 255 
25.40994 21.9294 4.159895 255 255 255 255 
17.93438 33.62505 5.876834 255 255 255 255 
18.43243 31.85611 6.04247 255 255 255 255 
20.36258 31.54698 6.152373 255 255 255 255 
20.90387 34.02245 6.140318 255 255 255 255 
35.94961 1.97088 0 255 0 0 255 
34.77576 2.277214 1.1174 255 255 255 255 
33.92784 0.1105058 1.323773 255 255 255 255 
34.85768 -0.7216843 0 255 0 0 255 
31.15044 26.32677 0 255 0 0 255 
31.62002 23.88485 0 255 0 0 255 
-0.07022847 5.800007 0 255 0 0 255 
0.4133954 5.643127 0.9298855 255 255 255 255 
2.017288 5.810731 3.574307 255 255 255 255 
3.226899 7.047462 5.068523 255 255 255 255 
2.490395 7.793808 4.033605 255 255 255 255 
0.7390944 8.010211 1.300954 255 255 255 255 
0.009372943 7.790603 0 255 0 0 255 
28.39778 12.12116 2.439329 255 255 255 255 
28.52019 10.5204 2.159558 255 255 255 255 
29.17681 9.693176 1.980636 255 255 255 255 
30.15208 9.459911 1.960907 255 255 255 255 
31.80728 11.14912 2.592473 255 255 255 255 
31.26895 12.48816 2.696383 255 255 255 255 
29.30739 13.14679 2.5171 255 255 255 255 
22.2193 14.15119 5.161521 255 255 255 255 
21.35442 12.86276 5.395464 255 255 255 255 
20.74426 11.95378 5.529951 255 255 255 255 
22.04365 11.08118 4.599764 255 255 255 255 
23.68167 12.15946 3.985884 255 255 255 255 
9.310598 16.18958 6.387787 255 255 255 255 
8.752439 17.23544 5.558121 255 255 255 255 
7.391729 17.11444 4.681402 255 255 255 255 
7.108045 15.23504 5.548389 255 255 255 255 
7.942264 14.55722 6.484328 255 255 255 255 
9.341341 27.00228 6.987601 255 255 255 255 
9.958109 26.29269 6.397146 255 255 255 255 
11.45984 26.79402 6.548762 255 255 255 255 
11.88827 29.20523 7.44015 255 255 255 255 
1.9281 10.40463 2.610418 255 255 255 255 
2.866927 9.895661 4.063554 255 255 255 255 
3.782746 10.03096 5.113278 255 255 255 255 
4.100786 11.646 4.870164 255 255 255 255 
3.166049 12.53615 3.351303 255 255 255 255 
1.04854 11.56519 0 255 0 0 255 
26.66192 3.338866 2.167511 255 255 255 255 
27.06746 2.375523 2.285152 255 255 255 255 
28.16987 1.824041 2.265359 255 255 255 255 
29.41114 1.819894 2.104342 255 255 255 255 
29.99129 3.729411 1.660236 255 255 255 255 
28.17771 4.815299 1.740686 255 255 255 255 
13.0702 29.53765 7.07552 255 255 255 255 
15.25853 29.54254 6.5661 255 255 255 255 
16.46318 30.80931 6.353916 255 255 255 255 
15.38299 32.06104 6.597136 255 255 255 255 
23.63494 32.48195 6.967989 255 255 255 255 
21.63337 31.24825 6.324324 255 255 255 255 
22.72945 28.83668 6.198018 255 255 255 255 
24.27052 29.70711 6.371163 255 255 255 255 
25.38029 30.56979 6.67757 255 255 255 255 
22.03046 6.51025 3.673633 255 255 255 255 
20.30673 6.395827 4.56638 255 255 255 255 
19.74891 4.954085 4.700102 255 255 255 255 
21.12537 3.862033 3.915484 255 255 255 255 
22.33925 4.332137 3.378239 255 255 255 255 
9.086229 4.147374 8.83093 255 255 255 255 
10.33224 4.308916 8.859251 255 255 255 255 
11.22408 5.767037 8.823451 255 255 255 255 
10.33804 6.554806 8.926654 255 255 255 255 
9.258727 6.856727 8.870057 255 255 255 255 
8.044794 5.18333 8.641614 255 255 255 255 
11.3573 21.09308 5.824444 255 255 255 255 
13.01207 21.32633 6.446903 255 255 255 255 
13.05275 23.14886 6.306151 255 255 255 255 
11.37254 23.84015 5.807577 255 255 255 255 
10.561 22.7195 5.391496 255 255 255 255 
30.05597 6.9316 1.602931 255 255 255 255 
30.82502 5.489804 1.528552 255 255 255 255 
32.71857 5.59162 1.607874 255 255 255 255 
32.40097 7.735815 1.928831 255 255 255 255 
30.63885 8.242505 1.784871 255 255 255 255 
15.57661 6.109074 7.279473 255 255 255 255 
13.71316 5.233615 8.066723 255 255 255 255 
13.67906 4.082129 7.984432 255 255 255 255 
14.86451 3.631174 7.39669 255 255 255 255 
16.33701 4.359935 6.658214 255 255 255 255 
27.50247 14.98593 2.815986 255 255 255 255 
27.38755 16.75845 2.874688 255 255 255 255 
25.68175 17.34604 3.573921 255 255 255 255 
24.54683 16.34184 4.106877 255 255 255 255 
24.55653 15.25438 4.015216 255 255 255 255 
25.90572 14.05792 3.27747 255 255 255 255 
21.55414 25.23928 6.162149 255 255 255 255 
20.67824 23.62631 6.436534 255 255 255 255 
21.55334 22.25298 6.099603 255 255 255 255 
22.79885 22.02239 5.488612 255 255 255 255 
23.82432 22.85805 5.059946 255 255 255 255 
19.15342 12.74741 6.543171 255 255 255 255 
19.87694 14.91945 6.520782 255 255 255 255 
17.99786 15.71262 7.315102 255 255 255 255 
16.84212 14.37254 7.629868 255 255 255 255 
17.47225 12.90263 7.332143 255 255 255 255 
27.06707 -2.376505 4.06536 255 255 255 255 
26.88302 -0.7475547 3.325388 255 255 255 255 
25.39569 -0.1200145 3.261539 255 255 255 255 
24.52005 -0.6557194 3.568863 255 255 255 255 
24.40363 -2.376505 4.228793 255 255 255 255 
14.38492 14.32185 8.094759 255 255 255 255 
11.82051 14.40644 7.988862 255 255 255 255 
11.49571 12.87027 8.396422 255 255 255 255 
12.87611 11.97169 8.554297 255 255 255 255 
14.23501 12.52686 8.31171 255 255 255 255 
5.561469 17.76437 2.720636 255 255 255 255 
6.669667 17.75793 3.755546 255 255 255 255 
7.640039 19.10613 3.965276 255 255 255 255 
7.334128 19.99653 3.443516 255 255 255 255 
6.596639 20.36976 2.681632 255 255 255 255 
5.517568 19.82821 1.687767 255 255 255 255 
5.538924 18.82425 2.14897 255 255 255 255 
17.30541 20.55664 7.22494 255 255 255 255 
18.35147 20.51744 7.131011 255 255 255 255 
19.23487 21.2385 6.925911 255 255 255 255 
19.2423 23.3903 6.808244 255 255 255 255 
17.09703 23.05333 6.995724 255 255 255 255 
16.65571 21.60834 7.121904 255 255 255 255 
5.354145 4.321202 7.293676 255 255 255 255 
6.280468 6.982558 7.792881 255 255 255 255 
4.529343 6.033616 6.53563 255 255 255 255 
12.36194 10.25419 8.731027 255 255 255 255 
10.44078 10.82756 8.702326 255 255 255 255 
9.405206 10.389 8.602584 255 255 255 255 
10.35607 8.273663 8.918265 255 255 255 255 
12.55471 8.693957 8.695639 255 255 255 255 
18.26892 -2.376505 5.851391 255 255 255 255 
16.26533 0.04823219 6.583677 255 255 255 255 
16.11209 -2.376505 6.874991 255 255 255 255 
33.00497 10.8786 2.920249 255 255 255 255 
34.22869 11.96995 3.772159 255 255 255 255 
33.78112 13.85202 3.759784 255 255 255 255 
6.25746 11.72818 6.758451 255 255 255 255 
8.249028 12.22978 7.728633 255 255 255 255 
8.811364 13.82848 7.310764 255 255 255 255 
5.908062 12.68919 6.068112 255 255 255 255 
5.314504 22.86922 0 255 0 0 255 
7.093165 25.28261 4.629837 255 255 255 255 
18.11815 7.37245 6.026402 255 255 255 255 
19.66122 7.305515 5.093058 255 255 255 255 
20.61117 8.926809 4.882296 255 255 255 255 
19.64643 9.810059 5.640911 255 255 255 255 
2.966527 4.080378 4.925975 255 255 255 255 
23.31195 3.977514 3.002597 255 255 255 255 
23.73357 2.78906 2.956568 255 255 255 255 
14.47077 26.64431 6.552662 255 255 255 255 
13.67579 25.02872 6.436471 255 255 255 255 
14.31068 23.75252 6.588069 255 255 255 255 
15.62838 24.33995 6.760839 255 255 255 255 
4.314685 13.75049 3.976519 255 255 255 255 
5.329695 13.42643 5.177707 255 255 255 255 
6.038436 15.34925 4.629507 255 255 255 255 
30.1194 20.21232 2.096341 255 255 255 255 
32.16018 21.20057 1.310039 255 255 255 255 
30.4999 23.30272 1.672278 255 255 255 255 
29.69029 23.48341 2.292202 255 255 255 255 
35.63386 12.26275 4.694875 255 255 255 255 
9.63493 20.10925 5.076204 255 255 255 255 
9.059901 18.54587 5.184384 255 255 255 255 
10.6982 18.12434 6.244959 255 255 255 255 
11.5816 19.02693 6.354502 255 255 255 255 
11.15016 20.06351 5.904163 255 255 255 255 
34.18328 -2.429395 0 255 0 0 255 
32.71235 0.005212951 1.898578 255 255 255 255 
23.45676 27.30593 5.885551 255 255 255 255 
16.19655 1.335844 6.590061 255 255 255 255 
15.03537 1.945363 7.220388 255 255 255 255 
24.45005 10.29894 3.220434 255 255 255 255 
26.14298 10.61932 2.650406 255 255 255 255 
26.17211 12.63545 3.003472 255 255 255 255 
17.08984 2.191478 6.09262 255 255 255 255 
18.50623 2.244874 5.277829 255 255 255 255 
17.40739 5.372124 6.141313 255 255 255 255 
1.888582 -2.376505 3.367839 255 255 255 255 
0 0 0 255 0 0 255 
35.48646 4.450402 1.565847 255 255 255 255 
33.04428 3.592365 1.462202 255 255 255 255 
15.15308 21.78888 6.933896 255 255 255 255 
13.85221 20.79542 6.776073 255 255 255 255 
31.94572 1.323821 1.82579 255 255 255 255 
28.75628 14.47858 2.597929 255 255 255 255 
8.144436 -2.376505 8.596472 255 255 255 255 
8.02716 -0.4639089 8.564278 255 255 255 255 
5.497332 -2.170046 7.3732 255 255 255 255 
17.32977 17.36121 7.44592 255 255 255 255 
19.02347 19.53889 7.034133 255 255 255 255 
23.93614 9.296714 3.240391 255 255 255 255 
22.25346 9.726867 4.162058 255 255 255 255 
10.69221 14.66884 7.639691 255 255 255 255 
11.64854 16.2327 7.308657 255 255 255 255 
3.856894 -1.274444 5.92905 255 255 255 255 
2.546813 -2.376505 4.330135 255 255 255 255 
-0.05311394 2.764295 0 255 0 0 255 
1.910478 3.368756 3.475837 255 255 255 255 
4.455096 20.29656 0 255 0 0 255 
22.71076 1.503657 3.449082 255 255 255 255 
27.56543 8.129968 1.917737 255 255 255 255 
25.07871 25.15875 4.983668 255 255 255 255 
23.82938 19.53312 4.731621 255 255 255 255 
28.10361 18.57629 2.694525 255 255 255 255 
4.627342 8.68794 6.297921 255 255 255 255 
33.26023 8.307134 2.26657 255 255 255 255 
21.02225 15.36981 6.002498 255 255 255 255 
10.34646 1.69467 8.764966 255 255 255 255 
9.101878 2.093396 8.780478 255 255 255 255 
29.31754 24.54473 2.723796 255 255 255 255 
12.95302 7.236535 8.512156 255 255 255 255 
15.2668 7.205295 7.580395 255 255 255 255 
20.50919 21.15049 6.529249 255 255 255 255 
8.76241 20.8616 4.389826 255 255 255 255 
12.38817 25.21029 6.228116 255 255 255 255 
3.919426 0.1248132 6.007688 255 255 255 255 
10.49093 11.84235 8.516935 255 255 255 255 
34.80277 14.46076 4.301392 255 255 255 255 
24.40987 26.26114 5.459085 255 255 255 255 
27.28503 10.3936 2.314701 255 255 255 255 
10.89924 17.02998 6.745173 255 255 255 255 
3 95 283 96 
3 283 265 12 
3 265 13 12 
3 95 96 101 
3 101 100 128 
3 101 96 100 
3 100 123 128 
3 283 284 96 
3 283 12 284 
3 96 97 100 
3 265 264 13 
3 96 284 97 
3 100 97 99 
3 12 11 284 
3 12 13 14 
3 284 233 97 
3 100 99 123 
3 123 99 124 
3 97 98 99 
3 284 11 233 
3 128 127 26 
3 128 123 127 
3 13 264 282 
3 13 282 14 
3 12 14 11 
3 282 281 14 
3 123 126 127 
3 14 281 302 
3 123 124 126 
3 124 125 126 
3 26 127 240 
3 26 240 27 
3 97 211 98 
3 11 14 75 
3 99 291 124 
3 124 291 125 
3 26 27 29 
3 97 233 211 
3 99 98 291 
3 14 302 75 
3 302 76 75 
3 11 75 233 
3 29 27 28 
3 127 126 240 
3 233 209 211 
3 29 28 202 
3 29 202 285 
3 233 75 209 
3 75 74 209 
3 126 241 240 
3 282 274 281 
3 285 202 201 
3 28 196 202 
3 98 211 291 
3 126 226 241 
3 281 76 302 
3 125 41 126 
3 27 240 242 
3 126 223 226 
3 240 241 242 
3 211 210 291 
3 126 41 223 
3 27 242 28 
3 291 210 42 
3 125 291 41 
3 281 77 76 
3 281 274 77 
3 291 42 41 
3 28 242 196 
3 285 201 200 
3 202 196 197 
3 285 200 227 
3 75 73 74 
3 75 76 73 
3 211 209 210 
3 227 54 228 
3 76 77 73 
3 196 242 197 
3 201 202 200 
3 77 79 73 
3 242 116 197 
3 77 78 79 
3 42 210 43 
3 227 200 54 
3 202 199 200 
3 54 200 55 
3 202 198 199 
3 202 197 198 
3 241 117 242 
3 242 117 116 
3 77 273 78 
3 209 154 210 
3 241 226 117 
3 226 118 117 
3 42 44 41 
3 42 43 44 
3 209 74 73 
3 274 273 77 
3 226 223 224 
3 54 57 228 
3 274 272 273 
3 209 73 154 
3 200 199 55 
3 197 116 198 
3 226 224 118 
3 199 300 55 
3 41 224 223 
3 54 55 57 
3 118 224 225 
3 41 44 224 
3 55 300 56 
3 116 115 198 
3 73 149 154 
3 73 79 295 
3 198 115 249 
3 210 153 43 
3 210 154 153 
3 116 114 115 
3 117 114 116 
3 55 56 57 
3 117 118 114 
3 78 273 79 
3 199 198 300 
3 44 214 224 
3 73 295 149 
3 198 248 300 
3 198 249 248 
3 228 57 119 
3 57 120 119 
3 79 273 295 
3 118 225 114 
3 43 153 215 
3 43 215 44 
3 224 214 303 
3 214 213 303 
3 44 215 214 
3 273 34 295 
3 225 279 114 
3 154 149 153 
3 57 56 159 
3 115 250 249 
3 295 34 294 
3 224 303 225 
3 149 152 153 
3 115 114 307 
3 149 150 152 
3 153 152 215 
3 273 272 34 
3 115 307 250 
3 149 295 150 
3 272 35 34 
3 294 34 33 
3 249 250 248 
3 56 300 159 
3 150 151 152 
3 57 159 158 
3 300 248 155 
3 300 155 159 
3 295 294 150 
3 248 252 155 
3 248 250 252 
3 225 303 193 
3 225 193 279 
3 57 158 120 
3 250 251 252 
3 119 120 121 
3 214 215 213 
3 114 280 307 
3 114 279 280 
3 279 193 192 
3 119 121 122 
3 120 158 301 
3 279 192 280 
3 120 301 121 
3 215 212 213 
3 215 216 212 
3 307 280 64 
3 213 212 303 
3 303 194 193 
3 152 151 297 
3 152 297 215 
3 303 212 194 
3 215 297 216 
3 159 157 158 
3 250 307 64 
3 250 64 251 
3 251 64 63 
3 159 155 157 
3 33 31 32 
3 34 31 33 
3 155 156 157 
3 252 156 155 
3 158 157 301 
3 34 35 31 
3 294 33 32 
3 150 167 151 
3 35 30 31 
3 151 167 166 
3 252 251 156 
3 151 166 297 
3 150 294 167 
3 301 157 237 
3 251 63 156 
3 294 32 167 
3 280 192 64 
3 63 269 156 
3 193 194 192 
3 157 238 237 
3 121 301 236 
3 301 237 236 
3 192 194 195 
3 192 195 191 
3 63 67 269 
3 192 65 64 
3 192 191 65 
3 121 135 122 
3 212 216 16 
3 121 236 135 
3 32 257 167 
3 156 269 268 
3 156 268 157 
3 167 257 168 
3 212 16 194 
3 194 15 195 
3 157 268 238 
3 194 16 15 
3 64 65 66 
3 32 31 257 
3 297 166 298 
3 64 66 63 
3 63 66 67 
3 216 297 16 
3 166 165 298 
3 167 168 166 
3 122 135 138 
3 297 298 16 
3 237 238 239 
3 16 298 17 
3 135 236 136 
3 135 136 138 
3 237 239 236 
3 166 168 165 
3 236 239 0 
3 31 218 257 
3 236 5 136 
3 257 218 256 
3 30 219 31 
3 236 0 5 
3 168 169 165 
3 136 137 138 
3 31 219 218 
3 238 268 239 
3 269 67 268 
3 191 184 65 
3 268 207 239 
3 257 256 261 
3 268 208 207 
3 195 184 191 
3 168 257 261 
3 268 203 208 
3 67 203 268 
3 168 261 169 
3 165 169 263 
3 195 15 185 
3 195 185 184 
3 15 20 185 
3 65 184 66 
3 67 66 275 
3 66 184 183 
3 17 18 19 
3 16 17 15 
3 66 183 275 
3 15 17 19 
3 298 229 17 
3 17 229 18 
3 15 19 20 
3 298 165 229 
3 67 275 203 
3 165 263 229 
3 239 1 0 
3 136 5 4 
3 138 137 86 
3 239 207 1 
3 136 4 137 
3 138 86 85 
3 219 217 218 
3 203 276 204 
3 208 203 204 
3 256 218 261 
3 203 275 276 
3 218 70 261 
3 0 1 5 
3 20 181 185 
3 261 70 262 
3 218 217 70 
3 169 261 262 
3 207 206 1 
3 208 204 205 
3 5 1 4 
3 208 205 207 
3 169 262 263 
3 1 2 4 
3 207 205 206 
3 4 2 3 
3 275 58 276 
3 137 4 86 
3 262 70 69 
3 184 185 183 
3 185 181 183 
3 183 181 182 
3 204 276 205 
3 263 262 146 
3 217 71 70 
3 263 146 229 
3 18 229 19 
3 19 229 232 
3 229 146 230 
3 230 146 145 
3 275 183 58 
3 229 230 232 
3 20 19 181 
3 19 232 181 
3 232 230 231 
3 181 232 111 
3 276 299 205 
3 4 87 86 
3 70 71 69 
3 183 182 58 
3 85 86 88 
3 262 147 146 
3 58 182 59 
3 205 299 206 
3 182 293 59 
3 86 87 88 
3 1 206 177 
3 276 58 62 
3 181 111 110 
3 217 72 71 
3 262 69 147 
3 276 62 299 
3 206 299 177 
3 4 3 87 
3 69 68 147 
3 1 177 2 
3 2 177 176 
3 299 178 177 
3 181 110 182 
3 69 71 68 
3 232 112 111 
3 182 110 293 
3 293 110 109 
3 232 231 112 
3 231 278 112 
3 230 145 231 
3 146 147 145 
3 145 144 231 
3 3 140 87 
3 111 112 110 
3 145 147 144 
3 147 148 144 
3 87 140 88 
3 3 141 140 
3 58 59 60 
3 58 60 62 
3 71 72 68 
3 3 2 141 
3 68 286 147 
3 68 72 286 
3 299 179 178 
3 299 62 179 
3 62 60 61 
3 2 255 141 
3 2 176 255 
3 62 61 179 
3 231 144 278 
3 147 286 148 
3 88 140 139 
3 110 112 113 
3 148 286 235 
3 148 235 234 
3 110 113 109 
3 178 179 180 
3 293 109 59 
3 177 178 180 
3 177 180 176 
3 59 109 60 
3 144 36 278 
3 278 36 277 
3 277 36 40 
3 140 141 142 
3 278 277 258 
3 176 305 255 
3 112 278 258 
3 72 189 286 
3 109 174 60 
3 112 258 113 
3 60 289 61 
3 60 174 173 
3 179 61 289 
3 72 190 189 
3 140 142 139 
3 144 148 234 
3 144 37 36 
3 144 234 37 
3 176 288 305 
3 176 180 288 
3 141 255 142 
3 179 289 80 
3 109 113 174 
3 179 84 180 
3 139 142 143 
3 179 80 84 
3 286 189 188 
3 60 173 172 
3 60 172 289 
3 113 175 174 
3 286 188 235 
3 113 260 175 
3 277 40 258 
3 40 39 258 
3 113 258 260 
3 258 259 260 
3 255 305 46 
3 255 46 142 
3 258 39 259 
3 289 81 80 
3 234 235 129 
3 234 129 37 
3 36 39 40 
3 289 172 81 
3 180 84 288 
3 235 130 129 
3 36 37 39 
3 189 187 188 
3 217 190 72 
3 190 187 189 
3 142 46 143 
3 235 188 130 
3 190 186 187 
3 288 84 83 
3 37 38 39 
3 288 83 47 
3 305 288 47 
3 305 47 46 
3 173 174 172 
3 259 39 306 
3 174 175 170 
3 39 38 287 
3 174 170 172 
3 172 170 171 
3 80 83 84 
3 172 290 81 
3 37 129 134 
3 259 306 260 
3 172 171 290 
3 188 187 130 
3 80 81 83 
3 37 134 38 
3 39 287 306 
3 260 306 102 
3 81 82 83 
3 187 131 130 
3 175 260 170 
3 143 46 45 
3 46 47 48 
3 306 103 102 
3 260 102 170 
3 47 83 48 
3 170 102 271 
3 306 104 103 
3 306 287 104 
3 187 186 9 
3 102 108 271 
3 186 10 9 
3 46 49 45 
3 46 48 49 
3 129 130 134 
3 83 296 48 
3 81 290 82 
3 83 246 296 
3 130 131 134 
3 83 82 246 
3 187 9 131 
3 131 133 134 
3 171 170 271 
3 38 160 287 
3 290 243 82 
3 131 132 133 
3 38 134 160 
3 171 23 290 
3 171 271 23 
3 131 9 132 
3 9 8 132 
3 287 164 104 
3 287 160 164 
3 104 164 105 
3 134 161 160 
3 290 23 22 
3 48 296 49 
3 134 133 161 
3 290 22 243 
3 49 296 93 
3 82 245 246 
3 296 246 245 
3 102 107 108 
3 82 243 245 
3 103 104 105 
3 102 103 107 
3 243 244 245 
3 10 8 9 
3 103 105 106 
3 103 106 107 
3 296 245 94 
3 10 6 8 
3 271 24 23 
3 132 8 270 
3 8 6 7 
3 296 94 93 
3 271 108 24 
3 108 107 24 
3 132 270 133 
3 160 163 164 
3 8 7 270 
3 7 254 270 
3 160 161 163 
3 245 244 94 
3 161 162 163 
3 133 267 161 
3 133 270 267 
3 243 22 244 
3 161 267 162 
3 105 164 106 
3 164 163 292 
3 22 21 244 
3 164 292 106 
3 23 25 22 
3 23 24 25 
3 22 25 21 
3 106 292 220 
3 107 222 24 
3 107 106 220 
3 107 220 221 
3 107 221 222 
3 7 6 253 
3 270 254 91 
3 7 253 254 
3 270 90 267 
3 254 253 91 
3 163 51 292 
3 270 91 90 
3 91 253 92 
3 163 162 51 
3 24 222 25 
3 25 222 304 
3 162 52 51 
3 162 267 266 
3 162 266 52 
3 267 90 266 
3 220 292 51 
3 222 221 247 
3 222 247 304 
3 220 51 50 
3 220 50 221 
3 90 89 266 
3 51 52 53 
3 91 89 90 
3 91 92 89 
3 221 50 247 
3 52 266 53 
3 51 53 50 
3 266 89 53 
