ply
format ascii 1.0
comment VCGLIB generated
element vertex 465
property double x
property double y
property double z
property uchar red
property uchar green
property uchar blue
property uchar alpha
element face 840
property list uchar int vertex_indices
end_header
11.89074046821223 14.42316206367026 -0.01301653240226994 255 0 0 255 
11.9068821301952 13.40115755546981 -0.01030792197074789 255 0 0 255 
11.85094126013309 12.39546156410438 -0.008101730038159755 255 0 0 255 
11.76788338670908 15.47145424481985 -0.01654149564694296 255 0 0 255 
11.74528505993292 11.40606049399342 -0.006344192263291234 255 0 0 255 
11.49844369970392 16.506629162675 -0.0212814094068732 255 0 0 255 
11.60694508412191 10.4298743281644 -0.005011825370669384 255 0 0 255 
11.44708454028276 9.461399946404484 -0.003953842012520681 255 0 0 255 
11.27414999181453 8.492471966639391 -0.003117713809497786 255 0 0 255 
11.0939838304625 7.513250896445947 -0.002489845181063742 255 0 0 255 
11.16485017603046 14.26246477364715 0.5984076233913901 192 192 192 255 
11.05060898470214 10.77070317260726 0.6831062361938356 192 192 192 255 
11.04777368817925 17.48741557857299 -0.02652683157040485 255 0 0 255 
10.91215035655189 6.514039996996645 -0.001996078415198781 255 0 0 255 
10.88037254098955 11.84275424872611 0.9485531483876654 192 192 192 255 
10.78121997213352 15.38117835409258 0.6969656945893969 192 192 192 255 
10.73443263565838 5.487772656316929 -0.001586975037223055 255 0 0 255 
10.40943646273174 18.36182028465489 -0.03266276425910723 255 0 0 255 
11.09389854909368 13.0346108164985 0.7451787130781162 192 192 192 255 
10.56801902200042 4.431640151064053 -0.001420738166112073 255 0 0 255 
10.8486515796731 9.571895555294876 0.7763249521264192 192 192 192 255 
10.42224349959756 3.347493334133841 -0.001178489640180828 255 0 0 255 
10.30620027586716 2.241471846100598 -0.001091972309491098 255 0 0 255 
10.3217159231645 13.65124084367594 1.331666102243261 192 192 192 255 
10.33891495052468 12.72580697999137 1.425680159637257 192 192 192 255 
10.30779404869465 16.15593363464791 0.7814665534931232 192 192 192 255 
10.22924063829491 1.122325679001722 -0.001384277291035687 255 0 0 255 
10.16244802304057 10.62721788754393 1.676288731636865 192 192 192 255 
10.20689815562521 -0.0003676986554313543 2.251504878595933e-20 255 0 0 255 
10.46624250610075 6.654407568250464 0.7707569439156016 192 192 192 255 
10.27476358578011 14.57146760001486 1.207587272434585 192 192 192 255 
9.983684060426649 2.977824555486494 1.009804946592261 192 192 192 255 
10.4266459957678 8.042959433403157 1.11757649552779 192 192 192 255 
10.16038458470362 17.16536223085167 0.5281011685491811 192 192 192 255 
9.982016747868073 0.7860223089348709 0.7871538320241059 192 192 192 255 
9.883566205352492 -0.0004937667658649616 1.20922244998462 192 192 192 255 
10.17368600631623 4.285326985249048 0.7848221899620178 192 192 192 255 
9.807681236623598 11.9839072737464 1.960308442806045 192 192 192 255 
9.616133102438397 19.09355914839129 -0.03934437411208842 255 0 0 255 
9.925315761257753 9.173535775848011 1.912396381031939 192 192 192 255 
9.939904437154839 5.438659857589037 1.48728667889768 192 192 192 255 
9.484432713776894 14.21869565605122 1.809143508682148 192 192 192 255 
9.353825533386743 18.09030170978945 0.4743164339640432 192 192 192 255 
9.556936708818617 -0.0002521362208672144 2.398361755592421 192 192 192 255 
9.734120494185591 6.809769210893747 2.028838820445381 192 192 192 255 
9.615067085328114 15.38559444584335 1.408162254115388 192 192 192 255 
8.692676777741028 12.46061652988495 2.810048293870168 192 192 192 255 
9.553163317238676 13.13124449506959 2.007112464766388 192 192 192 255 
9.361531755627457 9.933885302862574 2.58868072570089 192 192 192 255 
9.700210644402681 1.006657569697954 1.731932352869964 192 192 192 255 
9.615025680605571 8.015849227831531 2.289188625899718 192 192 192 255 
9.487902676718484 16.39270314162276 1.134952883415889 192 192 192 255 
8.71482212449293 19.68143205080934 -0.0461199170669613 255 0 0 255 
9.209652435544445 -0.0003924178927712774 3.560820352377376 192 192 192 255 
9.101296276645822 11.06993572041635 2.707391155140269 192 192 192 255 
9.088403958411185 8.786307686956251 2.983508126131876 192 192 192 255 
9.119600871896035 2.506496059335915 3.305777149198986 192 192 192 255 
8.841732542938889 -0.0004523620433205905 4.698764881492329 192 192 192 255 
8.097211361574018 11.38307283922917 3.575687737675473 192 192 192 255 
8.846380377539731 3.821379035387236 3.798611999816234 192 192 192 255 
8.642717345134235 13.71547007401814 2.500070293589401 192 192 192 255 
8.923011249255362 1.269214185065814 4.107172351835556 192 192 192 255 
8.426442557837918 9.928796847856153 3.610336074673909 192 192 192 255 
8.521061618565811 4.757870740905352 4.363930452104403 192 192 192 255 
8.954467714732285 17.1542237425063 1.060978093752435 192 192 192 255 
8.608847046131073 2.555217676132903 4.628124098965097 192 192 192 255 
8.726083591044068 18.78652026543024 0.3757651605563047 192 192 192 255 
8.446892782889233 -0.0003751144266333312 5.812579109096982 192 192 192 255 
8.371134500251705 5.88484456349838 4.411950042560936 192 192 192 255 
8.446107329122759 1.283464207411346 5.394456917377786 192 192 192 255 
8.287923985537123 3.750082575089563 5.072953572687281 192 192 192 255 
8.030955153769957 17.15275665577018 1.412328681569031 192 192 192 255 
8.048063337932916 2.592703781577963 5.944146013876856 192 192 192 255 
7.986194176775758 4.870784200198052 5.370531167556475 192 192 192 255 
8.033152693969477 7.06236459159455 4.705311153520874 192 192 192 255 
8.016023498454777 -0.0005153960985373942 6.898727566270794 192 192 192 255 
7.595071572041092 12.50566363205136 3.605684532187469 192 192 192 255 
8.540866053541624 14.86498135226537 2.181367020508575 192 192 192 255 
8.318680278616391 18.00785810941333 0.8841947600303752 192 192 192 255 
7.672306829109681 14.26053543717277 2.891948689005735 192 192 192 255 
7.537497378371744 -0.0003009567146135623 7.949083803738265 192 192 192 255 
7.768449830819578 1.216678389947276 7.021893638240695 192 192 192 255 
7.708406185339973 3.836361983119896 6.233247382262192 192 192 192 255 
7.703349247361157 5.982651787862188 5.526843264875478 192 192 192 255 
7.934358554054872 13.30440398859762 3.097177685096712 192 192 192 255 
7.593596451552831 7.935330020082332 5.076399434372465 192 192 192 255 
8.459037962175275 16.14821134490292 1.711043979336796 192 192 192 255 
7.430979094769349 15.44812052073282 2.490968670400842 192 192 192 255 
7.741800639024341 20.14557899053174 -0.05302770794160278 255 0 0 255 
7.39687272704959 2.851833692669575 7.173127168248211 192 192 192 255 
7.281808385117849 5.008074226403051 6.533935893150615 192 192 192 255 
7.675125440147366 19.08863013246571 0.510147586469195 192 192 192 255 
7.059568845851405 13.50712027421299 3.547976236655553 192 192 192 255 
7.159429002876292 0.8655107244869945 8.345058794762755 192 192 192 255 
7.345081598955916 6.989214188496383 5.711746868063702 192 192 192 255 
7.362409784331203 9.231911490788105 4.912874263597673 192 192 192 255 
7.259415228011612 16.66840915529359 1.948894952945269 192 192 192 255 
7.14785360201094 3.941192560792909 7.168194444437028 192 192 192 255 
7.127759333977317 6.112648403090041 6.348343859202473 192 192 192 255 
7.090208958515173 11.60607249504381 4.301217746973017 192 192 192 255 
6.869147290907975 7.998511772742241 5.898047108161633 192 192 192 255 
6.449946104478892 14.67774672499599 3.307766429823917 192 192 192 255 
7.278440389030284 17.83176444241306 1.31699214497735 192 192 192 255 
6.861997869488336 2.053066762943173 8.404292267238544 192 192 192 255 
6.694371159257917 3.443245153912832 8.091874478232329 192 192 192 255 
6.988897164277499 -0.0006501159420399744 8.946602671391647 192 192 192 255 
6.605627861245726 4.625020289726604 7.695852520656891 192 192 192 255 
6.495098881384929 10.55538007594851 5.153246599414818 192 192 192 255 
6.615811569048841 12.64546698671289 4.18115084938461 192 192 192 255 
6.646909605584331 6.876263341357205 6.631078788010911 192 192 192 255 
6.718331516011505 20.51034223652898 -0.05979150925873921 255 0 0 255 
6.348621950622547 0.0001600570617760013 9.854556326391291 192 192 192 255 
6.115237125220466 9.137556307918818 6.066523542175612 192 192 192 255 
6.562641107511601 5.762573327920186 7.191938507863892 192 192 192 255 
6.562079980823984 0.9988166276137305 9.23799674904026 192 192 192 255 
6.056432531512523 13.58173529212355 4.042557501390864 192 192 192 255 
5.898005085458156 4.20590840154241 8.70351245542898 192 192 192 255 
6.268797353442601 16.07506588565222 2.638248976376771 192 192 192 255 
5.985889389972783 7.801068718432408 6.842689055221189 192 192 192 255 
6.078509900361741 11.83450296730204 4.869521047169982 192 192 192 255 
6.306359470542481 18.77670425628256 1.026062171009794 192 192 192 255 
6.13328773030701 1.890158337140012 9.446167334374694 192 192 192 255 
6.030883345778911 2.945523928054417 9.130154132297383 192 192 192 255 
5.840202238843412 6.628236693697754 7.556743776564608 192 192 192 255 
6.190603607946156 17.39118853145614 1.906211627849491 192 192 192 255 
5.565009149347385 10.24126592927985 5.93377134996529 192 192 192 255 
5.546934443004433 -0.00103017421614129 10.58847295493734 192 192 192 255 
5.795053169822976 1.062375348643074 10.08161364501529 192 192 192 255 
5.654587339600732 20.79562695466902 -0.06649660238719331 255 0 0 255 
5.334119730954768 8.556705522848107 6.949384699351498 192 192 192 255 
5.387389069441369 14.37397696117315 3.892850384289089 192 192 192 255 
5.832940344893877 5.432224204147587 8.175353814652981 192 192 192 255 
4.957476110501497 3.638554320059298 9.666195737861083 192 192 192 255 
5.739821741872521 12.75892705014127 4.609775009087673 192 192 192 255 
4.950089693393861 7.595863823597836 7.703157055290839 192 192 192 255 
5.346746317388002 2.222976912722868 10.01497428903246 192 192 192 255 
5.535048197729532 11.14136937248127 5.522188632484371 192 192 192 255 
4.944790815879581 5.028941588584481 9.024617820398316 192 192 192 255 
5.03492766089681 19.78297126203054 0.6438576491264394 192 192 192 255 
5.006913967200409 13.49986394209185 4.54206840003269 192 192 192 255 
4.998655887986073 18.20879831782583 1.697354465697946 192 192 192 255 
5.035939295684946 9.543532702371042 6.635816229847108 192 192 192 255 
5.068275457020699 16.81260759035417 2.582586197734732 192 192 192 255 
4.267877675610796 2.449296980093199 10.38530430727865 192 192 192 255 
4.897631454882476 6.28633441637341 8.420839324713896 192 192 192 255 
4.086320130186997 4.583584050154625 9.544549898987583 192 192 192 255 
4.558837930644094 21.01632772141106 -0.073176358297374 255 0 0 255 
4.548070230858824 0.0001118545489631515 11.00365108548935 192 192 192 255 
4.861969011172169 12.20593917141919 5.297995037506205 192 192 192 255 
3.896624393849961 7.069207494471175 8.413589172402094 192 192 192 255 
4.479509881144214 8.711910816315219 7.356805933226243 192 192 192 255 
4.691446442287378 1.071302083227454 10.72665101974377 192 192 192 255 
3.647760691016086 3.590375908502855 10.00800840795007 192 192 192 255 
4.539475970016666 10.80067771980564 6.201892265658365 192 192 192 255 
3.635173346372131 18.96663451638385 1.438301184242088 192 192 192 255 
3.738497904510208 17.55088222044325 2.400074180759145 192 192 192 255 
4.143009066169109 14.68911881013422 4.128405558729616 192 192 192 255 
3.984751564871454 8.008039184793981 7.911044605357724 192 192 192 255 
3.702501751095812 5.762949678308686 9.078483510485738 192 192 192 255 
3.944189459329908 9.724609149638114 7.003341850617082 192 192 192 255 
3.713836757378034 13.35662832132567 5.052822225797646 192 192 192 255 
3.437810011602718 21.18307133688752 -0.07977268678153246 255 0 0 255 
3.497193035464414 -0.0002490463161997241 11.04504097649132 192 192 192 255 
3.422497062051569 8.793820481164786 7.649657209916044 192 192 192 255 
3.217094413318279 11.95171046711115 5.979170701263793 192 192 192 255 
2.597645775103147 9.788910065768592 7.27590604922201 192 192 192 255 
3.039007757807471 7.828200553336706 8.201499351987419 192 192 192 255 
3.073780926954475 2.424449202719109 10.37903056484178 192 192 192 255 
3.61245636725674 1.44823337380527 10.77317015249377 192 192 192 255 
3.338833567312732 20.33844960391461 0.5049509847994097 192 192 192 255 
2.242713678786462 8.630331153284141 7.875651601334424 192 192 192 255 
3.003870906881104 4.642831427201418 9.57855986168172 192 192 192 255 
3.340633436781544 10.65916997372952 6.6610459194381 192 192 192 255 
2.929461367630935 15.52601330951466 3.899781658439203 192 192 192 255 
2.274036042400811 3.486027973938905 9.835641165978783 192 192 192 255 
2.478098599479811 1.095114742537936 10.53682705236304 192 192 192 255 
2.641237532171167 14.43987721195951 4.6317602987778 192 192 192 255 
2.219216498742531 13.26252094881072 5.409110481272893 192 192 192 255 
2.299118034548699 21.30440818529426 -0.08595311409744669 255 0 0 255 
2.182547055101089 11.00153388281118 6.691839909354309 192 192 192 255 
2.015452117463946 2.245363272038836 10.0723933694875 192 192 192 255 
2.522687159793564 -0.001130905108301476 10.73175430629261 192 192 192 255 
1.947569383842916 4.579149109985375 9.420742362808713 192 192 192 255 
1.861255677870773 7.590425591383053 8.329124774373444 192 192 192 255 
2.273283959604745 5.586467301301239 9.14667770649725 192 192 192 255 
1.42028796700202 10.23962271797767 7.126207583853303 192 192 192 255 
2.673963948466425 6.748628649257181 8.708511921180978 192 192 192 255 
2.278042103802214 19.57075166561983 1.183017586480568 192 192 192 255 
2.354742189382394 16.79135893393677 3.156849306054353 192 192 192 255 
1.460540155105417 15.50777422024339 4.11935584593947 192 192 192 255 
1.23073992810809 14.23305011717451 4.937499567835705 192 192 192 255 
1.649007654337126 -0.000306518543015045 10.24999243804178 192 192 192 255 
1.252204877852213 9.328183032532174 7.55227453845355 192 192 192 255 
1.142111574549531 1.342781725294091 9.776568368545705 192 192 192 255 
1.150638475469937 21.38587784771918 -0.09362349344402481 255 0 0 255 
1.375527607988755 12.21502596306534 6.091728512529264 192 192 192 255 
1.239745455261491 6.432928145532222 8.680596486453 192 192 192 255 
1.078733303952768 2.758559358452976 9.544619112852132 192 192 192 255 
1.10455038442105 20.13627219767326 0.8587870919305356 192 192 192 255 
0.9795408753265261 17.76557374058794 2.642611921767267 192 192 192 255 
1.06349543908504 3.953401392115097 9.31024737189926 192 192 192 255 
0.8548582781458212 11.05556395582692 6.728122805921848 192 192 192 255 
1.081165058926083 5.119138377752259 9.041088248237903 192 192 192 255 
0.966940553082967 16.60082428848251 3.448945410043419 192 192 192 255 
0.8345727450132806 7.412138710049793 8.276691564089868 192 192 192 255 
0.9794172791398263 13.31692551827216 5.509764743797325 192 192 192 255 
1.050078146047396 8.311404789086321 7.969103914059868 192 192 192 255 
0.8198620178818256 -0.0002193832313918164 9.709885753897526 192 192 192 255 
0 21.4376053237767 -0.09675542081499305 255 0 0 255 
0 20.56524366266095 0.6015179214296859 192 192 192 255 
0 19.65334852526745 1.321391551242923 192 192 192 255 
0 18.71751898631958 2.029330733268445 192 192 192 255 
0 17.81804279376566 2.684672940063013 192 192 192 255 
0 16.91887435571662 3.313521686257584 192 192 192 255 
0 15.94325178849895 3.965073815987008 192 192 192 255 
0 14.92191469970668 4.6118804701281 192 192 192 255 
0 13.91961265962802 5.210254104568149 192 192 192 255 
0 12.92999035234288 5.76444333822495 192 192 192 255 
0 11.92236996835053 6.289917469825832 192 192 192 255 
0 10.94377367688086 6.761454225551 192 192 192 255 
0 9.951948267567786 7.198785736607051 192 192 192 255 
0 8.901475231703889 7.615872192281704 192 192 192 255 
0 7.838729094500713 7.987752106709106 192 192 192 255 
0 6.745819925914432 8.315788745828552 192 192 192 255 
0 5.609550125129259 8.597138161384086 192 192 192 255 
0 4.446505682419349 8.820857147005329 192 192 192 255 
0 3.295951252356367 8.977672280804201 192 192 192 255 
0 2.15906779650423 9.080112508226442 192 192 192 255 
0 1.037877966458277 9.119177554956586 192 192 192 255 
0 5.606939717140957e-16 9.156827425349029 192 192 192 255 
-0.8455601370204092 8.319254382903607 7.941974551079303 192 192 192 255 
-0.8888280720792767 10.45040118285146 7.024141852876761 192 192 192 255 
-0.9473935071659558 21.39673206483513 -0.09487799473902592 255 0 0 255 
-0.884661026644699 7.352898439783734 8.305839252799238 192 192 192 255 
-1.330681349625733 1.479034161511747 9.865404363697914 192 192 192 255 
-0.8039372672065134 6.349820833633533 8.616781303336261 192 192 192 255 
-1.157520002154905 2.871637509664454 9.558051546422648 192 192 192 255 
-0.8821507880928302 16.51690989348468 3.515231898913223 192 192 192 255 
-1.415215579499868 5.223255187447081 9.094370564324112 192 192 192 255 
-1.054767076380313 11.34026035611828 6.584589318345718 192 192 192 255 
-0.95558608040134 3.883156117385304 9.279256864046197 192 192 192 255 
-0.8067200353500552 17.51288504476618 2.83491213874853 192 192 192 255 
-1.009724300080439 -0.0002373046784632607 9.837004431918078 192 192 192 255 
-1.406606487115306 9.400569611196534 7.522397632242653 192 192 192 255 
-1.801736080222773 20.59930800767723 0.4598519722345872 192 192 192 255 
-1.955518781580968 7.982024659417445 8.164708475092548 192 192 192 255 
-1.739683378728364 6.714317111867501 8.666039327583523 192 192 192 255 
-1.160449231779686 12.43472436473325 5.981527680544154 192 192 192 255 
-1.896331039694257 21.33726499556649 -0.08845408293531339 255 0 0 255 
-2.078336930285309 3.838319746717219 9.679921094394068 192 192 192 255 
-2.047604120481517 -0.0005982055436261362 10.48609823349405 192 192 192 255 
-1.106193595723222 13.83247858396666 5.184285309780693 192 192 192 255 
-1.931170950782077 10.5964622124456 6.925379847970699 192 192 192 255 
-1.390945614298598 15.39732866780862 4.19784189641746 192 192 192 255 
-2.154106336579642 16.74758981634083 3.220909827601696 192 192 192 255 
-1.223518511909699 19.54902222003617 1.297025181016027 192 192 192 255 
-2.669745919604833 7.107721302208642 8.553725000805848 192 192 192 255 
-2.903433555664329 8.917414813921599 7.680693448358185 192 192 192 255 
-2.751177267211875 6.074068471392691 8.996614632377783 192 192 192 255 
-3.273650483399689 7.830173148476432 8.167095117457716 192 192 192 255 
-2.960142576026781 4.827843486043472 9.503373829388609 192 192 192 255 
-2.415630923788559 2.64425204316477 10.12415298055356 192 192 192 255 
-2.247013590121742 11.67226319686892 6.314912326662094 192 192 192 255 
-2.849315729356037 21.25128160040329 -0.08289658040036518 255 0 0 255 
-2.448093462225212 12.90624876083974 5.582399750796954 192 192 192 255 
-2.643214762167895 14.26134870008125 4.741923433925967 192 192 192 255 
-2.691286881003776 9.895393742438708 7.208458374178162 192 192 192 255 
-2.758618375632126 1.367065286075899 10.59232174019116 192 192 192 255 
-2.840591692517844 15.45683528785701 3.958480577407518 192 192 192 255 
-3.162019643534463 10.7929121713953 6.641601767346517 192 192 192 255 
-4.082109208106141 5.528328891039608 9.1173310279273 192 192 192 255 
-3.175155446256899 -0.0009473647710525481 10.97615093394869 192 192 192 255 
-2.685607018243994 19.11065002908811 1.466667745051518 192 192 192 255 
-3.34289030315068 3.629010222522354 9.988559312011013 192 192 192 255 
-3.398985050465234 20.1948407226646 0.5950074922952836 192 192 192 255 
-3.6603186815657 6.781946473305796 8.611691612367972 192 192 192 255 
-3.729379286845977 2.454583188998342 10.43718875049328 192 192 192 255 
-3.542224379117019 11.94911123930486 5.907321766011573 192 192 192 255 
-3.953960973850379 9.711782955363367 7.006168495406903 192 192 192 255 
-3.810438609931053 21.13334859097826 -0.07770430459711439 255 0 0 255 
-3.81829809144328 13.23791665592443 5.094854816970451 192 192 192 255 
-4.364810147963237 7.477914746668528 8.050122450403332 192 192 192 255 
-4.109711326500832 14.64343642356818 4.168045327727916 192 192 192 255 
-4.088475029702104 8.498626438756094 7.620633117393372 192 192 192 255 
-3.47524636958263 17.77171399914318 2.292714207125325 192 192 192 255 
-3.924325080203546 18.98901407790955 1.373154252213655 192 192 192 255 
-4.436448969698067 0.000638374304303511 11.02631986209193 192 192 192 255 
-4.92716847157995 4.465614270864042 9.299431469601176 192 192 192 255 
-4.79733871120414 6.41763064550441 8.408116333255034 192 192 192 255 
-4.41483817645364 10.926302119929 6.191706703912451 192 192 192 255 
-4.63858744314062 3.380266716980044 9.91383429349429 192 192 192 255 
-4.976261494917971 2.100601238366911 10.28715781138235 192 192 192 255 
-4.094958885656366 1.210261893914765 10.82162109364189 192 192 192 255 
-5.011781803013573 8.882900578785735 6.967597833423555 192 192 192 255 
-4.008225879620845 4.412535888485893 9.632847014765789 192 192 192 255 
-4.94294799673589 12.12452018343081 5.299258190534275 192 192 192 255 
-4.936258353130772 8.017233505122565 7.495636585898452 192 192 192 255 
-5.593857117304009 -0.0008614654212963157 10.55716851277006 192 192 192 255 
-5.037055987231777 13.45790550863107 4.553789644398348 192 192 192 255 
-4.783354420660012 20.97624053421691 -0.07179146302540482 255 0 0 255 
-5.83505383968644 6.027967711734667 7.879633870469885 192 192 192 255 
-4.961380514039337 16.8469846337228 2.589718315688233 192 192 192 255 
-5.372995675519265 7.151508341251647 7.671394071270905 192 192 192 255 
-5.206918243489126 9.965826265391357 6.295410084362763 192 192 192 255 
-5.714079128106724 4.356774850875428 8.8036278385794 192 192 192 255 
-4.968510160069104 18.20476537425382 1.706849124760211 192 192 192 255 
-5.074064393415243 19.6432840877845 0.7303199795130885 192 192 192 255 
-5.446997656343792 10.96689481552675 5.652148786837148 192 192 192 255 
-5.538659060323961 2.691509663130302 9.688572827463041 192 192 192 255 
-5.309950496645659 5.293807598700822 8.658560522326331 192 192 192 255 
-5.358843912142159 0.8822802550983977 10.45512255718339 192 192 192 255 
-5.827770316404233 12.70775699288576 4.590435913754784 192 192 192 255 
-5.348612619807165 14.36845715547514 3.908909854807903 192 192 192 255 
-5.76855414739458 20.76877444714667 -0.06579457604673949 255 0 0 255 
-6.204505089045195 2.66469176254022 9.054834616122637 192 192 192 255 
-6.200380684295029 16.04393571410819 2.680329152081455 192 192 192 255 
-6.061655088381515 1.59462007935136 9.617264007546705 192 192 192 255 
-6.306757450263654 11.59636648650229 4.84610204171414 192 192 192 255 
-6.135595271112692 17.33473844510482 1.955998643775829 192 192 192 255 
-6.042379027103842 13.60137719811385 4.040105353046743 192 192 192 255 
-6.246139700496828 18.59918058140217 1.145315187708785 192 192 192 255 
-6.636208647739879 5.58633505338147 7.192304352576523 192 192 192 255 
-6.3683256547062 14.66599025571712 3.349486322644372 192 192 192 255 
-5.753168894074212 8.002841347162329 6.928983912774861 192 192 192 255 
-6.275740987211385 4.753818639924405 8.045224333524427 192 192 192 255 
-5.596943314085898 3.557208871802013 9.276985166134656 192 192 192 255 
-6.731684230041598 1.782951622777699 8.705447971712692 192 192 192 255 
-5.998080917828833 9.053892195199055 6.204180031074175 192 192 192 255 
-6.288204426678175 3.627347235830311 8.54931756078814 192 192 192 255 
-6.465153379290412 -3.460693227589217e-05 9.710241710915223 192 192 192 255 
-6.761621080403045 20.49691351084406 -0.05951156389586457 255 0 0 255 
-6.378666947647356 6.847549475263151 6.912989330254063 192 192 192 255 
-6.798355103052037 2.715804965549845 8.221189460490535 192 192 192 255 
-6.705096218358776 12.7306779057092 4.086906903083353 192 192 192 255 
-6.235446158423577 10.226052474659 5.511459247516976 192 192 192 255 
-7.219599952428199 16.5581440532914 2.024698966171878 192 192 192 255 
-6.936915080075375 4.621595748383624 7.206527801741915 192 192 192 255 
-7.129735637002644 -0.0006080932385621053 8.710506763634314 192 192 192 255 
-7.247822523680123 17.71378199451334 1.387053879369894 192 192 192 255 
-7.220963836348429 0.9804298408993628 8.196404717171665 192 192 192 255 
-6.865385022984839 13.63185972563958 3.602068725745572 192 192 192 255 
-6.670795186644966 8.028653174792677 6.089532208291613 192 192 192 255 
-7.471314092317835 11.81264498168421 3.927357203653754 192 192 192 255 
-7.626788207491014 18.93112162405946 0.6109334789324624 192 192 192 255 
-7.18143715786096 1.894223415720562 7.917486438608508 192 192 192 255 
-6.747554598394761 0.872458684122313 9.011033363518163 192 192 192 255 
-7.031612006400885 6.130438838203584 6.462200666390157 192 192 192 255 
-7.351178598845809 15.33458629959242 2.579132920278345 192 192 192 255 
-6.90221050681199 3.714250186622544 7.67410329968336 192 192 192 255 
-8.385663849979185 15.92076840617642 1.841627058470541 192 192 192 255 
-6.989565819647543 9.200588509192826 5.301413708030316 192 192 192 255 
-7.183591439395133 7.004323822320411 5.907362552753184 192 192 192 255 
-7.522435947060528 14.13488260992647 3.024013686418007 192 192 192 255 
-7.282245297637832 5.203589798181305 6.457785810601248 192 192 192 255 
-7.369093866107918 2.69203927279031 7.285809811662249 192 192 192 255 
-7.750775576121533 20.14189458820622 -0.05296590984825297 255 0 0 255 
-7.606630287421241 13.00807842309969 3.418182937154818 192 192 192 255 
-7.678333997154089 -0.0002966308480790758 7.657674894547248 192 192 192 255 
-8.023834159473259 16.99601073583586 1.495240711492735 192 192 192 255 
-7.544965677953069 8.023625281917736 5.111652774704797 192 192 192 255 
-7.576037141308418 6.052897680572913 5.689477307144166 192 192 192 255 
-7.520308238706496 3.92879462730507 6.529822612057252 192 192 192 255 
-7.716793422569407 1.349587549314706 7.088777714673191 192 192 192 255 
-8.370342248694961 14.668017233179 2.345724611600789 192 192 192 255 
-8.319617137711573 17.87842323885403 0.946259821143454 192 192 192 255 
-8.148267710337766 -0.0005351714884093326 6.579052209181576 192 192 192 255 
-7.801356079566483 6.956929628568576 5.082220814766017 192 192 192 255 
-7.893968556203306 4.970945931918488 5.503313022851605 192 192 192 255 
-7.95286708301314 2.594866714845206 6.152959299382121 192 192 192 255 
-8.189626702293054 3.751938989813791 5.283529339814882 192 192 192 255 
-8.30600672563221 1.278409741356265 5.75353597474871 192 192 192 255 
-8.356084810578229 10.76543055928265 3.49027226699017 192 192 192 255 
-8.215985443049549 6.082342000130363 4.648528593427337 192 192 192 255 
-8.714707180039296 19.68149508486456 -0.0461211530288283 255 0 0 255 
-8.469665998269573 12.22547849257453 3.046524259901609 192 192 192 255 
-8.719791927160124 18.71878955511885 0.4114900203408949 192 192 192 255 
-8.509423183645241 2.525866671696412 4.889667843582953 192 192 192 255 
-8.567196985156105 -0.0003627548079633698 5.485620228725556 192 192 192 255 
-8.534455737318444 4.799703106255703 4.326485133400953 192 192 192 255 
-9.133300891210753 15.07103473492163 1.779715874609903 192 192 192 255 
-9.306161899947901 11.44058956067169 2.478882199303487 192 192 192 255 
-8.643401450027625 9.822269294539749 3.404417411861149 192 192 192 255 
-8.947700823510475 -0.00049747465146595 4.380281609623828 192 192 192 255 
-8.867058637555516 1.139168131363279 4.296354855007322 192 192 192 255 
-8.475530019347538 13.48656622836485 2.684029621911241 192 192 192 255 
-8.686937588811624 3.613873397537253 4.226373458136132 192 192 192 255 
-8.992610115928713 16.94335258049249 1.136373621582001 192 192 192 255 
-9.017003059335746 2.649081564160058 3.569127252085457 192 192 192 255 
-8.928799258678508 8.990234597220351 3.166747506666191 192 192 192 255 
-9.478915997983554 12.79693534947514 2.123566645817567 192 192 192 255 
-9.61885036460299 19.09146790091233 -0.03932274477941598 255 0 0 255 
-9.383306313819267 1.413428687630658 2.694014957834703 192 192 192 255 
-9.58383618289192 15.89993750487007 1.249373907195858 192 192 192 255 
-9.300708836190717 -0.0003392715324904429 3.265318555463801 192 192 192 255 
-9.408209709477374 7.752005976160128 2.579681687347291 192 192 192 255 
-9.291213559147515 14.08474705275364 1.966650163145602 192 192 192 255 
-9.217535400332144 10.1718036363928 2.72419034883648 192 192 192 255 
-9.862046255305284 6.597500793989294 1.791752289251645 192 192 192 255 
-9.629472220887958 -0.0003194961426185045 2.141843431925772 192 192 192 255 
-9.379445786927706 17.99289802697521 0.5076466176313283 192 192 192 255 
-10.23711309740674 13.70558979485337 1.38523886936821 192 192 192 255 
-9.650781439436836 5.318110316891567 2.05894376162074 192 192 192 255 
-9.936142169231712 -0.0004894408993304749 1.011593383413803 192 192 192 255 
-9.831779403125356 9.204712913942991 2.032821089580843 192 192 192 255 
-10.00247377070966 14.82909519945714 1.327891474701456 192 192 192 255 
-10.07130325112081 11.91199530443897 1.724615458617348 192 192 192 255 
-9.913869518407504 4.028170905259029 1.310830257089441 192 192 192 255 
-9.776233422879743 1.157031488226975 1.446915838455051 192 192 192 255 
-10.24837703588161 16.98542101455944 0.5410707344005052 192 192 192 255 
-10.39249636938269 7.974793046533652 1.155772043084506 192 192 192 255 
-9.964639124018101 2.387596527730885 0.9850579001103298 192 192 192 255 
-10.39564065637234 12.71287140309139 1.377867592793445 192 192 192 255 
-10.41544323740534 18.35511766345017 -0.0326083819369594 255 0 0 255 
-10.20689691966335 -0.0003676986554313543 2.251504878595933e-20 255 0 0 255 
-10.1904400874043 10.71294667456252 1.641577978564144 192 192 192 255 
-10.22569157379383 1.042024618522049 -0.001333602854488845 255 0 0 255 
-10.94322120192631 11.87329239453585 0.8884786038613837 192 192 192 255 
-10.30101356189231 2.182327362879231 -0.001117309527764519 255 0 0 255 
-10.41541233835867 3.290445660219833 -0.00115871425030889 255 0 0 255 
-10.8288972011529 9.553068766155857 0.7990672684600818 192 192 192 255 
-10.70306639539775 15.70492744149542 0.672390446806979 192 192 192 255 
-10.55828953018343 4.365315965357304 -0.001413940375843594 255 0 0 255 
-10.72137099064796 5.409067840588482 -0.001563491761750128 255 0 0 255 
-10.89647712411652 6.426164962196019 -0.001956527635454904 255 0 0 255 
-11.05248764673997 17.4793299160391 -0.026477393095725 255 0 0 255 
-11.05967229307282 10.77470521713259 0.6721865130989246 192 192 192 255 
-10.98695694855184 14.5649874519462 0.7022080268482611 192 192 192 255 
-11.07730699699112 7.422634498224324 -0.00244226064918439 255 0 0 255 
-11.25834080357378 8.405974411339525 -0.003053443792413987 255 0 0 255 
-11.19288179117393 13.28635152956828 0.6467275525816045 192 192 192 255 
-11.49931010897268 16.50415105913167 -0.02126904978820323 255 0 0 255 
-11.43376581520401 9.384713456404839 -0.00388030228143441 255 0 0 255 
-11.59719581691504 10.36735381510333 -0.004935813715849122 255 0 0 255 
-11.76633472648974 15.47999721324452 -0.01657610257921885 255 0 0 255 
-11.73959963534474 11.36141631539566 -0.006276832341539943 255 0 0 255 
-11.84892787825175 12.37172120856312 -0.008054763487213904 255 0 0 255 
-11.90685370307226 13.40001552670471 -0.01030545004701389 255 0 0 255 
-11.88952428173511 14.44301902702541 -0.01307462261001877 255 0 0 255 
9.956498461181134 1.749134470134817 0.9427774985831923 192 192 192 255 
9.546286425410715 3.836750693127067 2.242644155931443 192 192 192 255 
9.119570590830293 5.409414527892173 3.11256293841708 192 192 192 255 
8.916827114053847 7.203953293172962 3.397863724061402 192 192 192 255 
8.262000921338746 8.372087426851159 4.122827662823862 192 192 192 255 
7.526896533438518 10.56834531593331 4.326208277942746 192 192 192 255 
5.221952483639266 15.46184711322768 3.342773813744716 192 192 192 255 
3.928294062748937 16.14308951892609 3.281255047776849 192 192 192 255 
2.362206626582883 18.29788892112265 2.095311939557101 192 192 192 255 
1.125666174937747 19.04120380370533 1.689086498788676 192 192 192 255 
-1.73922669081851 18.25176529617009 2.206588058366499 192 192 192 255 
-3.797177975060051 16.16728347247254 3.296467266435838 192 192 192 255 
-5.142185049695669 15.46699736632746 3.364157190005616 192 192 192 255 
-7.265809476730518 10.49939965510666 4.57134339281436 192 192 192 255 
-8.05457562101012 9.291897046059963 4.181269501723841 192 192 192 255 
-8.450417128152976 7.608152374460446 4.022390311607087 192 192 192 255 
-9.056331365943565 6.067941190437057 3.230986624703315 192 192 192 255 
-9.187858719943696 4.211971412480959 3.009020850990411 192 192 192 255 
-9.523190623983092 2.812759376225425 2.252353254377632 192 192 192 255 
9.600809029230446 2.23545518373206 2.045963690093546 192 192 192 255 
2.044352922790383 20.55496045992753 0.4767333573949541 192 192 192 255 
-9.654126570229856 1.976267800413633 1.853709821682295 192 192 192 255 
-10.28928119386985 5.587493767631779 0.8582537743849268 192 192 192 255 
-6.516270290185639 19.76635251876692 0.3887464680453653 192 192 192 255 
9.338995844925584 1.184941979107482 2.88610197139391 192 192 192 255 
-2.28530677866595 19.87002870805614 0.9642986845922624 192 192 192 255 
-10.48896195713988 6.816722114376534 0.7699727261109924 192 192 192 255 
3 314 326 345 
3 314 345 316 
3 328 348 332 
3 328 332 314 
3 306 274 299 
3 306 299 313 
3 123 118 134 
3 123 134 144 
3 179 165 172 
3 179 172 164 
3 164 160 176 
3 164 176 177 
3 84 79 92 
3 84 92 76 
3 49 34 26 
3 49 26 438 
3 324 336 348 
3 324 348 328 
3 284 448 272 
3 284 272 285 
3 329 345 337 
3 362 357 339 
3 365 370 377 
3 377 383 382 
3 393 391 398 
3 286 310 297 
3 310 316 329 
3 310 329 297 
3 339 344 362 
3 344 332 354 
3 357 362 365 
3 344 354 362 
3 362 368 370 
3 370 376 383 
3 383 387 391 
3 407 410 415 
3 286 292 310 
3 292 267 276 
3 310 291 316 
3 308 316 291 
3 316 308 314 
3 332 326 314 
3 332 348 354 
3 354 361 368 
3 368 369 376 
3 376 385 387 
3 455 456 387 
3 292 276 291 
3 276 290 291 
3 290 308 291 
3 308 325 314 
3 290 325 308 
3 325 328 314 
3 324 328 304 
3 361 336 353 
3 336 361 348 
3 361 367 369 
3 369 378 385 
3 406 455 401 
3 421 460 422 
3 249 261 236 
3 249 273 261 
3 276 261 273 
3 261 276 267 
3 273 290 276 
3 287 304 325 
3 353 321 346 
3 321 336 324 
3 321 353 336 
3 353 360 367 
3 367 372 378 
3 454 401 455 
3 397 460 401 
3 236 226 240 
3 240 249 236 
3 260 273 249 
3 260 294 273 
3 288 309 270 
3 270 287 294 
3 321 324 300 
3 300 324 309 
3 300 331 321 
3 321 331 346 
3 346 351 360 
3 360 366 372 
3 453 454 372 
3 409 464 397 
3 464 427 423 
3 240 238 249 
3 238 260 249 
3 260 258 270 
3 258 275 270 
3 275 288 270 
3 296 323 302 
3 302 331 300 
3 302 323 331 
3 331 341 351 
3 351 359 366 
3 394 453 388 
3 394 403 409 
3 409 419 428 
3 238 246 258 
3 256 275 258 
3 281 275 259 
3 259 275 256 
3 281 302 288 
3 293 323 296 
3 323 327 341 
3 341 350 359 
3 452 388 453 
3 388 396 403 
3 403 414 419 
3 235 233 246 
3 246 245 256 
3 256 245 259 
3 283 296 281 
3 257 283 259 
3 278 293 283 
3 327 334 350 
3 451 452 350 
3 380 396 371 
3 371 396 381 
3 405 414 380 
3 380 414 396 
3 414 416 425 
3 416 414 405 
3 230 245 233 
3 245 230 243 
3 257 245 243 
3 266 278 257 
3 278 269 289 
3 293 278 303 
3 278 289 303 
3 289 307 303 
3 317 334 307 
3 371 451 342 
3 451 317 342 
3 317 451 334 
3 371 374 380 
3 356 374 342 
3 405 411 416 
3 400 411 389 
3 429 416 411 
3 435 429 436 
3 243 231 252 
3 243 252 266 
3 262 269 252 
3 243 266 257 
3 269 262 277 
3 269 277 289 
3 289 295 307 
3 295 311 317 
3 307 295 317 
3 340 356 333 
3 317 333 342 
3 311 333 317 
3 395 384 363 
3 374 384 389 
3 352 384 356 
3 400 389 395 
3 426 429 400 
3 404 426 400 
3 219 239 231 
3 239 252 231 
3 239 218 247 
3 239 262 252 
3 239 247 262 
3 262 264 277 
3 277 280 295 
3 295 298 311 
3 295 280 298 
3 319 322 340 
3 312 319 298 
3 322 352 340 
3 363 349 379 
3 379 392 404 
3 392 408 420 
3 247 251 264 
3 264 265 280 
3 280 282 298 
3 298 282 312 
3 322 450 315 
3 312 282 450 
3 335 347 315 
3 322 347 352 
3 364 386 358 
3 349 386 392 
3 408 392 386 
3 386 399 408 
3 251 253 265 
3 265 268 282 
3 449 450 282 
3 315 301 318 
3 315 318 335 
3 335 318 338 
3 335 358 349 
3 335 338 358 
3 358 338 364 
3 214 253 215 
3 253 254 268 
3 301 449 284 
3 301 305 318 
3 318 320 338 
3 338 343 364 
3 338 320 343 
3 237 241 254 
3 448 284 254 
3 284 285 305 
3 305 306 320 
3 355 461 330 
3 461 313 330 
3 306 461 320 
3 241 211 448 
3 272 274 285 
3 274 306 285 
3 244 463 255 
3 228 242 229 
3 236 227 226 
3 227 236 234 
3 227 234 228 
3 225 240 226 
3 339 357 337 
3 402 407 415 
3 383 393 382 
3 398 407 402 
3 316 345 329 
3 398 391 407 
3 402 415 413 
3 415 410 417 
3 407 459 410 
3 417 410 418 
3 410 406 418 
3 418 406 421 
3 460 421 406 
3 428 419 431 
3 419 432 431 
3 432 425 434 
3 419 425 432 
3 224 235 238 
3 223 235 224 
3 222 233 223 
3 222 221 230 
3 230 233 222 
3 221 243 230 
3 231 220 219 
3 239 219 218 
3 218 217 247 
3 215 251 216 
3 216 251 217 
3 253 214 237 
3 214 213 237 
3 212 241 213 
3 255 210 209 
3 210 255 211 
3 209 208 232 
3 434 416 435 
3 419 414 425 
3 429 426 437 
3 420 408 430 
3 426 420 433 
3 436 429 437 
3 426 433 437 
3 420 430 433 
3 408 399 412 
3 408 412 424 
3 424 430 408 
3 375 399 364 
3 425 416 434 
3 274 263 279 
3 232 244 209 
3 244 232 248 
3 390 399 375 
3 399 390 412 
3 375 373 390 
3 461 355 343 
3 343 373 375 
3 343 355 373 
3 93 105 80 
3 75 81 80 
3 80 81 93 
3 67 81 75 
3 57 61 69 
3 56 462 457 
3 147 151 162 
3 151 126 127 
3 135 127 121 
3 151 127 135 
3 114 127 111 
3 121 114 103 
3 114 111 105 
3 93 103 114 
3 114 121 127 
3 81 103 93 
3 81 89 103 
3 81 72 89 
3 69 65 72 
3 61 56 65 
3 439 457 31 
3 181 175 191 
3 121 122 135 
3 103 104 122 
3 89 97 104 
3 89 104 103 
3 89 82 97 
3 72 70 82 
3 65 59 70 
3 40 439 36 
3 193 228 207 
3 175 193 191 
3 168 143 167 
3 167 143 152 
3 143 132 152 
3 132 135 122 
3 132 116 137 
3 116 132 122 
3 104 116 122 
3 97 90 106 
3 82 90 97 
3 82 73 90 
3 70 63 73 
3 59 440 63 
3 36 16 40 
3 197 227 193 
3 227 197 226 
3 145 132 137 
3 106 131 116 
3 113 90 98 
3 90 113 106 
3 90 83 98 
3 73 68 83 
3 440 68 63 
3 40 29 44 
3 226 197 200 
3 197 180 174 
3 200 174 182 
3 174 200 197 
3 174 171 182 
3 113 123 131 
3 113 98 109 
3 113 109 123 
3 98 94 109 
3 83 74 94 
3 55 441 50 
3 44 32 50 
3 9 32 29 
3 200 202 225 
3 184 202 182 
3 171 158 184 
3 158 145 137 
3 123 144 131 
3 134 149 144 
3 123 109 118 
3 109 100 118 
3 94 85 100 
3 74 442 85 
3 50 39 55 
3 32 20 39 
3 202 196 224 
3 184 186 196 
3 186 149 166 
3 149 186 158 
3 134 157 149 
3 118 129 134 
3 118 112 129 
3 100 95 112 
3 442 95 85 
3 55 48 62 
3 39 27 48 
3 196 183 204 
3 183 186 166 
3 166 163 170 
3 163 157 150 
3 150 141 159 
3 129 150 134 
3 129 141 150 
3 112 125 141 
3 112 107 125 
3 58 62 54 
3 62 48 54 
3 54 37 46 
3 27 54 48 
3 54 27 37 
3 14 18 24 
3 11 14 27 
3 14 37 27 
3 14 24 37 
3 204 183 206 
3 170 206 183 
3 163 159 165 
3 165 185 192 
3 159 153 172 
3 141 153 159 
3 125 136 153 
3 107 119 136 
3 58 76 99 
3 58 99 443 
3 107 99 119 
3 443 99 107 
3 46 76 58 
3 46 58 54 
3 24 47 37 
3 10 18 1 
3 192 220 221 
3 159 172 165 
3 153 164 172 
3 153 148 164 
3 119 133 148 
3 119 148 136 
3 108 92 115 
3 76 108 99 
3 99 108 119 
3 108 133 119 
3 84 76 46 
3 47 60 46 
3 23 41 47 
3 23 10 30 
3 220 201 219 
3 201 195 218 
3 201 179 195 
3 179 201 185 
3 164 195 179 
3 133 139 148 
3 148 139 160 
3 101 130 115 
3 115 139 133 
3 101 79 87 
3 60 77 79 
3 79 77 87 
3 45 51 86 
3 45 77 41 
3 15 5 25 
3 45 25 51 
3 177 205 195 
3 177 176 190 
3 160 156 176 
3 101 117 444 
3 130 156 139 
3 130 444 156 
3 96 117 87 
3 117 101 87 
3 87 86 96 
3 87 77 86 
3 86 64 71 
3 33 64 51 
3 190 189 215 
3 176 173 189 
3 156 445 173 
3 117 96 124 
3 117 124 142 
3 96 86 71 
3 96 102 124 
3 96 71 102 
3 71 64 78 
3 71 78 102 
3 189 188 203 
3 445 188 173 
3 142 140 155 
3 124 120 140 
3 78 91 102 
3 102 91 120 
3 78 66 91 
3 188 199 203 
3 187 446 154 
3 140 138 154 
3 91 110 120 
3 199 447 211 
3 169 187 154 
3 138 169 154 
3 187 458 198 
3 162 175 181 
3 151 147 126 
3 126 111 127 
3 207 228 229 
3 200 225 226 
3 225 202 224 
3 57 69 67 
3 43 35 49 
3 34 35 28 
3 462 43 49 
3 34 49 35 
3 438 26 22 
3 26 34 28 
3 49 438 457 
3 22 21 31 
3 31 21 36 
3 16 36 19 
3 13 29 16 
3 21 19 36 
3 9 29 13 
3 7 20 8 
3 20 6 11 
3 6 20 7 
3 196 223 224 
3 223 196 204 
3 222 223 204 
3 206 221 222 
3 221 206 192 
3 222 204 206 
3 192 206 170 
3 218 195 217 
3 201 218 219 
3 190 216 205 
3 205 216 217 
3 195 205 217 
3 189 214 215 
3 213 203 199 
3 203 213 214 
3 212 199 211 
3 199 212 213 
3 198 447 187 
3 194 209 198 
3 198 210 447 
3 11 4 14 
3 6 4 11 
3 4 2 14 
3 2 18 14 
3 20 11 27 
3 10 3 15 
3 5 15 3 
3 0 3 10 
3 5 33 25 
3 33 17 42 
3 12 33 5 
3 12 17 33 
3 38 66 42 
3 138 128 146 
3 161 169 146 
3 128 138 110 
3 209 194 208 
3 194 198 458 
3 169 161 178 
3 210 198 209 
3 66 38 52 
3 17 38 42 
3 91 52 88 
3 52 91 66 
3 345 339 337 
3 345 326 339 
3 365 362 370 
3 377 370 383 
3 393 383 391 
3 286 271 292 
3 291 310 292 
3 344 326 332 
3 344 339 326 
3 362 354 368 
3 370 368 376 
3 383 376 387 
3 456 459 391 
3 250 267 271 
3 234 250 242 
3 267 292 271 
3 354 348 361 
3 368 361 369 
3 376 369 385 
3 387 385 455 
3 234 242 228 
3 234 267 250 
3 234 261 267 
3 261 234 236 
3 287 325 290 
3 328 325 304 
3 361 353 367 
3 369 367 378 
3 378 455 385 
3 273 294 290 
3 287 290 294 
3 309 304 287 
3 309 324 304 
3 353 346 360 
3 367 360 372 
3 401 454 397 
3 460 464 423 
3 260 270 294 
3 287 270 309 
3 346 331 351 
3 360 351 366 
3 372 366 453 
3 397 394 409 
3 427 409 428 
3 225 238 240 
3 238 258 260 
3 309 288 300 
3 288 275 281 
3 302 300 288 
3 331 323 341 
3 351 341 359 
3 359 453 366 
3 394 388 403 
3 409 403 419 
3 224 238 225 
3 235 246 238 
3 246 256 258 
3 302 281 296 
3 323 293 327 
3 341 327 350 
3 388 452 381 
3 388 381 396 
3 403 396 414 
3 223 233 235 
3 233 245 246 
3 296 283 293 
3 259 283 281 
3 283 257 278 
3 303 327 293 
3 303 334 327 
3 350 334 451 
3 245 257 259 
3 278 266 269 
3 303 307 334 
3 371 342 374 
3 405 380 389 
3 374 389 380 
3 405 389 411 
3 429 435 416 
3 400 429 411 
3 243 220 231 
3 220 243 221 
3 252 269 266 
3 289 277 295 
3 333 319 340 
3 342 333 356 
3 333 311 319 
3 363 384 352 
3 356 340 352 
3 395 363 379 
3 389 384 395 
3 356 384 374 
3 400 395 404 
3 426 404 420 
3 262 247 264 
3 277 264 280 
3 319 312 322 
3 311 298 319 
3 363 347 349 
3 352 347 363 
3 349 392 379 
3 379 404 395 
3 404 392 420 
3 247 217 251 
3 264 251 265 
3 280 265 282 
3 315 347 322 
3 347 335 349 
3 358 386 349 
3 386 364 399 
3 251 215 253 
3 265 253 268 
3 282 268 449 
3 253 237 254 
3 254 449 268 
3 301 284 305 
3 318 305 320 
3 364 343 375 
3 241 237 213 
3 305 285 306 
3 272 463 274 
3 299 274 279 
3 248 263 244 
3 67 69 81 
3 53 61 57 
3 43 462 53 
3 162 168 175 
3 93 114 105 
3 69 72 81 
3 61 65 69 
3 462 56 61 
3 31 438 22 
3 151 168 162 
3 167 175 168 
3 143 151 135 
3 121 103 122 
3 72 82 89 
3 65 70 72 
3 56 59 65 
3 439 56 457 
3 193 207 191 
3 193 175 180 
3 180 175 167 
3 143 168 151 
3 143 135 132 
3 97 106 104 
3 106 116 104 
3 70 73 82 
3 59 63 70 
3 439 40 440 
3 193 227 228 
3 197 193 180 
3 167 152 174 
3 167 174 180 
3 152 132 145 
3 131 137 116 
3 113 131 106 
3 73 83 90 
3 63 68 73 
3 44 440 40 
3 16 29 40 
3 152 171 174 
3 145 171 152 
3 83 94 98 
3 68 74 83 
3 440 441 68 
3 29 32 44 
3 32 9 8 
3 200 182 202 
3 182 171 184 
3 145 158 171 
3 131 144 137 
3 144 158 137 
3 149 158 144 
3 94 100 109 
3 74 85 94 
3 441 55 442 
3 32 39 50 
3 8 20 32 
3 202 184 196 
3 184 158 186 
3 149 157 166 
3 150 157 134 
3 100 112 118 
3 85 95 100 
3 62 442 55 
3 39 48 55 
3 20 27 39 
3 196 186 183 
3 157 163 166 
3 183 166 170 
3 129 112 141 
3 95 107 112 
3 62 443 95 
3 165 192 170 
3 159 163 150 
3 163 165 170 
3 141 125 153 
3 125 107 136 
3 37 47 46 
3 18 23 24 
3 1 18 2 
3 10 1 0 
3 220 192 185 
3 165 179 185 
3 136 148 153 
3 108 76 92 
3 108 115 133 
3 84 46 60 
3 41 60 47 
3 23 30 41 
3 23 47 24 
3 10 23 18 
3 10 15 30 
3 201 220 185 
3 164 177 195 
3 148 160 164 
3 101 115 92 
3 115 130 139 
3 60 79 84 
3 79 101 92 
3 77 60 41 
3 45 41 30 
3 77 45 86 
3 15 45 30 
3 15 25 45 
3 177 190 205 
3 139 156 160 
3 51 64 86 
3 25 33 51 
3 33 42 64 
3 176 189 190 
3 156 173 176 
3 444 142 445 
3 189 203 214 
3 173 188 189 
3 155 445 142 
3 124 140 142 
3 102 120 124 
3 66 78 42 
3 155 446 188 
3 140 154 155 
3 120 138 140 
3 446 187 447 
3 169 138 146 
3 178 458 169 
3 42 78 64 
3 439 31 36 
3 439 59 56 
3 440 59 439 
3 440 44 441 
3 441 44 50 
3 441 74 68 
3 442 74 441 
3 442 62 95 
3 443 62 58 
3 443 107 95 
3 444 130 101 
3 444 117 142 
3 445 156 444 
3 445 155 188 
3 446 155 154 
3 446 199 188 
3 447 199 446 
3 447 210 211 
3 216 190 215 
3 244 255 209 
3 448 254 241 
3 448 255 272 
3 449 301 450 
3 449 254 284 
3 450 322 312 
3 450 301 315 
3 451 371 452 
3 452 359 350 
3 452 371 381 
3 453 394 454 
3 453 359 452 
3 454 378 372 
3 454 394 397 
3 455 406 456 
3 455 378 454 
3 456 391 387 
3 456 406 410 
3 457 438 31 
3 458 178 194 
3 458 187 169 
3 244 263 274 
3 459 407 391 
3 459 456 410 
3 460 406 401 
3 460 423 422 
3 461 343 320 
3 461 306 313 
3 462 49 457 
3 462 61 53 
3 463 272 255 
3 244 274 463 
3 211 241 212 
3 211 255 448 
3 464 460 397 
3 464 409 427 
3 110 91 88 
3 110 138 120 
