ply
format ascii 1.0
comment VCGLIB generated
element vertex 480
property float x
property float y
property float z
property uchar red
property uchar green
property uchar blue
property uchar alpha
element face 858
property list uchar int vertex_indices
end_header
10.63389 0.7829634 -23.01256 255 255 255 255 
10.63389 1.1742 -21.8995 255 255 255 255 
10.63389 1.546359 -20.78002 255 255 255 255 
10.63389 1.897075 -19.65289 255 255 255 255 
10.63389 2.222858 -18.51661 255 255 255 255 
10.63389 2.519782 -17.37078 255 255 255 255 
10.63389 2.783602 -16.21641 255 255 255 255 
10.63389 3.009682 -15.05619 255 255 255 255 
10.63389 3.197852 -13.86226 255 255 255 255 
10.63389 3.33015 -12.7427 255 255 255 255 
10.63389 3.418816 -11.58821 255 255 255 255 
10.63389 3.456242 -10.43472 255 255 255 255 
10.63389 3.44337 -9.372332 255 255 255 255 
10.63389 3.383034 -8.304832 255 255 255 255 
10.63389 3.277726 -7.268492 255 255 255 255 
10.63389 3.130336 -6.261358 255 255 255 255 
10.63389 2.950376 -5.313102 255 255 255 255 
10.63389 2.719322 -4.322576 255 255 255 255 
10.63389 2.45921 -3.382812 255 255 255 255 
10.63389 2.16178 -2.450574 255 255 255 255 
10.63389 1.824947 -1.51773 255 255 255 255 
10.63389 1.44566 -0.5768206 255 255 255 255 
10.63389 1.017437 0.3845058 255 255 255 255 
10.63389 0.5337298 1.374781 255 255 255 255 
10.63389 -0.0107464 2.397726 255 255 255 255 
10.63389 -0.6206064 3.454956 255 0 0 255 
11.45708 0.6633576 -22.55882 255 255 255 255 
11.14935 0.9733218 -21.80028 255 255 255 255 
11.10398 1.269957 -20.6884 255 255 255 255 
11.05586 1.545306 -19.56735 255 255 255 255 
11.01509 1.78427 -18.44451 255 255 255 255 
10.93586 2.034314 -17.28357 255 255 255 255 
10.84971 2.189328 -15.16902 255 255 255 255 
10.6756 2.6608 -14.05794 255 255 255 255 
10.51572 2.865992 -11.75381 255 255 255 255 
10.43248 2.926328 -10.65726 255 255 255 255 
9.414488 1.497312 -0.7651586 255 255 255 255 
9.754438 1.18468 0.1781719 255 255 255 255 
9.843678 0.7902234 1.162979 255 255 255 255 
10.07803 -0.0406675 2.805798 255 255 255 255 
12.04226 0.4573146 -22.85278 255 255 255 255 
11.65933 0.784853 -21.6231 255 255 255 255 
11.5863 0.987079 -20.59134 255 255 255 255 
11.46909 1.189921 -19.54437 255 255 255 255 
11.3912 1.340917 -18.59573 255 255 255 255 
10.76198 2.136412 -14.21321 255 255 255 255 
10.62602 2.512652 -13.09476 255 255 255 255 
10.46443 2.294346 -12.07059 255 255 255 255 
10.28802 2.343644 -10.94568 255 255 255 255 
8.722332 1.778407 -2.484624 255 255 255 255 
8.878232 1.686349 -1.672734 255 255 255 255 
8.548318 1.441704 -0.5985222 255 255 255 255 
8.391168 1.209169 0.4262448 255 255 255 255 
8.989532 1.002668 0.9685122 255 255 255 255 
8.73498 0.612088 2.235324 255 255 255 255 
12.11761 0.5809074 -21.7039 255 255 255 255 
12.05859 0.7064598 -20.53628 255 255 255 255 
11.90581 0.8499266 -19.36937 255 255 255 255 
11.47786 1.21261 -17.58635 255 255 255 255 
11.10577 1.399246 -15.26628 255 255 255 255 
10.8772 1.509827 -14.18224 255 255 255 255 
10.63366 1.612415 -13.06842 255 255 255 255 
10.09546 1.374149 -11.05856 255 255 255 255 
7.475306 1.285462 0.4526214 255 255 255 255 
7.542854 1.12828 1.289712 255 255 255 255 
7.075822 1.00245 2.325522 255 255 255 255 
11.9193 0.791149 -18.36571 255 255 255 255 
11.47403 0.9941478 -16.22832 255 255 255 255 
11.30129 0.8193228 -15.15823 255 255 255 255 
11.02723 0.985292 -14.29018 255 255 255 255 
6.348452 1.293718 1.48879 255 255 255 255 
6.022848 1.255003 2.410518 255 255 255 255 
12.98239 0.232808 -22.80668 255 255 255 255 
12.7763 0.311951 -21.84358 255 255 255 255 
12.6546 0.3624138 -20.64734 255 255 255 255 
12.49893 0.390844 -19.46896 255 255 255 255 
12.40355 0.319288 -18.48724 255 255 255 255 
12.00765 0.5049446 -17.29557 255 255 255 255 
11.62401 0.3422722 -15.49105 255 255 255 255 
11.27771 0.2278174 -14.3498 255 255 255 255 
10.52443 0.2359272 -12.51921 255 255 255 255 
10.0026 0.4470504 -11.28167 255 255 255 255 
8.460108 0.2204838 -8.521528 255 255 255 255 
5.48079 1.416828 -0.5032444 255 255 255 255 
5.281898 1.474487 1.527874 255 255 255 255 
4.971128 1.516329 2.448056 255 255 255 255 
13.53465 0.03469092 -21.83138 255 255 255 255 
13.26463 0.05131808 -20.89214 255 255 255 255 
13.06835 0.003257396 -19.68536 255 255 255 255 
12.82439 -0.0642653 -18.48737 255 255 255 255 
12.50371 -0.1220431 -17.31909 255 255 255 255 
12.10495 -0.2171876 -16.04919 255 255 255 255 
11.68071 -0.2723048 -14.95448 255 255 255 255 
11.18613 -0.3173998 -13.82972 255 255 255 255 
10.65958 -0.331034 -12.75106 255 255 255 255 
10.0991 -0.3018766 -11.69934 255 255 255 255 
9.513158 -0.2203608 -10.64458 255 255 255 255 
8.983458 0.08781078 -9.517484 255 255 255 255 
7.1857 -0.2885756 -7.316796 255 255 255 255 
4.239388 1.656989 1.57797 255 255 255 255 
3.929098 1.770822 2.471382 255 255 255 255 
13.97058 0.003955254 -22.74882 255 255 255 255 
6.485496 -0.2154364 -6.467856 255 255 255 255 
5.91413 -0.01787364 -5.619554 255 255 255 255 
5.13411 0.3090856 -4.35895 255 255 255 255 
3.523376 1.393402 -0.557385 255 255 255 255 
3.564454 1.592392 0.3168604 255 255 255 255 
3.372378 1.793826 1.443967 255 255 255 255 
2.060238 2.279036 2.820084 255 255 255 255 
14.95198 -0.2039574 -22.76092 255 255 255 255 
1.288887 1.806383 0.5438742 255 255 255 255 
1.336508 2.102236 1.431301 255 255 255 255 
1.269163 2.417276 2.52188 255 255 255 255 
15.70147 -0.4421286 -22.452 255 255 255 255 
14.0624 -1.836946 -17.12258 255 255 255 255 
12.68761 -2.463084 -14.76256 255 255 255 255 
-0.323751 2.815854 2.66335 255 255 255 255 
16.52097 -0.7095846 -22.19646 255 255 255 255 
15.07474 -1.090852 -19.82095 255 255 255 255 
10.99921 -2.994672 -12.63083 255 255 255 255 
8.877564 -3.210678 -10.57954 255 255 255 255 
7.142222 -2.86329 -9.001436 255 255 255 255 
2.741246 -1.792356 -5.449986 255 255 255 255 
-0.3569612 1.36036 -0.5214914 255 255 255 255 
-0.3560512 1.833256 0.3312146 255 255 255 255 
15.96803 -1.61022 -19.66547 255 255 255 255 
14.85704 -2.695694 -16.95112 255 255 255 255 
12.92542 -3.64184 -14.29518 255 255 255 255 
4.70891 -2.700212 -7.20445 255 255 255 255 
-2.298744 3.381654 2.906562 255 255 255 255 
17.48989 -0.8513064 -22.34768 255 255 255 255 
11.04314 -4.307872 -12.39879 255 255 255 255 
8.88097 -4.194598 -10.68 255 255 255 255 
6.491756 -3.884412 -8.910714 255 255 255 255 
0.05938684 -0.8515746 -3.518094 255 255 255 255 
-1.51773 0.5958056 -1.541011 255 255 255 255 
-2.717276 2.15658 0.6430378 255 255 255 255 
-3.459198 3.574278 2.764258 255 255 255 255 
1.708733 -2.302716 -5.398524 255 255 255 255 
-0.662329 -1.1317 -3.584084 255 255 255 255 
-2.390936 0.437572 -1.62277 255 255 255 255 
-3.718254 2.168244 0.5611 255 255 255 255 
-4.04898 3.140552 1.896085 255 255 255 255 
17.38935 -1.531137 -20.90018 255 255 255 255 
16.79775 -2.122006 -19.46895 255 255 255 255 
16.34961 -2.877086 -18.05683 255 255 255 255 
14.81557 -4.076298 -15.62672 255 255 255 255 
12.66344 -5.047596 -13.42955 255 255 255 255 
11.22181 -5.311054 -12.32594 255 255 255 255 
8.75751 -5.362826 -10.66559 255 255 255 255 
4.67843 -4.495702 -8.07728 255 255 255 255 
3.221366 -4.18273 -7.22578 255 255 255 255 
2.357658 -3.801192 -6.64527 255 255 255 255 
0.8285368 -2.849008 -5.445326 255 255 255 255 
-0.08144708 -2.330622 -4.759216 255 255 255 255 
-1.358377 -1.324959 -3.575152 255 255 255 255 
-5.037678 3.283826 1.878539 255 255 255 255 
18.54106 -0.2973684 -23.85828 255 0 0 255 
18.38921 -1.033822 -22.32806 255 255 255 255 
18.08851 -1.791371 -20.83068 255 255 255 255 
17.62872 -2.55955 -19.37985 255 255 255 255 
17.00103 -3.322318 -17.99055 255 255 255 255 
16.19979 -4.056898 -16.67767 255 255 255 255 
15.22741 -4.733058 -15.45208 255 255 255 255 
14.09641 -5.316844 -14.3187 255 255 255 255 
12.82915 -5.775904 -13.27559 255 255 255 255 
11.41664 -6.090442 -12.28779 255 255 255 255 
10.01876 -6.225596 -11.42078 255 255 255 255 
8.527938 -6.196262 -10.5629 255 255 255 255 
7.009718 -5.99597 -9.716692 255 255 255 255 
5.60104 -5.66472 -8.925188 255 255 255 255 
4.186704 -5.196904 -8.09984 255 255 255 255 
2.82357 -4.620972 -7.255884 255 255 255 255 
1.516528 -3.954012 -6.386072 255 255 255 255 
0.3105904 -3.236554 -5.517292 255 255 255 255 
-0.9116578 -2.40225 -4.556172 255 255 255 255 
-2.021188 -1.538923 -3.59418 255 255 255 255 
-3.055476 -0.6230286 -2.594012 255 255 255 255 
-4.002394 0.3412626 -1.551086 255 255 255 255 
-4.842306 1.347828 -0.4609044 255 255 255 255 
-5.550834 2.39311 0.6876626 255 255 255 255 
-6.088544 3.46431 1.902263 255 255 255 255 
10.63389 0.4720384 -23.85828 255 0 0 255 
11.37337 0.3750086 -23.85828 255 0 0 255 
12.36016 0.2555172 -23.85828 255 0 0 255 
13.34775 0.1465438 -23.85828 255 0 0 255 
14.33599 0.04678022 -23.85828 255 0 0 255 
15.32478 -0.04487742 -23.85828 255 0 0 255 
16.31401 -0.1293659 -23.85828 255 0 0 255 
17.30362 -0.207485 -23.85828 255 0 0 255 
-6.433758 4.750886 3.454956 255 0 0 255 
-5.288148 4.454632 3.454956 255 0 0 255 
-4.151386 4.15488 3.454956 255 0 0 255 
-3.023706 3.851348 3.454956 255 0 0 255 
-1.905373 3.543736 3.454956 255 0 0 255 
-0.7966756 3.23172 3.454956 255 0 0 255 
0.3020596 2.914948 3.454956 255 0 0 255 
1.390471 2.59304 3.454956 255 0 0 255 
2.46815 2.265576 3.454956 255 0 0 255 
3.534646 1.932104 3.454956 255 0 0 255 
4.589444 1.592118 3.454956 255 0 0 255 
5.631964 1.245065 3.454956 255 0 0 255 
6.661554 0.8903268 3.454956 255 0 0 255 
7.58583 0.5604836 3.454956 255 0 0 255 
8.678842 0.1549577 3.454956 255 0 0 255 
9.664696 -0.227319 3.454956 255 0 0 255 
7.771626 0.6225924 3.024476 255 255 255 255 
8.95249 0.280442 2.928012 255 255 255 255 
-5.34602 4.211888 3.089834 255 255 255 255 
10.40307 3.032052 -9.491154 255 255 255 255 
9.954798 2.55561 -8.00649 255 255 255 255 
10.18189 2.826932 -7.057394 255 255 255 255 
10.08895 2.70125 -6.063 255 255 255 255 
10.0252 2.566436 -5.101686 255 255 255 255 
9.967528 2.395466 -4.13455 255 255 255 255 
9.914082 2.192582 -3.192814 255 255 255 255 
9.753562 1.940571 -2.287242 255 255 255 255 
10.07048 1.799984 -1.607389 255 255 255 255 
10.12348 2.303648 -10.02647 255 255 255 255 
9.577586 2.260638 -6.999844 255 255 255 255 
9.412012 2.21148 -6.023312 255 255 255 255 
9.268804 2.146474 -5.0697 255 255 255 255 
9.13756 2.053002 -4.108408 255 255 255 255 
9.005644 1.929022 -3.185384 255 255 255 255 
9.792774 1.760713 -9.678764 255 255 255 255 
9.237872 1.666947 -7.937744 255 255 255 255 
8.96796 1.687857 -6.979296 255 255 255 255 
8.73072 1.719313 -6.013632 255 255 255 255 
8.508294 1.725863 -5.071672 255 255 255 255 
8.299234 1.710233 -4.11779 255 255 255 255 
8.104424 1.669461 -3.195716 255 255 255 255 
7.953462 1.612489 -2.28621 255 255 255 255 
7.823522 1.524761 -1.334853 255 255 255 255 
7.686942 1.401655 -0.3643222 255 255 255 255 
8.301062 1.111935 -6.850172 255 255 255 255 
8.100752 1.295231 -5.93211 255 255 255 255 
7.773894 1.31889 -5.080432 255 255 255 255 
7.48547 1.37727 -4.128482 255 255 255 255 
7.238454 1.422691 -3.18769 255 255 255 255 
7.028852 1.447767 -2.242722 255 255 255 255 
6.850104 1.445757 -1.281175 255 255 255 255 
6.625442 1.410526 -0.2798516 255 255 255 255 
6.678088 1.333841 0.700286 255 255 255 255 
8.715524 1.006988 -7.940712 255 255 255 255 
7.500712 0.8420082 -5.993046 255 255 255 255 
7.034074 0.9113164 -5.077248 255 255 255 255 
6.663144 1.042096 -4.129022 255 255 255 255 
6.37826 1.177202 -3.191594 255 255 255 255 
6.12408 1.28799 -2.244494 255 255 255 255 
5.877788 1.36835 -1.296241 255 255 255 255 
5.7457 1.435196 0.447786 255 255 255 255 
7.3404 0.4266866 -6.55695 255 255 255 255 
5.545998 0.9539488 -3.164688 255 255 255 255 
5.21063 1.126118 -2.256554 255 255 255 255 
4.900652 1.289716 -1.307666 255 255 255 255 
4.348384 1.576792 0.7693906 255 255 255 255 
5.92267 0.7116394 -4.211682 255 255 255 255 
4.736644 0.685856 -3.268544 255 255 255 255 
4.312106 0.965089 -2.268328 255 255 255 255 
3.950466 1.212757 -1.31176 255 255 255 255 
14.19599 -0.6494148 -19.7395 255 255 255 255 
13.79663 -0.8315024 -18.50935 255 255 255 255 
13.44864 -1.084881 -17.35598 255 255 255 255 
12.80146 -1.277059 -15.99497 255 255 255 255 
12.3143 -1.506781 -14.97285 255 255 255 255 
11.56051 -1.660233 -13.75571 255 255 255 255 
10.09289 -1.743949 -11.73282 255 255 255 255 
9.300732 -1.66173 -10.73678 255 255 255 255 
8.520322 -1.539372 -9.778074 255 255 255 255 
7.776078 -1.353554 -8.860146 255 255 255 255 
7.052034 -1.118329 -7.943258 255 255 255 255 
6.339842 -0.8632238 -7.026848 255 255 255 255 
5.6614 -0.5786286 -6.11483 255 255 255 255 
5.057496 -0.2246008 -5.170202 255 255 255 255 
4.412484 0.1012923 -4.203834 255 255 255 255 
3.895638 0.4619074 -3.239212 255 255 255 255 
3.435154 0.8100122 -2.274008 255 255 255 255 
3.02895 1.142569 -1.303252 255 255 255 255 
2.713226 1.460794 -0.3128586 255 255 255 255 
2.401966 1.778613 0.7770562 255 255 255 255 
2.295452 2.056708 1.940552 255 255 255 255 
14.61448 -0.2861508 -21.93064 255 255 255 255 
14.51109 -0.5116294 -20.79678 255 255 255 255 
13.41051 -1.553763 -16.62593 255 255 255 255 
11.99469 -2.171718 -14.08317 255 255 255 255 
10.86252 -1.94308 -12.71871 255 255 255 255 
7.305498 -1.924504 -8.713726 255 255 255 255 
6.523958 -1.645581 -7.838756 255 255 255 255 
5.751944 -1.336791 -6.950746 255 255 255 255 
5.033044 -0.978315 -6.057396 255 255 255 255 
4.338046 -0.5975922 -5.144392 255 255 255 255 
3.682974 -0.1910964 -4.20519 255 255 255 255 
3.097874 0.230307 -3.255048 255 255 255 255 
2.575476 0.65805 -2.280352 255 255 255 255 
2.124534 1.080542 -1.283665 255 255 255 255 
1.734259 1.486849 -0.267024 255 255 255 255 
15.09723 -0.8578716 -20.53134 255 255 255 255 
14.56882 -1.104156 -19.1334 255 255 255 255 
14.19993 -1.367421 -18.06282 255 255 255 255 
13.08264 -1.975521 -15.67375 255 255 255 255 
9.54844 -2.612848 -11.15153 255 255 255 255 
8.786102 -2.415686 -10.34009 255 255 255 255 
8.062756 -2.805048 -9.754618 255 255 255 255 
5.16812 -1.871522 -6.93943 255 255 255 255 
4.412666 -1.403523 -6.043082 255 255 255 255 
3.590614 -1.017245 -5.15967 255 255 255 255 
2.303776 0.01747698 -3.245756 255 255 255 255 
1.726746 0.5084954 -2.28629 255 255 255 255 
1.21436 1.011087 -1.281992 255 255 255 255 
0.6922132 1.51324 -0.2309934 255 255 255 255 
0.4512004 2.004706 0.869351 255 255 255 255 
0.2746916 2.447024 1.981988 255 255 255 255 
15.37307 -0.6142916 -21.59378 255 255 255 255 
15.67835 -1.073514 -20.57726 255 255 255 255 
6.646966 -2.391092 -8.396392 255 255 255 255 
5.818728 -2.220306 -7.652032 255 255 255 255 
3.54119 -1.939703 -5.997096 255 255 255 255 
1.494643 -0.1947441 -3.234584 255 255 255 255 
0.8174268 0.3295828 -2.31639 255 255 255 255 
0.288922 0.9365444 -1.285488 255 255 255 255 
-1.201916 3.028722 2.698932 255 255 255 255 
16.19226 -0.8996888 -21.48666 255 255 255 255 
16.42207 -1.447601 -20.4293 255 255 255 255 
15.20495 -1.610935 -18.91234 255 255 255 255 
14.8416 -1.957193 -17.91152 255 255 255 255 
13.96948 -2.366502 -16.38705 255 255 255 255 
13.51402 -2.827862 -15.42971 255 255 255 255 
12.3593 -3.0096 -14.07788 255 255 255 255 
11.76423 -3.689882 -13.20996 255 255 255 255 
10.41951 -3.86515 -11.94807 255 255 255 255 
9.62762 -3.579372 -11.26122 255 255 255 255 
8.30991 -3.574722 -10.15692 255 255 255 255 
7.472304 -3.471368 -9.485322 255 255 255 255 
5.764864 -3.566006 -8.321168 255 255 255 255 
5.317494 -2.83753 -7.68535 255 255 255 255 
3.28738 -2.660328 -6.38601 255 255 255 255 
4.311872 -2.275842 -6.687384 255 255 255 255 
1.814997 -1.461437 -4.7349 255 255 255 255 
2.538038 -1.192097 -4.797298 255 255 255 255 
2.14828 -0.5927578 -3.987048 255 255 255 255 
0.7245104 -0.412767 -3.249372 255 255 255 255 
-0.6278588 0.8472444 -1.311684 255 255 255 255 
-1.204356 1.712898 0.04961768 255 255 255 255 
-1.634624 2.217984 0.893424 255 255 255 255 
-1.795282 2.829974 2.007028 255 255 255 255 
16.92025 -1.135664 -21.42392 255 255 255 255 
15.96742 -2.195316 -18.70114 255 255 255 255 
14.45816 -3.204242 -16.05997 255 255 255 255 
12.63779 -4.24099 -13.74364 255 255 255 255 
10.3799 -4.668352 -11.81495 255 255 255 255 
9.626128 -4.302412 -11.27342 255 255 255 255 
8.14625 -4.491982 -10.18506 255 255 255 255 
3.126532 -3.319632 -6.731766 255 255 255 255 
3.971584 -3.109282 -7.03136 255 255 255 255 
2.651624 -2.366376 -5.875398 255 255 255 255 
0.9096654 -1.962316 -4.827232 255 255 255 255 
1.018153 -1.007989 -3.99362 255 255 255 255 
0.002400672 -0.254573 -2.863836 255 255 255 255 
-0.4781432 0.279196 -2.110432 255 255 255 255 
-1.375553 1.151038 -0.8167138 255 255 255 255 
-2.105702 1.652623 -0.07509866 255 255 255 255 
-2.89998 3.072226 2.095482 255 255 255 255 
15.75375 -3.206962 -17.19783 255 255 255 255 
15.50629 -2.402778 -17.97315 255 255 255 255 
13.89299 -4.336678 -14.72482 255 255 255 255 
13.97547 -3.714404 -15.20746 255 255 255 255 
11.90207 -4.788298 -12.97131 255 255 255 255 
10.35615 -5.491338 -11.71734 255 255 255 255 
9.478978 -4.998508 -11.15384 255 255 255 255 
7.037248 -4.391522 -9.417782 255 255 255 255 
3.872058 -3.86902 -7.386652 255 255 255 255 
4.691998 -3.573902 -7.679042 255 255 255 255 
2.214324 -2.959336 -6.078152 255 255 255 255 
0.1330277 -1.482009 -4.143384 255 255 255 255 
-0.8723632 -0.5958556 -3.022764 255 255 255 255 
-1.626959 -0.07689162 -2.307066 255 255 255 255 
-2.4254 0.9988264 -0.9669658 255 255 255 255 
-3.07125 1.584874 -0.1844179 255 255 255 255 
-3.519788 2.653792 1.259484 255 255 255 255 
15.23673 -3.665584 -16.3316 255 255 255 255 
13.23224 -4.693812 -14.02846 255 255 255 255 
6.197528 -4.943122 -9.055196 255 255 255 255 
7.12261 -5.177368 -9.644056 255 255 255 255 
5.462698 -4.231146 -8.416704 255 255 255 255 
-2.42529 -0.2691646 -2.36514 255 255 255 255 
-3.313804 0.9438468 -0.9749486 255 255 255 255 
-3.96412 1.542422 -0.2444816 255 255 255 255 
-4.575202 2.583688 1.020757 255 255 255 255 
-4.539106 3.768796 2.733768 255 255 255 255 
18.23886 -1.412597 -21.57938 255 255 255 255 
17.75111 -1.278497 -21.60282 255 255 255 255 
17.85861 -2.17546 -20.10526 255 255 255 255 
17.43731 -1.975786 -20.16708 255 255 255 255 
17.31487 -2.940934 -18.6852 255 255 255 255 
16.86192 -2.658182 -18.74915 255 255 255 255 
16.60041 -3.689608 -17.33411 255 255 255 255 
16.33583 -3.418952 -17.43814 255 255 255 255 
15.7136 -4.394978 -16.06487 255 255 255 255 
15.49685 -4.20879 -16.07605 255 255 255 255 
14.66191 -5.024952 -14.88539 255 255 255 255 
14.46444 -4.614078 -15.00235 255 255 255 255 
13.46278 -5.546374 -13.79714 255 255 255 255 
13.30965 -5.30074 -13.8147 255 255 255 255 
12.1229 -5.933174 -12.78169 255 255 255 255 
12.05307 -5.488052 -12.86644 255 255 255 255 
10.7177 -6.158018 -11.85429 255 255 255 255 
9.27335 -6.210928 -10.99184 255 255 255 255 
9.363826 -5.756384 -11.05926 255 255 255 255 
7.768828 -6.096116 -10.1398 255 255 255 255 
7.911306 -5.515448 -10.16414 255 255 255 255 
6.305378 -5.830346 -9.32094 255 255 255 255 
6.451976 -5.478056 -9.332578 255 255 255 255 
4.893872 -5.430812 -8.512514 255 255 255 255 
5.14362 -5.061112 -8.526248 255 255 255 255 
3.505136 -4.908938 -7.677862 255 255 255 255 
3.8813 -4.496808 -7.680672 255 255 255 255 
2.170048 -4.287492 -6.820978 255 255 255 255 
0.9135592 -3.595284 -5.951682 255 255 255 255 
-0.3005338 -2.819402 -5.036732 255 255 255 255 
-1.466423 -1.970587 -4.075176 255 255 255 255 
-0.8226128 -1.751725 -4.079196 255 255 255 255 
-2.538332 -1.080976 -3.094096 255 255 255 255 
-1.872494 -0.8685412 -3.045806 255 255 255 255 
-3.528936 -0.140883 -2.072548 255 255 255 255 
-3.155964 0.233025 -1.753805 255 255 255 255 
-4.42235 0.8445454 -1.005995 255 255 255 255 
-4.009436 0.9207148 -0.9660676 255 255 255 255 
-5.19657 1.870469 0.1133791 255 255 255 255 
-4.693514 1.927582 0.1819087 255 255 255 255 
-5.81969 2.92871 1.294963 255 255 255 255 
-5.353104 2.902684 1.302711 255 255 255 255 
16.76494 -0.4136668 -23.12188 255 255 255 255 
17.85637 -0.568084 -23.11514 255 255 255 255 
18.46514 -0.665595 -23.09318 255 255 255 255 
-5.455816 3.792392 2.488934 255 255 255 255 
-6.261152 4.107598 2.67861 255 255 255 255 
10.00928 2.501332 -8.80044 255 255 255 255 
9.442478 1.660712 -8.657352 255 255 255 255 
8.056574 0.8035664 2.137326 255 255 255 255 
7.889616 0.280191 -7.571056 255 255 255 255 
3.073818 1.971768 2.4796 255 255 255 255 
7.939578 -2.257102 -9.461634 255 255 255 255 
2.944668 -0.454594 -4.171252 255 255 255 255 
0.5441964 2.672248 2.86055 255 255 255 255 
6.142592 -2.918244 -8.274168 255 255 255 255 
-0.9531714 2.046366 0.6818304 255 255 255 255 
-0.8310002 2.550914 1.767205 255 255 255 255 
-2.450318 2.649604 1.474104 255 255 255 255 
15.86347 -0.2691026 -23.15328 255 255 255 255 
9.767154 0.3602106 2.16678 255 255 255 255 
9.267216 0.6819064 1.709966 255 255 255 255 
10.36593 1.34855 -11.97188 255 255 255 255 
10.68416 0.8877678 -13.05307 255 255 255 255 
13.86925 -0.1329025 -21.32564 255 255 255 255 
13.66912 -0.2294576 -20.20802 255 255 255 255 
13.39851 -0.3544582 -18.98919 255 255 255 255 
13.06886 -0.4998298 -17.77385 255 255 255 255 
12.67654 -0.666852 -16.57813 255 255 255 255 
12.17816 -0.7711374 -15.42306 255 255 255 255 
11.63834 -0.9046024 -14.2932 255 255 255 255 
11.017 -0.950965 -13.1898 255 255 255 255 
10.37792 -0.9652704 -12.14324 255 255 255 255 
9.706108 -0.917371 -11.11327 255 255 255 255 
9.02083 -0.823977 -10.09951 255 255 255 255 
8.358928 -0.685723 -9.125448 255 255 255 255 
7.716324 -0.5125194 -8.174196 255 255 255 255 
6.652232 0.3468206 -5.802438 255 255 255 255 
-0.3292894 2.187434 1.075908 255 255 255 255 
1.441318 -3.101372 -5.853654 255 255 255 255 
8.388428 0.9595404 1.345271 255 255 255 255 
11.019 1.877493 -16.33017 255 255 255 255 
9.095468 1.272464 0.05429922 255 255 255 255 
6.110276 0.4505778 -4.979114 255 255 255 255 
4.64263 1.450492 -0.2407436 255 255 255 255 
10.31162 -2.806984 -11.93845 255 255 255 255 
11.63829 -2.661312 -13.44384 255 255 255 255 
9.5754 0.6891214 -10.19283 255 255 255 255 
9.215286 1.021242 -9.047232 255 255 255 255 
12.02527 0.1695331 -16.45791 255 255 255 255 
10.87643 0.2068084 -13.30488 255 255 255 255 
3 27 26 0 
3 27 0 1 
3 28 27 1 
3 28 1 2 
3 29 28 2 
3 29 2 3 
3 30 29 3 
3 30 3 4 
3 31 30 4 
3 31 4 5 
3 211 210 13 
3 212 211 15 
3 213 212 16 
3 214 213 17 
3 215 214 18 
3 216 215 19 
3 36 217 21 
3 41 55 26 
3 41 26 27 
3 42 41 27 
3 42 27 28 
3 43 42 28 
3 43 28 29 
3 219 210 211 
3 220 219 212 
3 221 220 213 
3 222 221 214 
3 223 222 215 
3 49 223 216 
3 51 50 36 
3 55 40 26 
3 56 55 41 
3 56 41 42 
3 57 56 42 
3 57 42 43 
3 226 225 219 
3 227 226 220 
3 228 227 221 
3 229 228 222 
3 230 229 223 
3 231 230 49 
3 232 231 50 
3 233 232 51 
3 63 233 52 
3 64 438 65 
3 206 438 54 
3 206 54 207 
3 206 65 438 
3 234 243 226 
3 235 234 227 
3 236 235 228 
3 237 236 229 
3 238 237 230 
3 239 238 231 
3 240 239 232 
3 241 240 233 
3 242 241 63 
3 70 242 64 
3 71 70 65 
3 439 82 243 
3 439 243 234 
3 244 251 234 
3 245 244 236 
3 246 245 237 
3 247 246 238 
3 248 247 239 
3 249 248 240 
3 83 249 241 
3 84 250 70 
3 85 84 71 
3 252 256 247 
3 253 252 248 
3 254 253 249 
3 473 254 83 
3 99 255 84 
3 100 99 85 
3 104 472 256 
3 252 104 256 
3 257 104 252 
3 258 257 253 
3 259 258 254 
3 105 259 473 
3 260 282 454 
3 261 260 455 
3 262 261 456 
3 263 283 457 
3 264 263 458 
3 265 284 264 
3 285 265 460 
3 266 285 461 
3 267 266 462 
3 268 267 463 
3 269 268 464 
3 270 269 465 
3 271 270 98 
3 272 271 102 
3 273 272 103 
3 274 273 104 
3 275 274 257 
3 276 275 258 
3 277 276 259 
3 278 277 105 
3 279 278 106 
3 280 279 107 
3 108 280 440 
3 114 298 262 
3 115 299 264 
3 474 285 266 
3 441 301 268 
3 286 441 269 
3 287 286 270 
3 288 287 271 
3 289 288 272 
3 290 289 273 
3 291 290 274 
3 292 291 275 
3 293 292 276 
3 294 293 277 
3 295 294 278 
3 110 295 279 
3 296 312 282 
3 114 324 298 
3 115 326 299 
3 121 302 441 
3 303 315 288 
3 304 303 289 
3 305 304 290 
3 442 305 291 
3 307 306 293 
3 308 307 294 
3 309 308 295 
3 310 309 110 
3 311 310 111 
3 313 312 296 
3 330 474 300 
3 316 336 304 
3 122 316 305 
3 317 339 306 
3 318 317 307 
3 319 318 308 
3 123 319 309 
3 322 321 313 
3 126 363 324 
3 127 365 326 
3 133 369 332 
3 128 371 334 
3 317 356 339 
3 357 340 318 
3 341 358 319 
3 359 341 123 
3 343 342 445 
3 344 343 446 
3 144 125 346 
3 353 128 336 
3 354 335 316 
3 138 122 337 
3 134 373 356 
3 360 359 342 
3 447 343 344 
3 390 130 345 
3 394 144 346 
3 379 126 347 
3 380 127 348 
3 366 348 328 
3 148 131 349 
3 368 349 350 
3 383 133 333 
3 372 352 335 
3 374 134 357 
3 376 135 359 
3 378 136 447 
3 392 143 322 
3 396 145 362 
3 400 146 365 
3 404 147 366 
3 407 367 368 
3 150 413 383 
3 370 150 371 
3 422 155 374 
3 385 424 140 
3 387 141 378 
3 159 389 390 
3 160 391 392 
3 161 393 394 
3 162 395 396 
3 163 397 398 
3 398 162 379 
3 164 399 400 
3 165 401 402 
3 402 164 380 
3 148 166 404 
3 167 405 367 
3 168 406 407 
3 169 408 409 
3 170 410 411 
3 411 382 369 
3 171 412 413 
3 151 414 415 
3 173 416 152 
3 153 417 468 
3 154 153 355 
3 155 419 420 
3 384 421 422 
3 178 423 424 
3 179 425 426 
3 426 178 385 
3 180 427 428 
3 181 429 430 
3 183 182 0 
3 184 183 40 
3 183 26 40 
3 26 183 0 
3 185 184 72 
3 186 185 101 
3 184 40 72 
3 185 72 101 
3 204 206 207 
3 206 204 203 
3 205 204 207 
3 449 54 450 
3 201 85 71 
3 199 440 100 
3 200 100 85 
3 203 202 206 
3 206 202 65 
3 201 71 202 
3 200 85 201 
3 200 199 100 
3 199 198 440 
3 71 65 202 
3 109 187 186 
3 113 448 109 
3 157 432 433 
3 432 189 431 
3 197 112 108 
3 195 320 116 
3 196 116 443 
3 108 198 197 
3 116 196 195 
3 320 195 194 
3 196 443 197 
3 194 129 320 
3 108 440 198 
3 193 137 129 
3 156 388 434 
3 181 434 435 
3 192 388 137 
3 192 137 193 
3 190 208 191 
3 208 192 191 
3 388 192 208 
3 194 193 129 
3 186 101 109 
3 6 31 5 
3 470 31 6 
3 32 6 7 
3 33 45 7 
3 33 7 8 
3 46 33 8 
3 46 8 9 
3 34 47 9 
3 34 9 10 
3 35 34 10 
3 35 10 11 
3 209 35 11 
3 209 11 12 
3 209 12 13 
3 211 13 14 
3 211 14 15 
3 212 15 16 
3 213 16 17 
3 214 17 18 
3 215 18 19 
3 217 20 21 
3 37 36 21 
3 37 21 22 
3 38 37 22 
3 38 22 23 
3 39 449 24 
3 44 43 29 
3 44 29 30 
3 58 44 30 
3 58 30 31 
3 210 436 13 
3 219 211 212 
3 220 212 213 
3 221 213 214 
3 222 214 215 
3 223 215 216 
3 50 49 216 
3 50 216 217 
3 36 50 217 
3 37 471 36 
3 54 469 450 
3 450 38 449 
3 44 57 43 
3 66 57 44 
3 67 58 470 
3 210 437 436 
3 225 210 219 
3 226 219 220 
3 227 220 221 
3 228 221 222 
3 229 222 223 
3 230 223 49 
3 231 49 50 
3 232 50 51 
3 233 51 52 
3 469 63 52 
3 73 72 40 
3 73 40 55 
3 74 73 55 
3 74 55 56 
3 75 74 56 
3 75 56 57 
3 66 76 57 
3 77 66 58 
3 243 225 226 
3 234 226 227 
3 235 227 228 
3 236 228 229 
3 237 229 230 
3 238 230 231 
3 239 231 232 
3 240 232 233 
3 241 233 63 
3 242 63 64 
3 65 70 64 
3 82 97 477 
3 243 437 225 
3 244 234 235 
3 244 235 236 
3 245 236 237 
3 246 237 238 
3 247 238 239 
3 248 239 240 
3 249 240 241 
3 250 83 241 
3 250 241 242 
3 250 242 70 
3 71 84 70 
3 86 101 72 
3 86 72 73 
3 251 98 439 
3 251 244 466 
3 256 246 247 
3 252 247 248 
3 253 248 249 
3 254 249 83 
3 85 99 84 
3 453 281 86 
3 454 453 87 
3 455 454 88 
3 456 455 89 
3 457 456 90 
3 458 457 91 
3 459 458 92 
3 460 459 93 
3 461 460 94 
3 462 461 95 
3 463 462 96 
3 464 463 97 
3 465 464 82 
3 465 82 439 
3 102 98 251 
3 103 102 466 
3 257 252 253 
3 258 253 254 
3 259 254 473 
3 106 105 473 
3 106 473 255 
3 100 107 99 
3 101 281 109 
3 281 101 86 
3 453 282 281 
3 282 453 454 
3 260 454 455 
3 261 455 456 
3 262 456 457 
3 263 457 458 
3 264 458 459 
3 265 459 460 
3 285 460 461 
3 266 461 462 
3 267 462 463 
3 268 463 464 
3 269 464 465 
3 270 465 98 
3 271 98 102 
3 272 102 103 
3 273 103 472 
3 274 104 257 
3 275 257 258 
3 276 258 259 
3 277 259 105 
3 278 105 106 
3 279 106 107 
3 280 107 440 
3 312 113 281 
3 281 282 312 
3 297 118 260 
3 297 260 261 
3 261 298 297 
3 298 261 262 
3 262 283 114 
3 283 262 457 
3 263 299 283 
3 299 263 264 
3 264 284 115 
3 265 264 459 
3 265 475 284 
3 265 285 475 
3 266 300 474 
3 300 266 267 
3 267 301 300 
3 301 267 268 
3 441 268 269 
3 286 269 270 
3 287 270 271 
3 288 271 272 
3 289 272 273 
3 290 273 274 
3 291 274 275 
3 292 275 276 
3 293 276 277 
3 294 277 278 
3 295 278 279 
3 111 110 279 
3 111 279 280 
3 112 111 280 
3 112 280 108 
3 109 281 113 
3 282 260 296 
3 323 118 297 
3 324 323 297 
3 297 298 324 
3 325 114 283 
3 326 325 299 
3 283 299 325 
3 327 115 284 
3 328 327 475 
3 119 328 475 
3 302 301 441 
3 121 441 286 
3 286 314 121 
3 314 286 287 
3 287 315 314 
3 315 287 288 
3 303 288 289 
3 304 289 290 
3 305 290 291 
3 306 292 293 
3 307 293 294 
3 308 294 295 
3 309 295 110 
3 310 110 111 
3 311 111 112 
3 321 117 113 
3 113 312 321 
3 312 313 321 
3 296 118 313 
3 126 324 114 
3 325 126 114 
3 127 326 115 
3 327 127 115 
3 329 119 474 
3 474 330 329 
3 331 120 302 
3 301 302 120 
3 302 332 331 
3 332 302 121 
3 444 121 314 
3 314 315 444 
3 128 334 303 
3 303 336 128 
3 336 303 304 
3 316 304 305 
3 338 122 305 
3 305 442 338 
3 442 339 338 
3 317 306 307 
3 318 307 308 
3 319 308 309 
3 124 123 309 
3 124 309 310 
3 446 467 311 
3 320 446 116 
3 311 116 446 
3 125 322 313 
3 313 118 125 
3 346 125 323 
3 118 323 125 
3 323 324 363 
3 347 126 325 
3 365 347 326 
3 325 326 347 
3 327 328 348 
3 131 328 119 
3 119 329 131 
3 350 329 330 
3 351 132 331 
3 120 331 132 
3 369 351 332 
3 331 332 351 
3 133 332 121 
3 333 133 444 
3 121 444 133 
3 371 333 334 
3 444 334 333 
3 315 303 334 
3 335 353 336 
3 335 336 316 
3 337 122 338 
3 356 337 339 
3 338 339 337 
3 340 356 317 
3 340 317 318 
3 318 358 357 
3 358 318 319 
3 341 319 123 
3 123 342 359 
3 342 123 124 
3 445 124 467 
3 129 344 320 
3 345 130 117 
3 345 117 321 
3 321 322 345 
3 144 322 125 
3 127 327 348 
3 349 131 329 
3 329 350 349 
3 333 371 383 
3 353 371 128 
3 352 353 335 
3 138 354 122 
3 355 138 337 
3 373 355 356 
3 337 356 355 
3 134 356 340 
3 340 357 134 
3 135 358 341 
3 341 359 135 
3 136 360 343 
3 342 343 360 
3 343 447 136 
3 137 361 129 
3 344 129 361 
3 143 390 345 
3 345 322 143 
3 145 394 346 
3 362 145 363 
3 346 363 145 
3 362 363 126 
3 126 379 362 
3 146 379 347 
3 364 400 365 
3 347 365 146 
3 364 365 127 
3 127 380 364 
3 147 380 348 
3 348 366 147 
3 328 131 366 
3 367 148 349 
3 349 368 367 
3 149 368 132 
3 350 132 368 
3 132 351 149 
3 382 409 351 
3 381 411 369 
3 351 369 382 
3 381 369 133 
3 133 383 381 
3 370 415 150 
3 383 371 150 
3 370 371 353 
3 353 352 370 
3 354 138 372 
3 139 373 134 
3 134 374 139 
3 375 374 358 
3 357 358 374 
3 140 375 135 
3 358 135 375 
3 135 376 140 
3 377 376 360 
3 359 360 376 
3 141 377 136 
3 360 136 377 
3 136 378 141 
3 142 378 361 
3 447 361 378 
3 361 137 142 
3 322 144 392 
3 162 396 362 
3 362 379 162 
3 164 400 364 
3 364 380 164 
3 148 404 366 
3 368 149 407 
3 413 381 383 
3 151 415 370 
3 152 151 352 
3 370 352 151 
3 152 352 372 
3 372 468 173 
3 372 138 468 
3 138 355 153 
3 154 355 373 
3 373 420 154 
3 155 420 139 
3 373 139 420 
3 139 374 155 
3 384 422 375 
3 374 375 422 
3 375 140 384 
3 140 376 385 
3 386 385 377 
3 376 377 385 
3 387 428 141 
3 377 141 386 
3 156 387 142 
3 378 142 387 
3 388 142 137 
3 142 388 156 
3 389 158 390 
3 130 390 158 
3 159 390 143 
3 391 159 392 
3 143 392 159 
3 160 392 144 
3 393 160 394 
3 144 394 160 
3 161 394 145 
3 395 161 396 
3 145 396 161 
3 397 162 398 
3 163 398 146 
3 379 146 398 
3 399 163 400 
3 146 400 163 
3 401 164 402 
3 165 402 147 
3 380 147 402 
3 403 165 404 
3 147 404 165 
3 166 403 404 
3 405 166 148 
3 148 367 405 
3 406 167 407 
3 367 407 167 
3 168 407 149 
3 408 168 409 
3 149 409 168 
3 169 409 382 
3 410 169 411 
3 382 411 169 
3 170 411 381 
3 412 170 413 
3 381 413 170 
3 171 413 150 
3 414 171 415 
3 150 415 171 
3 172 414 151 
3 152 172 151 
3 172 152 416 
3 417 173 468 
3 152 372 173 
3 174 417 153 
3 418 174 153 
3 153 154 418 
3 175 418 154 
3 419 175 420 
3 154 420 175 
3 176 419 155 
3 421 176 422 
3 155 422 176 
3 177 421 384 
3 423 177 384 
3 384 424 423 
3 384 140 424 
3 425 178 426 
3 424 385 178 
3 179 426 386 
3 385 386 426 
3 427 179 428 
3 386 428 179 
3 180 428 387 
3 386 141 428 
3 429 180 430 
3 387 430 180 
3 181 430 156 
3 387 156 430 
3 205 207 39 
3 431 188 448 
3 431 448 117 
3 157 189 432 
3 130 431 117 
3 432 158 433 
3 158 432 130 
3 431 130 432 
3 188 431 189 
3 208 434 388 
3 208 435 434 
3 435 208 190 
3 156 434 181 
3 225 437 210 
3 438 469 54 
3 251 439 234 
3 440 107 100 
3 306 339 442 
3 442 292 306 
3 112 443 311 
3 132 350 330 
3 445 342 124 
3 446 320 344 
3 361 447 344 
3 205 39 25 
3 188 187 448 
3 448 187 109 
3 443 116 311 
3 443 112 197 
3 23 449 38 
3 449 23 24 
3 45 32 7 
3 46 45 33 
3 47 46 9 
3 48 47 34 
3 48 34 35 
3 218 48 35 
3 218 35 209 
3 218 209 436 
3 13 436 209 
3 53 52 471 
3 53 37 38 
3 450 53 38 
3 207 54 449 
3 59 67 470 
3 59 470 32 
3 60 59 32 
3 60 32 45 
3 61 60 45 
3 61 45 46 
3 47 61 46 
3 451 61 47 
3 48 451 47 
3 62 451 48 
3 224 62 218 
3 224 218 436 
3 436 437 224 
3 64 63 469 
3 67 77 58 
3 68 67 59 
3 61 452 60 
3 452 69 60 
3 451 452 61 
3 224 476 62 
3 76 75 57 
3 77 76 66 
3 478 77 67 
3 452 80 479 
3 451 80 452 
3 81 80 451 
3 477 97 476 
3 82 477 243 
3 243 477 437 
3 87 86 73 
3 87 73 74 
3 88 87 74 
3 88 74 75 
3 89 88 75 
3 89 75 76 
3 90 89 76 
3 90 76 77 
3 91 457 478 
3 92 91 78 
3 93 92 79 
3 94 93 479 
3 95 94 80 
3 95 80 81 
3 96 95 81 
3 97 96 476 
3 466 244 245 
3 453 86 87 
3 454 87 88 
3 455 88 89 
3 456 89 90 
3 457 90 478 
3 458 91 92 
3 459 92 93 
3 460 93 94 
3 461 94 95 
3 462 95 96 
3 463 96 97 
3 464 97 82 
3 439 98 465 
3 466 102 251 
3 103 466 472 
3 107 106 255 
3 273 472 104 
3 474 119 285 
3 300 301 120 
3 442 291 292 
3 300 120 330 
3 444 315 334 
3 310 467 124 
3 467 310 311 
3 132 330 120 
3 316 122 354 
3 343 445 446 
3 467 446 445 
3 335 354 372 
3 148 366 131 
3 468 138 153 
3 39 24 25 
3 117 448 113 
3 217 216 19 
3 64 469 438 
3 32 470 6 
3 217 19 20 
3 471 51 36 
3 471 52 51 
3 470 58 31 
3 58 66 44 
3 69 479 79 
3 472 245 246 
3 246 256 472 
3 473 250 255 
3 250 473 83 
3 255 250 84 
3 118 296 260 
3 475 327 284 
3 363 346 323 
3 351 409 149 
3 469 53 450 
3 472 466 245 
3 53 471 37 
3 449 39 207 
3 218 62 48 
3 469 52 53 
3 69 68 59 
3 69 59 60 
3 476 81 62 
3 477 224 437 
3 78 478 67 
3 78 67 68 
3 79 78 68 
3 79 68 69 
3 452 479 69 
3 62 81 451 
3 477 476 224 
3 478 90 77 
3 78 91 478 
3 79 92 78 
3 479 93 79 
3 94 479 80 
3 96 81 476 
3 107 255 99 
3 119 475 285 
