ply
format ascii 1.0
comment VCGLIB generated
element vertex 341
property float x
property float y
property float z
property uchar red
property uchar green
property uchar blue
property uchar alpha
element face 640
property list uchar int vertex_indices
end_header
8.244295 6.18034 2.96677e-07 255 0 0 255 
10.84946 7.783915 2.455331e-07 255 0 0 255 
9.681067 6.934311 2.59783 255 255 255 255 
13.81966 9.021132 5.272329e-08 255 0 0 255 
12.40636 8.310047 2.660606 255 255 255 255 
11.27981 7.283756 5.022954 255 255 255 255 
16.94982 9.766042 -2.199485e-08 255 0 0 255 
15.38101 9.276568 2.660606 255 255 255 255 
20 10 0 255 0 0 255 
18.39445 9.765464 2.59783 255 255 255 255 
16.89564 9.108452 5.022954 255 255 255 255 
14.02223 8.397669 5.078595 255 255 255 255 
12.91173 7.279077 7.154719 255 255 255 255 
15.57814 8.145446 7.154719 255 255 255 255 
14.47214 7.013016 8.944272 255 255 255 255 
7.278246 5.189277 2.728164 255 255 255 255 
8.923582 5.779661 5.321211 255 255 255 255 
6.583592 3.76382 5.527864 255 255 255 255 
10.69825 5.982654 7.617892 255 255 255 255 
12.45626 5.877264 9.539625 255 255 255 255 
10.32051 4.331338 10.04591 255 255 255 255 
8.415453 4.215796 7.981816 255 255 255 255 
6.236181 1.982128 8.184491 255 255 255 255 
8.192643 2.353415 10.39132 255 255 255 255 
6.23618 4.816049e-07 10.51462 255 255 255 255 
0.9788697 -3.819659 -1.088125e-07 255 0 0 255 
1.622902 -2.594637 2.728165 255 255 255 255 
0.705787 -5.419102 2.59783 255 255 255 255 
2.763932 -1.493492 5.527864 255 255 255 255 
1.56985 -4.341884 5.321211 255 255 255 255 
0.8674843 -7.047581 5.022953 255 255 255 255 
4.351066 -0.6125103 8.184492 255 255 255 255 
2.900152 -3.375362 7.981816 255 255 255 255 
4.602531 -2.587951 10.39132 255 255 255 255 
3.378961 -5.222887 10.04591 255 255 255 255 
1.925195 -6.092423 7.617892 255 255 255 255 
1.376227 -8.598186 7.154718 255 255 255 255 
2.56868 -7.731819 9.539624 255 255 255 255 
2.111457 -9.999999 8.944271 255 255 255 255 
5.914164 4.198213 -1.090183e-07 255 0 0 255 
5.002385 2.931556 2.801144 255 255 255 255 
3.81966 1.755706 -4.116598e-07 255 0 0 255 
4.467414 1.285085 5.602289 255 255 255 255 
3.066841 0.2675093 2.801145 255 255 255 255 
2.143935 -0.991063 4.500891e-08 255 0 0 255 
1.376227 -11.40181 7.154718 255 255 255 255 
0.8674843 -12.95242 5.022953 255 255 255 255 
0.6555467 -9.999999 5.078595 255 255 255 255 
0.705787 -14.5809 2.59783 255 255 255 255 
0.2395466 -11.56386 2.660606 255 255 255 255 
0.9788697 -16.18034 -1.088125e-07 255 0 0 255 
0.2588192 -13.20715 -3.913868e-07 255 0 0 255 
5.515501e-07 -9.999999 9.094947e-15 255 0 0 255 
0.2395466 -8.436134 2.660606 255 255 255 255 
0.2588192 -6.79285 -3.913868e-07 255 0 0 255 
1.622902 -17.40536 2.728165 255 255 255 255 
1.56985 -15.65811 5.321211 255 255 255 255 
2.763932 -18.50651 5.527864 255 255 255 255 
1.925195 -13.90758 7.617892 255 255 255 255 
2.56868 -12.26818 9.539624 255 255 255 255 
3.378961 -14.77711 10.04591 255 255 255 255 
2.900152 -16.62464 7.981816 255 255 255 255 
4.351066 -19.38749 8.184492 255 255 255 255 
4.602531 -17.41205 10.39132 255 255 255 255 
6.23618 -20 10.51462 255 255 255 255 
8.244295 -26.18034 2.96677e-07 255 0 0 255 
7.278246 -25.18928 2.728164 255 255 255 255 
9.681067 -26.93431 2.59783 255 255 255 255 
6.583592 -23.76382 5.527864 255 255 255 255 
8.923582 -25.77966 5.321211 255 255 255 255 
11.27981 -27.28376 5.022954 255 255 255 255 
6.236181 -21.98213 8.184491 255 255 255 255 
8.415453 -24.2158 7.981816 255 255 255 255 
8.192643 -22.35341 10.39132 255 255 255 255 
10.32051 -24.33134 10.04591 255 255 255 255 
10.69825 -25.98265 7.617892 255 255 255 255 
12.91173 -27.27908 7.154719 255 255 255 255 
12.45626 -25.87726 9.539625 255 255 255 255 
14.47214 -27.01302 8.944272 255 255 255 255 
2.143935 -19.00894 4.500891e-08 255 0 0 255 
3.066841 -20.26751 2.801145 255 255 255 255 
3.81966 -21.7557 -4.116598e-07 255 0 0 255 
4.467414 -21.28508 5.602289 255 255 255 255 
5.002385 -22.93155 2.801144 255 255 255 255 
5.914164 -24.19821 -1.090183e-07 255 0 0 255 
15.57814 -28.14544 7.154719 255 255 255 255 
16.89564 -29.10845 5.022954 255 255 255 255 
14.02223 -28.39767 5.078595 255 255 255 255 
18.39445 -29.76546 2.59783 255 255 255 255 
15.38101 -29.27657 2.660606 255 255 255 255 
20 -30 0 255 0 0 255 
16.94982 -29.76604 -2.199485e-08 255 0 0 255 
13.81966 -29.02113 5.272329e-08 255 0 0 255 
12.40636 -28.31005 2.660606 255 255 255 255 
10.84946 -27.78391 2.455331e-07 255 0 0 255 
39.02113 -16.18034 1.088125e-07 255 0 0 255 
37.85606 -19.00894 -4.500891e-08 255 0 0 255 
38.30193 -17.63483 2.597829 255 255 255 255 
36.90576 -20.34971 2.660605 255 255 255 255 
37.21392 -18.85725 5.022954 255 255 255 255 
36.18034 -21.7557 4.116598e-07 255 0 0 255 
35.64999 -21.37038 5.078595 255 255 255 255 
35.89091 -19.81269 7.154718 255 255 255 255 
34.24298 -22.08087 7.154718 255 255 255 255 
34.47213 -20.51462 8.944272 255 255 255 255 
33.74314 -23.63437 5.022954 255 255 255 255 
34.08583 -24.19821 1.090183e-07 255 0 0 255 
35.06733 -22.88009 2.660606 255 255 255 255 
32.91676 -25.04688 2.59783 255 255 255 255 
31.7557 -26.18034 -2.96677e-07 255 0 0 255 
16.77059 -27.27908 9.539625 255 255 255 255 
18.13091 -28.39767 7.617892 255 255 255 255 
19.40712 -27.28376 10.04591 255 255 255 255 
19.68596 -29.27657 5.321211 255 255 255 255 
21.36408 -29.76604 2.728164 255 255 255 255 
22.76393 -29.02113 5.527864 255 255 255 255 
22.2912 -26.93431 10.39132 255 255 255 255 
21.01626 -28.31005 7.981817 255 255 255 255 
24.09225 -27.78391 8.184492 255 255 255 255 
25.25731 -26.18034 10.51462 255 255 255 255 
28.10012 -25.04688 10.39132 255 255 255 255 
27.14243 -26.79285 8.184492 255 255 255 255 
29.9402 -25.41048 7.981817 255 255 255 255 
28.94427 -27.01302 5.527864 255 255 255 255 
30.63879 -23.63437 10.04591 255 255 255 255 
31.58455 -25.41048 5.321211 255 255 255 255 
30.51462 -26.79285 2.728164 255 255 255 255 
32.76903 -22.08087 9.539624 255 255 255 255 
32.32601 -23.7854 7.617892 255 255 255 255 
23.05018 -29.76604 2.199485e-08 255 0 0 255 
24.53235 -29.27722 2.801145 255 255 255 255 
26.18034 -29.02113 -5.272329e-08 255 0 0 255 
27.66412 -28.25965 2.801145 255 255 255 255 
29.15054 -27.78391 -2.455331e-07 255 0 0 255 
25.93292 -28.25965 5.60229 255 255 255 255 
14.84116 -25.87726 11.01358 255 255 255 255 
17.34622 -25.98265 11.72656 255 255 255 255 
15.34347 -24.33134 13.15026 255 255 255 255 
20.19409 -25.77966 12.28677 255 255 255 255 
23.2492 -25.18928 12.59875 255 255 255 255 
21.05573 -23.76382 14.47214 255 255 255 255 
15.98613 -22.35341 15.20796 255 255 255 255 
18.04161 -24.2158 13.93111 255 255 255 255 
18.83494 -21.98213 15.97095 255 255 255 255 
16.7508 -20 17.01302 255 255 255 255 
26.29938 -24.19821 12.59875 255 255 255 255 
29.11803 -22.88009 12.28677 255 255 255 255 
27.23607 -21.7557 14.47214 255 255 255 255 
31.54132 -21.37038 11.72656 255 255 255 255 
33.50601 -19.81269 11.01358 255 255 255 255 
32.19096 -18.85725 13.15026 255 255 255 255 
27.98548 -19.00894 15.97095 255 255 255 255 
29.9402 -20.34971 13.93111 255 255 255 255 
30.50844 -17.63483 15.20796 255 255 255 255 
28.50651 -16.18034 17.01302 255 255 255 255 
17.59168 -17.41205 18.41905 255 255 255 255 
19.67798 -19.38749 17.65705 255 255 255 255 
20.50813 -16.62464 18.86415 255 255 255 255 
22.76393 -18.50651 17.88854 255 255 255 255 
18.44782 -14.77711 19.35897 255 255 255 255 
23.48278 -15.65811 18.86415 255 255 255 255 
25.77834 -17.40536 17.65705 255 255 255 255 
26.30507 -14.5809 18.41905 255 255 255 255 
24.06366 -12.95242 19.35897 255 255 255 255 
19.26302 -12.26818 19.8573 255 255 255 255 
21.26965 -13.90758 19.57342 255 255 255 255 
21.92943 -11.40181 19.8573 255 255 255 255 
20 -9.999999 20 255 255 255 255 
24.20172 -22.93155 14.66698 255 255 255 255 
25.06732 -20.26751 16.39819 255 255 255 255 
21.93554 -21.28508 16.39819 255 255 255 255 
21.92943 -8.598186 19.8573 255 255 255 255 
24.10867 -9.999999 19.57342 255 255 255 255 
24.06366 -7.047581 19.35897 255 255 255 255 
26.45742 -11.56386 18.86415 255 255 255 255 
28.82852 -13.20715 17.65705 255 255 255 255 
28.94427 -9.999999 17.88854 255 255 255 255 
26.30507 -5.419102 18.41905 255 255 255 255 
26.45742 -8.436134 18.86415 255 255 255 255 
28.82852 -6.79285 17.65705 255 255 255 255 
28.50651 -3.819659 17.01302 255 255 255 255 
31.03565 -14.81072 15.97095 255 255 255 255 
32.91485 -16.25546 13.93111 255 255 255 255 
33.41641 -13.2492 14.47214 255 255 255 255 
34.38034 -17.46281 11.72656 255 255 255 255 
35.43544 -18.41088 9.539625 255 255 255 255 
36.25462 -15.90484 10.04591 255 255 255 255 
35.44992 -11.60357 12.59875 255 255 255 255 
35.06733 -14.69159 12.28677 255 255 255 255 
36.81351 -13.05393 10.39132 255 255 255 255 
37.01302 -9.999999 10.51462 255 255 255 255 
30.50844 -2.36517 15.20796 255 255 255 255 
31.03565 -5.189275 15.97095 255 255 255 255 
32.91485 -3.74454 13.93111 255 255 255 255 
33.41641 -6.750803 14.47214 255 255 255 255 
32.19096 -1.142745 13.15026 255 255 255 255 
35.06733 -5.308405 12.28677 255 255 255 255 
35.44992 -8.396425 12.59875 255 255 255 255 
36.81351 -6.946068 10.39132 255 255 255 255 
36.25462 -4.095163 10.04591 255 255 255 255 
33.50601 -0.1873101 11.01358 255 255 255 255 
34.38034 -2.537192 11.72656 255 255 255 255 
35.43544 -1.589123 9.539625 255 255 255 255 
34.47213 0.5146226 8.944272 255 255 255 255 
31.33087 -11.64647 16.39819 255 255 255 255 
33.59704 -9.999999 14.66698 255 255 255 255 
31.33087 -8.353528 16.39819 255 255 255 255 
19.26302 -7.731819 19.8573 255 255 255 255 
21.26965 -6.092423 19.57342 255 255 255 255 
18.44782 -5.222887 19.35897 255 255 255 255 
23.48278 -4.341884 18.86415 255 255 255 255 
25.77834 -2.594637 17.65705 255 255 255 255 
22.76393 -1.493492 17.88854 255 255 255 255 
17.59168 -2.587951 18.41905 255 255 255 255 
20.50813 -3.375362 18.86415 255 255 255 255 
19.67798 -0.6125103 17.65705 255 255 255 255 
16.7508 4.816049e-07 17.01302 255 255 255 255 
27.98548 -0.991063 15.97095 255 255 255 255 
29.9402 0.3497104 13.93111 255 255 255 255 
27.23607 1.755706 14.47214 255 255 255 255 
31.54132 1.370385 11.72656 255 255 255 255 
32.76903 2.080871 9.539624 255 255 255 255 
30.63879 3.634368 10.04591 255 255 255 255 
26.29938 4.198213 12.59875 255 255 255 255 
29.11803 2.880096 12.28677 255 255 255 255 
28.10012 5.046878 10.39132 255 255 255 255 
25.25731 6.18034 10.51462 255 255 255 255 
15.98613 2.353415 15.20796 255 255 255 255 
18.83494 1.982128 15.97095 255 255 255 255 
18.04161 4.215796 13.93111 255 255 255 255 
21.05573 3.76382 14.47214 255 255 255 255 
15.34347 4.331338 13.15026 255 255 255 255 
20.19409 5.779661 12.28677 255 255 255 255 
23.2492 5.189277 12.59875 255 255 255 255 
22.2912 6.934311 10.39132 255 255 255 255 
19.40712 7.283756 10.04591 255 255 255 255 
14.84116 5.877264 11.01358 255 255 255 255 
17.34622 5.982654 11.72656 255 255 255 255 
16.77059 7.279077 9.539625 255 255 255 255 
25.06732 0.2675093 16.39819 255 255 255 255 
24.20172 2.931556 14.66698 255 255 255 255 
21.93554 1.285085 16.39819 255 255 255 255 
3.305655 -9.999999 11.01358 255 255 255 255 
3.97953 -7.584984 11.72656 255 255 255 255 
4.931139 -9.999999 13.15026 255 255 255 255 
5.8748 -7.469613 13.93111 255 255 255 255 
7.010851 -9.999999 15.20796 255 255 255 255 
8.244295 -7.405361 15.97095 255 255 255 255 
9.485377 -9.999999 17.01302 255 255 255 255 
7.236068 -4.742689 14.47214 255 255 255 255 
5.052628 -4.939227 12.28677 255 255 255 255 
6.558197 -2.216085 12.59875 255 255 255 255 
10.97246 -7.405361 17.65705 255 255 255 255 
12.20651 -9.999999 18.41905 255 255 255 255 
13.85662 -7.469613 18.86415 255 255 255 255 
14.97705 -9.999999 19.35898 255 255 255 255 
12.76393 -4.742689 17.88854 255 255 255 255 
16.67602 -7.584984 19.57342 255 255 255 255 
17.61509 -9.999999 19.8573 255 255 255 255 
14.74269 -2.216085 17.65705 255 255 255 255 
15.69505 -4.939227 18.86415 255 255 255 255 
8.443312 0.3785532 12.59875 255 255 255 255 
10.56793 2.651932 12.28677 255 255 255 255 
11.05573 0.5146226 14.47214 255 255 255 255 
13.22853 2.651932 13.93111 255 255 255 255 
13.89964 0.3785532 15.97095 255 255 255 255 
12.75259 4.490092 11.72656 255 255 255 255 
9.865363 -4.671906 16.39819 255 255 255 255 
11.80091 -2.007858 16.39819 255 255 255 255 
8.999762 -2.007858 14.66698 255 255 255 255 
31.7557 6.18034 -2.96677e-07 255 0 0 255 
34.08583 4.198213 1.090183e-07 255 0 0 255 
32.91676 5.046878 2.59783 255 255 255 255 
35.06733 2.880096 2.660606 255 255 255 255 
33.74314 3.634368 5.022954 255 255 255 255 
36.18034 1.755706 4.116598e-07 255 0 0 255 
35.64999 1.370385 5.078595 255 255 255 255 
34.24298 2.080871 7.154718 255 255 255 255 
35.89091 -0.1873101 7.154718 255 255 255 255 
37.21392 -1.142745 5.022954 255 255 255 255 
37.85606 -0.991063 -4.500891e-08 255 0 0 255 
36.90576 0.3497104 2.660605 255 255 255 255 
38.30193 -2.36517 2.597829 255 255 255 255 
39.02113 -3.819659 1.088125e-07 255 0 0 255 
32.32601 3.7854 7.617892 255 255 255 255 
31.58455 5.410483 5.321211 255 255 255 255 
30.51462 6.792852 2.728164 255 255 255 255 
28.94427 7.013016 5.527864 255 255 255 255 
29.9402 5.410483 7.981817 255 255 255 255 
27.14243 6.792852 8.184492 255 255 255 255 
24.09225 7.783915 8.184492 255 255 255 255 
21.01626 8.310047 7.981817 255 255 255 255 
22.76393 9.021132 5.527864 255 255 255 255 
19.68596 9.276568 5.321211 255 255 255 255 
21.36408 9.766042 2.728164 255 255 255 255 
18.13091 8.397669 7.617892 255 255 255 255 
29.15054 7.783915 -2.455331e-07 255 0 0 255 
27.66412 8.259651 2.801145 255 255 255 255 
26.18034 9.021132 -5.272329e-08 255 0 0 255 
24.53235 9.277225 2.801145 255 255 255 255 
23.05018 9.766042 2.199485e-08 255 0 0 255 
25.93292 8.259651 5.60229 255 255 255 255 
36.91964 -17.46281 7.617892 255 255 255 255 
38.23606 -16.25546 5.321211 255 255 255 255 
39.22015 -14.81072 2.728164 255 255 255 255 
38.94427 -13.2492 5.527864 255 255 255 255 
37.72793 -14.69159 7.981817 255 255 255 255 
38.17808 -11.60357 8.184492 255 255 255 255 
38.17808 -8.396425 8.184492 255 255 255 255 
37.72793 -5.308405 7.981817 255 255 255 255 
38.94427 -6.750803 5.527864 255 255 255 255 
38.23606 -3.74454 5.321211 255 255 255 255 
39.22015 -5.189275 2.728164 255 255 255 255 
36.91964 -2.537192 7.617892 255 255 255 255 
39.74118 -13.20715 3.913868e-07 255 0 0 255 
39.7343 -11.64647 2.801145 255 255 255 255 
40 -9.999999 -9.094947e-15 255 0 0 255 
39.7343 -8.353528 2.801145 255 255 255 255 
39.74118 -6.79285 3.913868e-07 255 0 0 255 
39.19933 -9.999999 5.602289 255 255 255 255 
12.75259 -24.49009 11.72656 255 255 255 255 
13.22853 -22.65193 13.93111 255 255 255 255 
13.89964 -20.37855 15.97095 255 255 255 255 
11.05573 -20.51462 14.47214 255 255 255 255 
10.56793 -22.65193 12.28677 255 255 255 255 
8.443312 -20.37855 12.59875 255 255 255 255 
14.74269 -17.78391 17.65705 255 255 255 255 
15.69505 -15.06077 18.86415 255 255 255 255 
12.76393 -15.25731 17.88854 255 255 255 255 
16.67602 -12.41501 19.57342 255 255 255 255 
10.97246 -12.59464 17.65705 255 255 255 255 
13.85662 -12.53039 18.86415 255 255 255 255 
6.558197 -17.78391 12.59875 255 255 255 255 
5.052628 -15.06077 12.28677 255 255 255 255 
7.236068 -15.25731 14.47214 255 255 255 255 
5.8748 -12.53039 13.93111 255 255 255 255 
8.244295 -12.59464 15.97095 255 255 255 255 
3.97953 -12.41501 11.72656 255 255 255 255 
11.80091 -17.99214 16.39819 255 255 255 255 
9.865363 -15.32809 16.39819 255 255 255 255 
8.999762 -17.99214 14.66698 255 255 255 255 
3 1 0 2 
3 3 1 4 
3 4 2 5 
3 4 1 2 
3 6 3 7 
3 8 6 9 
3 9 7 10 
3 9 6 7 
3 11 5 12 
3 10 11 13 
3 13 12 14 
3 13 11 12 
3 7 3 4 
3 10 7 11 
3 11 4 5 
3 11 7 4 
3 2 0 15 
3 5 2 16 
3 16 15 17 
3 16 2 15 
3 12 5 18 
3 14 12 19 
3 19 18 20 
3 19 12 18 
3 21 17 22 
3 20 21 23 
3 23 22 24 
3 23 21 22 
3 18 5 16 
3 20 18 21 
3 21 16 17 
3 21 18 16 
3 26 25 27 
3 28 26 29 
3 29 27 30 
3 29 26 27 
3 31 28 32 
3 24 31 33 
3 33 32 34 
3 33 31 32 
3 35 30 36 
3 34 35 37 
3 37 36 38 
3 37 35 36 
3 32 28 29 
3 34 32 35 
3 35 29 30 
3 35 32 29 
3 15 0 39 
3 17 15 40 
3 40 39 41 
3 40 15 39 
3 22 17 42 
3 24 22 31 
3 31 42 28 
3 31 22 42 
3 43 41 44 
3 28 43 26 
3 26 44 25 
3 26 43 44 
3 42 17 40 
3 28 42 43 
3 43 40 41 
3 43 42 40 
3 45 38 36 
3 46 45 47 
3 47 36 30 
3 47 45 36 
3 48 46 49 
3 50 48 51 
3 51 49 52 
3 51 48 49 
3 53 30 27 
3 52 53 54 
3 54 27 25 
3 54 53 27 
3 49 46 47 
3 52 49 53 
3 53 47 30 
3 53 49 47 
3 48 50 55 
3 46 48 56 
3 56 55 57 
3 56 48 55 
3 45 46 58 
3 38 45 59 
3 59 58 60 
3 59 45 58 
3 61 57 62 
3 60 61 63 
3 63 62 64 
3 63 61 62 
3 58 46 56 
3 60 58 61 
3 61 56 57 
3 61 58 56 
3 66 65 67 
3 68 66 69 
3 69 67 70 
3 69 66 67 
3 71 68 72 
3 64 71 73 
3 73 72 74 
3 73 71 72 
3 75 70 76 
3 74 75 77 
3 77 76 78 
3 77 75 76 
3 72 68 69 
3 74 72 75 
3 75 69 70 
3 75 72 69 
3 55 50 79 
3 57 55 80 
3 80 79 81 
3 80 55 79 
3 62 57 82 
3 64 62 71 
3 71 82 68 
3 71 62 82 
3 83 81 84 
3 68 83 66 
3 66 84 65 
3 66 83 84 
3 82 57 80 
3 68 82 83 
3 83 80 81 
3 83 82 80 
3 85 78 76 
3 86 85 87 
3 87 76 70 
3 87 85 76 
3 88 86 89 
3 90 88 91 
3 91 89 92 
3 91 88 89 
3 93 70 67 
3 92 93 94 
3 94 67 65 
3 94 93 67 
3 89 86 87 
3 92 89 93 
3 93 87 70 
3 93 89 87 
3 96 95 97 
3 98 97 99 
3 100 96 98 
3 96 97 98 
3 101 99 102 
3 103 102 104 
3 105 101 103 
3 101 102 103 
3 106 100 107 
3 108 107 105 
3 109 106 108 
3 106 107 108 
3 98 99 101 
3 107 101 105 
3 100 98 107 
3 98 101 107 
3 110 78 85 
3 111 85 86 
3 112 110 111 
3 110 85 111 
3 113 86 88 
3 114 88 90 
3 115 113 114 
3 113 88 114 
3 116 112 117 
3 118 117 115 
3 119 116 118 
3 116 117 118 
3 111 86 113 
3 117 113 115 
3 112 111 117 
3 111 113 117 
3 120 119 121 
3 122 121 123 
3 124 120 122 
3 120 121 122 
3 125 123 126 
3 108 126 109 
3 105 125 108 
3 125 126 108 
3 127 124 128 
3 103 128 105 
3 104 127 103 
3 127 128 103 
3 122 123 125 
3 128 125 105 
3 124 122 128 
3 122 125 128 
3 114 90 129 
3 130 129 131 
3 115 114 130 
3 114 129 130 
3 132 131 133 
3 126 133 109 
3 123 132 126 
3 132 133 126 
3 118 115 134 
3 121 134 123 
3 119 118 121 
3 118 134 121 
3 130 131 132 
3 134 132 123 
3 115 130 134 
3 130 132 134 
3 135 78 110 
3 136 110 112 
3 137 135 136 
3 135 110 136 
3 138 112 116 
3 139 116 119 
3 140 138 139 
3 138 116 139 
3 141 137 142 
3 143 142 140 
3 144 141 143 
3 141 142 143 
3 136 112 138 
3 142 138 140 
3 137 136 142 
3 136 138 142 
3 145 119 120 
3 146 120 124 
3 147 145 146 
3 145 120 146 
3 148 124 127 
3 149 127 104 
3 150 148 149 
3 148 127 149 
3 151 147 152 
3 153 152 150 
3 154 151 153 
3 151 152 153 
3 146 124 148 
3 152 148 150 
3 147 146 152 
3 146 148 152 
3 155 144 156 
3 157 156 158 
3 159 155 157 
3 155 156 157 
3 160 158 161 
3 162 161 154 
3 163 160 162 
3 160 161 162 
3 164 159 165 
3 166 165 163 
3 167 164 166 
3 164 165 166 
3 157 158 160 
3 165 160 163 
3 159 157 165 
3 157 160 165 
3 139 119 145 
3 168 145 147 
3 140 139 168 
3 139 145 168 
3 169 147 151 
3 161 151 154 
3 158 169 161 
3 169 151 161 
3 143 140 170 
3 156 170 158 
3 144 143 156 
3 143 170 156 
3 168 147 169 
3 170 169 158 
3 140 168 170 
3 168 169 170 
3 171 167 166 
3 172 166 163 
3 173 171 172 
3 171 166 172 
3 174 163 162 
3 175 162 154 
3 176 174 175 
3 174 162 175 
3 177 173 178 
3 179 178 176 
3 180 177 179 
3 177 178 179 
3 172 163 174 
3 178 174 176 
3 173 172 178 
3 172 174 178 
3 181 154 153 
3 182 153 150 
3 183 181 182 
3 181 153 182 
3 184 150 149 
3 185 149 104 
3 186 184 185 
3 184 149 185 
3 187 183 188 
3 189 188 186 
3 190 187 189 
3 187 188 189 
3 182 150 184 
3 188 184 186 
3 183 182 188 
3 182 184 188 
3 191 180 192 
3 193 192 194 
3 195 191 193 
3 191 192 193 
3 196 194 197 
3 198 197 190 
3 199 196 198 
3 196 197 198 
3 200 195 201 
3 202 201 199 
3 203 200 202 
3 200 201 202 
3 193 194 196 
3 201 196 199 
3 195 193 201 
3 193 196 201 
3 175 154 181 
3 204 181 183 
3 176 175 204 
3 175 181 204 
3 205 183 187 
3 197 187 190 
3 194 205 197 
3 205 187 197 
3 179 176 206 
3 192 206 194 
3 180 179 192 
3 179 206 192 
3 204 183 205 
3 206 205 194 
3 176 204 206 
3 204 205 206 
3 207 167 171 
3 208 171 173 
3 209 207 208 
3 207 171 208 
3 210 173 177 
3 211 177 180 
3 212 210 211 
3 210 177 211 
3 213 209 214 
3 215 214 212 
3 216 213 215 
3 213 214 215 
3 208 173 210 
3 214 210 212 
3 209 208 214 
3 208 210 214 
3 217 180 191 
3 218 191 195 
3 219 217 218 
3 217 191 218 
3 220 195 200 
3 221 200 203 
3 222 220 221 
3 220 200 221 
3 223 219 224 
3 225 224 222 
3 226 223 225 
3 223 224 225 
3 218 195 220 
3 224 220 222 
3 219 218 224 
3 218 220 224 
3 227 216 228 
3 229 228 230 
3 231 227 229 
3 227 228 229 
3 232 230 233 
3 234 233 226 
3 235 232 234 
3 232 233 234 
3 236 231 237 
3 238 237 235 
3 14 236 238 
3 236 237 238 
3 229 230 232 
3 237 232 235 
3 231 229 237 
3 229 232 237 
3 211 180 217 
3 239 217 219 
3 212 211 239 
3 211 217 239 
3 240 219 223 
3 233 223 226 
3 230 240 233 
3 240 223 233 
3 215 212 241 
3 228 241 230 
3 216 215 228 
3 215 241 228 
3 239 219 240 
3 241 240 230 
3 212 239 241 
3 239 240 241 
3 37 38 242 
3 243 242 244 
3 34 37 243 
3 37 242 243 
3 245 244 246 
3 247 246 248 
3 249 245 247 
3 245 246 247 
3 33 34 250 
3 251 250 249 
3 24 33 251 
3 33 250 251 
3 243 244 245 
3 250 245 249 
3 34 243 250 
3 243 245 250 
3 252 248 253 
3 254 253 255 
3 256 252 254 
3 252 253 254 
3 257 255 258 
3 207 258 167 
3 209 257 207 
3 257 258 207 
3 259 256 260 
3 213 260 209 
3 216 259 213 
3 259 260 213 
3 254 255 257 
3 260 257 209 
3 256 254 260 
3 254 257 260 
3 23 24 261 
3 262 261 263 
3 20 23 262 
3 23 261 262 
3 264 263 265 
3 227 265 216 
3 231 264 227 
3 264 265 227 
3 19 20 266 
3 236 266 231 
3 14 19 236 
3 19 266 236 
3 262 263 264 
3 266 264 231 
3 20 262 266 
3 262 264 266 
3 247 248 252 
3 267 252 256 
3 249 247 267 
3 247 252 267 
3 268 256 259 
3 265 259 216 
3 263 268 265 
3 268 259 265 
3 251 249 269 
3 261 269 263 
3 24 251 261 
3 251 269 261 
3 267 256 268 
3 269 268 263 
3 249 267 269 
3 267 268 269 
3 271 270 272 
3 273 272 274 
3 275 271 273 
3 271 272 273 
3 276 274 277 
3 278 277 203 
3 279 276 278 
3 276 277 278 
3 280 275 281 
3 282 281 279 
3 283 280 282 
3 280 281 282 
3 273 274 276 
3 281 276 279 
3 275 273 281 
3 273 276 281 
3 221 203 277 
3 284 277 274 
3 222 221 284 
3 221 277 284 
3 285 274 272 
3 286 272 270 
3 287 285 286 
3 285 272 286 
3 225 222 288 
3 289 288 287 
3 226 225 289 
3 225 288 289 
3 284 274 285 
3 288 285 287 
3 222 284 288 
3 284 285 288 
3 234 226 290 
3 291 290 292 
3 235 234 291 
3 234 290 291 
3 293 292 294 
3 9 294 8 
3 10 293 9 
3 293 294 9 
3 238 235 295 
3 13 295 10 
3 14 238 13 
3 238 295 13 
3 291 292 293 
3 295 293 10 
3 235 291 295 
3 291 293 295 
3 286 270 296 
3 297 296 298 
3 287 286 297 
3 286 296 297 
3 299 298 300 
3 294 300 8 
3 292 299 294 
3 299 300 294 
3 289 287 301 
3 290 301 292 
3 226 289 290 
3 289 301 290 
3 297 298 299 
3 301 299 292 
3 287 297 301 
3 297 299 301 
3 185 104 102 
3 302 102 99 
3 186 185 302 
3 185 102 302 
3 303 99 97 
3 304 97 95 
3 305 303 304 
3 303 97 304 
3 189 186 306 
3 307 306 305 
3 190 189 307 
3 189 306 307 
3 302 99 303 
3 306 303 305 
3 186 302 306 
3 302 303 306 
3 198 190 308 
3 309 308 310 
3 199 198 309 
3 198 308 309 
3 311 310 312 
3 282 312 283 
3 279 311 282 
3 311 312 282 
3 202 199 313 
3 278 313 279 
3 203 202 278 
3 202 313 278 
3 309 310 311 
3 313 311 279 
3 199 309 313 
3 309 311 313 
3 304 95 314 
3 315 314 316 
3 305 304 315 
3 304 314 315 
3 317 316 318 
3 312 318 283 
3 310 317 312 
3 317 318 312 
3 307 305 319 
3 308 319 310 
3 190 307 308 
3 307 319 308 
3 315 316 317 
3 319 317 310 
3 305 315 319 
3 315 317 319 
3 77 78 135 
3 320 135 137 
3 74 77 320 
3 77 135 320 
3 321 137 141 
3 322 141 144 
3 323 321 322 
3 321 141 322 
3 73 74 324 
3 325 324 323 
3 64 73 325 
3 73 324 325 
3 320 137 321 
3 324 321 323 
3 74 320 324 
3 320 321 324 
3 326 144 155 
3 327 155 159 
3 328 326 327 
3 326 155 327 
3 329 159 164 
3 258 164 167 
3 255 329 258 
3 329 164 258 
3 330 328 331 
3 253 331 255 
3 248 330 253 
3 330 331 253 
3 327 159 329 
3 331 329 255 
3 328 327 331 
3 327 329 331 
3 63 64 332 
3 333 332 334 
3 60 63 333 
3 63 332 333 
3 335 334 336 
3 246 336 248 
3 244 335 246 
3 335 336 246 
3 59 60 337 
3 242 337 244 
3 38 59 242 
3 59 337 242 
3 333 334 335 
3 337 335 244 
3 60 333 337 
3 333 335 337 
3 322 144 326 
3 338 326 328 
3 323 322 338 
3 322 326 338 
3 339 328 330 
3 336 330 248 
3 334 339 336 
3 339 330 336 
3 325 323 340 
3 332 340 334 
3 64 325 332 
3 325 340 332 
3 338 328 339 
3 340 339 334 
3 323 338 340 
3 338 339 340 
