ply
format ascii 1.0
comment VCGLIB generated
element vertex 357
property float x
property float y
property float z
property uchar red
property uchar green
property uchar blue
property uchar alpha
element face 640
property list uchar int vertex_indices
end_header
7.386075 0 0 255 0 0 255 
7.386075 1.436727 -8.797414e-17 255 0 0 255 
6.401265 1.545269 0.1031656 255 255 255 255 
5.416455 0 0 255 255 255 255 
4.431645 1.715835 0.265283 255 255 255 255 
3.446835 0 0 255 255 255 255 
2.462025 1.824377 0.3684486 255 255 255 255 
1.477215 0 0 255 255 255 255 
0.492405 1.870895 0.4126625 255 255 255 255 
-0.492405 0 0 255 255 255 255 
-1.477215 1.855389 0.3979245 255 255 255 255 
-2.462025 0 0 255 255 255 255 
-3.446835 1.777859 0.3242348 255 255 255 255 
-4.431645 0 0 255 255 255 255 
-5.416455 1.638305 0.1915933 255 255 255 255 
-6.401265 0 0 255 255 255 255 
-7.386075 1.436727 -8.797414e-17 255 0 0 255 
-7.386075 0 0 255 0 0 255 
7.386075 2.873453 -1.759483e-16 255 0 0 255 
5.416455 3.276609 0.3831866 255 255 255 255 
3.446835 3.555717 0.6484696 255 255 255 255 
1.477215 3.710777 0.7958491 255 255 255 255 
-0.492405 3.741789 0.825325 255 255 255 255 
-2.462025 3.648753 0.7368973 255 255 255 255 
-4.431645 3.431669 0.530566 255 255 255 255 
-6.401265 3.090537 0.2063312 255 255 255 255 
-7.386075 2.873453 -1.759483e-16 255 0 0 255 
7.386075 4.31018 -2.639224e-16 255 0 0 255 
6.401265 4.635806 0.3094969 255 255 255 255 
4.431645 5.147504 0.7958491 255 255 255 255 
2.462025 5.47313 1.105346 255 255 255 255 
0.492405 5.612684 1.237988 255 255 255 255 
-1.477215 5.566166 1.193774 255 255 255 255 
-3.446835 5.333576 0.9727044 255 255 255 255 
-5.416455 4.914914 0.5747799 255 255 255 255 
-7.386075 4.31018 -2.639224e-16 255 0 0 255 
7.386075 5.746907 -3.518966e-16 255 0 0 255 
5.416455 6.553218 0.7663732 255 255 255 255 
3.446835 7.111434 1.296939 255 255 255 255 
1.477215 7.421555 1.591698 255 255 255 255 
-0.492405 7.483578 1.65065 255 255 255 255 
-2.462025 7.297506 1.473795 255 255 255 255 
-4.431645 6.863338 1.061132 255 255 255 255 
-6.401265 6.181075 0.4126625 255 255 255 255 
-7.386075 5.746907 -3.518966e-16 255 0 0 255 
7.386075 7.183633 -4.398707e-16 255 0 0 255 
6.401265 7.726343 0.5158281 255 255 255 255 
4.431645 8.579173 1.326415 255 255 255 255 
2.462025 9.121883 1.842243 255 255 255 255 
0.492405 9.354473 2.063313 255 255 255 255 
-1.477215 9.276943 1.989623 255 255 255 255 
-3.446835 8.889293 1.621174 255 255 255 255 
-5.416455 8.191524 0.9579665 255 255 255 255 
-7.386075 7.183633 -4.398707e-16 255 0 0 255 
7.386075 8.62036 -5.278448e-16 255 0 0 255 
5.416455 9.829828 1.14956 255 255 255 255 
3.446835 10.66715 1.945409 255 255 255 255 
1.477215 11.13233 2.387547 255 255 255 255 
-0.492405 11.22537 2.475975 255 255 255 255 
-2.462025 10.94626 2.210692 255 255 255 255 
-4.431645 10.29501 1.591698 255 255 255 255 
-6.401265 9.271612 0.6189938 255 255 255 255 
-7.386075 8.62036 -5.278448e-16 255 0 0 255 
7.386075 10.05709 -6.158189e-16 255 0 0 255 
6.401265 10.81688 0.7221593 255 255 255 255 
4.431645 12.01084 1.856981 255 255 255 255 
2.462025 12.77064 2.579141 255 255 255 255 
0.492405 13.09626 2.888637 255 255 255 255 
-1.477215 12.98772 2.785472 255 255 255 255 
-3.446835 12.44501 2.269644 255 255 255 255 
-5.416455 11.46813 1.341153 255 255 255 255 
-7.386075 10.05709 -6.158189e-16 255 0 0 255 
7.386075 11.49381 -7.037931e-16 255 0 0 255 
5.416455 13.10644 1.532746 255 255 255 255 
3.446835 14.22287 2.593879 255 255 255 255 
1.477215 14.84311 3.183396 255 255 255 255 
-0.492405 14.96716 3.3013 255 255 255 255 
-2.462025 14.59501 2.947589 255 255 255 255 
-4.431645 13.72668 2.122264 255 255 255 255 
-6.401265 12.36215 0.825325 255 255 255 255 
-7.386075 11.49381 -7.037931e-16 255 0 0 255 
7.386075 12.93054 -7.917672e-16 255 0 0 255 
6.401265 13.90742 0.9284906 255 255 255 255 
4.431645 15.44251 2.387547 255 255 255 255 
2.462025 16.41939 3.316038 255 255 255 255 
0.492405 16.83805 3.713962 255 255 255 255 
-1.477215 16.6985 3.581321 255 255 255 255 
-3.446835 16.00073 2.918113 255 255 255 255 
-5.416455 14.74474 1.72434 255 255 255 255 
-7.386075 12.93054 -7.917672e-16 255 0 0 255 
7.386075 14.36727 -8.797414e-16 255 0 0 255 
5.416455 16.38305 1.915933 255 255 255 255 
3.446835 17.77859 3.242348 255 255 255 255 
1.477215 18.55389 3.979245 255 255 255 255 
-0.492405 18.70895 4.126625 255 255 255 255 
-2.462025 18.24377 3.684486 255 255 255 255 
-4.431645 17.15835 2.65283 255 255 255 255 
-6.401265 15.45269 1.031656 255 255 255 255 
-7.386075 14.36727 -8.797414e-16 255 0 0 255 
7.386075 0.7183635 -4.398707e-17 255 0 0 255 
6.89367 1.490998 0.0515828 255 255 255 255 
6.89367 0.7726345 0.0515828 255 255 255 255 
5.90886 0.7726345 0.0515828 255 255 255 255 
6.401265 0 0 255 255 255 255 
5.416455 1.630552 0.1842243 255 255 255 255 
4.92405 0.8579175 0.1326415 255 255 255 255 
3.93924 0.8579175 0.1326415 255 255 255 255 
4.431645 0 0 255 255 255 255 
3.446835 1.770106 0.3168658 255 255 255 255 
2.95443 0.9121885 0.1842243 255 255 255 255 
1.96962 0.9121885 0.1842243 255 255 255 255 
2.462025 0 0 255 255 255 255 
1.477215 1.847636 0.3905556 255 255 255 255 
0.98481 0.9354475 0.2063313 255 255 255 255 
0 0.9354475 0.2063313 255 255 255 255 
0.492405 0 0 255 255 255 255 
-0.492405 1.863142 0.4052935 255 255 255 255 
-0.98481 0.9276945 0.1989623 255 255 255 255 
-1.96962 0.9276945 0.1989623 255 255 255 255 
-1.477215 0 0 255 255 255 255 
-2.462025 1.816624 0.3610797 255 255 255 255 
-2.95443 0.8889295 0.1621174 255 255 255 255 
-3.93924 0.8889295 0.1621174 255 255 255 255 
-3.446835 0 0 255 255 255 255 
-4.431645 1.708082 0.2579141 255 255 255 255 
-4.92405 0.8191525 0.09579665 255 255 255 255 
-5.90886 0.8191525 0.09579665 255 255 255 255 
-5.416455 0 0 255 255 255 255 
-6.401265 1.537516 0.09579665 255 255 255 255 
-6.89367 0.7183635 -4.398707e-17 255 255 255 255 
-7.386075 0.7183635 -4.398707e-17 255 0 0 255 
-6.89367 0 0 255 255 255 255 
6.89367 2.209361 0.0515828 255 255 255 255 
7.386075 2.15509 -1.319612e-16 255 0 0 255 
6.401265 3.075031 0.1915933 255 255 255 255 
5.90886 2.410939 0.2431761 255 255 255 255 
4.92405 2.496222 0.3242348 255 255 255 255 
4.431645 3.416163 0.5158281 255 255 255 255 
3.93924 2.635776 0.4568763 255 255 255 255 
2.95443 2.690047 0.5084591 255 255 255 255 
2.462025 3.633247 0.7221594 255 255 255 255 
1.96962 2.767577 0.5821488 255 255 255 255 
0.98481 2.790836 0.6042558 255 255 255 255 
0.492405 3.726283 0.810587 255 255 255 255 
0 2.806342 0.6189938 255 255 255 255 
-0.98481 2.798589 0.6116248 255 255 255 255 
-1.477215 3.695271 0.7811111 255 255 255 255 
-1.96962 2.752071 0.5674109 255 255 255 255 
-2.95443 2.713306 0.530566 255 255 255 255 
-3.446835 3.540211 0.6337316 255 255 255 255 
-3.93924 2.604764 0.4274004 255 255 255 255 
-4.92405 2.534987 0.3610796 255 255 255 255 
-5.416455 3.261103 0.3684486 255 255 255 255 
-5.90886 2.364421 0.1989622 255 255 255 255 
-6.89367 2.263632 0.1031656 255 255 255 255 
-6.89367 2.981995 0.1031656 255 255 255 255 
-7.386075 2.15509 -1.319612e-16 255 0 0 255 
7.386075 3.591816 -2.199353e-16 255 0 0 255 
6.89367 4.472993 0.1547485 255 255 255 255 
6.89367 3.75463 0.1547485 255 255 255 255 
5.90886 3.956208 0.3463418 255 255 255 255 
5.416455 4.891655 0.552673 255 255 255 255 
4.92405 4.212056 0.5895178 255 255 255 255 
3.93924 4.35161 0.7221594 255 255 255 255 
3.446835 5.310317 0.9505975 255 255 255 255 
2.95443 4.514423 0.8769078 255 255 255 255 
1.96962 4.591954 0.9505975 255 255 255 255 
1.477215 5.542907 1.171667 255 255 255 255 
0.98481 4.66173 1.016919 255 255 255 255 
0 4.677237 1.031657 255 255 255 255 
-0.492405 5.589425 1.215881 255 255 255 255 
-0.98481 4.653977 1.009549 255 255 255 255 
-1.96962 4.60746 0.9653356 255 255 255 255 
-2.462025 5.449871 1.083239 255 255 255 255 
-2.95443 4.491165 0.8548008 255 255 255 255 
-3.93924 4.382623 0.7516352 255 255 255 255 
-4.431645 5.124245 0.7737422 255 255 255 255 
-4.92405 4.173292 0.552673 255 255 255 255 
-5.90886 4.002726 0.3905556 255 255 255 255 
-6.401265 4.612547 0.28739 255 255 255 255 
-6.89367 3.700359 0.1031656 255 255 255 255 
-7.386075 3.591816 -2.199353e-16 255 0 0 255 
6.89367 5.191357 0.1547485 255 255 255 255 
7.386075 5.028543 -3.079095e-16 255 0 0 255 
6.401265 6.150063 0.3831866 255 255 255 255 
5.90886 5.594512 0.5379351 255 255 255 255 
4.92405 5.850361 0.7811111 255 255 255 255 
4.431645 6.832326 1.031656 255 255 255 255 
3.93924 6.129469 1.046394 255 255 255 255 
2.95443 6.292282 1.201143 255 255 255 255 
2.462025 7.266495 1.444319 255 255 255 255 
1.96962 6.447343 1.348522 255 255 255 255 
0.98481 6.517119 1.414843 255 255 255 255 
0.492405 7.452567 1.621174 255 255 255 255 
0 6.548131 1.444319 255 255 255 255 
-0.98481 6.524872 1.422212 255 255 255 255 
-1.477215 7.390542 1.562222 255 255 255 255 
-1.96962 6.431836 1.333785 255 255 255 255 
-2.95443 6.315541 1.22325 255 255 255 255 
-3.446835 7.080422 1.267463 255 255 255 255 
-3.93924 6.098457 1.016918 255 255 255 255 
-4.92405 5.889126 0.817956 255 255 255 255 
-5.416455 6.522206 0.7368972 255 255 255 255 
-5.90886 5.547995 0.4937212 255 255 255 255 
-6.89367 5.245627 0.2063313 255 255 255 255 
-6.89367 5.963991 0.2063313 255 255 255 255 
-7.386075 5.028543 -3.079095e-16 255 0 0 255 
7.386075 6.46527 -3.958837e-16 255 0 0 255 
6.89367 7.454988 0.257914 255 255 255 255 
6.89367 6.736625 0.257914 255 255 255 255 
5.90886 7.139781 0.6411006 255 255 255 255 
5.416455 8.152758 0.9211215 255 255 255 255 
4.92405 7.566195 1.046394 255 255 255 255 
3.93924 7.845304 1.311677 255 255 255 255 
3.446835 8.850529 1.584329 255 255 255 255 
2.95443 8.116659 1.569591 255 255 255 255 
1.96962 8.271719 1.71697 255 255 255 255 
1.477215 9.238178 1.952778 255 255 255 255 
0.98481 8.388014 1.827506 255 255 255 255 
0 8.419025 1.856982 255 255 255 255 
-0.492405 9.315708 2.026468 255 255 255 255 
-0.98481 8.38026 1.820137 255 255 255 255 
-1.96962 8.287225 1.731709 255 255 255 255 
-2.462025 9.083118 1.805398 255 255 255 255 
-2.95443 8.093399 1.547485 255 255 255 255 
-3.93924 7.876315 1.341153 255 255 255 255 
-4.431645 8.540408 1.28957 255 255 255 255 
-4.92405 7.527431 1.009549 255 255 255 255 
-5.90886 7.186299 0.6853145 255 255 255 255 
-6.401265 7.687578 0.4789833 255 255 255 255 
-6.89367 6.682354 0.2063313 255 255 255 255 
-7.386075 6.46527 -3.958837e-16 255 0 0 255 
6.89367 8.173351 0.257914 255 255 255 255 
7.386075 7.901997 -4.838577e-16 255 0 0 255 
6.401265 9.225094 0.57478 255 255 255 255 
5.90886 8.778086 0.8326941 255 255 255 255 
4.92405 9.2045 1.237988 255 255 255 255 
4.431645 10.24849 1.547485 255 255 255 255 
3.93924 9.623161 1.635912 255 255 255 255 
2.95443 9.894516 1.893826 255 255 255 255 
2.462025 10.89974 2.166478 255 255 255 255 
1.96962 10.12711 2.114895 255 255 255 255 
0.98481 10.2434 2.22543 255 255 255 255 
0.492405 11.17885 2.431761 255 255 255 255 
0 10.28992 2.269644 255 255 255 255 
-0.98481 10.25116 2.232799 255 255 255 255 
-1.477215 11.08582 2.343333 255 255 255 255 
-1.96962 10.1116 2.100157 255 255 255 255 
-2.95443 9.917776 1.915933 255 255 255 255 
-3.446835 10.62064 1.901195 255 255 255 255 
-3.93924 9.592152 1.606436 255 255 255 255 
-4.92405 9.243267 1.274832 255 255 255 255 
-5.416455 9.783311 1.105346 255 255 255 255 
-5.90886 8.731567 0.7884802 255 255 255 255 
-6.89367 8.227623 0.3094969 255 255 255 255 
-6.89367 8.945986 0.3094969 255 255 255 255 
-7.386075 7.901997 -4.838577e-16 255 0 0 255 
7.386075 9.338725 -5.718318e-16 255 0 0 255 
6.89367 10.43699 0.3610797 255 255 255 255 
6.89367 9.71862 0.3610797 255 255 255 255 
5.90886 10.32335 0.9358597 255 255 255 255 
5.416455 11.41386 1.28957 255 255 255 255 
4.92405 10.92033 1.503271 255 255 255 255 
3.93924 11.33899 1.901195 255 255 255 255 
3.446835 12.39074 2.218061 255 255 255 255 
2.95443 11.71889 2.262275 255 255 255 255 
1.96962 11.95148 2.483344 255 255 255 255 
1.477215 12.93345 2.733889 255 255 255 255 
0.98481 12.1143 2.638092 255 255 255 255 
0 12.16082 2.682306 255 255 255 255 
-0.492405 13.04199 2.837054 255 255 255 255 
-0.98481 12.10654 2.630723 255 255 255 255 
-1.96962 11.96699 2.498082 255 255 255 255 
-2.462025 12.71636 2.527558 255 255 255 255 
-2.95443 11.69563 2.240168 255 255 255 255 
-3.93924 11.37001 1.930671 255 255 255 255 
-4.431645 11.95657 1.805398 255 255 255 255 
-4.92405 10.88157 1.466426 255 255 255 255 
-5.90886 10.36987 0.9800735 255 255 255 255 
-6.401265 10.76261 0.6705765 255 255 255 255 
-6.89367 9.664351 0.3094969 255 255 255 255 
-7.386075 9.338725 -5.718318e-16 255 0 0 255 
6.89367 11.15534 0.3610797 255 255 255 255 
7.386075 10.77545 -6.59806e-16 255 0 0 255 
6.401265 12.30013 0.766373 255 255 255 255 
5.90886 11.96166 1.127453 255 255 255 255 
4.92405 12.55864 1.694864 255 255 255 255 
4.431645 13.66465 2.063313 255 255 255 255 
3.93924 13.11686 2.22543 255 255 255 255 
2.95443 13.49676 2.58651 255 255 255 255 
2.462025 14.53299 2.888638 255 255 255 255 
1.96962 13.80688 2.881269 255 255 255 255 
0.98481 13.96968 3.036016 255 255 255 255 
0.492405 14.90514 3.242348 255 255 255 255 
0 14.03171 3.094969 255 255 255 255 
-0.98481 13.97744 3.043386 255 255 255 255 
-1.477215 14.78109 3.124444 255 255 255 255 
-1.96962 13.79136 2.86653 255 255 255 255 
-2.95443 13.52001 2.608616 255 255 255 255 
-3.446835 14.16084 2.534926 255 255 255 255 
-3.93924 13.08584 2.195954 255 255 255 255 
-4.92405 12.5974 1.731709 255 255 255 255 
-5.416455 13.04441 1.473794 255 255 255 255 
-5.90886 11.91514 1.083239 255 255 255 255 
-6.89367 11.20962 0.4126625 255 255 255 255 
-6.89367 11.92798 0.4126625 255 255 255 255 
-7.386075 10.77545 -6.59806e-16 255 0 0 255 
7.386075 12.21218 -7.477802e-16 255 0 0 255 
6.89367 13.41898 0.4642453 255 255 255 255 
6.89367 12.70061 0.4642453 255 255 255 255 
5.90886 13.50693 1.230618 255 255 255 255 
5.416455 14.67496 1.658019 255 255 255 255 
4.92405 14.27448 1.960146 255 255 255 255 
3.93924 14.83269 2.490713 255 255 255 255 
3.446835 15.93095 2.851792 255 255 255 255 
2.95443 15.32113 2.954958 255 255 255 255 
1.96962 15.63125 3.249717 255 255 255 255 
1.477215 16.62872 3.515 255 255 255 255 
0.98481 15.84058 3.448679 255 255 255 255 
0 15.90261 3.507631 255 255 255 255 
-0.492405 16.76828 3.647642 255 255 255 255 
-0.98481 15.83283 3.44131 255 255 255 255 
-1.96962 15.64676 3.264455 255 255 255 255 
-2.462025 16.34962 3.249717 255 255 255 255 
-2.95443 15.29787 2.932851 255 255 255 255 
-3.93924 14.8637 2.520188 255 255 255 255 
-4.431645 15.37274 2.321227 255 255 255 255 
-4.92405 14.23571 1.923302 255 255 255 255 
-5.90886 13.55344 1.274832 255 255 255 255 
-6.401265 13.83764 0.86217 255 255 255 255 
-6.89367 12.64635 0.4126625 255 255 255 255 
-7.386075 12.21218 -7.477802e-16 255 0 0 255 
6.89367 14.13735 0.4642453 255 255 255 255 
7.386075 13.6489 -8.357543e-16 255 0 0 255 
6.401265 15.37516 0.9579665 255 255 255 255 
5.90886 15.14524 1.422212 255 255 255 255 
4.92405 15.91278 2.15174 255 255 255 255 
4.431645 17.08082 2.57914 255 255 255 255 
3.93924 16.61055 2.814948 255 255 255 255 
2.95443 17.09899 3.279193 255 255 255 255 
2.462025 18.16624 3.610796 255 255 255 255 
1.96962 17.48664 3.647641 255 255 255 255 
0.98481 17.69597 3.846603 255 255 255 255 
0.492405 18.63142 4.052935 255 255 255 255 
0 17.7735 3.920294 255 255 255 255 
-0.98481 17.70372 3.853973 255 255 255 255 
-1.477215 18.47636 3.905555 255 255 255 255 
-1.96962 17.47113 3.632904 255 255 255 255 
-2.95443 17.12225 3.3013 255 255 255 255 
-3.446835 17.70106 3.168658 255 255 255 255 
-3.93924 16.57954 2.785471 255 255 255 255 
-4.92405 15.95154 2.188585 255 255 255 255 
-5.416455 16.30552 1.842243 255 255 255 255 
-5.90886 15.09871 1.377998 255 255 255 255 
-6.89367 14.19162 0.515828 255 255 255 255 
-6.89367 14.90998 0.515828 255 255 255 255 
-7.386075 13.6489 -8.357543e-16 255 0 0 255 
3 99 100 101 
3 102 103 101 
3 102 104 105 
3 106 107 105 
3 106 108 109 
3 110 111 109 
3 110 112 113 
3 114 115 113 
3 114 116 117 
3 118 119 117 
3 118 120 121 
3 122 123 121 
3 122 124 125 
3 126 127 125 
3 126 128 129 
3 130 131 129 
3 132 100 133 
3 132 134 135 
3 136 104 135 
3 136 137 138 
3 139 108 138 
3 139 140 141 
3 142 112 141 
3 142 143 144 
3 145 116 144 
3 145 146 147 
3 148 120 147 
3 148 149 150 
3 151 124 150 
3 151 152 153 
3 154 128 153 
3 154 155 156 
3 157 158 159 
3 160 134 159 
3 160 161 162 
3 163 137 162 
3 163 164 165 
3 166 140 165 
3 166 167 168 
3 169 143 168 
3 169 170 171 
3 172 146 171 
3 172 173 174 
3 175 149 174 
3 175 176 177 
3 178 152 177 
3 178 179 180 
3 181 155 180 
3 182 158 183 
3 182 184 185 
3 186 161 185 
3 186 187 188 
3 189 164 188 
3 189 190 191 
3 192 167 191 
3 192 193 194 
3 195 170 194 
3 195 196 197 
3 198 173 197 
3 198 199 200 
3 201 176 200 
3 201 202 203 
3 204 179 203 
3 204 205 206 
3 207 208 209 
3 210 184 209 
3 210 211 212 
3 213 187 212 
3 213 214 215 
3 216 190 215 
3 216 217 218 
3 219 193 218 
3 219 220 221 
3 222 196 221 
3 222 223 224 
3 225 199 224 
3 225 226 227 
3 228 202 227 
3 228 229 230 
3 231 205 230 
3 232 208 233 
3 232 234 235 
3 236 211 235 
3 236 237 238 
3 239 214 238 
3 239 240 241 
3 242 217 241 
3 242 243 244 
3 245 220 244 
3 245 246 247 
3 248 223 247 
3 248 249 250 
3 251 226 250 
3 251 252 253 
3 254 229 253 
3 254 255 256 
3 257 258 259 
3 260 234 259 
3 260 261 262 
3 263 237 262 
3 263 264 265 
3 266 240 265 
3 266 267 268 
3 269 243 268 
3 269 270 271 
3 272 246 271 
3 272 273 274 
3 275 249 274 
3 275 276 277 
3 278 252 277 
3 278 279 280 
3 281 255 280 
3 282 258 283 
3 282 284 285 
3 286 261 285 
3 286 287 288 
3 289 264 288 
3 289 290 291 
3 292 267 291 
3 292 293 294 
3 295 270 294 
3 295 296 297 
3 298 273 297 
3 298 299 300 
3 301 276 300 
3 301 302 303 
3 304 279 303 
3 304 305 306 
3 307 308 309 
3 310 284 309 
3 310 311 312 
3 313 287 312 
3 313 314 315 
3 316 290 315 
3 316 317 318 
3 319 293 318 
3 319 320 321 
3 322 296 321 
3 322 323 324 
3 325 299 324 
3 325 326 327 
3 328 302 327 
3 328 329 330 
3 331 305 330 
3 332 308 333 
3 332 334 335 
3 336 311 335 
3 336 337 338 
3 339 314 338 
3 339 340 341 
3 342 317 341 
3 342 343 344 
3 345 320 344 
3 345 346 347 
3 348 323 347 
3 348 349 350 
3 351 326 350 
3 351 352 353 
3 354 329 353 
3 354 355 356 
3 0 99 101 
3 99 1 100 
3 101 100 2 
3 2 102 101 
3 102 3 103 
3 101 103 0 
3 3 102 105 
3 102 2 104 
3 105 104 4 
3 4 106 105 
3 106 5 107 
3 105 107 3 
3 5 106 109 
3 106 4 108 
3 109 108 6 
3 6 110 109 
3 110 7 111 
3 109 111 5 
3 7 110 113 
3 110 6 112 
3 113 112 8 
3 8 114 113 
3 114 9 115 
3 113 115 7 
3 9 114 117 
3 114 8 116 
3 117 116 10 
3 10 118 117 
3 118 11 119 
3 117 119 9 
3 11 118 121 
3 118 10 120 
3 121 120 12 
3 12 122 121 
3 122 13 123 
3 121 123 11 
3 13 122 125 
3 122 12 124 
3 125 124 14 
3 14 126 125 
3 126 15 127 
3 125 127 13 
3 15 126 129 
3 126 14 128 
3 129 128 16 
3 16 130 129 
3 130 17 131 
3 129 131 15 
3 18 132 133 
3 132 2 100 
3 133 100 1 
3 2 132 135 
3 132 18 134 
3 135 134 19 
3 19 136 135 
3 136 4 104 
3 135 104 2 
3 4 136 138 
3 136 19 137 
3 138 137 20 
3 20 139 138 
3 139 6 108 
3 138 108 4 
3 6 139 141 
3 139 20 140 
3 141 140 21 
3 21 142 141 
3 142 8 112 
3 141 112 6 
3 8 142 144 
3 142 21 143 
3 144 143 22 
3 22 145 144 
3 145 10 116 
3 144 116 8 
3 10 145 147 
3 145 22 146 
3 147 146 23 
3 23 148 147 
3 148 12 120 
3 147 120 10 
3 12 148 150 
3 148 23 149 
3 150 149 24 
3 24 151 150 
3 151 14 124 
3 150 124 12 
3 14 151 153 
3 151 24 152 
3 153 152 25 
3 25 154 153 
3 154 16 128 
3 153 128 14 
3 16 154 156 
3 154 25 155 
3 156 155 26 
3 18 157 159 
3 157 27 158 
3 159 158 28 
3 28 160 159 
3 160 19 134 
3 159 134 18 
3 19 160 162 
3 160 28 161 
3 162 161 29 
3 29 163 162 
3 163 20 137 
3 162 137 19 
3 20 163 165 
3 163 29 164 
3 165 164 30 
3 30 166 165 
3 166 21 140 
3 165 140 20 
3 21 166 168 
3 166 30 167 
3 168 167 31 
3 31 169 168 
3 169 22 143 
3 168 143 21 
3 22 169 171 
3 169 31 170 
3 171 170 32 
3 32 172 171 
3 172 23 146 
3 171 146 22 
3 23 172 174 
3 172 32 173 
3 174 173 33 
3 33 175 174 
3 175 24 149 
3 174 149 23 
3 24 175 177 
3 175 33 176 
3 177 176 34 
3 34 178 177 
3 178 25 152 
3 177 152 24 
3 25 178 180 
3 178 34 179 
3 180 179 35 
3 35 181 180 
3 181 26 155 
3 180 155 25 
3 36 182 183 
3 182 28 158 
3 183 158 27 
3 28 182 185 
3 182 36 184 
3 185 184 37 
3 37 186 185 
3 186 29 161 
3 185 161 28 
3 29 186 188 
3 186 37 187 
3 188 187 38 
3 38 189 188 
3 189 30 164 
3 188 164 29 
3 30 189 191 
3 189 38 190 
3 191 190 39 
3 39 192 191 
3 192 31 167 
3 191 167 30 
3 31 192 194 
3 192 39 193 
3 194 193 40 
3 40 195 194 
3 195 32 170 
3 194 170 31 
3 32 195 197 
3 195 40 196 
3 197 196 41 
3 41 198 197 
3 198 33 173 
3 197 173 32 
3 33 198 200 
3 198 41 199 
3 200 199 42 
3 42 201 200 
3 201 34 176 
3 200 176 33 
3 34 201 203 
3 201 42 202 
3 203 202 43 
3 43 204 203 
3 204 35 179 
3 203 179 34 
3 35 204 206 
3 204 43 205 
3 206 205 44 
3 36 207 209 
3 207 45 208 
3 209 208 46 
3 46 210 209 
3 210 37 184 
3 209 184 36 
3 37 210 212 
3 210 46 211 
3 212 211 47 
3 47 213 212 
3 213 38 187 
3 212 187 37 
3 38 213 215 
3 213 47 214 
3 215 214 48 
3 48 216 215 
3 216 39 190 
3 215 190 38 
3 39 216 218 
3 216 48 217 
3 218 217 49 
3 49 219 218 
3 219 40 193 
3 218 193 39 
3 40 219 221 
3 219 49 220 
3 221 220 50 
3 50 222 221 
3 222 41 196 
3 221 196 40 
3 41 222 224 
3 222 50 223 
3 224 223 51 
3 51 225 224 
3 225 42 199 
3 224 199 41 
3 42 225 227 
3 225 51 226 
3 227 226 52 
3 52 228 227 
3 228 43 202 
3 227 202 42 
3 43 228 230 
3 228 52 229 
3 230 229 53 
3 53 231 230 
3 231 44 205 
3 230 205 43 
3 54 232 233 
3 232 46 208 
3 233 208 45 
3 46 232 235 
3 232 54 234 
3 235 234 55 
3 55 236 235 
3 236 47 211 
3 235 211 46 
3 47 236 238 
3 236 55 237 
3 238 237 56 
3 56 239 238 
3 239 48 214 
3 238 214 47 
3 48 239 241 
3 239 56 240 
3 241 240 57 
3 57 242 241 
3 242 49 217 
3 241 217 48 
3 49 242 244 
3 242 57 243 
3 244 243 58 
3 58 245 244 
3 245 50 220 
3 244 220 49 
3 50 245 247 
3 245 58 246 
3 247 246 59 
3 59 248 247 
3 248 51 223 
3 247 223 50 
3 51 248 250 
3 248 59 249 
3 250 249 60 
3 60 251 250 
3 251 52 226 
3 250 226 51 
3 52 251 253 
3 251 60 252 
3 253 252 61 
3 61 254 253 
3 254 53 229 
3 253 229 52 
3 53 254 256 
3 254 61 255 
3 256 255 62 
3 54 257 259 
3 257 63 258 
3 259 258 64 
3 64 260 259 
3 260 55 234 
3 259 234 54 
3 55 260 262 
3 260 64 261 
3 262 261 65 
3 65 263 262 
3 263 56 237 
3 262 237 55 
3 56 263 265 
3 263 65 264 
3 265 264 66 
3 66 266 265 
3 266 57 240 
3 265 240 56 
3 57 266 268 
3 266 66 267 
3 268 267 67 
3 67 269 268 
3 269 58 243 
3 268 243 57 
3 58 269 271 
3 269 67 270 
3 271 270 68 
3 68 272 271 
3 272 59 246 
3 271 246 58 
3 59 272 274 
3 272 68 273 
3 274 273 69 
3 69 275 274 
3 275 60 249 
3 274 249 59 
3 60 275 277 
3 275 69 276 
3 277 276 70 
3 70 278 277 
3 278 61 252 
3 277 252 60 
3 61 278 280 
3 278 70 279 
3 280 279 71 
3 71 281 280 
3 281 62 255 
3 280 255 61 
3 72 282 283 
3 282 64 258 
3 283 258 63 
3 64 282 285 
3 282 72 284 
3 285 284 73 
3 73 286 285 
3 286 65 261 
3 285 261 64 
3 65 286 288 
3 286 73 287 
3 288 287 74 
3 74 289 288 
3 289 66 264 
3 288 264 65 
3 66 289 291 
3 289 74 290 
3 291 290 75 
3 75 292 291 
3 292 67 267 
3 291 267 66 
3 67 292 294 
3 292 75 293 
3 294 293 76 
3 76 295 294 
3 295 68 270 
3 294 270 67 
3 68 295 297 
3 295 76 296 
3 297 296 77 
3 77 298 297 
3 298 69 273 
3 297 273 68 
3 69 298 300 
3 298 77 299 
3 300 299 78 
3 78 301 300 
3 301 70 276 
3 300 276 69 
3 70 301 303 
3 301 78 302 
3 303 302 79 
3 79 304 303 
3 304 71 279 
3 303 279 70 
3 71 304 306 
3 304 79 305 
3 306 305 80 
3 72 307 309 
3 307 81 308 
3 309 308 82 
3 82 310 309 
3 310 73 284 
3 309 284 72 
3 73 310 312 
3 310 82 311 
3 312 311 83 
3 83 313 312 
3 313 74 287 
3 312 287 73 
3 74 313 315 
3 313 83 314 
3 315 314 84 
3 84 316 315 
3 316 75 290 
3 315 290 74 
3 75 316 318 
3 316 84 317 
3 318 317 85 
3 85 319 318 
3 319 76 293 
3 318 293 75 
3 76 319 321 
3 319 85 320 
3 321 320 86 
3 86 322 321 
3 322 77 296 
3 321 296 76 
3 77 322 324 
3 322 86 323 
3 324 323 87 
3 87 325 324 
3 325 78 299 
3 324 299 77 
3 78 325 327 
3 325 87 326 
3 327 326 88 
3 88 328 327 
3 328 79 302 
3 327 302 78 
3 79 328 330 
3 328 88 329 
3 330 329 89 
3 89 331 330 
3 331 80 305 
3 330 305 79 
3 90 332 333 
3 332 82 308 
3 333 308 81 
3 82 332 335 
3 332 90 334 
3 335 334 91 
3 91 336 335 
3 336 83 311 
3 335 311 82 
3 83 336 338 
3 336 91 337 
3 338 337 92 
3 92 339 338 
3 339 84 314 
3 338 314 83 
3 84 339 341 
3 339 92 340 
3 341 340 93 
3 93 342 341 
3 342 85 317 
3 341 317 84 
3 85 342 344 
3 342 93 343 
3 344 343 94 
3 94 345 344 
3 345 86 320 
3 344 320 85 
3 86 345 347 
3 345 94 346 
3 347 346 95 
3 95 348 347 
3 348 87 323 
3 347 323 86 
3 87 348 350 
3 348 95 349 
3 350 349 96 
3 96 351 350 
3 351 88 326 
3 350 326 87 
3 88 351 353 
3 351 96 352 
3 353 352 97 
3 97 354 353 
3 354 89 329 
3 353 329 88 
3 89 354 356 
3 354 97 355 
3 356 355 98 
