ply
format ascii 1.0
comment VCGLIB generated
element vertex 441
property float x
property float y
property float z
property int flags
property uchar red
property uchar green
property uchar blue
property uchar alpha
element face 800
property list uchar int vertex_indices
end_header
-5 0 -1.529804 32 255 0 0 255 
-4.873215 -0.353915 -1.092407 0 255 0 0 255 
-4.873215 0.353915 -1.092407 0 255 0 0 255 
-4.74643 -0.70783 -0.784775 0 255 0 0 255 
-4.74643 0.70783 -0.784775 0 255 0 0 255 
-4.673313 -1.045501 -0.4318 0 255 0 0 255 
-4.673313 1.045501 -0.4318 0 255 0 0 255 
-4.600196 -1.383172 -0.058293 0 255 0 0 255 
-4.600196 1.383172 -0.058293 0 255 0 0 255 
-4.541211 0 -1.062585 0 192 192 192 255 
-4.510991 -1.765296 0.339692 0 255 0 0 255 
-4.510991 1.765296 0.339692 0 255 0 0 255 
-4.421785 -2.147419 0.679801 0 255 0 0 255 
-4.421785 2.147419 0.679801 0 255 0 0 255 
-4.414426 -0.353915 -0.824642 0 192 192 192 255 
-4.414426 0.353915 -0.824642 0 192 192 192 255 
-4.315482 -0.740335 -0.494853 0 192 192 192 255 
-4.315482 0.740335 -0.494853 0 192 192 192 255 
-4.299583 -2.567143 0.993154 0 255 0 0 255 
-4.299583 2.567143 0.993154 0 255 0 0 255 
-4.242365 -1.078006 -0.139305 0 192 192 192 255 
-4.242365 1.078006 -0.139305 0 192 192 192 255 
-4.177382 -2.986868 1.236735 0 255 0 0 255 
-4.177382 2.986868 1.236735 0 255 0 0 255 
-4.161251 -1.410395 0.217864 0 192 192 192 255 
-4.161251 1.410395 0.217864 0 192 192 192 255 
-4.082422 0 -0.711871 0 192 192 192 255 
-4.072046 -1.792519 0.580837 0 192 192 192 255 
-4.072046 1.792519 0.580837 0 192 192 192 255 
-4.037008 -3.441751 1.425611 0 255 0 0 255 
-4.037008 3.441751 1.425611 0 255 0 0 255 
-3.983479 -0.386419 -0.545047 0 192 192 192 255 
-3.983479 0.386419 -0.545047 0 192 192 192 255 
-3.952282 -2.204147 0.90157 0 192 192 192 255 
-3.952282 2.204147 0.90157 0 192 192 192 255 
-3.896634 -3.896634 1.529804 0 255 0 0 255 
-3.896634 3.896634 1.529804 0 255 0 0 255 
-3.884535 -0.772839 -0.221582 0 192 192 192 255 
-3.884535 0.772839 -0.221582 0 192 192 192 255 
-3.830081 -2.623872 1.145854 0 192 192 192 255 
-3.830081 2.623872 1.145854 0 192 192 192 255 
-3.803421 -1.105228 0.11271 0 192 192 192 255 
-3.803421 1.105228 0.11271 0 192 192 192 255 
-3.722307 -1.437618 0.438537 0 192 192 192 255 
-3.722307 1.437618 0.438537 0 192 192 192 255 
-3.687871 -3.092614 1.329772 0 192 192 192 255 
-3.687871 3.092615 1.329772 0 192 192 192 255 
-3.602829 0 -0.425449 0 192 192 192 255 
-3.602543 -1.849247 0.789083 0 192 192 192 255 
-3.602543 1.849247 0.789083 0 192 192 192 255 
-3.547498 -3.547498 1.417665 0 192 192 192 255 
-3.547498 3.547498 1.417665 0 192 192 192 255 
-3.503886 -0.386419 -0.276017 0 192 192 192 255 
-3.503886 0.386419 -0.276017 0 192 192 192 255 
-3.482779 -2.260876 1.049442 0 192 192 192 255 
-3.482779 2.260876 1.049442 0 192 192 192 255 
-3.441751 -4.037008 1.425611 0 255 0 0 255 
-3.441751 4.037008 1.425611 0 255 0 0 255 
-3.431175 -0.811435 0.029217 0 192 192 192 255 
-3.431175 0.811435 0.029217 0 192 192 192 255 
-3.350062 -1.143825 0.329315 0 192 192 192 255 
-3.350062 1.143825 0.329316 0 192 192 192 255 
-3.34057 -2.729619 1.243249 0 192 192 192 255 
-3.34057 2.729619 1.243249 0 192 192 192 255 
-3.258633 -1.520029 0.649859 0 192 192 192 255 
-3.258633 1.520028 0.649859 0 192 192 192 255 
-3.198361 -3.198361 1.332485 0 192 192 192 255 
-3.198361 3.198361 1.332487 0 192 192 192 255 
-3.138869 -1.931657 0.936676 0 192 192 192 255 
-3.138869 1.931657 0.936676 0 192 192 192 255 
-3.123237 0 -0.175864 0 192 192 192 255 
-3.092614 -3.687871 1.329772 0 192 192 192 255 
-3.092614 3.687872 1.329772 0 192 192 192 255 
-3.050527 -0.425015 -0.043661 0 192 192 192 255 
-3.050527 0.425015 -0.043661 0 192 192 192 255 
-3.001481 -2.39053 1.146903 0 192 192 192 255 
-3.001481 2.390529 1.146903 0 192 192 192 255 
-2.986868 -4.177382 1.236735 0 255 0 0 255 
-2.986868 4.177382 1.236735 0 255 0 0 255 
-2.977816 -0.850031 0.229988 0 192 192 192 255 
-2.977816 0.850031 0.229988 0 192 192 192 255 
-2.886388 -1.226235 0.522043 0 192 192 192 255 
-2.886388 1.226234 0.522043 0 192 192 192 255 
-2.859272 -2.859272 1.247811 0 192 192 192 255 
-2.859272 2.859272 1.247811 0 192 192 192 255 
-2.794959 -1.602439 0.78548 0 192 192 192 255 
-2.794959 1.602438 0.78548 0 192 192 192 255 
-2.729619 -3.34057 1.243249 0 192 192 192 255 
-2.729619 3.34057 1.243249 0 192 192 192 255 
-2.657571 -2.061311 1.019879 0 192 192 192 255 
-2.657571 2.06131 1.019877 0 192 192 192 255 
-2.623872 -3.830081 1.145854 0 192 192 192 255 
-2.623872 3.830082 1.145854 0 192 192 192 255 
-2.619184 0 0.03828 0 192 192 192 255 
-2.567143 -4.299583 0.993154 0 255 0 0 255 
-2.567143 4.299584 0.993154 0 255 0 0 255 
-2.546474 -0.425015 0.145514 0 192 192 192 255 
-2.546474 0.425015 0.145514 0 192 192 192 255 
-2.520183 -2.520183 1.137192 0 192 192 192 255 
-2.520183 2.520182 1.137192 0 192 192 192 255 
-2.490364 -0.885711 0.383065 0 192 192 192 255 
-2.490364 0.885711 0.383066 0 192 192 192 255 
-2.398935 -1.261914 0.615801 0 192 192 192 255 
-2.398935 1.261914 0.615801 0 192 192 192 255 
-2.39053 -3.001481 1.146903 0 192 192 192 255 
-2.39053 3.001481 1.146903 0 192 192 192 255 
-2.307499 -1.711239 0.848629 0 192 192 192 255 
-2.307499 1.711238 0.848629 0 192 192 192 255 
-2.260876 -3.482779 1.049442 0 192 192 192 255 
-2.260876 3.48278 1.049442 0 192 192 192 255 
-2.204147 -3.952282 0.90157 0 192 192 192 255 
-2.204147 3.952284 0.90157 0 192 192 192 255 
-2.170111 -2.170111 0.984867 0 192 192 192 255 
-2.170111 2.170111 0.984867 0 192 192 192 255 
-2.147419 -4.421785 0.679801 0 255 0 0 255 
-2.147419 4.421786 0.679801 0 255 0 0 255 
-2.115131 0 0.202831 0 192 192 192 255 
-2.061311 -2.657571 1.019879 0 192 192 192 255 
-2.061311 2.657571 1.019879 0 192 192 192 255 
-2.059021 -0.460695 0.289827 0 192 192 192 255 
-2.059021 0.460695 0.289827 0 192 192 192 255 
-2.002911 -0.92139 0.472768 0 192 192 192 255 
-2.002911 0.92139 0.472768 0 192 192 192 255 
-1.931657 -3.138869 0.936676 0 192 192 192 255 
-1.931657 3.13887 0.936675 0 192 192 192 255 
-1.911475 -1.370715 0.666383 0 192 192 192 255 
-1.911475 1.370714 0.666383 0 192 192 192 255 
-1.849247 -3.602543 0.789083 0 192 192 192 255 
-1.849247 3.602543 0.789083 0 192 192 192 255 
-1.820039 -1.820039 0.803811 0 192 192 192 255 
-1.820039 1.820039 0.803811 0 192 192 192 255 
-1.792519 -4.072046 0.580837 0 192 192 192 255 
-1.792519 4.072046 0.580837 0 192 192 192 255 
-1.765296 -4.510991 0.339692 0 255 0 0 255 
-1.765296 4.510991 0.339692 0 255 0 0 255 
-1.711239 -2.307499 0.848629 0 192 192 192 255 
-1.711239 2.307499 0.848629 0 192 192 192 255 
-1.602439 -2.794959 0.78548 0 192 192 192 255 
-1.602439 2.794959 0.78548 0 192 192 192 255 
-1.59117 0 0.321212 0 192 192 192 255 
-1.53506 -0.460695 0.376956 0 192 192 192 255 
-1.53506 0.460695 0.376956 0 192 192 192 255 
-1.520029 -3.258633 0.649859 0 192 192 192 255 
-1.520029 3.258633 0.649859 0 192 192 192 255 
-1.500316 -0.959556 0.498647 0 192 192 192 255 
-1.500316 0.959556 0.498647 0 192 192 192 255 
-1.437618 -3.722307 0.438537 0 192 192 192 255 
-1.437618 3.722306 0.438537 0 192 192 192 255 
-1.410395 -4.161251 0.217864 0 192 192 192 255 
-1.410395 4.161251 0.217864 0 192 192 192 255 
-1.40888 -1.40888 0.599841 0 192 192 192 255 
-1.40888 1.40888 0.599841 0 192 192 192 255 
-1.383172 -4.600196 -0.058293 0 255 0 0 255 
-1.383172 4.600196 -0.058293 0 255 0 0 255 
-1.370715 -1.911475 0.666383 0 192 192 192 255 
-1.370715 1.911475 0.666383 0 192 192 192 255 
-1.261914 -2.398935 0.615801 0 192 192 192 255 
-1.261914 2.398935 0.615801 0 192 192 192 255 
-1.226235 -2.886388 0.522043 0 192 192 192 255 
-1.226235 2.886388 0.522043 0 192 192 192 255 
-1.143825 -3.350062 0.329315 0 192 192 192 255 
-1.143825 3.350061 0.329316 0 192 192 192 255 
-1.105228 -3.803421 0.11271 0 192 192 192 255 
-1.105228 3.803421 0.11271 0 192 192 192 255 
-1.078006 -4.242365 -0.139305 0 192 192 192 255 
-1.078006 4.242365 -0.139305 0 192 192 192 255 
-1.06721 0 0.387504 0 192 192 192 255 
-1.045501 -4.673313 -0.4318 0 255 0 0 255 
-1.045501 4.673313 -0.431801 0 255 0 0 255 
-1.032465 -0.49886 0.416543 0 192 192 192 255 
-1.032465 0.49886 0.416543 0 192 192 192 255 
-0.997721 -0.997721 0.468768 0 192 192 192 255 
-0.997721 0.997721 0.468768 0 192 192 192 255 
-0.959556 -1.500316 0.498647 0 192 192 192 255 
-0.959556 1.500316 0.498647 0 192 192 192 255 
-0.92139 -2.002911 0.472768 0 192 192 192 255 
-0.92139 2.002911 0.472768 0 192 192 192 255 
-0.885711 -2.490364 0.383065 0 192 192 192 255 
-0.885711 2.490364 0.383065 0 192 192 192 255 
-0.850031 -2.977816 0.229988 0 192 192 192 255 
-0.850031 2.977816 0.229988 0 192 192 192 255 
-0.811435 -3.431175 0.029217 0 192 192 192 255 
-0.811435 3.431175 0.029217 0 192 192 192 255 
-0.772839 -3.884535 -0.221582 0 192 192 192 255 
-0.772839 3.884535 -0.221582 0 192 192 192 255 
-0.740335 -4.315482 -0.494853 0 192 192 192 255 
-0.740335 4.315482 -0.494853 0 192 192 192 255 
-0.70783 -4.74643 -0.784775 0 255 0 0 255 
-0.70783 4.746429 -0.784775 0 255 0 0 255 
-0.533605 0 0.412803 0 192 192 192 255 
-0.49886 -1.032465 0.416543 0 192 192 192 255 
-0.49886 -0.49886 0.418082 0 192 192 192 255 
-0.49886 0.49886 0.418082 0 192 192 192 255 
-0.49886 1.032465 0.416543 0 192 192 192 255 
-0.460695 -2.059021 0.289827 0 192 192 192 255 
-0.460695 -1.53506 0.376956 0 192 192 192 255 
-0.460695 1.53506 0.376956 0 192 192 192 255 
-0.460695 2.059021 0.289827 0 192 192 192 255 
-0.425015 -3.050527 -0.043661 0 192 192 192 255 
-0.425015 -2.546474 0.145514 0 192 192 192 255 
-0.425015 2.546474 0.145514 0 192 192 192 255 
-0.425015 3.050527 -0.043661 0 192 192 192 255 
-0.386419 -3.983479 -0.545047 0 192 192 192 255 
-0.386419 -3.503886 -0.276017 0 192 192 192 255 
-0.386419 3.503886 -0.276017 0 192 192 192 255 
-0.386419 3.983479 -0.545047 0 192 192 192 255 
-0.353915 -4.873215 -1.092407 0 255 0 0 255 
-0.353915 -4.414426 -0.824642 0 192 192 192 255 
-0.353915 4.414426 -0.824642 0 192 192 192 255 
-0.353915 4.873215 -1.092407 0 255 0 0 255 
0 -5 -1.529804 32 255 0 0 255 
0 -4.541211 -1.062585 0 192 192 192 255 
0 -4.082422 -0.711871 0 192 192 192 255 
0 -3.602829 -0.425449 0 192 192 192 255 
0 -3.123237 -0.175864 0 192 192 192 255 
0 -2.619184 0.03828 0 192 192 192 255 
0 -2.115131 0.202831 0 192 192 192 255 
0 -1.59117 0.321212 0 192 192 192 255 
0 -1.06721 0.387504 0 192 192 192 255 
0 -0.533605 0.412803 0 192 192 192 255 
0 0 0.416591 0 192 192 192 255 
0 0.533605 0.412803 0 192 192 192 255 
0 1.067209 0.387504 0 192 192 192 255 
0 1.59117 0.321212 0 192 192 192 255 
0 2.115131 0.202831 0 192 192 192 255 
0 2.619184 0.03828 0 192 192 192 255 
0 3.123238 -0.175864 0 192 192 192 255 
0 3.60283 -0.42545 0 192 192 192 255 
0 4.082422 -0.711872 0 192 192 192 255 
0 4.541211 -1.062585 0 192 192 192 255 
0 5 -1.529804 32 255 0 0 255 
0.353915 -4.873215 -1.092407 0 255 0 0 255 
0.353915 -4.414426 -0.824642 0 192 192 192 255 
0.353915 4.414427 -0.824643 0 192 192 192 255 
0.353915 4.873215 -1.092407 0 255 0 0 255 
0.386419 -3.983479 -0.545047 0 192 192 192 255 
0.386419 -3.503886 -0.276017 0 192 192 192 255 
0.386419 3.503886 -0.276017 0 192 192 192 255 
0.386419 3.983479 -0.545047 0 192 192 192 255 
0.425015 -3.050527 -0.043661 0 192 192 192 255 
0.425015 -2.546474 0.145514 0 192 192 192 255 
0.425015 2.546474 0.145514 0 192 192 192 255 
0.425015 3.050527 -0.043661 0 192 192 192 255 
0.460695 -2.059021 0.289827 0 192 192 192 255 
0.460695 -1.53506 0.376956 0 192 192 192 255 
0.460695 1.53506 0.376956 0 192 192 192 255 
0.460695 2.059021 0.289827 0 192 192 192 255 
0.49886 -1.032465 0.416543 0 192 192 192 255 
0.49886 -0.49886 0.418082 0 192 192 192 255 
0.49886 0.49886 0.418082 0 192 192 192 255 
0.49886 1.032465 0.416543 0 192 192 192 255 
0.533605 0 0.412803 0 192 192 192 255 
0.70783 -4.74643 -0.784775 0 255 0 0 255 
0.70783 4.74643 -0.784775 0 255 0 0 255 
0.740335 -4.315482 -0.494853 0 192 192 192 255 
0.740335 4.315483 -0.494854 0 192 192 192 255 
0.772839 -3.884535 -0.221582 0 192 192 192 255 
0.772839 3.884535 -0.221582 0 192 192 192 255 
0.811435 -3.431175 0.029217 0 192 192 192 255 
0.811435 3.431175 0.029217 0 192 192 192 255 
0.850031 -2.977816 0.229988 0 192 192 192 255 
0.850031 2.977816 0.229988 0 192 192 192 255 
0.885711 -2.490364 0.383066 0 192 192 192 255 
0.885711 2.490364 0.383066 0 192 192 192 255 
0.92139 -2.002911 0.472768 0 192 192 192 255 
0.92139 2.002911 0.472768 0 192 192 192 255 
0.959556 -1.500316 0.498647 0 192 192 192 255 
0.959556 1.500316 0.498647 0 192 192 192 255 
0.997721 -0.997721 0.468768 0 192 192 192 255 
0.997721 0.997721 0.468768 0 192 192 192 255 
1.032465 -0.49886 0.416543 0 192 192 192 255 
1.032465 0.49886 0.416543 0 192 192 192 255 
1.045501 -4.673313 -0.4318 0 255 0 0 255 
1.045501 4.673313 -0.4318 0 255 0 0 255 
1.067209 0 0.387504 0 192 192 192 255 
1.078006 -4.242365 -0.139305 0 192 192 192 255 
1.078006 4.242365 -0.139305 0 192 192 192 255 
1.105228 -3.803421 0.11271 0 192 192 192 255 
1.105229 3.803421 0.11271 0 192 192 192 255 
1.143825 -3.350062 0.329316 0 192 192 192 255 
1.143825 3.350061 0.329315 0 192 192 192 255 
1.226234 -2.886388 0.522043 0 192 192 192 255 
1.226234 2.886388 0.522043 0 192 192 192 255 
1.261914 -2.398935 0.615801 0 192 192 192 255 
1.261914 2.398935 0.615801 0 192 192 192 255 
1.370714 -1.911475 0.666383 0 192 192 192 255 
1.370714 1.911475 0.666383 0 192 192 192 255 
1.383172 -4.600196 -0.058293 0 255 0 0 255 
1.383172 4.600196 -0.058293 0 255 0 0 255 
1.40888 -1.40888 0.599841 0 192 192 192 255 
1.40888 1.40888 0.599842 0 192 192 192 255 
1.410395 -4.161251 0.217864 0 192 192 192 255 
1.410396 4.161251 0.217865 0 192 192 192 255 
1.437618 -3.722307 0.438537 0 192 192 192 255 
1.437619 3.722306 0.438537 0 192 192 192 255 
1.500316 -0.959556 0.498647 0 192 192 192 255 
1.500316 0.959556 0.498647 0 192 192 192 255 
1.520028 -3.258633 0.649859 0 192 192 192 255 
1.520029 3.258633 0.649859 0 192 192 192 255 
1.53506 -0.460695 0.376956 0 192 192 192 255 
1.53506 0.460695 0.376956 0 192 192 192 255 
1.59117 0 0.321212 0 192 192 192 255 
1.602438 -2.794959 0.78548 0 192 192 192 255 
1.602438 2.794959 0.78548 0 192 192 192 255 
1.711238 -2.307499 0.848629 0 192 192 192 255 
1.711238 2.307499 0.848629 0 192 192 192 255 
1.765296 -4.510991 0.339692 0 255 0 0 255 
1.765296 4.510991 0.339692 0 255 0 0 255 
1.792519 -4.072046 0.580837 0 192 192 192 255 
1.792519 4.072046 0.580836 0 192 192 192 255 
1.820039 -1.820039 0.803811 0 192 192 192 255 
1.820039 1.820039 0.803811 0 192 192 192 255 
1.849247 -3.602543 0.789083 0 192 192 192 255 
1.849248 3.602543 0.789083 0 192 192 192 255 
1.911475 -1.370715 0.666383 0 192 192 192 255 
1.911475 1.370714 0.666383 0 192 192 192 255 
1.931657 -3.138869 0.936676 0 192 192 192 255 
1.931657 3.138868 0.936676 0 192 192 192 255 
2.002911 -0.92139 0.472768 0 192 192 192 255 
2.002911 0.92139 0.472768 0 192 192 192 255 
2.059021 -0.460695 0.289827 0 192 192 192 255 
2.059021 0.460695 0.289827 0 192 192 192 255 
2.06131 -2.657571 1.019877 0 192 192 192 255 
2.061311 2.657571 1.019879 0 192 192 192 255 
2.115131 0 0.202831 0 192 192 192 255 
2.147419 -4.421785 0.679801 0 255 0 0 255 
2.147419 4.421786 0.679801 0 255 0 0 255 
2.170111 -2.170111 0.984867 0 192 192 192 255 
2.170111 2.170111 0.984867 0 192 192 192 255 
2.204147 -3.952282 0.90157 0 192 192 192 255 
2.204147 3.952282 0.90157 0 192 192 192 255 
2.260876 -3.482779 1.049442 0 192 192 192 255 
2.260876 3.482779 1.049442 0 192 192 192 255 
2.307499 -1.711239 0.848629 0 192 192 192 255 
2.307499 1.711238 0.848629 0 192 192 192 255 
2.390529 -3.001481 1.146903 0 192 192 192 255 
2.39053 3.001481 1.146903 0 192 192 192 255 
2.398935 -1.261914 0.615801 0 192 192 192 255 
2.398935 1.261914 0.615801 0 192 192 192 255 
2.490364 -0.885711 0.383065 0 192 192 192 255 
2.490364 0.885711 0.383066 0 192 192 192 255 
2.520182 -2.520183 1.137192 0 192 192 192 255 
2.520183 2.520183 1.137192 0 192 192 192 255 
2.546474 -0.425015 0.145514 0 192 192 192 255 
2.546474 0.425015 0.145514 0 192 192 192 255 
2.567143 -4.299583 0.993154 0 255 0 0 255 
2.567143 4.299584 0.993154 0 255 0 0 255 
2.619184 0 0.03828 0 192 192 192 255 
2.623872 -3.830081 1.145854 0 192 192 192 255 
2.623872 3.83008 1.145854 0 192 192 192 255 
2.657571 -2.061311 1.019879 0 192 192 192 255 
2.657571 2.061311 1.019879 0 192 192 192 255 
2.729619 -3.34057 1.243249 0 192 192 192 255 
2.729619 3.34057 1.243251 0 192 192 192 255 
2.794959 -1.602439 0.78548 0 192 192 192 255 
2.794959 1.602438 0.78548 0 192 192 192 255 
2.859272 -2.859272 1.247811 0 192 192 192 255 
2.859272 2.859272 1.247812 0 192 192 192 255 
2.886388 -1.226235 0.522043 0 192 192 192 255 
2.886388 1.226234 0.522043 0 192 192 192 255 
2.977816 -0.850031 0.229988 0 192 192 192 255 
2.977816 0.850031 0.229988 0 192 192 192 255 
2.986868 -4.177382 1.236735 0 255 0 0 255 
2.986868 4.177382 1.236735 0 255 0 0 255 
3.001481 -2.39053 1.146903 0 192 192 192 255 
3.001481 2.39053 1.146903 0 192 192 192 255 
3.050527 -0.425015 -0.043661 0 192 192 192 255 
3.050527 0.425015 -0.043661 0 192 192 192 255 
3.092615 -3.687871 1.329772 0 192 192 192 255 
3.092615 3.687872 1.329773 0 192 192 192 255 
3.123238 0 -0.175864 0 192 192 192 255 
3.138868 1.931657 0.936676 0 192 192 192 255 
3.13887 -1.931657 0.936675 0 192 192 192 255 
3.198361 -3.198361 1.332487 0 192 192 192 255 
3.198361 3.198361 1.332487 0 192 192 192 255 
3.258633 -1.520029 0.649859 0 192 192 192 255 
3.258633 1.520029 0.649859 0 192 192 192 255 
3.34057 -2.729619 1.243249 0 192 192 192 255 
3.34057 2.729619 1.243251 0 192 192 192 255 
3.350061 -1.143825 0.329316 0 192 192 192 255 
3.350061 1.143825 0.329315 0 192 192 192 255 
3.431175 -0.811435 0.029217 0 192 192 192 255 
3.431175 0.811435 0.029217 0 192 192 192 255 
3.441751 -4.037008 1.425611 0 255 0 0 255 
3.441751 4.037008 1.425611 0 255 0 0 255 
3.482779 2.260876 1.049442 0 192 192 192 255 
3.48278 -2.260876 1.049442 0 192 192 192 255 
3.503886 -0.386419 -0.276017 0 192 192 192 255 
3.503886 0.386419 -0.276017 0 192 192 192 255 
3.547498 -3.547498 1.417665 0 192 192 192 255 
3.547498 3.547498 1.417665 0 192 192 192 255 
3.602543 -1.849247 0.789083 0 192 192 192 255 
3.602543 1.849248 0.789083 0 192 192 192 255 
3.60283 0 -0.42545 0 192 192 192 255 
3.687872 -3.092614 1.329772 0 192 192 192 255 
3.687872 3.092615 1.329773 0 192 192 192 255 
3.722306 -1.437618 0.438537 0 192 192 192 255 
3.722306 1.437619 0.438537 0 192 192 192 255 
3.803421 -1.105228 0.11271 0 192 192 192 255 
3.803421 1.105229 0.11271 0 192 192 192 255 
3.83008 2.623872 1.145854 0 192 192 192 255 
3.830082 -2.623872 1.145854 0 192 192 192 255 
3.884535 -0.772839 -0.221582 0 192 192 192 255 
3.884535 0.772839 -0.221582 0 192 192 192 255 
3.896634 -3.896634 1.529804 0 255 0 0 255 
3.896634 3.896634 1.529804 0 255 0 0 255 
3.952282 2.204147 0.90157 0 192 192 192 255 
3.952284 -2.204147 0.90157 0 192 192 192 255 
3.983479 -0.386419 -0.545047 0 192 192 192 255 
3.983479 0.386419 -0.545047 0 192 192 192 255 
4.037008 -3.441751 1.425611 0 255 0 0 255 
4.037008 3.441751 1.425611 0 255 0 0 255 
4.072046 -1.792519 0.580837 0 192 192 192 255 
4.072046 1.792519 0.580836 0 192 192 192 255 
4.082422 0 -0.711872 0 192 192 192 255 
4.161251 -1.410395 0.217864 0 192 192 192 255 
4.161251 1.410396 0.217865 0 192 192 192 255 
4.177382 -2.986868 1.236735 0 255 0 0 255 
4.177382 2.986868 1.236735 0 255 0 0 255 
4.242365 -1.078006 -0.139305 0 192 192 192 255 
4.242365 1.078006 -0.139305 0 192 192 192 255 
4.299584 -2.567143 0.993154 0 255 0 0 255 
4.299584 2.567143 0.993154 0 255 0 0 255 
4.315482 -0.740335 -0.494853 0 192 192 192 255 
4.315483 0.740335 -0.494854 0 192 192 192 255 
4.414426 -0.353915 -0.824642 0 192 192 192 255 
4.414427 0.353915 -0.824643 0 192 192 192 255 
4.421786 -2.147419 0.679801 0 255 0 0 255 
4.421786 2.147419 0.679801 0 255 0 0 255 
4.510991 -1.765296 0.339692 0 255 0 0 255 
4.510991 1.765296 0.339692 0 255 0 0 255 
4.541211 0 -1.062585 0 192 192 192 255 
4.600196 -1.383172 -0.058293 0 255 0 0 255 
4.600196 1.383172 -0.058293 0 255 0 0 255 
4.673313 -1.045501 -0.431801 0 255 0 0 255 
4.673313 1.045501 -0.4318 0 255 0 0 255 
4.746429 -0.70783 -0.784775 0 255 0 0 255 
4.74643 0.70783 -0.784775 0 255 0 0 255 
4.873215 -0.353915 -1.092407 0 255 0 0 255 
4.873215 0.353915 -1.092407 0 255 0 0 255 
5 0 -1.529804 32 255 0 0 255 
3 411 405 390 
3 422 418 400 
3 428 422 406 
3 430 428 413 
3 433 430 416 
3 439 437 426 
3 440 439 431 
3 438 440 431 
3 436 438 425 
3 429 432 415 
3 427 429 412 
3 421 427 407 
3 417 421 401 
3 404 410 389 
3 383 404 389 
3 345 362 348 
3 325 345 329 
3 306 325 308 
3 287 306 291 
3 231 252 232 
3 210 231 211 
3 206 210 211 
3 187 206 207 
3 133 152 148 
3 114 133 131 
3 94 114 110 
3 77 94 91 
3 35 56 50 
3 29 35 50 
3 18 22 39 
3 12 18 33 
3 10 12 27 
3 7 10 24 
3 1 3 14 
3 0 1 9 
3 2 0 9 
3 4 2 15 
3 11 8 25 
3 13 11 28 
3 19 13 34 
3 23 19 40 
3 36 30 51 
3 57 36 51 
3 95 78 92 
3 115 95 111 
3 134 115 132 
3 153 134 149 
3 209 188 208 
3 230 209 229 
3 234 230 229 
3 253 234 233 
3 307 288 292 
3 326 307 309 
3 346 326 330 
3 363 346 349 
3 405 384 390 
3 411 390 395 
3 418 411 395 
3 400 418 395 
3 422 400 406 
3 428 406 413 
3 430 413 416 
3 433 416 420 
3 435 433 420 
3 437 435 424 
3 426 437 424 
3 439 426 431 
3 438 431 425 
3 436 425 423 
3 434 436 423 
3 432 434 419 
3 415 432 419 
3 429 415 412 
3 427 412 407 
3 421 407 401 
3 417 401 394 
3 410 417 394 
3 389 410 394 
3 383 389 368 
3 362 383 368 
3 348 362 368 
3 345 348 329 
3 325 329 308 
3 306 308 291 
3 287 291 275 
3 272 287 275 
3 252 272 254 
3 232 252 254 
3 231 232 211 
3 206 211 207 
3 187 207 185 
3 167 187 185 
3 152 167 164 
3 148 152 164 
3 133 148 131 
3 114 131 110 
3 94 110 91 
3 77 91 71 
3 56 77 71 
3 50 56 71 
3 29 50 45 
3 22 29 45 
3 39 22 45 
3 18 39 33 
3 12 33 27 
3 10 27 24 
3 7 24 20 
3 5 7 20 
3 3 5 16 
3 14 3 16 
3 1 14 9 
3 2 9 15 
3 4 15 17 
3 6 4 17 
3 8 6 21 
3 25 8 21 
3 11 25 28 
3 13 28 34 
3 19 34 40 
3 23 40 46 
3 30 23 46 
3 51 30 46 
3 57 51 72 
3 78 57 72 
3 92 78 72 
3 95 92 111 
3 115 111 132 
3 134 132 149 
3 153 149 165 
3 168 153 165 
3 188 168 186 
3 208 188 186 
3 209 208 229 
3 234 229 233 
3 253 233 255 
3 273 253 255 
3 288 273 276 
3 292 288 276 
3 307 292 309 
3 326 309 330 
3 346 330 349 
3 363 349 369 
3 384 363 369 
3 390 384 369 
3 395 390 374 
3 400 395 378 
3 406 400 385 
3 413 406 392 
3 416 413 397 
3 420 416 399 
3 435 420 424 
3 426 424 409 
3 431 426 414 
3 425 431 414 
3 423 425 408 
3 434 423 419 
3 415 419 398 
3 412 415 396 
3 407 412 391 
3 401 407 386 
3 394 401 377 
3 389 394 373 
3 368 389 373 
3 348 368 352 
3 329 348 331 
3 308 329 312 
3 291 308 293 
3 275 291 277 
3 272 275 254 
3 232 254 235 
3 211 232 212 
3 207 211 212 
3 185 207 202 
3 167 185 164 
3 148 164 162 
3 131 148 146 
3 110 131 127 
3 91 110 108 
3 71 91 87 
3 50 71 66 
3 45 50 66 
3 39 45 62 
3 33 39 54 
3 27 33 48 
3 24 27 43 
3 20 24 41 
3 5 20 16 
3 14 16 31 
3 9 14 26 
3 15 9 26 
3 17 15 32 
3 6 17 21 
3 25 21 42 
3 28 25 44 
3 34 28 49 
3 40 34 55 
3 46 40 63 
3 51 46 67 
3 72 51 67 
3 92 72 88 
3 111 92 109 
3 132 111 128 
3 149 132 147 
3 165 149 163 
3 168 165 186 
3 208 186 205 
3 229 208 228 
3 233 229 228 
3 255 233 238 
3 273 255 276 
3 292 276 278 
3 309 292 294 
3 330 309 313 
3 349 330 332 
3 369 349 353 
3 390 369 374 
3 395 374 378 
3 400 378 385 
3 406 385 392 
3 413 392 397 
3 416 397 399 
3 420 399 403 
3 424 420 403 
3 409 424 403 
3 426 409 414 
3 425 414 408 
3 423 408 402 
3 419 423 402 
3 398 419 402 
3 415 398 396 
3 412 396 391 
3 407 391 386 
3 401 386 377 
3 394 377 373 
3 368 373 352 
3 348 352 331 
3 329 331 312 
3 308 312 293 
3 291 293 277 
3 275 277 256 
3 254 275 256 
3 235 254 256 
3 232 235 212 
3 207 212 202 
3 185 202 183 
3 164 185 183 
3 162 164 183 
3 148 162 146 
3 131 146 127 
3 110 127 108 
3 91 108 87 
3 71 87 66 
3 45 66 62 
3 39 62 54 
3 33 54 48 
3 27 48 43 
3 24 43 41 
3 20 41 37 
3 16 20 37 
3 31 16 37 
3 14 31 26 
3 15 26 32 
3 17 32 38 
3 21 17 38 
3 42 21 38 
3 25 42 44 
3 28 44 49 
3 34 49 55 
3 40 55 63 
3 46 63 67 
3 72 67 88 
3 92 88 109 
3 111 109 128 
3 132 128 147 
3 149 147 163 
3 165 163 184 
3 186 165 184 
3 205 186 184 
3 208 205 228 
3 233 228 238 
3 255 238 257 
3 276 255 257 
3 278 276 257 
3 292 278 294 
3 309 294 313 
3 330 313 332 
3 349 332 353 
3 369 353 374 
3 378 374 357 
3 385 378 365 
3 392 385 371 
3 397 392 376 
3 399 397 380 
3 403 399 382 
3 409 403 388 
3 414 409 393 
3 408 414 393 
3 402 408 387 
3 398 402 381 
3 396 398 379 
3 391 396 375 
3 386 391 372 
3 377 386 364 
3 373 377 356 
3 352 373 356 
3 331 352 335 
3 312 331 316 
3 293 312 297 
3 277 293 279 
3 256 277 258 
3 235 256 236 
3 212 235 213 
3 202 212 213 
3 183 202 203 
3 162 183 181 
3 146 162 160 
3 127 146 142 
3 108 127 123 
3 87 108 104 
3 66 87 83 
3 62 66 83 
3 54 62 75 
3 48 54 68 
3 43 48 64 
3 41 43 60 
3 37 41 58 
3 31 37 52 
3 26 31 47 
3 32 26 47 
3 38 32 53 
3 42 38 59 
3 44 42 61 
3 49 44 65 
3 55 49 69 
3 63 55 76 
3 67 63 84 
3 88 67 84 
3 109 88 105 
3 128 109 124 
3 147 128 143 
3 163 147 161 
3 184 163 182 
3 205 184 204 
3 228 205 227 
3 238 228 227 
3 257 238 237 
3 278 257 259 
3 294 278 280 
3 313 294 298 
3 332 313 317 
3 353 332 336 
3 374 353 357 
3 378 357 365 
3 385 365 371 
3 392 371 376 
3 397 376 380 
3 399 380 382 
3 403 382 388 
3 409 388 393 
3 408 393 387 
3 402 387 381 
3 398 381 379 
3 396 379 375 
3 391 375 372 
3 386 372 364 
3 377 364 356 
3 352 356 335 
3 331 335 316 
3 312 316 297 
3 293 297 279 
3 277 279 258 
3 256 258 236 
3 235 236 213 
3 202 213 203 
3 183 203 181 
3 162 181 160 
3 146 160 142 
3 127 142 123 
3 108 123 104 
3 87 104 83 
3 62 83 75 
3 54 75 68 
3 48 68 64 
3 43 64 60 
3 41 60 58 
3 37 58 52 
3 31 52 47 
3 32 47 53 
3 38 53 59 
3 42 59 61 
3 44 61 65 
3 49 65 69 
3 55 69 76 
3 63 76 84 
3 88 84 105 
3 109 105 124 
3 128 124 143 
3 147 143 161 
3 163 161 182 
3 184 182 204 
3 205 204 227 
3 238 227 237 
3 257 237 259 
3 278 259 280 
3 294 280 298 
3 313 298 317 
3 332 317 336 
3 353 336 357 
3 365 357 342 
3 371 365 351 
3 376 371 355 
3 380 376 359 
3 382 380 361 
3 388 382 367 
3 393 388 370 
3 387 393 370 
3 381 387 366 
3 379 381 360 
3 375 379 358 
3 372 375 354 
3 364 372 350 
3 356 364 341 
3 335 356 341 
3 316 335 322 
3 297 316 302 
3 279 297 281 
3 258 279 260 
3 236 258 239 
3 213 236 214 
3 203 213 214 
3 181 203 198 
3 160 181 179 
3 142 160 158 
3 123 142 137 
3 104 123 117 
3 83 104 98 
3 75 83 98 
3 68 75 89 
3 64 68 85 
3 60 64 81 
3 58 60 79 
3 52 58 73 
3 47 52 70 
3 53 47 70 
3 59 53 74 
3 61 59 80 
3 65 61 82 
3 69 65 86 
3 76 69 90 
3 84 76 99 
3 105 84 99 
3 124 105 118 
3 143 124 138 
3 161 143 159 
3 182 161 180 
3 204 182 201 
3 227 204 226 
3 237 227 226 
3 259 237 242 
3 280 259 261 
3 298 280 282 
3 317 298 303 
3 336 317 323 
3 357 336 342 
3 365 342 351 
3 371 351 355 
3 376 355 359 
3 380 359 361 
3 382 361 367 
3 388 367 370 
3 387 370 366 
3 381 366 360 
3 379 360 358 
3 375 358 354 
3 372 354 350 
3 364 350 341 
3 335 341 322 
3 316 322 302 
3 297 302 281 
3 279 281 260 
3 258 260 239 
3 236 239 214 
3 203 214 198 
3 181 198 179 
3 160 179 158 
3 142 158 137 
3 123 137 117 
3 104 117 98 
3 75 98 89 
3 68 89 85 
3 64 85 81 
3 60 81 79 
3 58 79 73 
3 52 73 70 
3 53 70 74 
3 59 74 80 
3 61 80 82 
3 65 82 86 
3 69 86 90 
3 76 90 99 
3 105 99 118 
3 124 118 138 
3 143 138 159 
3 161 159 180 
3 182 180 201 
3 204 201 226 
3 237 226 242 
3 259 242 261 
3 280 261 282 
3 298 282 303 
3 317 303 323 
3 336 323 342 
3 351 342 328 
3 355 351 334 
3 359 355 338 
3 361 359 340 
3 367 361 344 
3 370 367 347 
3 366 370 347 
3 360 366 343 
3 358 360 339 
3 354 358 337 
3 350 354 333 
3 341 350 327 
3 322 341 327 
3 302 322 304 
3 281 302 283 
3 260 281 262 
3 239 260 240 
3 214 239 215 
3 198 214 215 
3 179 198 199 
3 158 179 177 
3 137 158 156 
3 117 137 135 
3 98 117 112 
3 89 98 112 
3 85 89 106 
3 81 85 102 
3 79 81 100 
3 73 79 96 
3 70 73 93 
3 74 70 93 
3 80 74 97 
3 82 80 101 
3 86 82 103 
3 90 86 107 
3 99 90 113 
3 118 99 113 
3 138 118 136 
3 159 138 157 
3 180 159 178 
3 201 180 200 
3 226 201 225 
3 242 226 225 
3 261 242 241 
3 282 261 263 
3 303 282 284 
3 323 303 305 
3 342 323 328 
3 351 328 334 
3 355 334 338 
3 359 338 340 
3 361 340 344 
3 367 344 347 
3 366 347 343 
3 360 343 339 
3 358 339 337 
3 354 337 333 
3 350 333 327 
3 322 327 304 
3 302 304 283 
3 281 283 262 
3 260 262 240 
3 239 240 215 
3 198 215 199 
3 179 199 177 
3 158 177 156 
3 137 156 135 
3 117 135 112 
3 89 112 106 
3 85 106 102 
3 81 102 100 
3 79 100 96 
3 73 96 93 
3 74 93 97 
3 80 97 101 
3 82 101 103 
3 86 103 107 
3 90 107 113 
3 118 113 136 
3 138 136 157 
3 159 157 178 
3 180 178 200 
3 201 200 225 
3 242 225 241 
3 261 241 263 
3 282 263 284 
3 303 284 305 
3 323 305 328 
3 334 328 311 
3 338 334 315 
3 340 338 319 
3 344 340 321 
3 347 344 324 
3 343 347 324 
3 339 343 320 
3 337 339 318 
3 333 337 314 
3 327 333 310 
3 304 327 310 
3 283 304 285 
3 262 283 264 
3 240 262 243 
3 215 240 216 
3 199 215 216 
3 177 199 194 
3 156 177 175 
3 135 156 154 
3 112 135 129 
3 106 112 129 
3 102 106 125 
3 100 102 121 
3 96 100 119 
3 93 96 116 
3 97 93 116 
3 101 97 120 
3 103 101 122 
3 107 103 126 
3 113 107 130 
3 136 113 130 
3 157 136 155 
3 178 157 176 
3 200 178 197 
3 225 200 224 
3 241 225 224 
3 263 241 246 
3 284 263 265 
3 305 284 286 
3 328 305 311 
3 334 311 315 
3 338 315 319 
3 340 319 321 
3 344 321 324 
3 343 324 320 
3 339 320 318 
3 337 318 314 
3 333 314 310 
3 304 310 285 
3 283 285 264 
3 262 264 243 
3 240 243 216 
3 199 216 194 
3 177 194 175 
3 156 175 154 
3 135 154 129 
3 106 129 125 
3 102 125 121 
3 100 121 119 
3 96 119 116 
3 97 116 120 
3 101 120 122 
3 103 122 126 
3 107 126 130 
3 136 130 155 
3 157 155 176 
3 178 176 197 
3 200 197 224 
3 241 224 246 
3 263 246 265 
3 284 265 286 
3 305 286 311 
3 315 311 290 
3 319 315 296 
3 321 319 300 
3 324 321 301 
3 320 324 301 
3 318 320 299 
3 314 318 295 
3 310 314 289 
3 285 310 289 
3 264 285 266 
3 243 264 244 
3 216 243 217 
3 194 216 217 
3 175 194 195 
3 154 175 173 
3 129 154 150 
3 125 129 150 
3 121 125 144 
3 119 121 140 
3 116 119 139 
3 120 116 139 
3 122 120 141 
3 126 122 145 
3 130 126 151 
3 155 130 151 
3 176 155 174 
3 197 176 196 
3 224 197 223 
3 246 224 223 
3 265 246 245 
3 286 265 267 
3 311 286 290 
3 315 290 296 
3 319 296 300 
3 321 300 301 
3 320 301 299 
3 318 299 295 
3 314 295 289 
3 285 289 266 
3 264 266 244 
3 243 244 217 
3 194 217 195 
3 175 195 173 
3 154 173 150 
3 125 150 144 
3 121 144 140 
3 119 140 139 
3 120 139 141 
3 122 141 145 
3 126 145 151 
3 155 151 174 
3 176 174 196 
3 197 196 223 
3 246 223 245 
3 265 245 267 
3 286 267 290 
3 296 290 269 
3 300 296 271 
3 301 300 274 
3 299 301 274 
3 295 299 270 
3 289 295 268 
3 266 289 268 
3 244 266 247 
3 217 244 218 
3 195 217 218 
3 173 195 190 
3 150 173 171 
3 144 150 171 
3 140 144 169 
3 139 140 166 
3 141 139 166 
3 145 141 170 
3 151 145 172 
3 174 151 172 
3 196 174 193 
3 223 196 222 
3 245 223 222 
3 267 245 250 
3 290 267 269 
3 296 269 271 
3 300 271 274 
3 299 274 270 
3 295 270 268 
3 266 268 247 
3 244 247 218 
3 195 218 190 
3 173 190 171 
3 144 171 169 
3 140 169 166 
3 141 166 170 
3 145 170 172 
3 174 172 193 
3 196 193 222 
3 245 222 250 
3 267 250 269 
3 271 269 249 
3 274 271 251 
3 270 274 251 
3 268 270 248 
3 247 268 248 
3 218 247 219 
3 190 218 219 
3 171 190 191 
3 169 171 191 
3 166 169 189 
3 170 166 189 
3 172 170 192 
3 193 172 192 
3 222 193 221 
3 250 222 221 
3 269 250 249 
3 271 249 251 
3 270 251 248 
3 247 248 219 
3 190 219 191 
3 169 191 189 
3 170 189 192 
3 193 192 221 
3 250 221 249 
3 251 249 220 
3 248 251 220 
3 219 248 220 
3 191 219 220 
3 189 191 220 
3 192 189 220 
3 221 192 220 
3 249 221 220 
