ply
format ascii 1.0
comment VCGLIB generated
element vertex 225
property float x
property float y
property float z
property uchar red
property uchar green
property uchar blue
property uchar alpha
element face 392
property list uchar int vertex_indices
end_header
0 0 0 255 0 0 255 
-0.1428571 0 0 255 0 0 255 
-0.2857143 0 0 255 0 0 255 
-0.4285715 0 0 255 0 0 255 
-0.5714286 0 0 255 0 0 255 
-0.7142857 0 0 255 0 0 255 
-0.8571429 0 0 255 0 0 255 
-1 0 0 255 0 0 255 
-1.142857 0 0 255 0 0 255 
-1.285714 0 0 255 0 0 255 
-1.428571 0 0 255 0 0 255 
-1.571429 0 0 255 0 0 255 
-1.714286 0 0 255 0 0 255 
-1.857143 0 0 255 0 0 255 
-2 0 0 255 0 0 255 
0 0.1428571 0 255 0 0 255 
-0.1428571 0.1428571 0 255 255 255 255 
-0.2857143 0.1428571 0 255 255 255 255 
-0.4285715 0.1428571 0 255 255 255 255 
-0.5714286 0.1428571 0 255 255 255 255 
-0.7142857 0.1428571 0 255 255 255 255 
-0.8571429 0.1428571 0 255 255 255 255 
-1 0.1428571 0 255 255 255 255 
-1.142857 0.1428571 0 255 255 255 255 
-1.285714 0.1428571 0 255 255 255 255 
-1.428571 0.1428571 0 255 255 255 255 
-1.571429 0.1428571 0 255 255 255 255 
-1.714286 0.1428571 0 255 255 255 255 
-1.857143 0.1428571 0 255 255 255 255 
-2 0.1428571 0 255 0 0 255 
0 0.2857143 0 255 0 0 255 
-0.1428571 0.2857143 0 255 255 255 255 
-0.2857143 0.2857143 0 255 255 255 255 
-0.4285715 0.2857143 0 255 255 255 255 
-0.5714286 0.2857143 0 255 255 255 255 
-0.7142857 0.2857143 0 255 255 255 255 
-0.8571429 0.2857143 0 255 255 255 255 
-1 0.2857143 0 255 255 255 255 
-1.142857 0.2857143 0 255 255 255 255 
-1.285714 0.2857143 0 255 255 255 255 
-1.428571 0.2857143 0 255 255 255 255 
-1.571429 0.2857143 0 255 255 255 255 
-1.714286 0.2857143 0 255 255 255 255 
-1.857143 0.2857143 0 255 255 255 255 
-2 0.2857143 0 255 0 0 255 
0 0.4285715 0 255 0 0 255 
-0.1428571 0.4285715 0 255 255 255 255 
-0.2857143 0.4285715 0 255 255 255 255 
-0.4285715 0.4285715 0 255 255 255 255 
-0.5714286 0.4285715 0 255 255 255 255 
-0.7142857 0.4285715 0 255 255 255 255 
-0.8571429 0.4285715 0 255 255 255 255 
-1 0.4285715 0 255 255 255 255 
-1.142857 0.4285715 0 255 255 255 255 
-1.285714 0.4285715 0 255 255 255 255 
-1.428571 0.4285715 0 255 255 255 255 
-1.571429 0.4285715 0 255 255 255 255 
-1.714286 0.4285715 0 255 255 255 255 
-1.857143 0.4285715 0 255 255 255 255 
-2 0.4285715 0 255 0 0 255 
0 0.5714286 0 255 0 0 255 
-0.1428571 0.5714286 0 255 255 255 255 
-0.2857143 0.5714286 0 255 255 255 255 
-0.4285715 0.5714286 0 255 255 255 255 
-0.5714286 0.5714286 0 255 255 255 255 
-0.7142857 0.5714286 0 255 255 255 255 
-0.8571429 0.5714286 0 255 255 255 255 
-1 0.5714286 0 255 255 255 255 
-1.142857 0.5714286 0 255 255 255 255 
-1.285714 0.5714286 0 255 255 255 255 
-1.428571 0.5714286 0 255 255 255 255 
-1.571429 0.5714286 0 255 255 255 255 
-1.714286 0.5714286 0 255 255 255 255 
-1.857143 0.5714286 0 255 255 255 255 
-2 0.5714286 0 255 0 0 255 
0 0.7142857 0 255 0 0 255 
-0.1428571 0.7142857 0 255 255 255 255 
-0.2857143 0.7142857 0 255 255 255 255 
-0.4285715 0.7142857 0 255 255 255 255 
-0.5714286 0.7142857 0 255 255 255 255 
-0.7142857 0.7142857 0 255 255 255 255 
-0.8571429 0.7142857 0 255 255 255 255 
-1 0.7142857 0 255 255 255 255 
-1.142857 0.7142857 0 255 255 255 255 
-1.285714 0.7142857 0 255 255 255 255 
-1.428571 0.7142857 0 255 255 255 255 
-1.571429 0.7142857 0 255 255 255 255 
-1.714286 0.7142857 0 255 255 255 255 
-1.857143 0.7142857 0 255 255 255 255 
-2 0.7142857 0 255 0 0 255 
0 0.8571429 0 255 0 0 255 
-0.1428571 0.8571429 0 255 255 255 255 
-0.2857143 0.8571429 0 255 255 255 255 
-0.4285715 0.8571429 0 255 255 255 255 
-0.5714286 0.8571429 0 255 255 255 255 
-0.7142857 0.8571429 0 255 255 255 255 
-0.8571429 0.8571429 0 255 255 255 255 
-1 0.8571429 0 255 255 255 255 
-1.142857 0.8571429 0 255 255 255 255 
-1.285714 0.8571429 0 255 255 255 255 
-1.428571 0.8571429 0 255 255 255 255 
-1.571429 0.8571429 0 255 255 255 255 
-1.714286 0.8571429 0 255 255 255 255 
-1.857143 0.8571429 0 255 255 255 255 
-2 0.8571429 0 255 0 0 255 
0 1 0 255 0 0 255 
-0.1428571 1 0 255 255 255 255 
-0.2857143 1 0 255 255 255 255 
-0.4285715 1 0 255 255 255 255 
-0.5714286 1 0 255 255 255 255 
-0.7142857 1 0 255 255 255 255 
-0.8571429 1 0 255 255 255 255 
-1 1 0 255 255 255 255 
-1.142857 1 0 255 255 255 255 
-1.285714 1 0 255 255 255 255 
-1.428571 1 0 255 255 255 255 
-1.571429 1 0 255 255 255 255 
-1.714286 1 0 255 255 255 255 
-1.857143 1 0 255 255 255 255 
-2 1 0 255 0 0 255 
0 1.142857 0 255 0 0 255 
-0.1428571 1.142857 0 255 255 255 255 
-0.2857143 1.142857 0 255 255 255 255 
-0.4285715 1.142857 0 255 255 255 255 
-0.5714286 1.142857 0 255 255 255 255 
-0.7142857 1.142857 0 255 255 255 255 
-0.8571429 1.142857 0 255 255 255 255 
-1 1.142857 0 255 255 255 255 
-1.142857 1.142857 0 255 255 255 255 
-1.285714 1.142857 0 255 255 255 255 
-1.428571 1.142857 0 255 255 255 255 
-1.571429 1.142857 0 255 255 255 255 
-1.714286 1.142857 0 255 255 255 255 
-1.857143 1.142857 0 255 255 255 255 
-2 1.142857 0 255 0 0 255 
0 1.285714 0 255 0 0 255 
-0.1428571 1.285714 0 255 255 255 255 
-0.2857143 1.285714 0 255 255 255 255 
-0.4285715 1.285714 0 255 255 255 255 
-0.5714286 1.285714 0 255 255 255 255 
-0.7142857 1.285714 0 255 255 255 255 
-0.8571429 1.285714 0 255 255 255 255 
-1 1.285714 0 255 255 255 255 
-1.142857 1.285714 0 255 255 255 255 
-1.285714 1.285714 0 255 255 255 255 
-1.428571 1.285714 0 255 255 255 255 
-1.571429 1.285714 0 255 255 255 255 
-1.714286 1.285714 0 255 255 255 255 
-1.857143 1.285714 0 255 255 255 255 
-2 1.285714 0 255 0 0 255 
0 1.428571 0 255 0 0 255 
-0.1428571 1.428571 0 255 255 255 255 
-0.2857143 1.428571 0 255 255 255 255 
-0.4285715 1.428571 0 255 255 255 255 
-0.5714286 1.428571 0 255 255 255 255 
-0.7142857 1.428571 0 255 255 255 255 
-0.8571429 1.428571 0 255 255 255 255 
-1 1.428571 0 255 255 255 255 
-1.142857 1.428571 0 255 255 255 255 
-1.285714 1.428571 0 255 255 255 255 
-1.428571 1.428571 0 255 255 255 255 
-1.571429 1.428571 0 255 255 255 255 
-1.714286 1.428571 0 255 255 255 255 
-1.857143 1.428571 0 255 255 255 255 
-2 1.428571 0 255 0 0 255 
0 1.571429 0 255 0 0 255 
-0.1428571 1.571429 0 255 255 255 255 
-0.2857143 1.571429 0 255 255 255 255 
-0.4285715 1.571429 0 255 255 255 255 
-0.5714286 1.571429 0 255 255 255 255 
-0.7142857 1.571429 0 255 255 255 255 
-0.8571429 1.571429 0 255 255 255 255 
-1 1.571429 0 255 255 255 255 
-1.142857 1.571429 0 255 255 255 255 
-1.285714 1.571429 0 255 255 255 255 
-1.428571 1.571429 0 255 255 255 255 
-1.571429 1.571429 0 255 255 255 255 
-1.714286 1.571429 0 255 255 255 255 
-1.857143 1.571429 0 255 255 255 255 
-2 1.571429 0 255 0 0 255 
0 1.714286 0 255 0 0 255 
-0.1428571 1.714286 0 255 255 255 255 
-0.2857143 1.714286 0 255 255 255 255 
-0.4285715 1.714286 0 255 255 255 255 
-0.5714286 1.714286 0 255 255 255 255 
-0.7142857 1.714286 0 255 255 255 255 
-0.8571429 1.714286 0 255 255 255 255 
-1 1.714286 0 255 255 255 255 
-1.142857 1.714286 0 255 255 255 255 
-1.285714 1.714286 0 255 255 255 255 
-1.428571 1.714286 0 255 255 255 255 
-1.571429 1.714286 0 255 255 255 255 
-1.714286 1.714286 0 255 255 255 255 
-1.857143 1.714286 0 255 255 255 255 
-2 1.714286 0 255 0 0 255 
0 1.857143 0 255 0 0 255 
-0.1428571 1.857143 0 255 255 255 255 
-0.2857143 1.857143 0 255 255 255 255 
-0.4285715 1.857143 0 255 255 255 255 
-0.5714286 1.857143 0 255 255 255 255 
-0.7142857 1.857143 0 255 255 255 255 
-0.8571429 1.857143 0 255 255 255 255 
-1 1.857143 0 255 255 255 255 
-1.142857 1.857143 0 255 255 255 255 
-1.285714 1.857143 0 255 255 255 255 
-1.428571 1.857143 0 255 255 255 255 
-1.571429 1.857143 0 255 255 255 255 
-1.714286 1.857143 0 255 255 255 255 
-1.857143 1.857143 0 255 255 255 255 
-2 1.857143 0 255 0 0 255 
0 2 0 255 0 0 255 
-0.1428571 2 0 255 0 0 255 
-0.2857143 2 0 255 0 0 255 
-0.4285715 2 0 255 0 0 255 
-0.5714286 2 0 255 0 0 255 
-0.7142857 2 0 255 0 0 255 
-0.8571429 2 0 255 0 0 255 
-1 2 0 255 0 0 255 
-1.142857 2 0 255 0 0 255 
-1.285714 2 0 255 0 0 255 
-1.428571 2 0 255 0 0 255 
-1.571429 2 0 255 0 0 255 
-1.714286 2 0 255 0 0 255 
-1.857143 2 0 255 0 0 255 
-2 2 0 255 0 0 255 
3 16 1 0 
3 0 15 16 
3 17 2 1 
3 1 16 17 
3 18 3 2 
3 2 17 18 
3 19 4 3 
3 3 18 19 
3 20 5 4 
3 4 19 20 
3 21 6 5 
3 5 20 21 
3 22 7 6 
3 6 21 22 
3 23 8 7 
3 7 22 23 
3 24 9 8 
3 8 23 24 
3 25 10 9 
3 9 24 25 
3 26 11 10 
3 10 25 26 
3 27 12 11 
3 11 26 27 
3 28 13 12 
3 12 27 28 
3 29 14 13 
3 13 28 29 
3 31 16 15 
3 15 30 31 
3 32 17 16 
3 16 31 32 
3 33 18 17 
3 17 32 33 
3 34 19 18 
3 18 33 34 
3 35 20 19 
3 19 34 35 
3 36 21 20 
3 20 35 36 
3 37 22 21 
3 21 36 37 
3 38 23 22 
3 22 37 38 
3 39 24 23 
3 23 38 39 
3 40 25 24 
3 24 39 40 
3 41 26 25 
3 25 40 41 
3 42 27 26 
3 26 41 42 
3 43 28 27 
3 27 42 43 
3 44 29 28 
3 28 43 44 
3 46 31 30 
3 30 45 46 
3 47 32 31 
3 31 46 47 
3 48 33 32 
3 32 47 48 
3 49 34 33 
3 33 48 49 
3 50 35 34 
3 34 49 50 
3 51 36 35 
3 35 50 51 
3 52 37 36 
3 36 51 52 
3 53 38 37 
3 37 52 53 
3 54 39 38 
3 38 53 54 
3 55 40 39 
3 39 54 55 
3 56 41 40 
3 40 55 56 
3 57 42 41 
3 41 56 57 
3 58 43 42 
3 42 57 58 
3 59 44 43 
3 43 58 59 
3 61 46 45 
3 45 60 61 
3 62 47 46 
3 46 61 62 
3 63 48 47 
3 47 62 63 
3 64 49 48 
3 48 63 64 
3 65 50 49 
3 49 64 65 
3 66 51 50 
3 50 65 66 
3 67 52 51 
3 51 66 67 
3 68 53 52 
3 52 67 68 
3 69 54 53 
3 53 68 69 
3 70 55 54 
3 54 69 70 
3 71 56 55 
3 55 70 71 
3 72 57 56 
3 56 71 72 
3 73 58 57 
3 57 72 73 
3 74 59 58 
3 58 73 74 
3 76 61 60 
3 60 75 76 
3 77 62 61 
3 61 76 77 
3 78 63 62 
3 62 77 78 
3 79 64 63 
3 63 78 79 
3 80 65 64 
3 64 79 80 
3 81 66 65 
3 65 80 81 
3 82 67 66 
3 66 81 82 
3 83 68 67 
3 67 82 83 
3 84 69 68 
3 68 83 84 
3 85 70 69 
3 69 84 85 
3 86 71 70 
3 70 85 86 
3 87 72 71 
3 71 86 87 
3 88 73 72 
3 72 87 88 
3 89 74 73 
3 73 88 89 
3 91 76 75 
3 75 90 91 
3 92 77 76 
3 76 91 92 
3 93 78 77 
3 77 92 93 
3 94 79 78 
3 78 93 94 
3 95 80 79 
3 79 94 95 
3 96 81 80 
3 80 95 96 
3 97 82 81 
3 81 96 97 
3 98 83 82 
3 82 97 98 
3 99 84 83 
3 83 98 99 
3 100 85 84 
3 84 99 100 
3 101 86 85 
3 85 100 101 
3 102 87 86 
3 86 101 102 
3 103 88 87 
3 87 102 103 
3 104 89 88 
3 88 103 104 
3 106 91 90 
3 90 105 106 
3 107 92 91 
3 91 106 107 
3 108 93 92 
3 92 107 108 
3 109 94 93 
3 93 108 109 
3 110 95 94 
3 94 109 110 
3 111 96 95 
3 95 110 111 
3 112 97 96 
3 96 111 112 
3 113 98 97 
3 97 112 113 
3 114 99 98 
3 98 113 114 
3 115 100 99 
3 99 114 115 
3 116 101 100 
3 100 115 116 
3 117 102 101 
3 101 116 117 
3 118 103 102 
3 102 117 118 
3 119 104 103 
3 103 118 119 
3 121 106 105 
3 105 120 121 
3 122 107 106 
3 106 121 122 
3 123 108 107 
3 107 122 123 
3 124 109 108 
3 108 123 124 
3 125 110 109 
3 109 124 125 
3 126 111 110 
3 110 125 126 
3 127 112 111 
3 111 126 127 
3 128 113 112 
3 112 127 128 
3 129 114 113 
3 113 128 129 
3 130 115 114 
3 114 129 130 
3 131 116 115 
3 115 130 131 
3 132 117 116 
3 116 131 132 
3 133 118 117 
3 117 132 133 
3 134 119 118 
3 118 133 134 
3 136 121 120 
3 120 135 136 
3 137 122 121 
3 121 136 137 
3 138 123 122 
3 122 137 138 
3 139 124 123 
3 123 138 139 
3 140 125 124 
3 124 139 140 
3 141 126 125 
3 125 140 141 
3 142 127 126 
3 126 141 142 
3 143 128 127 
3 127 142 143 
3 144 129 128 
3 128 143 144 
3 145 130 129 
3 129 144 145 
3 146 131 130 
3 130 145 146 
3 147 132 131 
3 131 146 147 
3 148 133 132 
3 132 147 148 
3 149 134 133 
3 133 148 149 
3 151 136 135 
3 135 150 151 
3 152 137 136 
3 136 151 152 
3 153 138 137 
3 137 152 153 
3 154 139 138 
3 138 153 154 
3 155 140 139 
3 139 154 155 
3 156 141 140 
3 140 155 156 
3 157 142 141 
3 141 156 157 
3 158 143 142 
3 142 157 158 
3 159 144 143 
3 143 158 159 
3 160 145 144 
3 144 159 160 
3 161 146 145 
3 145 160 161 
3 162 147 146 
3 146 161 162 
3 163 148 147 
3 147 162 163 
3 164 149 148 
3 148 163 164 
3 166 151 150 
3 150 165 166 
3 167 152 151 
3 151 166 167 
3 168 153 152 
3 152 167 168 
3 169 154 153 
3 153 168 169 
3 170 155 154 
3 154 169 170 
3 171 156 155 
3 155 170 171 
3 172 157 156 
3 156 171 172 
3 173 158 157 
3 157 172 173 
3 174 159 158 
3 158 173 174 
3 175 160 159 
3 159 174 175 
3 176 161 160 
3 160 175 176 
3 177 162 161 
3 161 176 177 
3 178 163 162 
3 162 177 178 
3 179 164 163 
3 163 178 179 
3 181 166 165 
3 165 180 181 
3 182 167 166 
3 166 181 182 
3 183 168 167 
3 167 182 183 
3 184 169 168 
3 168 183 184 
3 185 170 169 
3 169 184 185 
3 186 171 170 
3 170 185 186 
3 187 172 171 
3 171 186 187 
3 188 173 172 
3 172 187 188 
3 189 174 173 
3 173 188 189 
3 190 175 174 
3 174 189 190 
3 191 176 175 
3 175 190 191 
3 192 177 176 
3 176 191 192 
3 193 178 177 
3 177 192 193 
3 194 179 178 
3 178 193 194 
3 196 181 180 
3 180 195 196 
3 197 182 181 
3 181 196 197 
3 198 183 182 
3 182 197 198 
3 199 184 183 
3 183 198 199 
3 200 185 184 
3 184 199 200 
3 201 186 185 
3 185 200 201 
3 202 187 186 
3 186 201 202 
3 203 188 187 
3 187 202 203 
3 204 189 188 
3 188 203 204 
3 205 190 189 
3 189 204 205 
3 206 191 190 
3 190 205 206 
3 207 192 191 
3 191 206 207 
3 208 193 192 
3 192 207 208 
3 209 194 193 
3 193 208 209 
3 211 196 195 
3 195 210 211 
3 212 197 196 
3 196 211 212 
3 213 198 197 
3 197 212 213 
3 214 199 198 
3 198 213 214 
3 215 200 199 
3 199 214 215 
3 216 201 200 
3 200 215 216 
3 217 202 201 
3 201 216 217 
3 218 203 202 
3 202 217 218 
3 219 204 203 
3 203 218 219 
3 220 205 204 
3 204 219 220 
3 221 206 205 
3 205 220 221 
3 222 207 206 
3 206 221 222 
3 223 208 207 
3 207 222 223 
3 224 209 208 
3 208 223 224 
