ply
format ascii 1.0
comment VCGLIB generated
element vertex 116
property float x
property float y
property float z
property int flags
property uchar red
property uchar green
property uchar blue
property uchar alpha
property float quality
element face 194
property list uchar int vertex_indices
property float quality
end_header
2.25 -2.25 0 256 255 0 0 255 0.2678888 
1.694444 -2.25 0 256 255 0 0 255 0.2444299 
1.138889 -2.25 0 256 255 0 0 255 0.1723669 
0.5833333 -2.25 0 256 255 0 0 255 0.09874067 
0.02777767 -2.25 0 256 255 0 0 255 0.07592133 
-0.5277779 -2.25 0 256 255 0 0 255 0.150547 
-1.083333 -2.25 0 256 255 0 0 255 0.2821479 
-1.638889 -2.25 0 256 255 0 0 255 0.44552 
-2.194445 -2.25 0 256 255 0 0 255 0.4571314 
-2.75 -2.25 0 768 255 0 0 255 0.540217 
2.25 -1.694444 0 256 255 0 0 255 0.2923087 
1.82224 -1.823184 0 0 255 255 255 255 0.2729634 
1.276076 -1.820509 0 0 255 255 255 255 0.2356491 
0.7388355 -1.803518 0 0 255 255 255 255 0.1556573 
0.1829575 -1.80255 0 0 255 255 255 255 0.1038237 
-0.3723599 -1.803071 0 0 255 255 255 255 0.1076673 
-0.9303188 -1.814572 0 0 255 255 255 255 0.2447436 
-1.669648 -1.825323 0 0 255 255 255 255 0.3415991 
-2.225371 -1.857982 0 0 255 255 255 255 0.5253507 
-2.75 -1.694444 0 768 255 0 0 255 0.5034279 
2.25 -1.138889 0 256 255 0 0 255 0.2602997 
1.81822 -1.274144 0 0 255 255 255 255 0.2747717 
-2.357897 -1.300844 0 0 255 255 255 255 0.5558928 
-2.75 -1.138889 0 256 255 0 0 255 0.5871838 
2.25 -0.5833333 0 256 255 0 0 255 0.2366175 
1.205867 -0.6535204 0 0 255 255 255 255 0.2788134 
0.6949369 -0.7366402 0 0 255 255 255 255 0.2405079 
-0.4188496 -0.7419732 0 0 255 255 255 255 0.150332 
-0.9538841 -0.7702202 0 0 255 255 255 255 0.186192 
-2.355032 -0.4172191 0 0 255 255 255 255 0.3940196 
-2.75 -0.5833333 0 256 255 0 0 255 0.4639249 
2.25 -0.02777767 0 256 255 0 0 255 0.2231352 
1.204516 -0.0722019 0 0 255 255 255 255 0.2431969 
0.1685964 -0.1688835 0 0 255 255 255 255 0.1645298 
-0.3856493 -0.1756414 0 0 255 255 255 255 0.1545265 
-0.9372647 -0.209125 0 0 255 255 255 255 0.1397884 
-2.268596 0.08580246 0 0 255 255 255 255 0.1913017 
-2.75 -0.02777767 0 768 255 0 0 255 0.251819 
2.25 0.5277779 0 256 255 0 0 255 0.2376028 
1.200815 0.457025 0 0 255 255 255 255 0.2376117 
0.6198531 0.4965951 0 0 255 255 255 255 0.2336192 
0.1732594 0.387604 0 0 255 255 255 255 0.1641773 
-0.3799079 0.3795345 0 0 255 255 255 255 0.1635022 
-0.9367276 0.3468651 0 0 255 255 255 255 0.1451581 
-2.262279 0.6373861 0 0 255 255 255 255 0.1887017 
-2.75 0.5277779 0 768 255 0 0 255 0.1513433 
2.25 1.083333 0 256 255 0 0 255 0.3047372 
1.838985 0.911741 0 0 255 255 255 255 0.2673517 
1.406241 0.8394706 0 0 255 255 255 255 0.2313701 
0.7659273 0.9333208 0 0 255 255 255 255 0.1876006 
0.2045552 0.9401087 0 0 255 255 255 255 0.1185343 
-0.3472545 0.9362881 0 0 255 255 255 255 0.1139705 
-0.9277074 0.9140817 0 0 255 255 255 255 0.2094799 
-1.489977 0.9718418 0 0 255 255 255 255 0.4041792 
-2.260995 1.189297 0 0 255 255 255 255 0.2685292 
-2.75 1.083333 0 768 255 0 0 255 0.1510783 
2.25 1.638889 0 256 255 0 0 255 0.4814893 
-2.276779 1.730068 0 0 255 255 255 255 0.2691849 
-2.75 1.638889 0 768 255 0 0 255 0.2417107 
2.25 2.194445 0 768 255 0 0 255 0.5229395 
1.905972 2.255488 0 0 255 255 255 255 0.5705773 
1.324767 2.330392 0 0 255 255 255 255 0.3595766 
-0.08467343 2.263696 0 0 255 255 255 255 0.04848512 
-0.6377686 2.262069 0 0 255 255 255 255 0.04732054 
-1.193657 2.264093 0 0 255 255 255 255 0.1404109 
-1.734406 2.279748 0 0 255 255 255 255 0.1987924 
-2.255039 2.254661 0 0 255 255 255 255 0.2048064 
-2.75 2.194445 0 768 255 0 0 255 0.2189686 
2.25 2.75 0 768 255 0 0 255 0.5469942 
1.694444 2.75 0 768 255 0 0 255 0.4122488 
1.138889 2.75 0 256 255 0 0 255 0.2671117 
0.5833333 2.75 0 256 255 0 0 255 0.131474 
0.02777767 2.75 0 256 255 0 0 255 0.07659724 
-0.5277779 2.75 0 768 255 0 0 255 0.03374078 
-1.083333 2.75 0 768 255 0 0 255 0.04429965 
-1.638889 2.75 0 768 255 0 0 255 0.1175525 
-2.194445 2.75 0 768 255 0 0 255 0.1714047 
-2.75 2.75 0 768 255 0 0 255 0.138951 
1.056825 -1.231058 0 0 255 255 255 255 0.2385008 
0.4888851 -1.216257 0 0 255 255 255 255 0.1700869 
-0.0673275 -1.216107 0 0 255 255 255 255 0.1451043 
-0.6147717 -1.230669 0 0 255 255 255 255 0.1796541 
-1.092307 -1.390991 0 0 255 255 255 255 0.236441 
-1.939152 -1.372836 0 0 255 255 255 255 0.4185238 
-1.400688 -1.132492 0 0 255 255 255 255 0.3118138 
-1.874545 -0.7713084 0 0 255 255 255 255 0.3066235 
-2.376443 -0.8865407 0 0 255 255 255 255 0.4607869 
-1.37157 -0.5670611 0 0 255 255 255 255 0.1912557 
-1.870084 -0.2199352 0 0 255 255 255 255 0.2024982 
-1.379364 -0.01425581 0 0 255 255 255 255 0.1616883 
-1.864708 0.3376696 0 0 255 255 255 255 0.1913758 
-1.387257 0.5339748 0 0 255 255 255 255 0.2762321 
-1.869583 0.8832369 0 0 255 255 255 255 0.3254161 
1.688887 1.380531 0 0 255 255 255 255 0.334289 
1.12451 1.371825 0 0 255 255 255 255 0.2070686 
0.5736557 1.371056 0 0 255 255 255 255 0.1215459 
0.01438522 1.379156 0 0 255 255 255 255 0.07080876 
-0.5426985 1.379633 0 0 255 255 255 255 0.1316065 
-1.114085 1.389377 0 0 255 255 255 255 0.3180184 
-1.784577 1.445999 0 0 255 255 255 255 0.4501971 
1.698169 1.907017 0 0 255 255 255 255 0.3761781 
1.268099 1.907669 0 0 255 255 255 255 0.2880216 
0.8535978 1.875997 0 0 255 255 255 255 0.1387237 
0.2276418 1.865551 0 0 255 255 255 255 0.06933375 
-0.3379203 1.864277 0 0 255 255 255 255 0.04012349 
-0.8956726 1.865419 0 0 255 255 255 255 0.1454758 
-1.463056 1.881743 0 0 255 255 255 255 0.2877787 
-1.890324 1.886395 0 0 255 255 255 255 0.4030309 
0.8921225 2.368625 0 0 255 127 127 255 0.2019884 
0.4303503 2.290339 0 0 255 255 255 255 0.09216667 
1.677656 -0.8358237 0 0 255 255 255 255 0.2767925 
1.669628 -0.2809362 0 0 255 255 255 255 0.2708755 
1.671618 0.2878498 0 0 255 255 255 255 0.2536352 
0.1311497 -0.7361788 0 0 255 255 255 255 0.1719992 
0.7930846 -0.1266721 0 0 255 255 255 255 0.2384081 
1.423877 -1.334365 0 0 255 255 255 255 0.2566363 
3 0 10 11 0.2516699 
3 1 11 12 0.03262272 
3 2 12 13 0.03819281 
3 3 13 14 0.02078656 
3 4 14 15 0.02078676 
3 5 15 16 0.01801929 
3 6 16 17 0.03403612 
3 19 9 8 0.002209964 
3 10 20 21 0.04136644 
3 23 19 22 0.03495591 
3 20 24 110 0.03967162 
3 82 28 84 0.2595594 
3 24 31 111 0.03967183 
3 28 35 87 0.0193717 
3 37 30 29 0.03042703 
3 31 38 112 0.03599558 
3 35 43 89 0.01533563 
3 45 37 36 0.04774908 
3 38 46 47 0.02327648 
3 112 47 48 0.03433127 
3 43 52 91 0.02001839 
3 55 45 44 0.05019439 
3 46 56 93 0.001525428 
3 58 55 54 0.05461398 
3 56 59 60 0.9936357 
3 101 108 102 0.1649405 
3 99 106 107 0.0003018962 
3 67 58 57 0.07296647 
3 59 68 60 0.2610399 
3 60 69 61 0.001037959 
3 72 62 109 0.02034402 
3 73 63 62 0.04893278 
3 74 64 63 0.05102633 
3 75 65 64 0.08908441 
3 76 66 65 0.06887341 
3 77 67 66 0.111318 
3 12 2 1 0.03593072 
3 13 3 2 0.02078656 
3 14 4 3 0.0207861 
3 15 5 4 0.02078676 
3 16 6 5 0.02140935 
3 17 7 6 0.03405117 
3 17 8 7 0.77846 
3 18 19 8 0.3046837 
3 21 11 10 0.04332449 
3 78 12 115 0.4150089 
3 79 13 78 0.003174294 
3 80 14 79 0.008759637 
3 81 15 80 0.01081927 
3 82 16 81 0.3226864 
3 84 17 82 0.3181253 
3 22 19 18 0.001263066 
3 110 21 20 0.03391394 
3 28 82 81 0.02711291 
3 86 83 85 0.07705145 
3 23 86 30 0.4774274 
3 111 110 24 0.03967198 
3 35 28 27 0.01983437 
3 88 29 85 0.001571912 
3 112 111 31 0.03302508 
3 43 35 34 0.02139673 
3 90 36 88 0.008065691 
3 36 44 45 0.04601665 
3 47 112 38 0.01844699 
3 49 40 39 0.1036952 
3 50 41 40 0.02442897 
3 51 42 41 0.01940569 
3 52 43 42 0.02056848 
3 92 44 90 0.006607066 
3 44 54 55 0.05473744 
3 93 47 46 0.2123843 
3 94 48 93 0.0005678718 
3 95 49 94 0.01286888 
3 96 50 95 0.01309946 
3 97 51 96 0.01519393 
3 98 52 97 0.0113167 
3 99 53 98 2.585258e-05 
3 99 54 92 0.003668092 
3 54 57 58 0.09652791 
3 60 100 56 0.3310024 
3 61 101 100 0.1707169 
3 62 104 103 0.01016745 
3 63 105 104 0.007861333 
3 64 106 105 0.0161406 
3 57 66 67 0.06999407 
3 60 68 69 0.0009858495 
3 61 69 70 0.01662134 
3 109 108 71 4.017227e-05 
3 62 72 73 0.04847742 
3 63 73 74 0.05019392 
3 64 74 75 0.0498464 
3 65 75 76 0.06699308 
3 66 76 77 0.1113179 
3 17 84 83 0.004721271 
3 78 25 26 0.1055302 
3 79 26 113 0.09690675 
3 80 113 27 0.08812643 
3 81 27 28 0.04374553 
3 84 28 87 0.02043958 
3 84 87 85 0.001290375 
3 22 86 23 0.004161763 
3 25 32 114 0.48279 
3 26 114 33 0.2517771 
3 113 33 34 0.2201323 
3 27 34 35 0.02138324 
3 87 35 89 0.01195228 
3 29 88 36 0.0003218264 
3 32 39 40 0.4669048 
3 114 40 41 0.2453006 
3 33 41 42 0.2196538 
3 34 42 43 0.01940574 
3 89 43 91 0.01390745 
3 36 90 44 0.006247812 
3 39 48 49 0.1672885 
3 40 49 50 0.02565066 
3 41 50 51 0.02139678 
3 42 51 52 0.02100959 
3 91 52 53 0.02708324 
3 44 92 54 0.008122322 
3 54 99 57 0.03599404 
3 61 100 60 0.1061083 
3 94 101 102 0.07444292 
3 101 61 108 0.338556 
3 102 108 109 0.03764524 
3 62 103 109 0.0002449662 
3 63 104 62 0.006911932 
3 64 105 63 0.007502621 
3 65 106 64 0.006541613 
3 106 65 107 0.0008014546 
3 66 107 65 0.009872091 
3 70 108 61 0.0001074948 
3 78 13 12 0.01379166 
3 79 14 13 0.008759272 
3 80 15 14 0.008759803 
3 81 16 15 0.008946195 
3 82 17 16 0.0292101 
3 22 18 83 0.06996835 
3 21 110 115 0.09191582 
3 29 86 85 0.09398235 
3 86 22 83 0.410633 
3 85 83 84 0 
3 86 29 30 0.007334958 
3 32 25 111 0.4274976 
3 89 88 87 0.004452769 
3 85 87 88 0.003150429 
3 29 36 37 0.00060456 
3 39 32 112 0.4035101 
3 91 90 89 0.005049467 
3 88 89 90 0.002750665 
3 48 39 112 0.05971461 
3 53 92 91 0.5407791 
3 90 91 92 0.004864977 
3 93 48 47 0.1507384 
3 94 49 48 0.003398485 
3 95 50 49 0.01427202 
3 96 51 50 0.01533567 
3 97 52 51 0.02391148 
3 98 53 52 0.007768078 
3 92 53 99 0.1131956 
3 100 93 56 0.003395755 
3 101 94 93 0.01769137 
3 93 100 101 0.2868185 
3 109 103 102 0.05377169 
3 94 102 95 0.000120289 
3 103 95 102 0.0004385565 
3 95 103 96 0.003625237 
3 104 96 103 0.002600291 
3 96 104 97 0.003740741 
3 105 97 104 0.003767918 
3 97 105 98 0.003555184 
3 106 98 105 0.004929313 
3 98 106 99 0.1537076 
3 66 57 107 0.01551211 
3 99 107 57 0.01760078 
3 108 70 71 0.0146627 
3 109 71 72 0.01380258 
3 11 1 0 0.2653075 
3 115 12 11 0.4150089 
3 17 83 18 0.02320042 
3 26 79 78 0.1132217 
3 113 80 79 0.09813638 
3 27 81 80 0.08270022 
3 114 26 25 0.4628496 
3 33 113 26 0.251879 
3 34 27 113 0.2201342 
3 41 33 114 0.2453006 
3 42 34 33 0.2196541 
3 11 21 115 0.231429 
3 114 32 40 0.4669048 
3 8 17 18 0.1486601 
3 25 78 115 0.09191582 
3 115 110 25 0.09191582 
3 111 25 110 0.4274976 
3 112 32 111 0.4035101 
