ply
format ascii 1.0
comment VCGLIB generated
element vertex 136
property float x
property float y
property float z
property uchar red
property uchar green
property uchar blue
property uchar alpha
element face 225
property list uchar int vertex_indices
end_header
-5 8.660254 0 0 0 255 255 
-4 8.082904 0 255 255 255 255 
-5 7.505554 0 255 255 255 255 
-3 7.505553 0 255 255 255 255 
-4 6.928203 0 255 255 255 255 
-5 6.350852 0 255 255 255 255 
-2 6.928203 0 255 255 255 255 
-3 6.350853 0 255 255 255 255 
-4 5.773502 0 255 255 255 255 
-5 5.196152 0 255 255 255 255 
-1 6.350853 0 255 255 255 255 
-2 5.773503 0 255 255 255 255 
-3 5.196152 0 255 255 255 255 
-4 4.618802 0 255 255 255 255 
-5 4.041452 0 255 255 255 255 
0 5.773503 0 255 255 255 255 
-1 5.196153 0 255 255 255 255 
-2 4.618802 0 255 255 255 255 
-3 4.041452 0 255 255 255 255 
-4 3.464102 0 255 255 255 255 
-5 2.886751 0 255 255 255 255 
1 5.196152 0 255 255 255 255 
2.441406e-07 4.618802 0 255 255 255 255 
-1 4.041451 0 255 255 255 255 
-2 3.464102 0 255 255 255 255 
-3 2.886751 0 255 255 255 255 
-4 2.309401 0 255 255 255 255 
-5 1.732051 0 255 255 255 255 
2 4.618802 0 255 255 255 255 
1 4.041452 0 255 255 255 255 
0 3.464102 0 255 255 255 255 
-1 2.886751 0 255 255 255 255 
-2 2.309401 0 255 255 255 255 
-3 1.732051 0 255 255 255 255 
-4 1.154701 0 255 255 255 255 
-5 0.5773503 0 255 255 255 255 
3 4.041452 0 255 255 255 255 
2 3.464102 0 255 255 255 255 
1 2.886751 0 255 255 255 255 
2.441406e-07 2.309401 0 255 255 255 255 
-0.9999999 1.732051 0 255 255 255 255 
-2 1.1547 0 255 255 255 255 
-3 0.5773503 0 255 255 255 255 
-4 0 0 255 255 255 255 
-5 -0.5773503 0 255 255 255 255 
4 3.464102 0 255 255 255 255 
3 2.886751 0 255 255 255 255 
2 2.309401 0 255 255 255 255 
1 1.732051 0 255 255 255 255 
1.220703e-07 1.1547 0 255 255 255 255 
-1 0.5773501 0 255 255 255 255 
-2 0 0 255 255 255 255 
-3 -0.5773503 0 255 255 255 255 
-4 -1.154701 0 255 255 255 255 
-5 -1.732051 0 255 255 255 255 
5 2.886751 0 255 255 255 255 
4 2.309401 0 255 255 255 255 
3 1.732051 0 255 255 255 255 
2 1.154701 0 255 255 255 255 
0.9999998 0.5773503 0 255 255 255 255 
0 0 0 255 255 255 255 
-1 -0.5773501 0 255 255 255 255 
-2 -1.1547 0 255 255 255 255 
-3 -1.732051 0 255 255 255 255 
-4 -2.309401 0 255 255 255 255 
-5 -2.886751 0 255 255 255 255 
6 2.309401 0 255 255 255 255 
5 1.732051 0 255 255 255 255 
4 1.154701 0 255 255 255 255 
3 0.5773503 0 255 255 255 255 
2 0 0 255 255 255 255 
0.9999999 -0.5773503 0 255 255 255 255 
1.220703e-07 -1.1547 0 255 255 255 255 
-0.9999999 -1.732051 0 255 255 255 255 
-2 -2.309401 0 255 255 255 255 
-3 -2.886751 0 255 255 255 255 
-4 -3.464102 0 255 255 255 255 
-5 -4.041452 0 255 255 255 255 
7 1.732051 0 255 255 255 255 
6 1.1547 0 255 255 255 255 
5 0.5773502 0 255 255 255 255 
4 0 0 255 255 255 255 
3 -0.5773503 0 255 255 255 255 
2 -1.154701 0 255 255 255 255 
1 -1.732051 0 255 255 255 255 
2.441406e-07 -2.309401 0 255 255 255 255 
-1 -2.886751 0 255 255 255 255 
-2 -3.464102 0 255 255 255 255 
-3 -4.041452 0 255 255 255 255 
-4 -4.618802 0 255 255 255 255 
-5 -5.196152 0 255 255 255 255 
8.000001 1.154701 0 255 255 255 255 
7 0.5773503 0 255 255 255 255 
6 0 0 255 255 255 255 
5 -0.5773502 0 255 255 255 255 
4 -1.154701 0 255 255 255 255 
3 -1.732051 0 255 255 255 255 
2 -2.309401 0 255 255 255 255 
1 -2.886751 0 255 255 255 255 
6.103516e-08 -3.464102 0 255 255 255 255 
-0.9999999 -4.041451 0 255 255 255 255 
-2 -4.618802 0 255 255 255 255 
-3 -5.196152 0 255 255 255 255 
-4 -5.773502 0 255 255 255 255 
-5 -6.350852 0 255 255 255 255 
9 0.5773503 0 255 255 255 255 
8.000001 0 0 255 255 255 255 
7 -0.5773503 0 255 255 255 255 
6 -1.1547 0 255 255 255 255 
5 -1.732051 0 255 255 255 255 
4 -2.309401 0 255 255 255 255 
3 -2.886751 0 255 255 255 255 
2 -3.464102 0 255 255 255 255 
0.9999999 -4.041452 0 255 255 255 255 
1.525879e-07 -4.618802 0 255 255 255 255 
-1 -5.196153 0 255 255 255 255 
-2 -5.773503 0 255 255 255 255 
-3 -6.350853 0 255 255 255 255 
-4 -6.928203 0 255 255 255 255 
-5 -7.505554 0 255 255 255 255 
10 -7.023823e-16 0 0 0 255 255 
9 -0.5773503 0 255 255 255 255 
8.000001 -1.154701 0 255 255 255 255 
7 -1.732051 0 255 255 255 255 
6 -2.309401 0 255 255 255 255 
5 -2.886751 0 255 255 255 255 
4 -3.464102 0 255 255 255 255 
3 -4.041452 0 255 255 255 255 
2 -4.618802 0 255 255 255 255 
1 -5.196152 0 255 255 255 255 
0 -5.773503 0 255 255 255 255 
-1 -6.350853 0 255 255 255 255 
-2 -6.928203 0 255 255 255 255 
-3 -7.505553 0 255 255 255 255 
-4 -8.082904 0 255 255 255 255 
-5 -8.660254 0 0 0 255 255 
3 1 0 2 
3 3 1 4 
3 4 1 2 
3 4 2 5 
3 6 3 7 
3 7 3 4 
3 7 4 8 
3 8 4 5 
3 8 5 9 
3 10 6 11 
3 11 6 7 
3 11 7 12 
3 12 7 8 
3 12 8 13 
3 13 8 9 
3 13 9 14 
3 15 10 16 
3 16 10 11 
3 16 11 17 
3 17 11 12 
3 17 12 18 
3 18 12 13 
3 18 13 19 
3 19 13 14 
3 19 14 20 
3 21 15 22 
3 22 15 16 
3 22 16 23 
3 23 16 17 
3 23 17 24 
3 24 17 18 
3 24 18 25 
3 25 18 19 
3 25 19 26 
3 26 19 20 
3 26 20 27 
3 28 21 29 
3 29 21 22 
3 29 22 30 
3 30 22 23 
3 30 23 31 
3 31 23 24 
3 31 24 32 
3 32 24 25 
3 32 25 33 
3 33 25 26 
3 33 26 34 
3 34 26 27 
3 34 27 35 
3 36 28 37 
3 37 28 29 
3 37 29 38 
3 38 29 30 
3 38 30 39 
3 39 30 31 
3 39 31 40 
3 40 31 32 
3 40 32 41 
3 41 32 33 
3 41 33 42 
3 42 33 34 
3 42 34 43 
3 43 34 35 
3 43 35 44 
3 45 36 46 
3 46 36 37 
3 46 37 47 
3 47 37 38 
3 47 38 48 
3 48 38 39 
3 48 39 49 
3 49 39 40 
3 49 40 50 
3 50 40 41 
3 50 41 51 
3 51 41 42 
3 51 42 52 
3 52 42 43 
3 52 43 53 
3 53 43 44 
3 53 44 54 
3 55 45 56 
3 56 45 46 
3 56 46 57 
3 57 46 47 
3 57 47 58 
3 58 47 48 
3 58 48 59 
3 59 48 49 
3 59 49 60 
3 60 49 50 
3 60 50 61 
3 61 50 51 
3 61 51 62 
3 62 51 52 
3 62 52 63 
3 63 52 53 
3 63 53 64 
3 64 53 54 
3 64 54 65 
3 66 55 67 
3 67 55 56 
3 67 56 68 
3 68 56 57 
3 68 57 69 
3 69 57 58 
3 69 58 70 
3 70 58 59 
3 70 59 71 
3 71 59 60 
3 71 60 72 
3 72 60 61 
3 72 61 73 
3 73 61 62 
3 73 62 74 
3 74 62 63 
3 74 63 75 
3 75 63 64 
3 75 64 76 
3 76 64 65 
3 76 65 77 
3 78 66 79 
3 79 66 67 
3 79 67 80 
3 80 67 68 
3 80 68 81 
3 81 68 69 
3 81 69 82 
3 82 69 70 
3 82 70 83 
3 83 70 71 
3 83 71 84 
3 84 71 72 
3 84 72 85 
3 85 72 73 
3 85 73 86 
3 86 73 74 
3 86 74 87 
3 87 74 75 
3 87 75 88 
3 88 75 76 
3 88 76 89 
3 89 76 77 
3 89 77 90 
3 91 78 92 
3 92 78 79 
3 92 79 93 
3 93 79 80 
3 93 80 94 
3 94 80 81 
3 94 81 95 
3 95 81 82 
3 95 82 96 
3 96 82 83 
3 96 83 97 
3 97 83 84 
3 97 84 98 
3 98 84 85 
3 98 85 99 
3 99 85 86 
3 99 86 100 
3 100 86 87 
3 100 87 101 
3 101 87 88 
3 101 88 102 
3 102 88 89 
3 102 89 103 
3 103 89 90 
3 103 90 104 
3 105 91 106 
3 106 91 92 
3 106 92 107 
3 107 92 93 
3 107 93 108 
3 108 93 94 
3 108 94 109 
3 109 94 95 
3 109 95 110 
3 110 95 96 
3 110 96 111 
3 111 96 97 
3 111 97 112 
3 112 97 98 
3 112 98 113 
3 113 98 99 
3 113 99 114 
3 114 99 100 
3 114 100 115 
3 115 100 101 
3 115 101 116 
3 116 101 102 
3 116 102 117 
3 117 102 103 
3 117 103 118 
3 118 103 104 
3 118 104 119 
3 120 105 121 
3 121 105 106 
3 121 106 122 
3 122 106 107 
3 122 107 123 
3 123 107 108 
3 123 108 124 
3 124 108 109 
3 124 109 125 
3 125 109 110 
3 125 110 126 
3 126 110 111 
3 126 111 127 
3 127 111 112 
3 127 112 128 
3 128 112 113 
3 128 113 129 
3 129 113 114 
3 129 114 130 
3 130 114 115 
3 130 115 131 
3 131 115 116 
3 131 116 132 
3 132 116 117 
3 132 117 133 
3 133 117 118 
3 133 118 134 
3 134 118 119 
3 134 119 135 
