ply
format ascii 1.0
comment VCGLIB generated
element vertex 276
property double x
property double y
property double z
property uchar red
property uchar green
property uchar blue
property uchar alpha
property double quality
element face 466
property list uchar int vertex_indices
property double quality
end_header
-8.058888805556125 6.22682249720825 7.220253788862832 255 255 255 255 0 
-8.829038116740019 5.721267292395686 8.063908572177507 255 255 255 255 0 
-5.381141708787024 6.547477591595559 5.706222907659889 255 255 255 255 0 
-6.798928534127079 6.05765965821255 6.629406538565073 255 255 255 255 0 
-7.440530258094593 5.763409118771219 7.206636017361057 255 255 255 255 0 
-8.065329861388022 5.392381520923872 7.886591786964949 255 255 255 255 0 
-8.703856299663792 5.064175814870416 8.622241326186037 255 255 255 255 0 
-6.023479698437695 5.42013259513077 6.5375073216737 255 255 255 255 0 
-6.714116142653562 5.213972015429682 7.132238676185978 255 255 255 255 0 
-7.333355684565254 4.969742746492027 7.769986459443468 255 255 255 255 0 
-2.953639851796262 5.996994033231141 4.322560979762548 255 255 255 255 0 
-4.231223297870855 5.546241647286251 5.312120490016668 255 255 255 255 0 
-5.174096604158938 5.661452903284296 5.892849987363995 255 255 255 255 0 
-6.039740956465213 4.614631566547195 7.024455304030851 255 255 255 255 0 
-6.615251435031495 4.45094771195479 7.639246970169557 255 255 255 255 0 
-7.1919870192655 4.296022968744033 8.292713561173342 255 255 255 255 0 
-1.776088528415022 6.038423884398983 2.878801091074259 255 255 255 255 0 
-1.854079544534722 6.493520567808043 3.504993025043658 255 255 255 255 0 
-2.947539808197295 5.087842410970073 4.132853203973974 255 255 255 255 0 
-4.630859008668935 4.708725876166623 5.754688592183063 255 255 255 255 0 
-5.377472739876831 4.691348561027893 6.388924021690292 255 255 255 255 0 
-6.043763923447565 3.977475983093704 7.436826777740992 255 255 255 255 0 
-2.173705089784533 5.447191402434707 1.160516905057134 255 255 255 255 0 
-1.469125584507682 6.269211793814389 2.272029357107947 255 255 255 255 0 
-3.932326448714771 4.666617295652429 5.12412825906932 255 255 255 255 0 
-4.900093833430254 3.857190425392457 6.204414587188682 255 255 255 255 0 
-5.52547123123051 3.915585885747491 6.884741484272761 255 255 255 255 0 
-6.387393857086969 3.649134682056348 8.082385070945426 255 255 255 255 0 
-2.635999783785693 4.520935200596123 1.050807300586513 255 255 255 255 0 
-2.289821062637841 4.890507842515103 1.904695647305634 255 255 255 255 0 
-2.192715249879441 5.236617065355165 2.735728182949718 255 255 255 255 0 
-3.66331671916998 3.908899656048325 4.800613032540148 255 255 255 255 0 
-4.56271821829028 2.899288787472477 5.871298987568342 255 255 255 255 0 
-5.151651891985798 3.085715672602141 6.726387443311693 255 255 255 255 0 
-5.701617375052399 3.297337170207088 7.440674188202467 255 255 255 255 0 
-6.396239067374987 3.049258306937102 8.740182091675422 255 255 255 255 0 
-3.804335711302635 2.425828146770424 4.657499852022327 255 255 255 255 0 
-4.202994782591286 2.401175013440129 5.270257185967428 255 255 255 255 0 
-4.940334986173139 2.140680553634258 6.548975935508659 255 255 255 255 0 
-5.918835564772719 2.299713931174695 8.713848714392977 255 255 255 255 0 
-5.421770890556362 1.18470011109019 8.089034417820434 255 255 255 255 0 
-2.751962458798948 2.867867138266145 2.839911244247638 255 255 255 255 0 
-4.511785697007331 1.025537196289919 5.415528769352778 255 255 255 255 0 
-5.03635877506114 0.4033716732763502 6.907075822449621 255 255 255 255 0 
-5.292290975962993 0.5188477783435886 7.795389618135716 255 255 255 255 0 
-5.510198427387397 0.6909385295759237 8.611546558510499 255 255 255 255 0 
-3.762266903443564 0.9118000019175551 3.806511191476351 255 255 255 255 0 
-4.142945096077077 0.1316107236360804 3.955235676255 255 255 255 255 0 
-4.780827640523421 -0.7666592006482597 5.567194167290904 255 255 255 255 0 
-4.975913753571829 -0.5294657493365679 6.591471946979282 255 255 255 255 0 
-5.212361566594902 -0.3385410612706821 7.493435939066728 255 255 255 255 0 
-3.549614145852365 0.499303572234495 3.152751095328127 255 255 255 255 0 
-4.400964552524697 -0.7371967996753145 3.667699136131378 255 255 255 255 0 
-4.777470349945033 -1.353798045601144 4.904301000094011 255 255 255 255 0 
-5.15403980290901 -1.235668389136982 7.242383397627898 255 255 255 255 0 
-4.818235386999184 -2.171393855399282 4.674439968771317 255 255 255 255 0 
-4.819825850269347 -2.334248460490311 6.398438349909346 255 255 255 255 0 
-5.585372279918932 -2.892021324035131 8.229555186427506 255 255 255 255 0 
-4.628784752875881 -3.552165490106697 4.169438775686289 255 255 255 255 0 
-4.246391370404853 -4.017964901587681 4.81573384066709 255 255 255 255 0 
-4.014184405477724 -4.200104488866516 5.694192511420289 255 255 255 255 0 
-4.058246042258697 -4.517614813819681 7.211396708900181 255 255 255 255 0 
-3.997722568400787 -5.049244431974626 7.993212452581441 255 255 255 255 0 
-4.211922689819272 -4.946838989401135 3.383769561155155 255 255 255 255 0 
-3.969406444190448 -4.795206577173866 4.311874447421222 255 255 255 255 0 
-3.437495337833783 -5.388527048242133 4.729201009660408 255 255 255 255 0 
-2.853710977896406 -5.467290377004002 6.63288411431405 255 255 255 255 0 
-3.199068032724357 -6.031722726769884 4.22475818548456 255 255 255 255 0 
-2.85479915098614 -5.929603154673433 5.058054841230798 255 255 255 255 0 
-3.947773569670032 -6.148848754915669 2.41741655659385 255 255 255 255 0 
-0.7157988143564064 -6.707924109405776 7.252251997017667 255 255 255 255 0 
-3.013068641869504 3.712918674541434 0.5466582863583409 255 255 255 255 0 
-2.609216247450458 3.574213577307872 2.314777226145989 255 255 255 255 0 
-5.469621672465425 -0.1051817078282439 8.352742701447079 255 255 255 255 0 
-2.32375470371624 1.304588652182874 0.8344398339589286 255 255 255 255 0 
-2.68568694365483 2.048558733721793 0.6069656043329774 255 255 255 255 0 
-2.608571625704565 1.998006047426388 1.395509960090921 255 255 255 255 0 
-2.775808130866891 1.869002057700124 2.445094785828982 255 255 255 255 0 
-2.986603813770266 0.8515363174721111 2.470138006603003 255 255 255 255 0 
-2.550305077970795 1.133745641113434 1.700801011722124 255 255 255 255 0 
-5.952819596784192 -2.187828124347676 8.725985154786494 255 255 255 255 0 
-5.442938578922623 -0.9744883705867979 8.065826091600867 255 255 255 255 0 
-2.183716281953551 0.4714413164947708 1.169830557173918 255 255 255 255 0 
-1.694530334350384 0.5441194813894267 0.5313338391618353 255 255 255 255 0 
-4.736859050565642 -4.30262431201901 2.70795366512025 255 255 255 255 0 
-4.463484735102732 -4.19694027433661 3.805580133625513 255 255 255 255 0 
-4.88561225472092 -3.528738762072837 3.390316628459924 255 255 255 255 0 
-4.330335949291788 -5.264672321313443 2.482353942745406 255 255 255 255 0 
-2.700726856376932 -5.812456160121299 7.748963190925329 255 255 255 255 0 
-3.424398030145344 -5.168250098566671 7.343423532054744 255 255 255 255 0 
-4.616432537116289 -5.091843910711655 8.607653567268835 255 255 255 255 0 
-3.930666293046905 -5.675620699033719 8.684175125933441 255 255 255 255 0 
-2.415573524286502 -6.455261776284152 8.633275203416101 255 255 255 255 0 
-1.018269198922263 -6.691715891263924 8.008888558069758 255 255 255 255 0 
-1.33827522054713 -6.407662883614818 7.323372679712362 255 255 255 255 0 
-1.586429733957955 -6.820107066401564 8.696935465705543 255 255 255 255 0 
-3.929304847829861 -6.992775718089142 0.3924336415597369 255 255 255 255 0 
-3.45223920202283 -6.841583861125293 2.837166742976529 255 255 255 255 0 
-4.072982822202598 -6.24841534581656 0.6422007593457951 255 255 255 255 0 
-1.815770134778488 -6.303352770163108 7.895857473603566 255 255 255 255 0 
-4.004422788141279 -6.903687525516918 1.137421485831475 255 255 255 255 0 
-4.181805107682996 -7.713331588112578 0.4863596708500416 255 255 255 255 0 
0.3793807593257236 -7.476981241299544 8.641377996532452 255 255 255 255 0 
-0.6351465657005591 -7.235163480920075 8.791633626360692 255 255 255 255 0 
0.8810482681316156 -7.854640166314685 9.000797106396343 255 255 255 255 0 
-4.586352457191971 -8.296399386386785 -0.007442586768828585 255 0 0 255 0 
-4.316271890785721 -8.086056025485906 0.6644973822939766 255 255 255 255 0 
-3.900085558083084 -7.885183723430548 1.414416826616563 255 255 255 255 0 
-3.436911691811112 -7.645987780551825 2.309240049968995 255 255 255 255 0 
-2.909659494545487 -7.409208209972296 3.232471174846924 255 255 255 255 0 
-2.326455225136307 -7.185502322177801 4.180151171337402 255 255 255 255 0 
-1.783191789772538 -7.029487402896796 4.98326034034375 255 255 255 255 0 
-1.177332986977127 -6.914459498386297 5.802349753032959 255 255 255 255 0 
-0.6514617101216587 -6.898901494007025 6.435345477710999 255 255 255 255 0 
0.02653206429240385 -6.982081683139715 7.192072100292481 255 255 255 255 0 
0.7928284510111541 -7.316450865726384 7.990394539486207 255 255 255 255 0 
1.379288564536544 -7.755287440280828 8.627074904094972 255 255 255 255 0 
1.684853444907638 -8.080275805454168 8.998990721355714 255 255 255 255 0 
1.948620687339279 -8.414939196567449 9.357069677959718 255 255 255 255 0 
0.9708851679300992 -8.131933005313787 9.364978260647096 255 255 255 255 0 
-0.01441108145954928 -7.846777708988103 9.358585543285646 255 255 255 255 0 
-0.6493369237447055 -7.646260054569158 9.356832213054933 255 255 255 255 0 
-1.462943185951737 -7.364572318057927 9.358358091961183 255 255 255 255 0 
-2.247565378334549 -7.068497450809392 9.359223074566163 255 255 255 255 0 
-3.000342477943924 -6.756029398898992 9.358663267742433 255 255 255 255 0 
-3.694907297279862 -6.432282240848455 9.358382887493409 255 255 255 255 0 
-4.663823236610916 -5.888043196659002 9.358578390728272 255 255 255 255 0 
-5.507189859535721 -5.286829741458806 9.358558363567628 255 255 255 255 0 
-6.104396681577125 -4.649263916181238 9.356875070719829 255 255 255 255 0 
-6.569234003212479 -3.749205143909368 9.35882062400464 255 255 255 255 0 
-6.63416135675714 -2.990245840309131 9.354788506162496 255 255 255 255 0 
-6.478293527748612 -2.187898905734929 9.358555502544679 255 255 255 255 0 
-6.313771356728104 -1.733661206226262 9.358739084850587 255 255 255 255 0 
-5.891863931801346 -0.6785354183720678 9.358214563976563 255 255 255 255 0 
-5.631030191566971 0.2167781723929317 9.358485884319581 255 255 255 255 0 
-5.616272846958259 0.9556064400951012 9.358257154084516 255 255 255 255 0 
-5.912629236366776 1.971892981071559 9.35826844657544 255 255 255 255 0 
-6.338734735634354 2.569256155033198 9.358479208599366 255 255 255 255 0 
-6.984118570473221 3.223487822551814 9.358443922649659 255 255 255 255 0 
-7.78470908560994 3.830022542018977 9.358452028881349 255 255 255 255 0 
-8.680655588295487 4.408633915920344 9.358760542522706 255 255 255 255 0 
-9.308657755043534 4.76618167593011 9.358189291607179 255 255 255 255 0 
-9.972617258217362 5.117963044185725 9.35741681541089 255 255 255 255 0 
-10.65442572989705 5.462415902156916 9.35966176475171 255 255 255 255 0 
-5.23390220508636 -5.075906209351054 9.053933648699759 255 255 255 255 0 
-5.804119900521432 -3.722028278452366 8.74807862006069 255 255 255 255 0 
-6.181278263974488 -2.948376060169935 8.938677065587216 255 255 255 255 0 
-10.17512046256306 5.732390610714045 8.762107557903565 255 255 255 255 0 
-9.775332559731034 5.93250509931573 8.327291197429933 255 255 255 255 0 
-9.033534158852127 6.258382527370539 7.627520746837891 255 255 255 255 0 
-8.252204050209549 6.539548365612116 7.027480668674744 255 255 255 255 0 
-7.579009164955643 6.749354569454279 6.577367491375244 255 255 255 255 0 
-6.965138544228104 6.907635418911066 6.228777355800903 255 255 255 255 0 
-6.062754739906815 7.098086564083185 5.784517712246216 255 255 255 255 0 
-5.071530450966385 7.250279871959772 5.368823475490844 255 255 255 255 0 
-4.034180750038651 7.345041243572321 4.981060690532958 255 255 255 255 0 
-3.260306467201737 7.370558945674982 4.697561449657714 255 255 255 255 0 
-2.532374490883377 7.341056792278375 4.397277063976562 255 255 255 255 0 
-1.696753536407075 7.207896238172717 3.907014607728363 255 255 255 255 0 
-1.134581409720136 6.896973194948838 3.047481817747241 255 255 255 255 0 
-1.173527826454666 6.593634097118463 2.200934476505554 255 255 255 255 0 
-1.600354303505448 6.271301476497736 1.204116530071533 255 255 255 255 0 
-2.126128305580643 6.028451649684992 0.3611882397044066 255 255 255 255 0 
-2.382174600746659 5.926297394771662 -0.007442586768829447 255 0 0 255 0 
-2.375778558294925 6.585516916747265 4.052986881382921 255 255 255 255 0 
-2.715462793495682 5.444964377422418 -0.007442586768829418 255 0 0 255 0 
-3.184973825600174 4.592989174861994 -0.007442586768829366 255 0 0 255 0 
-3.396708045028386 3.817249331972503 -0.004647809649103019 255 0 0 255 0 
-3.389218030567584 3.054661545620455 -0.004085941384238132 255 0 0 255 0 
-3.13339500387632 2.319152813469122 -0.004145005329724836 255 0 0 255 0 
-2.685187448647049 1.719778565902796 -0.007442586768829191 255 0 0 255 0 
-2.026732553627518 1.136667100925532 -0.007442586768829154 255 0 0 255 0 
-1.155261148598221 0.6065855009747412 -0.00744258676882914 255 0 0 255 0 
-0.2997084752583774 0.1690109877181913 -0.007442586768829095 255 0 0 255 0 
0.03299034676310697 0.003749223638858934 -0.007442586768829085 255 0 0 255 0 
-0.2544127599263462 -0.02073604778519616 0.09294781024340465 255 255 255 255 0 
-0.9163924352193149 -0.08259184823504431 0.3741185137141116 255 255 255 255 0 
-1.660376657631424 -0.1777536587523554 0.8075656362879642 255 255 255 255 0 
-2.315341104652909 -0.2945771829890345 1.276570267330445 255 255 255 255 0 
-2.764039148476151 -0.4001475291060541 1.645355410229004 255 255 255 255 0 
-3.45853721060994 -0.6163209395217034 2.276150173794067 255 255 255 255 0 
-4.096924890663651 -0.9210416691111656 2.905489630352295 255 255 255 255 0 
-4.729018698343099 -1.412608872202524 3.484276120992275 255 255 255 255 0 
-5.067755173478631 -1.933891654478355 3.644117715741618 255 255 255 255 0 
-5.259737123634842 -2.85412946508399 3.120056695591248 255 255 255 255 0 
-5.231951822426346 -3.367251427631292 2.512647099148071 255 255 255 255 0 
-5.116846193459061 -3.901052148799811 1.667465276371277 255 255 255 255 0 
-5.010468591835526 -4.419677765827093 0.7050149210799108 255 255 255 255 0 
-4.821478952553299 -4.746669562320624 -0.007442586768828794 255 0 0 255 0 
-4.815739748202162 -1.397776482193513 4.133691230121161 255 255 255 255 0 
-4.104271997597245 -5.674735339145575 -0.007442586768828738 255 0 0 255 0 
-3.778791536476639 -6.130545409183417 -0.007442586768828708 255 0 0 255 0 
-3.693990107801074 -7.063408815150528 0.0005067318609628391 255 0 0 255 0 
-3.97905837455037 -7.564837725620184 -0.007442586768828608 255 0 0 255 0 
-7.835597991635882 4.258463726370901 8.875378646201659 255 255 255 255 0 
-2.340736166087838 5.731701045366989 3.596920826407829 255 255 255 255 0 
-1.874198154196181 5.673551177786298 2.024506018674279 255 255 255 255 0 
-2.486800697673968 4.156977549051843 1.855937620124206 255 255 255 255 0 
-5.848173842520612 2.776525402277823 8.072547129783709 255 255 255 255 0 
-4.79284911693566 0.2465731773091436 5.960056963959958 255 255 255 255 0 
-3.133455061524127 2.210505332848416 3.413206526746496 255 255 255 255 0 
-3.668051993905178 1.708153780452432 4.105745152816676 255 255 255 255 0 
-3.297884481135008 1.325078851605381 3.245903861423196 255 255 255 255 0 
-4.603525970210736 -0.6493719918620807 4.532728190512125 255 255 255 255 0 
-5.420299623915285 -2.004622827288225 7.869602230396862 255 255 255 255 0 
-5.057152438633794 -2.00160171251253 7.052133789950646 255 255 255 255 0 
-4.364602845302224 -3.531704976587349 5.632928768632109 255 255 255 255 0 
-5.144169656062243 -3.682024398427867 8.004225707302121 255 255 255 255 0 
-4.621835082251672 -3.145867130605979 4.821643768157921 255 255 255 255 0 
-4.169299016022474 -3.976569335684336 6.423945120459458 255 255 255 255 0 
-3.725750420195816 -4.743371022560587 5.255233926198527 255 255 255 255 0 
-3.963739180245784 -5.603222304643447 3.103354481253717 255 255 255 255 0 
-3.724100537443348 -5.484286103754914 3.854533641186831 255 255 255 255 0 
-2.486140420400921 -5.926883618015563 5.888296180980509 255 255 255 255 0 
-2.007902361507333 -6.072139093197915 6.851779689475282 255 255 255 255 0 
-2.288197261320836 -6.355990668802233 5.268559612599035 255 255 255 255 0 
-1.820646989131824 -6.451210253279442 5.885551454249179 255 255 255 255 0 
-2.952910573896292 6.743139284794998 4.476657115011451 255 255 255 255 0 
-5.030883837561355 -2.858598518954458 7.293895905347602 255 255 255 255 0 
-3.419545986100268 2.509979709554982 4.055126393900661 255 255 255 255 0 
-4.590408417888599 -3.192589648358958 6.429356141887165 255 255 255 255 0 
-3.593624788931115 -4.746205454600437 6.317143047263063 255 255 255 255 0 
-5.383895093840958 2.425991860183184 7.352393278889148 255 255 255 255 0 
-5.543606124835706 1.919596668789505 8.038000322577499 255 255 255 255 0 
-4.835120740263045 1.180102578105815 6.310231605347486 255 255 255 255 0 
-3.21500162832504 0.06036275354565843 2.39399500010033 255 255 255 255 0 
-3.498654929286857 5.388541624254547 4.744737742455386 255 255 255 255 0 
-2.66038329827343 0.2992298560081697 1.785242605790515 255 255 255 255 0 
-1.267836654275916 -6.543189214615518 6.58139177717369 255 255 255 255 0 
-0.1778247702022362 -7.016881355421825 7.99758065105345 255 255 255 255 0 
-3.406610100130762 4.622003705935724 4.576429127222091 255 255 255 255 0 
-4.266040757689442 3.851459123491709 5.483541311529403 255 255 255 255 0 
-2.58104011041155 -6.539923847781081 4.579534835206287 255 255 255 255 0 
-2.859209869054724 2.78728124227775 0.8369930410375194 255 255 255 255 0 
-3.064826253047825 3.089182948459003 3.66898539153423 255 255 255 255 0 
-5.19554759267352 1.387951717217903 7.29201464044035 255 255 255 255 0 
-2.456739083066693 4.38188481926328 2.575893912640845 255 255 255 255 0 
-4.540117376502405 1.892297509669147 5.73121777325331 255 255 255 255 0 
-2.652817210208791 2.779289744261767 1.886476095287576 255 255 255 255 0 
-4.920834391549569 -1.448747160824182 6.405680840649471 255 255 255 255 0 
-4.608965975005485 -4.422248260031471 7.943957668070902 255 255 255 255 0 
-4.67818289183301 -4.815000343285099 1.654717818761304 255 255 255 255 0 
-3.189432645907638 -6.09326027265185 8.659517328964855 255 255 255 255 0 
-7.963791369864794 4.727522202465141 8.472636647527487 255 255 255 255 0 
-5.65784439650782 -0.601548074940067 8.767006224361305 255 255 255 255 0 
-3.10001876676808 4.055372067391423 4.031723872271986 255 255 255 255 0 
-4.130667579088244 0.9388002980579958 4.545792254166492 255 255 255 255 0 
-3.141836926701637 -5.351025402663462 5.64503639853985 255 255 255 255 0 
-3.82109802532386 -0.2622299407512496 3.054618876621168 255 255 255 255 0 
-4.534671561764581 0.1652035912561692 4.986638382276774 255 255 255 255 0 
-3.98621721242913 3.103372507055082 5.086616920247176 255 255 255 255 0 
-3.805351714502524 -6.975965638792938 1.944997634866145 255 255 255 255 0 
-6.059426806711853 6.283169898834007 6.133530503917918 255 255 255 255 0 
-4.145921115685415 1.724783704350247 4.961009122346706 255 255 255 255 0 
-3.447052351169077 -5.553948325182478 8.088036205888054 255 255 255 255 0 
-2.543768916467012 5.328684898629125 0.4261644918404784 255 255 255 255 0 
-4.912951270815743 -2.868617938462936 3.985526783829743 255 255 255 255 0 
-4.789132938850603 -1.797547895945601 5.592011286851764 255 255 255 255 0 
-4.650568449656476 -2.69498412691209 5.593252258642495 255 255 255 255 0 
-4.593844783358631 -3.772219511953508 7.219977025529802 255 255 255 255 0 
-3.008982831774444 -6.694740640054509 3.739263664787682 255 255 255 255 0 
-5.263464600681983 -4.449626593051685 8.607356330047274 255 255 255 255 0 
-4.279090361296379 -5.698701581074692 1.586669766699583 255 255 255 255 0 
-4.495419555944304 -5.267001287472337 0.7638764944721632 255 255 255 255 0 
-3.649967778639249 6.408421298864207 4.845863740621748 255 255 255 255 0 
-4.580254285518669 6.461388760615417 5.367614958704356 255 255 255 255 0 
-3.563048179863401 -6.143718602234324 3.368065150064947 255 255 255 255 0 
-4.062638856228486 -6.409256311215348 1.547576580339088 255 255 255 255 0 
-2.622136368723754 4.720979071524774 3.380884632403403 255 255 255 255 0 
-3.479625153103118 3.175307247043022 4.39635206190293 255 255 255 255 0 
-2.716980477037374 3.773840971792469 3.157916341965477 255 255 255 255 0 
-5.650931866955943 1.488319008894442 8.69357680807826 255 255 255 255 0 
-7.077554475995246 3.725713820555687 8.804792887213075 255 255 255 255 0 
-2.701972955070622 3.573329242815794 1.431388759124318 255 255 255 255 0 
-5.778714808139267 -1.38017440951507 8.682075927448686 255 255 255 255 0 
-9.433767225966474 5.406089106833107 8.724560417715988 255 255 255 255 0 
3 104 120 119 0 
3 104 119 117 0 
3 3 4 8 0 
3 5 6 243 0 
3 6 275 141 0 
3 264 265 11 0 
3 8 9 14 0 
3 9 243 15 0 
3 11 12 19 0 
3 20 13 26 0 
3 14 15 27 0 
3 19 20 25 0 
3 34 27 198 0 
3 27 35 198 0 
3 28 29 197 0 
3 269 31 250 0 
3 223 198 39 0 
3 198 35 39 0 
3 270 245 234 0 
3 234 269 219 0 
3 235 40 44 0 
3 41 234 200 0 
3 199 43 49 0 
3 43 44 50 0 
3 44 45 73 0 
3 225 227 78 0 
3 77 78 79 0 
3 227 82 79 0 
3 77 202 78 0 
3 49 50 54 0 
3 50 73 81 0 
3 81 244 274 0 
3 48 239 257 0 
3 239 54 205 0 
3 57 204 80 0 
3 189 53 55 0 
3 145 57 146 0 
3 207 57 145 0 
3 58 85 86 0 
3 128 261 145 0 
3 87 262 241 0 
3 66 221 89 0 
3 62 90 91 0 
3 88 92 99 0 
3 99 214 88 0 
3 94 214 99 0 
3 94 99 93 0 
3 93 99 95 0 
3 99 92 95 0 
3 160 23 161 0 
3 159 16 23 0 
3 161 22 162 0 
3 163 255 165 0 
3 163 162 255 0 
3 156 217 157 0 
3 158 157 164 0 
3 167 71 168 0 
3 168 233 169 0 
3 171 83 172 0 
3 170 74 171 0 
3 169 75 170 0 
3 74 83 171 0 
3 227 225 179 0 
3 179 225 180 0 
3 178 227 179 0 
3 252 2 153 0 
3 152 252 153 0 
3 151 3 152 0 
3 149 0 150 0 
3 153 2 154 0 
3 154 2 265 0 
3 3 252 152 0 
3 243 6 140 0 
3 147 275 148 0 
3 143 142 147 0 
3 142 275 147 0 
3 141 275 142 0 
3 140 6 141 0 
3 139 272 194 0 
3 138 35 272 0 
3 139 138 272 0 
3 137 35 138 0 
3 39 35 137 0 
3 271 39 136 0 
3 135 271 136 0 
3 45 40 271 0 
3 136 39 137 0 
3 45 134 73 0 
3 45 135 134 0 
3 132 274 133 0 
3 57 80 146 0 
3 131 130 146 0 
3 131 80 132 0 
3 80 131 146 0 
3 183 182 189 0 
3 175 173 176 0 
3 176 83 177 0 
3 174 173 175 0 
3 83 82 177 0 
3 173 172 176 0 
3 185 84 186 0 
3 84 241 186 0 
3 185 184 86 0 
3 187 263 188 0 
3 186 241 187 0 
3 190 98 191 0 
3 191 96 192 0 
3 193 106 105 0 
3 106 193 101 0 
3 106 101 107 0 
3 183 256 184 0 
3 55 183 189 0 
3 91 90 126 0 
3 256 86 184 0 
3 129 145 146 0 
3 129 128 145 0 
3 130 129 146 0 
3 95 92 123 0 
3 122 95 123 0 
3 92 242 124 0 
3 123 92 124 0 
3 127 126 144 0 
3 126 90 144 0 
3 125 91 126 0 
3 124 242 125 0 
3 128 127 144 0 
3 228 70 113 0 
3 113 70 114 0 
3 110 232 111 0 
3 108 251 97 0 
3 70 229 114 0 
3 114 229 115 0 
3 103 95 122 0 
3 121 103 122 0 
3 120 103 121 0 
3 115 102 116 0 
3 116 104 117 0 
3 102 104 116 0 
3 118 117 119 0 
3 177 82 178 0 
3 7 252 3 0 
3 4 0 5 0 
3 5 1 6 0 
3 7 12 252 0 
3 13 7 8 0 
3 9 5 243 0 
3 11 226 264 0 
3 11 265 12 0 
3 12 7 20 0 
3 20 7 13 0 
3 13 8 14 0 
3 21 13 14 0 
3 14 9 15 0 
3 18 10 226 0 
3 19 12 20 0 
3 26 13 21 0 
3 24 19 231 0 
3 231 19 25 0 
3 25 20 26 0 
3 26 21 34 0 
3 34 21 27 0 
3 32 250 231 0 
3 32 25 33 0 
3 33 26 34 0 
3 197 29 236 0 
3 245 230 31 0 
3 36 250 37 0 
3 37 32 237 0 
3 222 34 198 0 
3 233 168 71 0 
3 219 269 36 0 
3 36 37 253 0 
3 37 237 253 0 
3 43 235 44 0 
3 44 40 45 0 
3 76 74 75 0 
3 79 74 76 0 
3 41 77 238 0 
3 79 76 77 0 
3 202 200 201 0 
3 48 199 49 0 
3 49 43 50 0 
3 50 44 73 0 
3 83 74 82 0 
3 79 82 74 0 
3 78 227 79 0 
3 53 203 48 0 
3 48 49 239 0 
3 239 49 54 0 
3 54 50 81 0 
3 73 244 81 0 
3 189 203 53 0 
3 53 48 257 0 
3 56 257 239 0 
3 205 54 204 0 
3 176 172 83 0 
3 256 183 55 0 
3 258 257 56 0 
3 208 258 206 0 
3 144 90 261 0 
3 64 85 59 0 
3 242 88 254 0 
3 242 254 91 0 
3 87 63 211 0 
3 67 212 65 0 
3 89 88 66 0 
3 214 66 88 0 
3 92 88 242 0 
3 98 96 191 0 
3 216 215 213 0 
3 214 228 216 0 
3 96 193 192 0 
3 101 193 96 0 
3 95 103 93 0 
3 102 115 229 0 
3 164 217 10 0 
3 264 10 217 0 
3 255 22 28 0 
3 196 23 16 0 
3 22 196 29 0 
3 30 196 16 0 
3 236 29 30 0 
3 34 222 33 0 
3 236 270 72 0 
3 223 39 271 0 
3 246 201 253 0 
3 199 224 43 0 
3 200 202 77 0 
3 51 202 46 0 
3 47 246 249 0 
3 246 47 46 0 
3 78 51 225 0 
3 248 47 52 0 
3 54 81 204 0 
3 240 207 261 0 
3 261 207 145 0 
3 58 208 59 0 
3 59 208 206 0 
3 261 90 240 0 
3 61 240 62 0 
3 63 85 64 0 
3 64 210 65 0 
3 210 64 59 0 
3 65 210 247 0 
3 221 61 89 0 
3 211 212 266 0 
3 266 212 67 0 
3 213 68 247 0 
3 216 213 214 0 
3 69 211 266 0 
3 215 232 68 0 
3 113 112 228 0 
3 228 214 94 0 
3 70 228 94 0 
3 70 94 93 0 
3 196 22 161 0 
3 22 255 162 0 
3 159 23 160 0 
3 264 156 155 0 
3 157 217 164 0 
3 158 17 159 0 
3 17 16 159 0 
3 181 248 52 0 
3 181 180 248 0 
3 260 67 232 0 
3 109 260 110 0 
3 10 264 226 0 
3 16 17 195 0 
3 29 196 30 0 
3 268 236 30 0 
3 198 223 222 0 
3 224 38 235 0 
3 223 40 235 0 
3 40 223 271 0 
3 219 36 201 0 
3 201 200 219 0 
3 201 246 46 0 
3 203 249 48 0 
3 202 201 46 0 
3 46 47 51 0 
3 52 47 203 0 
3 218 56 205 0 
3 56 218 220 0 
3 218 57 207 0 
3 209 220 259 0 
3 209 259 61 0 
3 58 59 85 0 
3 59 60 210 0 
3 60 209 221 0 
3 221 210 60 0 
3 262 87 69 0 
3 212 211 63 0 
3 64 65 212 0 
3 18 195 10 0 
3 17 164 195 0 
3 15 243 194 0 
3 25 26 33 0 
3 229 70 93 0 
3 102 103 120 0 
3 52 203 189 0 
3 104 102 120 0 
3 66 247 221 0 
3 248 51 47 0 
3 68 67 65 0 
3 266 67 260 0 
3 181 52 182 0 
3 22 29 28 0 
3 38 222 235 0 
3 36 253 201 0 
3 220 218 259 0 
3 224 235 43 0 
3 85 63 84 0 
3 102 229 103 0 
3 28 197 273 0 
3 166 71 167 0 
3 82 227 178 0 
3 93 103 229 0 
3 223 235 222 0 
3 225 51 248 0 
3 111 232 215 0 
3 63 64 212 0 
3 68 213 215 0 
3 42 224 199 0 
3 84 63 87 0 
3 23 196 161 0 
3 233 75 169 0 
3 111 215 216 0 
3 245 31 269 0 
3 38 33 222 0 
3 202 51 78 0 
3 219 200 234 0 
3 241 84 87 0 
3 247 68 65 0 
3 230 226 24 0 
3 230 24 31 0 
3 256 58 86 0 
3 264 217 156 0 
3 228 112 216 0 
3 68 232 67 0 
3 260 232 110 0 
3 31 231 250 0 
3 231 31 24 0 
3 206 220 209 0 
3 247 210 221 0 
3 30 16 195 0 
3 230 18 226 0 
3 84 86 85 0 
3 75 233 76 0 
3 233 238 76 0 
3 41 200 77 0 
3 24 226 11 0 
3 209 60 206 0 
3 87 211 69 0 
3 36 269 250 0 
3 24 11 19 0 
3 86 84 185 0 
3 107 101 100 0 
3 6 1 275 0 
3 148 1 149 0 
3 100 101 96 0 
3 236 268 270 0 
3 32 33 38 0 
3 42 253 237 0 
3 237 224 42 0 
3 233 273 238 0 
3 56 239 205 0 
3 62 240 90 0 
3 7 3 8 0 
3 21 14 27 0 
3 238 72 41 0 
3 75 74 170 0 
3 77 76 238 0 
3 208 55 258 0 
3 97 266 260 0 
3 213 247 66 0 
3 213 66 214 0 
3 248 180 225 0 
3 197 236 72 0 
3 237 32 38 0 
3 199 249 42 0 
3 246 42 249 0 
3 249 199 48 0 
3 52 189 182 0 
3 111 216 112 0 
3 245 269 234 0 
3 237 38 224 0 
3 231 25 32 0 
3 250 32 37 0 
3 61 259 240 0 
3 242 91 125 0 
3 265 2 12 0 
3 252 12 2 0 
3 61 62 89 0 
3 246 253 42 0 
3 59 206 60 0 
3 259 207 240 0 
3 62 254 89 0 
3 58 256 208 0 
3 254 88 89 0 
3 254 62 91 0 
3 165 255 166 0 
3 209 61 221 0 
3 256 55 208 0 
3 55 257 258 0 
3 257 55 53 0 
3 249 203 47 0 
3 259 218 207 0 
3 220 206 258 0 
3 220 258 56 0 
3 97 260 109 0 
3 96 98 100 0 
3 261 128 144 0 
3 262 98 263 0 
3 158 164 17 0 
3 10 195 164 0 
3 188 263 190 0 
3 241 262 263 0 
3 241 263 187 0 
3 98 190 263 0 
3 154 265 155 0 
3 264 155 265 0 
3 107 251 108 0 
3 100 251 107 0 
3 108 97 109 0 
3 262 69 267 0 
3 267 251 100 0 
3 251 69 97 0 
3 69 266 97 0 
3 267 69 251 0 
3 262 267 98 0 
3 100 98 267 0 
3 28 273 71 0 
3 195 18 268 0 
3 270 268 245 0 
3 245 18 230 0 
3 195 268 30 0 
3 268 18 245 0 
3 72 270 41 0 
3 270 234 41 0 
3 45 271 135 0 
3 139 194 140 0 
3 272 15 194 0 
3 272 35 27 0 
3 233 71 273 0 
3 15 272 27 0 
3 244 73 134 0 
3 133 244 134 0 
3 4 5 9 0 
3 274 132 80 0 
3 274 244 133 0 
3 8 4 9 0 
3 273 72 238 0 
3 273 197 72 0 
3 4 3 151 0 
3 1 5 0 0 
3 149 1 0 0 
3 275 1 148 0 
3 218 205 204 0 
3 204 81 274 0 
3 204 274 80 0 
3 218 204 57 0 
3 194 243 140 0 
3 150 0 151 0 
3 0 4 151 0 
3 166 255 28 0 
3 166 28 71 0 
