ply
format ascii 1.0
comment VCGLIB generated
element vertex 580
property float x
property float y
property float z
property uchar red
property uchar green
property uchar blue
property uchar alpha
property float quality
element face 1052
property list uchar int vertex_indices
end_header
16.93778 12.63384 6.382703 255 255 255 255 0 
14.7995 14.61749 4.482341 255 255 255 255 0 
18.2687 9.631503 5.808237 255 255 255 255 0 
18.60524 8.735502 5.235842 255 255 255 255 0 
18.88439 7.823754 4.619671 255 255 255 255 0 
13.14664 15.22972 3.101096 255 255 255 255 0 
13.67282 14.33307 3.642807 255 255 255 255 0 
14.1659 13.22896 4.210196 255 255 255 255 0 
14.67602 12.15089 4.737151 255 255 255 255 0 
15.25242 10.99786 5.13926 255 255 255 255 0 
17.32178 9.155029 5.160191 255 255 255 255 0 
17.60769 7.870231 4.31803 255 255 255 255 0 
18.6237 6.839469 3.800433 255 255 255 255 0 
18.45884 5.708499 2.913113 255 255 255 255 0 
11.6135 14.1252 2.278878 255 255 255 255 0 
12.54415 14.13733 2.89706 255 255 255 255 0 
12.90462 12.91808 3.427826 255 255 255 255 0 
13.38563 11.75546 4.005395 255 255 255 255 0 
14.01919 10.68283 4.493092 255 255 255 255 0 
14.79811 9.421701 4.605745 255 255 255 255 0 
14.99699 8.021008 4.003918 255 255 255 255 0 
16.22713 7.354069 3.73548 255 255 255 255 0 
17.33171 5.335804 2.460796 255 255 255 255 0 
17.48038 4.039476 1.609026 255 255 255 255 0 
8.926497 15.19393 0.4519688 255 255 255 255 0 
10.54248 13.23656 1.869474 255 255 255 255 0 
11.71798 12.90559 2.690678 255 255 255 255 0 
11.86312 11.35756 3.222135 255 255 255 255 0 
12.65741 10.24104 3.89984 255 255 255 255 0 
13.45969 9.44883 4.209989 255 255 255 255 0 
13.71264 8.342969 3.960207 255 255 255 255 0 
13.82563 6.313738 2.937122 255 255 255 255 0 
14.90207 5.610037 2.47832 255 255 255 255 0 
16.07848 4.838349 2.006341 255 255 255 255 0 
8.339706 13.84579 0.5018694 255 255 255 255 0 
9.087194 12.83865 1.1966 255 255 255 255 0 
9.701458 11.6749 1.94298 255 255 255 255 0 
10.8252 11.89028 2.483676 255 255 255 255 0 
11.19459 9.617603 3.297722 255 255 255 255 0 
12.25496 8.600531 3.676317 255 255 255 255 0 
11.48107 7.367793 3.26407 255 255 255 255 0 
12.76382 7.134598 3.331354 255 255 255 255 0 
12.52306 5.775982 2.620526 255 255 255 255 0 
13.56677 5.100857 2.175421 255 255 255 255 0 
7.719474 12.50003 0.7032542 255 255 255 255 0 
8.404962 11.44395 1.403439 255 255 255 255 0 
9.501544 9.006536 2.682381 255 255 255 255 0 
10.64997 8.116863 3.167444 255 255 255 255 0 
10.29916 6.768671 2.908469 255 255 255 255 0 
11.42817 6.277966 2.876099 255 255 255 255 0 
11.35071 5.260089 2.403761 255 255 255 255 0 
12.17213 4.618935 1.998887 255 255 255 255 0 
12.86525 2.949834 0.967808 255 255 255 255 0 
4.437585 11.33368 0.4327689 255 255 255 255 0 
5.833817 11.11543 0.660427 255 255 255 255 0 
7.787181 10.31913 1.583009 255 255 255 255 0 
8.224696 8.082956 2.39484 255 255 255 255 0 
9.182891 7.440668 2.739201 255 255 255 255 0 
8.937407 6.009622 2.537044 255 255 255 255 0 
10.21296 5.503294 2.513271 255 255 255 255 0 
10.55937 4.236012 1.948385 255 255 255 255 0 
11.83136 1.138571 0.3454399 255 255 255 255 0 
5.441218 8.391627 1.633901 255 255 255 255 0 
7.565496 6.766075 2.307812 255 255 255 255 0 
7.611691 5.131905 2.191942 255 255 255 255 0 
8.971776 4.633754 2.171651 255 255 255 255 0 
9.5252 0.7079355 0.9442033 255 255 255 255 0 
9.706744 -0.4437433 0.7606931 255 255 255 255 0 
2.629478 9.423636 1.440166 255 255 255 255 0 
3.778371 8.609699 1.521513 255 255 255 255 0 
4.514712 7.126156 1.83814 255 255 255 255 0 
5.117717 6.031267 1.868631 255 255 255 255 0 
6.281948 5.641516 1.998038 255 255 255 255 0 
6.384045 4.1695 1.90505 255 255 255 255 0 
8.507068 -0.2169212 1.291819 255 255 255 255 0 
2.282567 8.30627 1.999422 255 255 255 255 0 
3.054632 7.089746 1.975765 255 255 255 255 0 
3.768182 5.628695 1.768313 255 255 255 255 0 
5.115556 3.276546 1.695836 255 255 255 255 0 
4.994641 1.752251 1.863311 255 255 255 255 0 
6.122187 0.9669815 2.086953 255 255 255 255 0 
-0.2581608 6.382523 3.501761 255 255 255 255 0 
0.8353627 5.79229 2.661492 255 255 255 255 0 
2.200896 5.83737 1.994467 255 255 255 255 0 
3.53827 0.8808166 1.971345 255 255 255 255 0 
4.877166 0.3329862 2.394361 255 255 255 255 0 
-0.4411632 5.055739 3.052275 255 255 255 255 0 
0.3978769 4.465213 2.102858 255 255 255 255 0 
2.04292 0.2433722 1.899703 255 255 255 255 0 
3.751071 -0.4741784 2.809765 255 255 255 255 0 
-1.659574 4.498554 3.404213 255 255 255 255 0 
-0.8519005 3.862832 2.308369 255 255 255 255 0 
-0.1497121 0.3679854 1.027743 255 255 255 255 0 
0.6291615 -0.4301168 1.823148 255 255 255 255 0 
1.428246 -1.003187 2.704751 255 255 255 255 0 
-3.516588 3.116488 3.251657 255 255 255 255 0 
-2.261701 3.200325 2.58129 255 255 255 255 0 
-1.409906 -1.928319 2.159259 255 255 255 255 0 
-0.07103121 -1.75219 2.693123 255 255 255 255 0 
-6.485169 3.765456 4.966293 255 255 255 255 0 
-4.559644 2.505656 3.266731 255 255 255 255 0 
-2.594373 -2.669516 2.302951 255 255 255 255 0 
-1.345019 -2.841072 3.08356 255 255 255 255 0 
-1.372989 -3.999979 4.121363 255 255 255 255 0 
-8.634622 5.394079 4.980436 255 255 255 255 0 
-7.905207 3.378816 4.937272 255 255 255 255 0 
-6.870939 2.533936 4.339885 255 255 255 255 0 
-6.083899 0.6484464 2.702672 255 255 255 255 0 
-3.955874 -3.464347 2.58142 255 255 255 255 0 
-2.571342 -5.02633 4.219955 255 255 255 255 0 
-10.32388 4.12357 4.793165 255 255 255 255 0 
-9.389212 2.992141 4.84835 255 255 255 255 0 
-8.293587 2.028135 4.442132 255 255 255 255 0 
-7.147045 1.325327 3.665679 255 255 255 255 0 
-7.362917 0.09354222 3.133983 255 255 255 255 0 
-5.335283 -4.122049 2.95228 255 255 255 255 0 
-3.950689 -4.616958 3.538211 255 255 255 255 0 
-3.255196 -7.536559 4.866272 255 255 255 255 0 
-2.882395 -8.886936 4.788244 255 255 255 255 0 
-11.87418 3.968465 4.441771 255 255 255 255 0 
-10.95233 2.748174 4.764284 255 255 255 255 0 
-9.958132 1.386092 4.588443 255 255 255 255 0 
-8.471681 0.6817023 3.954735 255 255 255 255 0 
-5.465266 -6.535815 4.36415 255 255 255 255 0 
-4.635506 -7.54373 4.706707 255 255 255 255 0 
-3.974317 -8.50132 4.801325 255 255 255 255 0 
-3.976122 -9.642581 4.618011 255 255 255 255 0 
-4.010609 -10.92102 4.17676 255 255 255 255 0 
-2.980689 -11.60107 3.70748 255 255 255 255 0 
-14.76286 5.550469 2.859488 255 255 255 255 0 
-14.21855 4.606565 3.491363 255 255 255 255 0 
-13.40071 3.630617 4.107853 255 255 255 255 0 
-12.45106 2.495381 4.577771 255 255 255 255 0 
-11.54363 1.535942 4.737522 255 255 255 255 0 
-11.31081 0.2615803 4.702602 255 255 255 255 0 
-11.15684 -1.151448 4.714878 255 255 255 255 0 
-10.06419 -1.881476 4.266034 255 255 255 255 0 
-9.105256 -2.819204 3.84289 255 255 255 255 0 
-9.3356 -4.101526 4.317973 255 255 255 255 0 
-8.180774 -5.148462 4.175191 255 255 255 255 0 
-7.670763 -6.449777 4.513604 255 255 255 255 0 
-7.216166 -7.775637 4.77021 255 255 255 255 0 
-5.965052 -7.803749 4.667843 255 255 255 255 0 
-5.085714 -8.860992 4.741242 255 255 255 255 0 
-5.202926 -10.23942 4.494221 255 255 255 255 0 
-5.204374 -11.54308 4.037282 255 255 255 255 0 
-4.150749 -11.98063 3.69973 255 255 255 255 0 
-3.560972 -12.91578 3.105224 255 255 255 255 0 
-15.62542 4.447546 2.986878 255 255 255 255 0 
-14.9954 3.173321 3.72434 255 255 255 255 0 
-13.8999 2.13815 4.366817 255 255 255 255 0 
-12.89607 0.9057721 4.757419 255 255 255 255 0 
-12.54872 -0.6449116 4.982973 255 255 255 255 0 
-12.262 -1.986972 5.203416 255 255 255 255 0 
-11.1191 -2.305465 4.865225 255 255 255 255 0 
-10.34702 -3.140518 4.648777 255 255 255 255 0 
-10.64654 -4.411049 5.177142 255 255 255 255 0 
-9.634687 -5.346649 4.917693 255 255 255 255 0 
-8.733011 -7.591314 5.080119 255 255 255 255 0 
-8.022018 -9.037082 4.96219 255 255 255 255 0 
-6.473288 -10.95574 4.376061 255 255 255 255 0 
-6.42796 -12.25411 3.865065 255 255 255 255 0 
-5.099375 -12.72355 3.457054 255 255 255 255 0 
-4.807338 -13.88646 2.766526 255 255 255 255 0 
-4.712207 -14.85673 2.158356 255 255 255 255 0 
-17.08735 4.209768 2.469169 255 255 255 255 0 
-16.48353 3.176692 3.168284 255 255 255 255 0 
-16.08039 2.198802 3.709662 255 255 255 255 0 
-15.22116 1.596413 4.195611 255 255 255 255 0 
-14.32289 0.8893183 4.617241 255 255 255 255 0 
-14.0125 -0.2667962 4.97737 255 255 255 255 0 
-13.65797 -1.565492 5.359966 255 255 255 255 0 
-11.88966 -4.884418 6.000701 255 255 255 255 0 
-10.89673 -5.735813 5.715183 255 255 255 255 0 
-9.943929 -6.664643 5.426776 255 255 255 255 0 
-10.24551 -8.100273 5.732967 255 255 255 255 0 
-9.410513 -9.128675 5.329515 255 255 255 255 0 
-8.828045 -10.06948 4.995058 255 255 255 255 0 
-7.764526 -10.42228 4.687304 255 255 255 255 0 
-7.737494 -11.76539 4.252101 255 255 255 255 0 
-6.404316 -13.58497 3.176018 255 255 255 255 0 
-5.738018 -14.54812 2.522378 255 255 255 255 0 
-5.718866 -15.45605 1.956566 255 255 255 255 0 
-19.25223 5.138731 0.9898627 255 255 255 255 0 
-18.5334 3.904254 1.933395 255 255 255 255 0 
-17.87882 2.857036 2.712393 255 255 255 255 0 
-17.25876 1.859655 3.406321 255 255 255 255 0 
-16.50626 0.9721388 4.050397 255 255 255 255 0 
-15.47976 0.07993734 4.654045 255 255 255 255 0 
-15.03473 -1.220667 5.21064 255 255 255 255 0 
-14.49624 -3.725364 6.399935 255 255 255 255 0 
-13.12344 -4.241046 6.283562 255 255 255 255 0 
-12.97264 -5.576568 6.739458 255 255 255 255 0 
-11.96868 -6.042518 6.359723 255 255 255 255 0 
-10.82532 -9.504108 5.811078 255 255 255 255 0 
-10.0288 -10.47914 5.227119 255 255 255 255 0 
-8.993233 -11.24219 4.684451 255 255 255 255 0 
-9.03969 -12.74222 4.056507 255 255 255 255 0 
-8.037059 -13.89918 3.256365 255 255 255 255 0 
-6.961823 -14.81456 2.552002 255 255 255 255 0 
-7.248678 -16.10681 1.785912 255 255 255 255 0 
-20.65157 4.547798 0.5450324 255 255 255 255 0 
-19.32694 2.529535 2.209448 255 255 255 255 0 
-18.65741 1.526609 2.991134 255 255 255 255 0 
-18.03756 0.3890609 3.785198 255 255 255 255 0 
-16.94625 -0.3770434 4.511299 255 255 255 255 0 
-17.15753 -1.627536 5.077676 255 255 255 255 0 
-15.8553 -3.277658 6.208392 255 255 255 255 0 
-15.66337 -4.563456 6.984454 255 255 255 255 0 
-14.26141 -5.084111 7.01067 255 255 255 255 0 
-13.91738 -6.43386 7.384404 255 255 255 255 0 
-12.71383 -6.864706 6.898089 255 255 255 255 0 
-12.48198 -8.206267 6.80699 255 255 255 255 0 
-12.34525 -9.66358 6.470765 255 255 255 255 0 
-10.42435 -11.88089 4.795057 255 255 255 255 0 
-8.49507 -15.12762 2.622907 255 255 255 255 0 
-7.512689 -17.96457 0.5528024 255 255 255 255 0 
-20.80894 2.310818 1.611403 255 255 255 255 0 
-20.46607 -0.2028991 3.114321 255 255 255 255 0 
-19.3663 -0.6194912 3.809797 255 255 255 255 0 
-18.24045 -1.075914 4.469483 255 255 255 255 0 
-18.29116 -3.562407 5.971921 255 255 255 255 0 
-17.01852 -4.047365 6.582867 255 255 255 255 0 
-16.89676 -5.326556 7.449435 255 255 255 255 0 
-15.39689 -6.116395 7.740332 255 255 255 255 0 
-14.62836 -8.563736 7.909224 255 255 255 255 0 
-13.57794 -10.23214 6.873279 255 255 255 255 0 
-12.98311 -10.82646 6.305719 255 255 255 255 0 
-11.94705 -12.50729 4.978425 255 255 255 255 0 
-11.10361 -14.61045 3.511399 255 255 255 255 0 
-10.5695 -16.46327 2.182982 255 255 255 255 0 
-9.630678 -17.31802 1.398787 255 255 255 255 0 
-22.40275 2.069643 0.9360516 255 255 255 255 0 
-22.72608 0.6993374 1.557729 255 255 255 255 0 
-21.74155 -1.045223 3.049991 255 255 255 255 0 
-20.61511 -1.44281 3.779621 255 255 255 255 0 
-19.44425 -4.276258 6.109045 255 255 255 255 0 
-19.37009 -5.457627 7.001317 255 255 255 255 0 
-18.16166 -6.008263 7.739154 255 255 255 255 0 
-16.17855 -10.77495 7.939538 255 255 255 255 0 
-14.73778 -10.15479 7.49523 255 255 255 255 0 
-12.69805 -15.28335 3.538914 255 255 255 255 0 
-11.3642 -18.56859 0.8880249 255 255 255 255 0 
-22.93825 -2.01316 3.121672 255 255 255 255 0 
-21.8233 -2.301202 3.798454 255 255 255 255 0 
-20.51787 -6.185447 7.085222 255 255 255 255 0 
-19.39173 -6.718433 7.907808 255 255 255 255 0 
-19.49553 -8.143139 8.818892 255 255 255 255 0 
-18.23291 -8.787086 9.278711 255 255 255 255 0 
-17.58162 -11.38159 8.245857 255 255 255 255 0 
-16.64434 -12.15642 7.253035 255 255 255 255 0 
-15.71698 -12.91244 6.294871 255 255 255 255 0 
-13.78069 -16.47926 3.059293 255 255 255 255 0 
-22.87445 -4.382743 4.729092 255 255 255 255 0 
-22.7677 -5.498179 5.566886 255 255 255 255 0 
-21.70133 -6.90323 7.090116 255 255 255 255 0 
-20.6758 -7.475463 7.99334 255 255 255 255 0 
-19.04763 -11.95678 8.449947 255 255 255 255 0 
-18.06206 -12.71063 7.45733 255 255 255 255 0 
-17.05375 -13.45199 6.462804 255 255 255 255 0 
-17.30466 -14.71964 5.599035 255 255 255 255 0 
-22.7552 -7.414592 6.946789 255 255 255 255 0 
-22.16918 -8.290014 7.88929 255 255 255 255 0 
-19.54088 -13.18032 7.660353 255 255 255 255 0 
-23.11546 -11.90687 9.85343 255 255 255 255 0 
17.48635 11.47623 6.592164 255 255 255 255 0 
18.45901 10.52327 6.572101 255 255 255 255 0 
18.50539 11.68278 7.458369 255 255 255 255 0 
17.28878 10.29378 5.881902 255 255 255 255 0 
2.565214 3.208901 1.227484 255 255 255 255 0 
3.830911 3.993937 1.507379 255 255 255 255 0 
2.539076 4.593597 1.588277 255 255 255 255 0 
3.790944 2.460565 1.46067 255 255 255 255 0 
5.976586 -0.3050324 2.456691 255 255 255 255 0 
0.6521618 7.036745 2.988883 255 255 255 255 0 
1.266767 2.560251 0.9784086 255 255 255 255 0 
1.391041 3.859833 1.45073 255 255 255 255 0 
5.106599 -0.9515759 3.053864 255 255 255 255 0 
-1.14409 5.616556 3.888986 255 255 255 255 0 
0.3042435 1.983996 0.8105691 255 255 255 255 0 
1.150633 0.9970948 1.147842 255 255 255 255 0 
2.596518 -2.204086 4.229695 255 255 255 255 0 
-3.70968 4.947334 4.935356 255 255 255 255 0 
-2.174298 1.891306 1.451026 255 255 255 255 0 
0.8889997 -4.61267 5.278345 255 255 255 255 0 
-4.245376 3.624131 4.129099 255 255 255 255 0 
-5.105939 4.200755 4.947463 255 255 255 255 0 
-4.074885 0.1895278 1.281242 255 255 255 255 0 
-3.241961 1.045501 1.368446 255 255 255 255 0 
-2.448028 -1.461249 1.379806 255 255 255 255 0 
-0.1528518 -4.270926 4.827619 255 255 255 255 0 
0.04038191 -5.602712 5.296263 255 255 255 255 0 
-7.506348 4.871207 5.171714 255 255 255 255 0 
-5.920245 5.002727 5.359091 255 255 255 255 0 
-5.197596 -0.1999285 1.669286 255 255 255 255 0 
-3.977611 -2.32864 1.706611 255 255 255 255 0 
-0.8290441 -6.760616 5.14693 255 255 255 255 0 
-1.259609 -5.308065 4.90746 255 255 255 255 0 
-6.641487 -2.114696 2.281152 255 255 255 255 0 
-5.355564 -2.961906 2.171171 255 255 255 255 0 
-5.385245 -1.753863 1.593751 255 255 255 255 0 
-7.886464 -2.486467 3.033714 255 255 255 255 0 
-7.643935 -1.173922 2.877253 255 255 255 255 0 
-6.721087 -3.406701 2.762798 255 255 255 255 0 
-16.86282 -6.712921 8.283302 255 255 255 255 0 
-15.8164 -9.232767 8.395653 255 255 255 255 0 
-16.95394 -8.229975 8.817709 255 255 255 255 0 
-18.19435 -7.346113 8.606216 255 255 255 255 0 
-17.15405 -9.864968 8.813425 255 255 255 255 0 
-18.58633 -10.57687 9.05043 255 255 255 255 0 
-20.03726 -11.26799 9.333906 255 255 255 255 0 
-22.47398 -10.71861 9.621912 255 255 255 255 0 
-0.8774301 1.10286 0.6774366 255 255 255 255 0 
-2.936932 -0.3624254 0.7927966 255 255 255 255 0 
-2.064637 0.7478435 0.7358726 255 255 255 255 0 
-4.076561 -1.163768 1.093322 255 255 255 255 0 
-19.58865 -9.983255 9.677164 255 255 255 255 0 
-21.05473 -10.43447 9.839876 255 255 255 255 0 
-21.57602 -11.88716 9.591223 255 255 255 255 0 
8.583106 16.42141 4.768372e-07 255 0 0 255 0 
8.347466 15.90027 4.768372e-07 255 0 0 255 0 
7.701101 14.69541 4.768372e-07 255 0 0 255 0 
6.779311 13.54988 4.768372e-07 255 0 0 255 0 
5.349623 12.61571 4.768372e-07 255 0 0 255 0 
3.791279 12.61098 4.768372e-07 255 0 0 255 0 
6.549779 12.18314 0.4285292 255 255 255 255 0 
3.118134 11.76189 0.3754465 255 255 255 255 0 
2.164813 10.53488 1.089913 255 255 255 255 0 
1.350063 9.513765 1.866221 255 255 255 255 0 
0.7333534 8.796247 2.509742 255 255 255 255 0 
-0.1801212 7.889509 3.434093 255 255 255 255 0 
-1.395787 7.021652 4.446318 255 255 255 255 0 
-2.897016 6.422598 5.208744 255 255 255 255 0 
-4.068706 6.192271 5.462919 255 255 255 255 0 
-5.034467 6.110639 5.490592 255 255 255 255 0 
-6.519607 6.100727 5.297166 255 255 255 255 0 
-7.999838 6.155229 4.952118 255 255 255 255 0 
-8.988886 6.217158 4.658302 255 255 255 255 0 
-9.979383 6.288188 4.327145 255 255 255 255 0 
-11.46597 6.396544 3.770312 255 255 255 255 0 
-12.95644 6.496167 3.17033 255 255 255 255 0 
-13.9576 6.548493 2.746173 255 255 255 255 0 
-15.44574 6.586969 2.095248 255 255 255 255 0 
-16.91733 6.56954 1.442827 255 255 255 255 0 
-18.36753 6.445834 0.8046067 255 255 255 255 0 
-19.32052 6.299319 0.3937903 255 255 255 255 0 
-20.29468 6.041873 4.768426e-07 255 0 0 255 0 
-21.28646 4.947349 4.76847e-07 255 0 0 255 0 
-21.87979 4.3064 4.768497e-07 255 0 0 255 0 
-22.9716 3.188826 4.768544e-07 255 0 0 255 0 
-23.47371 2.707059 4.768565e-07 255 0 0 255 0 
-23.84978 1.012814 0.8026856 255 255 255 255 0 
-23.94672 0.221577 1.237836 255 255 255 255 0 
-24.00443 -0.5830132 1.714235 255 255 255 255 0 
-24.04258 -1.940145 2.569931 255 255 255 255 0 
-24.02696 -3.036386 3.302032 255 255 255 255 0 
-23.98496 -4.001496 3.97208 255 255 255 255 0 
-23.88695 -5.518864 5.067195 255 255 255 255 0 
-23.81587 -6.349401 5.681501 255 255 255 255 0 
-23.73135 -7.182032 6.299955 255 255 255 255 0 
-23.60593 -8.292925 7.139441 255 255 255 255 0 
-23.47764 -9.406666 8.039547 255 255 255 255 0 
-23.32908 -10.77453 9.27408 255 255 255 255 0 
-22.05734 -12.79737 9.06756 255 255 255 255 0 
-21.01948 -13.55174 7.922968 255 255 255 255 0 
-20.00657 -14.30568 6.924995 255 255 255 255 0 
-19.33161 -14.80265 6.29998 255 255 255 255 0 
-18.42544 -15.4518 5.476419 255 255 255 255 0 
-17.39556 -16.15672 4.563108 255 255 255 255 0 
-16.12304 -16.98489 3.491727 255 255 255 255 0 
-14.94787 -17.69299 2.570147 255 255 255 255 0 
-13.75379 -18.33837 1.714635 255 255 255 255 0 
-12.6618 -18.84583 1.019944 255 255 255 255 0 
-11.30656 -19.34749 0.2909265 255 255 255 255 0 
-10.63855 -19.52408 4.768356e-07 255 0 0 255 0 
-9.133786 -19.11213 4.768372e-07 255 0 0 255 0 
-7.774731 -18.78749 4.768372e-07 255 0 0 255 0 
-6.160994 -18.43839 4.768372e-07 255 0 0 255 0 
-5.29499 -17.54003 0.494778 255 255 255 255 0 
-4.555089 -16.58479 1.014201 255 255 255 255 0 
-4.014429 -15.77588 1.443589 255 255 255 255 0 
-3.263144 -14.50928 2.096432 255 255 255 255 0 
-2.552503 -13.20129 2.747298 255 255 255 255 0 
-2.097453 -12.30842 3.171255 255 255 255 255 0 
-1.438776 -10.96836 3.77095 255 255 255 255 0 
-0.7895749 -9.627264 4.327518 255 255 255 255 0 
-0.1356366 -8.290719 4.805359 255 255 255 255 0 
0.5387878 -6.971047 5.202237 255 255 255 255 0 
1.272365 -5.681359 5.441324 255 255 255 255 0 
2.232216 -4.273831 5.428283 255 255 255 255 0 
2.948812 -3.480749 5.172314 255 255 255 255 0 
4.136786 -2.561445 4.446441 255 255 255 255 0 
5.276759 -2.020846 3.600613 255 255 255 255 0 
6.738107 -1.604811 2.509935 255 255 255 255 0 
7.66782 -1.429466 1.866415 255 255 255 255 0 
8.843767 -1.250789 1.153837 255 255 255 255 0 
9.552519 -1.152317 0.7867189 255 255 255 255 0 
10.97105 -0.9532281 0.2077467 255 255 255 255 0 
11.57098 -0.8638688 4.768372e-07 255 0 0 255 0 
10.84462 0.1459116 0.3684576 255 255 255 255 0 
11.79997 -0.2037197 4.768372e-07 255 0 0 255 0 
12.91362 0.8760437 4.76849e-07 255 0 0 255 0 
14.66079 1.420049 4.768372e-07 255 0 0 255 0 
16.18283 1.474753 4.768372e-07 255 0 0 255 0 
17.26685 1.380746 4.768372e-07 255 0 0 255 0 
13.07706 1.963732 0.4588247 255 255 255 255 0 
16.92134 2.748716 0.7393699 255 255 255 255 0 
17.70521 1.820425 0.2563928 255 255 255 255 0 
18.65784 3.082896 1.106607 255 255 255 255 0 
19.08528 3.962126 1.761271 255 255 255 255 0 
19.41046 4.92988 2.515563 255 255 255 255 0 
19.60044 5.833224 3.242054 255 255 255 255 0 
19.76633 7.301401 4.459706 255 255 255 255 0 
19.78232 8.400528 5.387278 255 255 255 255 0 
19.72472 9.516036 6.349928 255 255 255 255 0 
19.5989 10.63644 7.34988 255 255 255 255 0 
19.41336 11.8319 8.389397 255 255 255 255 0 
19.34211 12.60602 8.932281 255 255 255 255 0 
18.54234 13.18759 8.220922 255 255 255 255 0 
17.76522 13.81287 7.350353 255 255 255 255 0 
16.85808 14.4819 6.350645 255 255 255 255 0 
15.92109 15.08944 5.388218 255 255 255 255 0 
15.2051 15.50055 4.689851 255 255 255 255 0 
14.35034 15.91292 3.897911 255 255 255 255 0 
12.98106 16.42887 2.720354 255 255 255 255 0 
11.72999 16.70525 1.762791 255 255 255 255 0 
10.7546 16.77497 1.107794 255 255 255 255 0 
9.18452 16.58156 0.2570674 255 255 255 255 0 
-22.93754 -3.197221 3.89521 255 255 255 255 0 
-15.73365 -15.80731 4.205462 255 255 255 255 0 
18.35773 4.781401 2.241664 255 255 255 255 0 
9.70185 14.32339 1.080056 255 255 255 255 0 
11.84934 3.49412 1.4177 255 255 255 255 0 
4.945048 9.871262 1.07697 255 255 255 255 0 
10.51534 2.850085 1.348637 255 255 255 255 0 
7.218175 -0.01110113 1.949756 255 255 255 255 0 
1.091346 8.101342 2.567766 255 255 255 255 0 
1.674288 7.025669 2.373301 255 255 255 255 0 
-8.917355 4.349456 5.003861 255 255 255 255 0 
-2.293883 -6.407268 4.878612 255 255 255 255 0 
-1.821527 -7.887205 4.967876 255 255 255 255 0 
-17.74544 5.27948 1.669612 255 255 255 255 0 
-5.588226 -16.47412 1.269099 255 255 255 255 0 
-19.97204 3.592884 1.375381 255 255 255 255 0 
-8.159245 -17.17907 1.211652 255 255 255 255 0 
-6.671709 -17.29433 0.893394 255 255 255 255 0 
-21.43318 3.323777 0.7625242 255 255 255 255 0 
-20.23178 1.157615 2.486308 255 255 255 255 0 
-18.3308 -2.352534 5.169744 255 255 255 255 0 
-21.6082 0.2221416 2.367478 255 255 255 255 0 
-19.51633 -3.104624 5.252916 255 255 255 255 0 
-13.39788 -13.10775 5.177241 255 255 255 255 0 
-12.20062 -16.64884 2.468785 255 255 255 255 0 
-20.65793 -3.859588 5.335265 255 255 255 255 0 
-15.17862 -14.71677 4.780774 255 255 255 255 0 
12.1691 15.29428 2.388155 255 255 255 255 0 
-9.658196 5.28716 4.718373 255 255 255 255 0 
-22.9988 -0.6262385 2.223883 255 255 255 255 0 
-1.615617 -9.350677 4.547903 255 255 255 255 0 
17.40421 6.537285 3.334357 255 255 255 255 0 
7.12825 11.18725 0.9979251 255 255 255 255 0 
6.566648 9.705736 1.403799 255 255 255 255 0 
0.2182501 3.245912 1.454022 255 255 255 255 0 
3.895454 -1.507457 3.68204 255 255 255 255 0 
-0.0886817 -2.995578 3.874163 255 255 255 255 0 
-6.441156 -0.7135464 2.243554 255 255 255 255 0 
-8.38693 -0.4324564 3.566156 255 255 255 255 0 
-8.825123 -1.514175 3.590363 255 255 255 255 0 
-8.015983 -3.790976 3.501535 255 255 255 255 0 
-14.61142 -7.283297 7.887628 255 255 255 255 0 
-9.038891 -16.26982 1.995288 255 255 255 255 0 
-21.55247 1.291019 1.797521 255 255 255 255 0 
-20.89281 -8.927404 8.962461 255 255 255 255 0 
-20.54716 -12.45252 8.674595 255 255 255 255 0 
15.84938 3.568999 1.186108 255 255 255 255 0 
-11.06318 -17.52486 1.568432 255 255 255 255 0 
-14.99404 -16.47787 3.458616 255 255 255 255 0 
6.502962 2.525615 1.859303 255 255 255 255 0 
-5.537752 3.050241 4.231292 255 255 255 255 0 
-5.335979 -5.29689 3.773491 255 255 255 255 0 
-13.33783 -2.871643 5.790176 255 255 255 255 0 
-11.41904 -8.546275 6.244471 255 255 255 255 0 
-16.02643 -2.079659 5.513022 255 255 255 255 0 
-10.72708 -13.30421 4.186749 255 255 255 255 0 
-12.27507 -13.8574 4.32205 255 255 255 255 0 
-14.36569 -15.49348 3.941524 255 255 255 255 0 
-16.33726 -15.08775 4.953694 255 255 255 255 0 
-2.781631 -10.26759 4.307723 255 255 255 255 0 
10.34077 10.56996 2.648586 255 255 255 255 0 
5.96165 7.006825 1.956185 255 255 255 255 0 
9.129882 3.314103 1.741903 255 255 255 255 0 
8.006033 2.347994 1.727045 255 255 255 255 0 
-2.622138 -3.763463 3.319305 255 255 255 255 0 
-8.813393 -6.198717 4.840354 255 255 255 255 0 
-19.33023 0.4494461 3.242436 255 255 255 255 0 
-11.66704 -10.99026 5.659871 255 255 255 255 0 
-19.49165 -1.877938 4.486354 255 255 255 255 0 
-14.06467 -11.23179 6.609664 255 255 255 255 0 
-20.55146 -5.008249 6.201647 255 255 255 255 0 
-18.53354 -14.09079 6.554995 255 255 255 255 0 
-22.70677 -6.490199 6.30452 255 255 255 255 0 
16.16633 8.614659 4.546063 255 255 255 255 0 
11.00859 14.93941 1.698963 255 255 255 255 0 
15.03544 6.829131 3.29614 255 255 255 255 0 
16.16642 6.100547 2.875856 255 255 255 255 0 
11.79282 2.347269 0.8539024 255 255 255 255 0 
5.091966 4.781682 1.761165 255 255 255 255 0 
1.465991 4.90543 1.947659 255 255 255 255 0 
2.442451 1.711214 1.286444 255 255 255 255 0 
-2.224322 5.367511 4.444547 255 255 255 255 0 
-3.432839 2.211927 2.312631 255 255 255 255 0 
-15.66015 -7.671598 8.331667 255 255 255 255 0 
-4.754631 5.243651 5.368707 255 255 255 255 0 
-21.82601 -3.502423 4.587828 255 255 255 255 0 
14.66778 4.338389 1.666398 255 255 255 255 0 
-9.733756 -0.3670684 4.197708 255 255 255 255 0 
-11.80678 -3.395143 5.45114 255 255 255 255 0 
-17.12735 -2.838963 5.760985 255 255 255 255 0 
-10.02645 -15.38575 2.760749 255 255 255 255 0 
-18.20191 -4.770911 6.829858 255 255 255 255 0 
-13.78501 -14.33086 4.535075 255 255 255 255 0 
-16.06401 -14.08207 5.58742 255 255 255 255 0 
-11.01879 5.242807 4.351817 255 255 255 255 0 
-13.62815 -7.751449 7.438457 255 255 255 255 0 
14.06852 7.366124 3.551137 255 255 255 255 0 
8.945477 10.30758 2.079213 255 255 255 255 0 
7.211818 1.39846 1.79407 255 255 255 255 0 
-13.09963 -11.8834 5.819482 255 255 255 255 0 
-9.576967 -14.18462 3.396615 255 255 255 255 0 
-21.72872 -4.648455 5.428714 255 255 255 255 0 
-20.69574 -2.679206 4.516212 255 255 255 255 0 
-15.30861 -11.64466 6.971781 255 255 255 255 0 
-14.41322 -12.43352 6.065809 255 255 255 255 0 
-14.73842 -2.433457 5.791236 255 255 255 255 0 
-8.730927 -18.11323 0.6470958 255 255 255 255 0 
10.22633 15.76933 1.039201 255 255 255 255 0 
16.42324 11.30775 5.784664 255 255 255 255 0 
-10.09888 -18.35439 0.7538412 255 255 255 255 0 
-14.76854 -13.60207 5.410667 255 255 255 255 0 
6.939218 8.156933 1.969834 255 255 255 255 0 
9.319673 1.997235 1.351877 255 255 255 255 0 
8.273061 1.062192 1.469926 255 255 255 255 0 
-21.6323 -5.758206 6.273028 255 255 255 255 0 
7.978612 9.210582 2.047829 255 255 255 255 0 
7.730745 3.684943 1.955834 255 255 255 255 0 
-11.33062 -15.66922 2.892225 255 255 255 255 0 
-2.945483 4.105816 3.838208 255 255 255 255 0 
-13.42803 -17.38796 2.306221 255 255 255 255 0 
13.24112 3.915274 1.482922 255 255 255 255 0 
-6.732345 -4.668682 3.504435 255 255 255 255 0 
-12.41822 -17.86877 1.669337 255 255 255 255 0 
-11.36373 -7.164369 6.221411 255 255 255 255 0 
16.13978 9.918828 5.256433 255 255 255 255 0 
3.534871 10.23912 0.9506925 255 255 255 255 0 
-6.56708 -6.315665 4.294777 255 255 255 255 0 
10.61985 1.559145 0.8191429 255 255 255 255 0 
-16.14855 -1.051763 4.974231 255 255 255 255 0 
-22.22504 -9.745775 8.948885 255 255 255 255 0 
-3.931631 -6.103737 4.377964 255 255 255 255 0 
-7.573748 -12.85311 3.738087 255 255 255 255 0 
15.58197 2.442365 0.5394586 255 255 255 255 0 
14.28908 2.962412 0.8535142 255 255 255 255 0 
17.81811 12.59328 7.19172 255 255 255 255 0 
-5.82393 1.901647 3.395095 255 255 255 255 0 
-0.9859025 2.596403 1.486201 255 255 255 255 0 
-0.8139508 -0.938141 1.621167 255 255 255 255 0 
-4.64808 1.230146 2.240895 255 255 255 255 0 
15.35763 13.57878 5.094749 255 255 255 255 0 
15.82944 12.4602 5.507601 255 255 255 255 0 
-13.5701 -9.127939 7.234249 255 255 255 255 0 
-1.552601 -0.1345228 0.970498 255 255 255 255 0 
1.166348 -2.014729 3.560465 255 255 255 255 0 
-6.548775 -9.296919 4.728623 255 255 255 255 0 
-16.22191 5.448797 2.281389 255 255 255 255 0 
1.317895 -3.26266 4.688145 255 255 255 255 0 
16.50256 13.71988 6.047915 255 255 255 255 0 
2.464447 -1.306998 3.220421 255 255 255 255 0 
-13.05508 5.832222 3.411345 255 255 255 255 0 
2.618239 -0.3316218 2.530951 255 255 255 255 0 
-12.72963 5.040313 3.843488 255 255 255 255 0 
3 562 267 418 
3 28 18 17 
3 28 17 27 
3 99 293 292 
3 320 24 427 
3 320 427 319 
3 427 24 535 
3 416 417 418 
3 522 338 339 
3 254 253 357 
3 254 357 358 
3 359 261 500 
3 384 385 458 
3 473 318 363 
3 486 260 368 
3 368 369 429 
3 2 414 266 
3 7 567 1 
3 536 0 568 
3 536 265 0 
3 268 265 536 
3 2 266 268 
3 552 10 268 
3 11 3 10 
3 12 4 11 
3 15 6 5 
3 16 7 6 
3 17 8 7 
3 18 9 8 
3 19 552 9 
3 18 19 9 
3 22 13 459 
3 13 22 430 
3 24 431 535 
3 25 14 502 
3 27 17 16 
3 35 25 431 
3 54 323 53 
3 44 322 325 
3 505 61 405 
3 66 67 399 
3 74 66 541 
3 72 71 506 
3 270 78 506 
3 79 477 78 
3 77 83 271 
3 272 78 270 
3 79 78 272 
3 84 79 272 
3 273 435 80 
3 85 277 273 
3 80 85 273 
3 278 81 331 
3 81 278 86 
3 86 82 81 
3 276 271 507 
3 87 462 276 
3 275 269 276 
3 84 272 508 
3 88 84 508 
3 87 91 462 
3 92 280 279 
3 280 508 275 
3 280 92 93 
3 88 508 280 
3 93 88 280 
3 281 391 463 
3 312 279 564 
3 283 314 312 
3 564 283 312 
3 92 279 312 
3 93 92 565 
3 99 286 293 
3 285 282 286 
3 478 286 99 
3 285 478 100 
3 100 95 285 
3 288 313 314 
3 283 288 314 
3 288 287 313 
3 101 97 289 
3 98 102 464 
3 290 284 574 
3 105 99 292 
3 99 105 106 
3 478 99 106 
3 294 300 315 
3 287 294 315 
3 289 313 315 
3 295 289 315 
3 101 289 295 
3 108 101 295 
3 439 297 109 
3 439 296 297 
3 296 291 297 
3 522 110 456 
3 105 438 111 
3 107 114 465 
3 298 300 465 
3 299 295 300 
3 108 295 299 
3 115 108 299 
3 120 111 110 
3 121 111 120 
3 114 466 302 
3 301 298 302 
3 115 299 303 
3 554 479 549 
3 126 118 125 
3 131 119 579 
3 132 120 119 
3 133 121 120 
3 301 302 467 
3 303 301 468 
3 140 554 549 
3 144 126 143 
3 145 127 144 
3 146 128 127 
3 149 131 130 
3 150 132 131 
3 152 134 151 
3 152 135 134 
3 154 136 135 
3 158 140 493 
3 159 141 158 
3 572 143 142 
3 160 144 572 
3 161 145 160 
3 162 146 145 
3 163 147 162 
3 165 148 573 
3 166 149 148 
3 168 150 149 
3 169 151 150 
3 170 151 169 
3 171 152 170 
3 480 153 171 
3 174 158 493 
3 176 159 158 
3 178 572 159 
3 179 160 178 
3 181 163 180 
3 182 164 181 
3 184 165 441 
3 185 166 165 
3 186 167 166 
3 190 480 533 
3 551 175 174 
3 194 176 175 
3 195 177 176 
3 198 180 559 
3 200 182 199 
3 443 183 201 
3 202 184 443 
3 208 190 207 
3 218 494 447 
3 210 224 469 
3 210 209 224 
3 233 449 471 
3 234 218 449 
3 238 304 223 
3 306 511 304 
3 239 240 305 
3 243 234 457 
3 246 247 307 
3 238 246 307 
3 308 305 306 
3 239 305 308 
3 249 239 308 
3 246 256 247 
3 249 308 309 
3 257 249 309 
3 310 317 318 
3 310 316 317 
3 310 309 316 
3 310 318 473 
3 257 309 310 
3 427 535 426 
3 425 502 455 
3 425 535 502 
3 320 321 24 
3 431 24 34 
3 322 34 321 
3 419 420 575 
3 267 416 418 
3 562 418 419 
3 423 1 422 
3 422 1 421 
3 1 567 421 
3 6 1 423 
3 421 567 575 
3 324 53 323 
3 323 54 325 
3 322 323 325 
3 553 53 326 
3 327 68 553 
3 293 286 512 
3 335 293 334 
3 293 335 292 
3 324 326 53 
3 436 328 329 
3 436 329 330 
3 274 436 330 
3 331 81 330 
3 327 328 68 
3 512 333 334 
3 282 332 333 
3 332 509 331 
3 278 331 509 
3 414 415 266 
3 415 267 266 
3 267 415 416 
3 414 3 413 
3 413 3 4 
3 3 414 2 
3 412 413 4 
3 411 412 12 
3 412 4 12 
3 410 411 13 
3 23 408 409 
3 410 430 409 
3 407 408 406 
3 23 406 408 
3 402 405 401 
3 407 406 403 
3 406 560 403 
3 403 404 407 
3 403 560 402 
3 273 393 435 
3 273 277 393 
3 393 394 435 
3 574 389 390 
3 388 389 284 
3 389 574 284 
3 281 390 391 
3 61 401 405 
3 401 61 400 
3 399 400 61 
3 400 399 398 
3 399 397 398 
3 388 284 291 
3 67 396 397 
3 67 395 396 
3 291 387 388 
3 387 291 296 
3 399 67 397 
3 395 74 394 
3 346 183 345 
3 183 344 345 
3 573 342 343 
3 441 573 343 
3 441 343 344 
3 201 346 347 
3 201 347 348 
3 201 348 446 
3 349 446 348 
3 349 232 446 
3 232 349 350 
3 183 346 201 
3 337 104 336 
3 292 104 438 
3 522 456 338 
3 342 573 129 
3 351 233 232 
3 350 351 232 
3 352 457 233 
3 352 233 351 
3 457 353 354 
3 243 354 355 
3 354 243 457 
3 244 243 428 
3 358 500 254 
3 356 428 355 
3 356 357 253 
3 359 360 261 
3 360 262 261 
3 361 557 262 
3 362 311 557 
3 311 362 264 
3 386 387 296 
3 296 439 440 
3 118 487 458 
3 487 384 458 
3 383 384 128 
3 383 128 147 
3 382 147 381 
3 163 381 147 
3 163 164 381 
3 380 381 164 
3 442 380 182 
3 164 182 380 
3 379 380 442 
3 442 378 379 
3 378 445 377 
3 378 442 445 
3 374 375 537 
3 374 242 373 
3 376 377 216 
3 445 216 377 
3 216 534 376 
3 263 473 364 
3 364 473 363 
3 318 264 363 
3 264 318 311 
3 429 369 476 
3 454 486 429 
3 476 370 252 
3 260 259 499 
3 366 499 365 
3 364 365 263 
3 104 292 336 
3 265 562 0 
3 266 267 265 
3 267 562 265 
3 7 1 6 
3 266 265 268 
3 3 2 10 
3 4 3 11 
3 16 6 15 
3 17 7 16 
3 18 8 17 
3 10 552 501 
3 11 10 501 
3 12 11 459 
3 13 12 459 
3 25 502 431 
3 30 19 29 
3 504 21 503 
3 22 504 33 
3 23 22 33 
3 35 431 34 
3 461 54 433 
3 433 553 69 
3 489 62 70 
3 436 75 328 
3 269 270 271 
3 270 77 271 
3 272 270 269 
3 80 79 85 
3 269 271 276 
3 85 84 89 
3 280 275 279 
3 285 286 478 
3 282 512 286 
3 315 313 287 
3 98 97 102 
3 297 290 103 
3 291 290 297 
3 291 284 290 
3 105 292 438 
3 102 101 492 
3 111 438 110 
3 106 105 112 
3 300 294 465 
3 299 300 298 
3 295 315 300 
3 492 108 116 
3 109 492 116 
3 119 110 522 
3 120 110 119 
3 298 465 302 
3 299 298 303 
3 303 298 301 
3 125 117 124 
3 118 117 125 
3 127 487 126 
3 132 119 131 
3 133 120 132 
3 134 121 133 
3 135 515 134 
3 467 466 515 
3 137 467 136 
3 126 125 143 
3 127 126 144 
3 146 127 145 
3 149 130 148 
3 150 131 149 
3 151 132 150 
3 133 132 151 
3 134 133 151 
3 154 135 153 
3 139 138 157 
3 140 139 493 
3 141 140 158 
3 144 143 572 
3 145 144 160 
3 162 145 161 
3 147 146 162 
3 166 148 165 
3 167 149 166 
3 168 149 167 
3 169 150 168 
3 152 151 170 
3 153 152 171 
3 155 154 516 
3 175 158 174 
3 176 158 175 
3 177 159 176 
3 178 159 177 
3 160 572 178 
3 162 161 180 
3 163 162 180 
3 164 163 181 
3 184 441 183 
3 185 165 184 
3 186 166 185 
3 170 169 188 
3 194 175 481 
3 195 176 194 
3 179 178 196 
3 182 181 199 
3 533 189 482 
3 199 198 215 
3 207 482 517 
3 209 208 224 
3 222 221 519 
3 511 224 304 
3 305 511 306 
3 306 304 307 
3 308 306 248 
3 250 249 258 
3 316 472 317 
3 318 317 311 
3 258 257 263 
3 260 486 521 
3 428 356 253 
3 368 429 486 
3 430 22 23 
3 535 431 502 
3 26 15 14 
3 26 16 15 
3 29 19 18 
3 23 474 406 
3 36 37 25 
3 488 27 37 
3 38 28 27 
3 39 29 28 
3 44 35 34 
3 45 36 35 
3 46 38 488 
3 433 62 461 
3 541 66 540 
3 67 66 74 
3 77 70 76 
3 78 477 73 
3 477 526 491 
3 274 81 82 
3 436 274 437 
3 437 75 436 
3 437 76 75 
3 87 507 82 
3 91 87 86 
3 282 546 509 
3 102 492 103 
3 456 110 438 
3 113 563 106 
3 114 107 113 
3 118 440 117 
3 121 112 111 
3 340 341 577 
3 155 137 136 
3 155 138 137 
3 187 168 167 
3 188 169 168 
3 196 178 177 
3 445 442 200 
3 443 184 183 
3 202 185 184 
3 203 186 185 
3 204 187 186 
3 495 195 194 
3 214 196 195 
3 216 445 444 
3 446 443 201 
3 217 202 443 
3 447 203 202 
3 219 204 494 
3 226 227 213 
3 232 217 446 
3 449 447 471 
3 449 218 447 
3 235 219 218 
3 457 234 449 
3 244 235 234 
3 250 531 239 
3 253 254 529 
3 255 245 542 
3 425 455 424 
3 424 455 5 
3 24 321 34 
3 411 12 13 
3 430 23 409 
3 13 430 410 
3 435 394 74 
3 395 67 74 
3 337 456 104 
3 456 337 338 
3 449 233 457 
3 457 352 353 
3 530 244 513 
3 386 296 440 
3 118 458 440 
3 458 385 386 
3 440 458 386 
3 384 487 128 
3 452 547 550 
3 128 146 147 
3 444 534 216 
3 454 429 485 
3 372 550 371 
3 365 499 263 
3 292 335 336 
3 26 14 25 
3 29 18 28 
3 30 20 19 
3 33 504 32 
3 474 23 33 
3 36 25 35 
3 38 27 488 
3 39 28 38 
3 40 41 39 
3 42 31 41 
3 548 514 43 
3 474 33 514 
3 44 34 322 
3 45 35 44 
3 46 488 525 
3 48 40 47 
3 461 543 55 
3 58 48 57 
3 64 58 63 
3 69 553 68 
3 70 62 69 
3 71 489 70 
3 73 64 72 
3 477 491 544 
3 526 541 491 
3 69 68 75 
3 328 75 68 
3 76 69 75 
3 435 74 541 
3 82 437 274 
3 83 76 437 
3 85 79 84 
3 87 82 86 
3 89 84 578 
3 91 86 90 
3 94 88 93 
3 102 97 101 
3 563 478 106 
3 492 101 108 
3 438 104 456 
3 112 105 111 
3 113 106 112 
3 116 108 115 
3 439 109 558 
3 440 439 117 
3 155 136 154 
3 156 138 155 
3 157 138 156 
3 493 139 157 
3 516 154 153 
3 172 156 516 
3 174 493 157 
3 187 167 186 
3 188 168 187 
3 189 170 188 
3 516 153 480 
3 192 172 191 
3 196 177 195 
3 197 179 196 
3 442 182 200 
3 203 185 202 
3 204 186 203 
3 207 533 482 
3 209 191 190 
3 210 192 209 
3 481 551 212 
3 495 194 213 
3 214 195 495 
3 483 197 214 
3 215 198 528 
3 445 200 444 
3 217 443 446 
3 447 202 217 
3 448 206 220 
3 223 208 222 
3 224 208 223 
3 569 212 523 
3 226 213 569 
3 229 483 484 
3 235 218 234 
3 450 448 496 
3 236 221 450 
3 237 519 236 
3 238 223 519 
3 244 234 243 
3 245 237 498 
3 250 239 249 
3 454 520 538 
3 252 241 485 
3 258 249 257 
3 259 250 258 
3 263 257 473 
3 367 499 366 
3 260 367 368 
3 10 2 268 
3 504 459 21 
3 54 460 325 
3 52 505 405 
3 460 461 55 
3 506 77 270 
3 506 78 73 
3 506 73 72 
3 462 279 275 
3 564 279 462 
3 462 91 564 
3 96 283 564 
3 288 283 510 
3 510 566 288 
3 464 102 103 
3 100 563 566 
3 297 103 109 
3 465 294 107 
3 114 122 466 
3 302 465 114 
3 466 467 302 
3 115 479 116 
3 121 515 122 
3 301 467 137 
3 468 301 137 
3 138 139 468 
3 142 123 554 
3 494 203 447 
3 206 517 482 
3 469 224 511 
3 469 225 523 
3 469 523 210 
3 233 471 232 
3 307 304 238 
3 472 256 262 
3 310 473 257 
3 561 402 560 
3 428 243 355 
3 534 231 537 
3 429 476 485 
3 476 252 485 
3 370 476 369 
3 260 499 367 
3 455 14 15 
3 459 11 21 
3 22 459 504 
3 100 478 563 
3 109 116 558 
3 479 115 549 
3 117 439 558 
3 487 118 126 
3 515 121 134 
3 136 467 515 
3 515 135 136 
3 140 549 139 
3 124 558 123 
3 481 175 551 
3 207 517 222 
3 528 483 229 
3 304 224 223 
3 229 484 241 
3 242 537 475 
3 453 529 498 
3 259 251 250 
3 119 522 579 
3 37 27 26 
3 47 39 38 
3 460 45 44 
3 56 46 543 
3 57 47 46 
3 54 461 460 
3 461 539 543 
3 63 57 56 
3 489 63 539 
3 491 490 544 
3 76 70 69 
3 83 77 76 
3 96 91 90 
3 109 103 492 
3 122 113 112 
3 173 157 156 
3 193 173 172 
3 205 188 187 
3 211 193 192 
3 213 194 481 
3 494 204 203 
3 220 205 204 
3 228 214 495 
3 471 447 217 
3 496 220 219 
3 497 227 226 
3 451 228 527 
3 530 496 235 
3 513 453 530 
3 256 246 245 
3 262 256 255 
3 560 406 474 
3 513 428 253 
3 487 127 128 
3 258 499 259 
3 499 258 263 
3 30 29 39 
3 31 524 41 
3 525 488 36 
3 47 38 46 
3 40 39 47 
3 41 40 49 
3 42 41 49 
3 43 42 51 
3 325 460 44 
3 55 45 460 
3 57 46 56 
3 48 47 57 
3 49 48 59 
3 489 539 62 
3 58 57 63 
3 59 58 65 
3 62 433 69 
3 64 63 72 
3 544 64 73 
3 71 70 77 
3 80 477 79 
3 83 437 82 
3 90 86 278 
3 96 90 546 
3 122 112 121 
3 173 156 172 
3 174 157 173 
3 480 190 191 
3 172 516 191 
3 193 172 192 
3 551 174 173 
3 205 187 204 
3 189 188 556 
3 482 189 556 
3 209 190 208 
3 192 191 209 
3 211 192 210 
3 197 196 214 
3 219 494 218 
3 220 204 219 
3 206 205 220 
3 222 517 221 
3 208 207 222 
3 495 213 227 
3 228 495 527 
3 483 214 228 
3 470 230 231 
3 232 471 217 
3 496 219 235 
3 448 220 496 
3 221 448 450 
3 497 226 240 
3 527 227 497 
3 451 520 484 
3 452 545 241 
3 530 235 244 
3 453 450 530 
3 236 450 453 
3 237 236 498 
3 532 497 531 
3 538 451 532 
3 452 241 252 
3 253 529 513 
3 256 245 255 
3 262 255 261 
3 21 501 20 
3 31 503 524 
3 506 71 77 
3 507 271 83 
3 276 507 87 
3 275 508 269 
3 137 138 468 
3 199 181 180 
3 511 225 469 
3 511 305 225 
3 240 225 305 
3 248 306 307 
3 247 256 472 
3 455 502 14 
3 293 512 334 
3 81 274 330 
3 513 244 428 
3 370 371 547 
3 11 501 21 
3 503 31 32 
3 33 32 514 
3 275 276 462 
3 508 272 269 
3 282 509 332 
3 515 466 122 
3 153 135 152 
3 199 180 198 
3 200 199 215 
3 221 517 448 
3 470 215 518 
3 519 221 236 
3 248 307 247 
3 241 520 485 
3 454 521 486 
3 503 20 524 
3 20 503 21 
3 524 20 30 
3 260 521 259 
3 491 541 540 
3 507 83 82 
3 90 278 509 
3 510 96 95 
3 211 523 212 
3 569 213 212 
3 529 453 513 
3 261 255 500 
3 514 32 43 
3 435 526 80 
3 444 200 470 
3 225 569 523 
3 226 569 240 
3 527 495 227 
3 484 483 228 
3 545 518 229 
3 528 229 518 
3 238 519 237 
3 498 236 453 
3 520 451 538 
3 527 532 451 
3 510 283 96 
3 210 523 211 
3 228 451 484 
3 500 358 359 
3 242 372 373 
3 548 43 51 
3 80 526 477 
3 512 282 333 
3 517 206 448 
3 254 542 529 
3 500 542 254 
3 522 339 579 
3 37 36 488 
3 530 450 496 
3 240 531 497 
3 497 532 527 
3 524 30 41 
3 55 525 45 
3 49 40 48 
3 50 42 49 
3 51 42 50 
3 432 548 51 
3 59 48 58 
3 60 50 59 
3 539 63 56 
3 65 58 64 
3 490 60 65 
3 72 489 71 
3 96 546 95 
3 516 156 155 
3 480 191 516 
3 551 173 193 
3 212 551 211 
3 231 444 470 
3 519 223 222 
3 520 241 484 
3 475 230 452 
3 531 240 239 
3 251 531 250 
3 531 251 532 
3 521 538 251 
3 532 251 538 
3 485 520 454 
3 259 521 251 
3 533 480 171 
3 231 534 444 
3 361 262 360 
3 552 268 536 
3 43 31 42 
3 52 432 505 
3 554 123 479 
3 190 533 207 
3 374 537 242 
3 454 538 521 
3 434 555 505 
3 490 540 434 
3 540 66 555 
3 542 245 498 
3 534 375 376 
3 43 32 31 
3 543 525 55 
3 477 544 73 
3 540 490 491 
3 435 541 526 
3 528 198 197 
3 518 215 528 
3 255 542 500 
3 113 122 114 
3 426 535 425 
3 475 550 242 
3 537 375 534 
3 475 537 231 
3 543 539 56 
3 544 490 65 
3 539 461 62 
3 72 63 489 
3 64 544 65 
3 545 229 241 
3 434 505 432 
3 32 504 503 
3 200 215 470 
3 509 546 90 
3 212 213 481 
3 434 432 60 
3 542 498 529 
3 50 49 59 
3 51 50 60 
3 60 59 65 
3 434 60 490 
3 66 399 555 
3 549 115 303 
3 143 125 124 
3 230 470 518 
3 309 308 248 
3 327 553 326 
3 550 547 371 
3 52 548 432 
3 290 574 464 
3 468 549 303 
3 143 124 142 
3 52 405 561 
3 100 510 95 
3 246 238 237 
3 547 452 252 
3 96 564 91 
3 103 290 464 
3 549 468 139 
3 123 558 479 
3 246 237 245 
3 230 518 545 
3 370 547 252 
3 432 51 60 
3 551 193 211 
3 528 197 483 
3 230 545 452 
3 316 309 248 
3 555 61 505 
3 540 555 434 
3 550 372 242 
3 510 100 566 
3 142 124 123 
3 362 557 361 
3 198 559 197 
3 113 107 563 
3 452 550 475 
3 433 53 553 
3 53 433 54 
3 566 287 288 
3 294 287 566 
3 566 107 294 
3 141 554 140 
3 554 141 142 
3 189 533 171 
3 285 95 546 
3 189 171 170 
3 61 555 399 
3 552 536 9 
3 231 230 475 
3 285 546 282 
3 52 561 548 
3 568 8 9 
3 557 311 317 
3 161 160 179 
3 180 161 559 
3 183 441 344 
3 39 41 30 
3 206 556 205 
3 472 557 317 
3 117 558 124 
3 556 188 205 
3 482 556 206 
3 472 262 557 
3 525 36 45 
3 536 568 9 
3 559 161 179 
3 558 116 479 
3 543 46 525 
3 559 179 197 
3 560 474 561 
3 514 561 474 
3 561 514 548 
3 19 20 501 
3 26 27 16 
3 562 419 0 
3 552 19 501 
3 37 26 25 
3 405 402 561 
3 424 5 423 
3 5 6 423 
3 314 570 312 
3 419 575 0 
3 383 147 382 
3 107 566 563 
3 455 15 5 
3 8 567 7 
3 567 8 568 
3 569 225 240 
3 98 93 565 
3 313 570 314 
3 289 570 313 
3 570 289 565 
3 97 565 289 
3 98 464 571 
3 94 571 576 
3 565 92 570 
3 312 570 92 
3 98 565 97 
3 573 148 129 
3 159 572 141 
3 568 575 567 
3 421 575 420 
3 571 94 98 
3 572 142 141 
3 165 573 441 
3 575 568 0 
3 390 281 574 
3 464 574 571 
3 277 392 393 
3 463 391 392 
3 342 129 341 
3 129 130 577 
3 463 392 277 
3 94 93 98 
3 571 574 281 
3 89 463 277 
3 85 89 277 
3 89 576 463 
3 129 577 341 
3 576 578 94 
3 463 576 281 
3 576 571 281 
3 129 148 130 
3 577 130 579 
3 89 578 576 
3 578 84 88 
3 578 88 94 
3 579 130 131 
3 577 579 339 
3 577 339 340 
3 316 248 247 
3 472 316 247 
